<svg width="24px" height="24px" viewBox="0 0 24 24" version="1.1" xmlns="http://www.w3.org/2000/svg" xmlns:xlink="http://www.w3.org/1999/xlink">
    <g id="3.0-Icons-/-Solution&amp;Asset-Details-/-Solid/-Attachments-/-Small---Copy" stroke="none" stroke-width="1" fill="none" fill-rule="evenodd">
        <rect id="bounds" x="0" y="0" width="24" height="24"></rect>
        <path d="M9,0 C10.6568542,0 12,1.34314575 12,3 L12,4 L14.7122071,4 C14.9490834,4 15.1782687,4.0840868 15.3589385,4.23728216 L20.6467314,8.72096074 C20.8708096,8.91096335 21,9.18988952 21,9.48367858 L21,22 C21,23.1045695 20.1045695,24 19,24 L5,24 C3.8954305,24 3,23.1045695 3,22 L3,6 C3,4.8954305 3.8954305,4 5,4 L6,4 L6,7 C6,8.59768088 7.24891996,9.90366088 8.82372721,9.99490731 L9,10 C10.5976809,10 11.9036609,8.75108004 11.9949073,7.17627279 L12,7 L12,6 L10,6 L10,7 L9.99327227,7.11662113 C9.93550716,7.61395981 9.51283584,8 9,8 C8.48716416,8 8.06449284,7.61395981 8.00672773,7.11662113 L8,7 L8,4 L10,4 L10,3 C10,2.44771525 9.55228475,2 9,2 C8.48716416,2 8.06449284,2.38604019 8.00672773,2.88337887 L8,3 L8,4 L6,4 L6,3 C6,1.34314575 7.34314575,0 9,0 Z M16,18 L8,18 C7.44771525,18 7,18.4477153 7,19 C7,19.5128358 7.38604019,19.9355072 7.88337887,19.9932723 L8,20 L16,20 L16,20 C16.5522847,20 17,19.5522847 17,19 C17,18.4477153 16.5522847,18 16,18 Z M16,13 L8,13 C7.44771525,13 7,13.4477153 7,14 C7,14.5128358 7.38604019,14.9355072 7.88337887,14.9932723 L8,15 L16,15 C16.5522847,15 17,14.5522847 17,14 C17,13.4477153 16.5522847,13 16,13 Z" id="Combined-Shape" fill="#313B71"></path>
    </g>
</svg>
