<svg width="24px" height="24px" viewBox="0 0 24 24" version="1.1" xmlns="http://www.w3.org/2000/svg" xmlns:xlink="http://www.w3.org/1999/xlink">
    <g id="3.0-Icons-/-Solution&amp;Asset-Details-/-Solid/-Links/-Small--" stroke="none" stroke-width="1" fill="none" fill-rule="evenodd">
        <path d="M20,2 C21.1045695,2 22,2.8954305 22,4 L22,20 C22,21.1045695 21.1045695,22 20,22 L4,22 C2.8954305,22 2,21.1045695 2,20 L2,4 C2,2.8954305 2.8954305,2 4,2 L20,2 Z M9.25,5 L5.875,5 C5.39175084,5 5,5.39175084 5,5.875 L5,5.875 L5,18.125 C5,18.6082492 5.39175084,19 5.875,19 L5.875,19 L18.125,19 C18.6082492,19 19,18.6082492 19,18.125 L19,18.125 L19,14.75 L18.9941132,14.6479565 C18.9435688,14.2127852 18.5737314,13.875 18.125,13.875 L18.125,13.875 L18.0229565,13.8808868 C17.5877852,13.9314312 17.25,14.3012686 17.25,14.75 L17.25,14.75 L17.25,17.25 L6.75,17.25 L6.75,6.75 L9.25,6.75 L9.35204348,6.74411324 C9.78721483,6.69356877 10.125,6.32373136 10.125,5.875 C10.125,5.39175084 9.73324916,5 9.25,5 L9.25,5 Z M18.1213203,5 L14.1213203,5 L14.0046992,5.00672773 C13.5456174,5.06004937 13.1813697,5.42429701 13.1280481,5.88337887 L13.1213203,6 L13.1280481,6.11662113 C13.1813697,6.57570299 13.5456174,6.93995063 14.0046992,6.99327227 L14.1213203,7 L15.7133203,7 L15.6568542,7.05025253 L11.4142136,11.2928932 C11.0236893,11.6834175 11.0236893,12.3165825 11.4142136,12.7071068 C11.7746975,13.0675907 12.3419286,13.0953203 12.7342198,12.7902954 L12.8284271,12.7071068 L17.0710678,8.46446609 L17.1231666,8.40828374 L17.1213203,10 L17.1280481,10.1166211 C17.1858132,10.6139598 17.6084845,11 18.1213203,11 C18.6341562,11 19.0568275,10.6139598 19.1145926,10.1166211 L19.1213203,10 L19.1213203,6 L19.1145926,5.88337887 C19.0568275,5.38604019 18.6341562,5 18.1213203,5 Z" id="Combined-Shape" fill="#313B71"></path>
    </g>
</svg>
