<svg width="24px" height="24px" viewBox="0 0 24 24" version="1.1" xmlns="http://www.w3.org/2000/svg" xmlns:xlink="http://www.w3.org/1999/xlink">
    <g id="3.0-Icons-/-Solution&amp;Asset-Details-/-Solid/-Tags-/-Small-" stroke="none" stroke-width="1" fill="none" fill-rule="evenodd">
        <rect id="bounds" x="0" y="0" width="24" height="24"></rect>
        <path d="M13.1631794,0.835767139 L20.1653654,5.85613608 C20.6892712,6.23176171 21,6.83688689 21,7.48153558 L21,22 C21,23.1045695 20.1045695,24 19,24 L5,24 C3.8954305,24 3,23.1045695 3,22 L3,7.48120164 C3,6.83673943 3.31055008,6.23176556 3.83420509,5.85611018 L10.8320192,0.836075178 C11.5286798,0.336310435 12.4663868,0.336186526 13.1631794,0.835767139 Z M16,18 L8,18 C7.44771525,18 7,18.4477153 7,19 C7,19.5522847 7.44771525,20 8,20 L8,20 L16,20 C16.5522847,20 17,19.5522847 17,19 C17,18.4477153 16.5522847,18 16,18 L16,18 Z M16,13 L8,13 C7.44771525,13 7,13.4477153 7,14 C7,14.5522847 7.44771525,15 8,15 L8,15 L16,15 C16.5522847,15 17,14.5522847 17,14 C17,13.4477153 16.5522847,13 16,13 L16,13 Z M12,5 C10.8954305,5 10,5.8954305 10,7 C10,8.1045695 10.8954305,9 12,9 C13.1045695,9 14,8.1045695 14,7 C14,5.8954305 13.1045695,5 12,5 Z" id="Combined-Shape" fill="#313B71"></path>
        <g id="Group" transform="translate(12.000000, 19.000000) rotate(-180.000000) translate(-12.000000, -19.000000) translate(6.500000, 17.500000)"></g>
    </g>
</svg>
