<svg width="12" height="20" viewBox="0 0 12 20" fill="none" xmlns="http://www.w3.org/2000/svg">
<path d="M5.99994 0.5C2.97157 0.5 0.500081 2.99023 0.500081 6.04157C0.497067 6.25335 0.578457 6.45767 0.726164 6.6087C0.873872 6.75946 1.07529 6.8445 1.28575 6.8445C1.49593 6.8445 1.69762 6.75946 1.84533 6.6087C1.99304 6.45767 2.07442 6.25335 2.07141 6.04157C2.07141 3.84595 3.82089 2.0832 5.99999 2.0832C8.17908 2.0832 9.92856 3.84595 9.92856 6.04157C9.92856 7.2529 9.46982 8.11879 8.66419 9.01034C7.85855 9.90189 6.69962 10.7465 5.49664 11.7566C5.31495 11.9093 5.21109 12.1365 5.21438 12.3751V14.75C5.21137 14.962 5.29276 15.1661 5.44046 15.3171C5.58817 15.4681 5.78959 15.5529 6.00005 15.5529C6.21051 15.5529 6.41192 15.4681 6.55963 15.3171C6.70734 15.1661 6.78872 14.962 6.78571 14.75V12.7583C7.85169 11.88 8.93415 11.0525 9.81822 10.0742C10.7804 9.00928 11.5 7.69107 11.5 6.04157C11.5 2.99023 9.02831 0.5 5.99994 0.5ZM5.99994 17.1251C5.34911 17.1251 4.8213 17.6566 4.8213 18.3127C4.8213 18.9685 5.34909 19.5 5.99994 19.5C6.65079 19.5 7.17858 18.9685 7.17858 18.3127C7.17858 17.6567 6.65079 17.1251 5.99994 17.1251Z" fill="white"/>
</svg>
