<svg width="20" height="18" viewBox="0 0 20 18" fill="none" xmlns="http://www.w3.org/2000/svg">
<path d="M0.86409 6.86806L1.33966 7.02244C1.35812 6.96558 1.40697 6.92485 1.46456 6.91647L1.4646 6.91647L7.00583 6.10991L7.2661 6.07203L7.38234 5.8361L9.86004 0.806863C9.8665 0.793758 9.9018 0.75 9.99897 0.75C10.0961 0.75 10.1313 0.793749 10.1377 0.806727L10.1377 0.806738L12.6155 5.8361L12.7317 6.07202L12.992 6.10991L18.5332 6.91658L18.5333 6.91659C18.5871 6.92442 18.6333 6.96052 18.6542 7.01161L18.6577 7.02241C18.6761 7.07928 18.6608 7.14128 18.6183 7.183C18.6182 7.18305 18.6182 7.1831 18.6181 7.18315L14.6089 11.0976L14.4211 11.281L14.4654 11.5397L15.412 17.067C15.4221 17.1263 15.3974 17.186 15.3499 17.2206L15.6443 17.6247M0.86409 6.86806L1.33972 7.02224C1.32132 7.07903 1.3366 7.14129 1.37926 7.18314C1.37931 7.18319 1.37935 7.18324 1.3794 7.18329L5.38843 11.0976L5.57626 11.281L5.53195 11.5397L4.58536 17.0672C4.57534 17.126 4.5996 17.1854 4.64696 17.2202C4.69571 17.2555 4.75846 17.2593 4.80926 17.2324L4.80964 17.2322L9.7657 14.6221L9.99869 14.4994L10.2317 14.6221L15.1873 17.232C15.2395 17.2595 15.3025 17.255 15.3504 17.2202L15.6443 17.6247M0.86409 6.86806C0.787066 7.10567 0.851375 7.36613 1.02968 7.54063L1.39258 6.42168C1.14602 6.45755 0.941128 6.63075 0.86409 6.86806ZM15.6443 17.6247C15.8457 17.478 15.9467 17.2291 15.9049 16.9832L14.9547 17.6746C15.1748 17.7903 15.442 17.7717 15.6443 17.6247Z" stroke="#F18E3B"/>
</svg>
