<svg width="32" height="32" viewBox="0 0 32 32" fill="none" xmlns="http://www.w3.org/2000/svg">
<circle cx="16" cy="16" r="16" fill="#E1E6FF"/>
<path d="M9.15621 24C8.53395 24 8.09319 23.7111 7.83392 23.1333C7.57465 22.5556 7.65984 22.0296 8.08949 21.5556L13.6009 15.3333V9.33333H12.4453C12.2526 9.33333 12.0934 9.27037 11.9675 9.14444C11.8415 9.01852 11.7786 8.85926 11.7786 8.66667C11.7786 8.47407 11.8415 8.31481 11.9675 8.18889C12.0934 8.06296 12.2526 8 12.4453 8H19.5567C19.7493 8 19.9086 8.06296 20.0345 8.18889C20.1604 8.31481 20.2234 8.47407 20.2234 8.66667C20.2234 8.85926 20.1604 9.01852 20.0345 9.14444C19.9086 9.27037 19.7493 9.33333 19.5567 9.33333H18.4011V15.3333L23.9125 21.5556C24.3421 22.0296 24.4273 22.5556 24.168 23.1333C23.9088 23.7111 23.468 24 22.8457 24H9.15621Z" fill="#313B71"/>
</svg>
