<svg width="161" height="64" viewBox="0 0 161 64" fill="none" xmlns="http://www.w3.org/2000/svg">
<mask id="mask0_864_14525" style="mask-type:luminance" maskUnits="userSpaceOnUse" x="23" y="5" width="48" height="59">
<path fill-rule="evenodd" clip-rule="evenodd" d="M23.8814 5.35742H70.8507V63.8761H23.8814V5.35742Z" fill="white"/>
</mask>
<g mask="url(#mask0_864_14525)">
<path fill-rule="evenodd" clip-rule="evenodd" d="M30.0934 31.5375L30.1222 42.2792C30.1222 45.0106 31.4413 46.3587 34.0485 46.3587H35.1904C37.7997 46.3587 39.1167 45.0106 39.1167 42.2792V36.9961H45.1246V42.015C45.1246 48.9125 41.7837 52.4346 35.1615 52.4346H33.8424C27.2203 52.4346 23.8814 48.9435 23.8814 42.8366V16.5698C23.8814 8.85058 27.2203 5.35742 33.8424 5.35742H35.1615C41.7837 5.35742 45.1246 8.85058 45.1246 15.7461L45.0958 31.5086H30.0934V31.5375ZM30.0934 25.2862H38.9126V15.5128C38.9126 12.7835 37.6224 11.4023 34.9863 11.4023H33.9888C31.3815 11.4023 30.0625 12.7835 30.0625 15.5128V25.2862H30.0934Z" fill="#222222"/>
<path fill-rule="evenodd" clip-rule="evenodd" d="M49.1375 5.88584H55.3495V8.87939C56.8149 7.26494 59.3356 5.38623 62.9383 5.38623C68.2434 5.38623 70.8507 9.05488 70.8507 14.5155V43.3362C70.8507 48.7968 68.2434 52.4655 62.9383 52.4655C59.3356 52.4655 56.8149 50.6735 55.3495 49.1478V63.9999H49.1375V5.88584ZM55.3495 43.8956C57.0499 45.4213 59.012 46.2719 61.0648 46.2719C63.3505 46.2719 64.6675 45.1571 64.6675 42.5145V15.2195C64.6675 12.5769 63.3505 11.4621 61.0648 11.4621C59.012 11.4621 57.0499 12.3127 55.3495 13.8404V43.8956Z" fill="#222222"/>
</g>
<path fill-rule="evenodd" clip-rule="evenodd" d="M74.6018 35.8812C74.6018 30.1584 76.3887 27.8688 81.1353 26.1676L89.4558 23.1741V15.5127C89.4558 12.7834 88.1387 11.3444 85.5315 11.3444H84.534C81.9267 11.3444 80.6077 12.7834 80.6077 15.5127V22.0283H74.5709V15.7769C74.5709 8.87939 77.9139 5.38623 84.534 5.38623H85.7067C92.3289 5.38623 95.6698 8.87939 95.6698 15.7769V51.9369H89.4558V49.0301C87.7575 50.7333 85.4429 52.4345 81.867 52.4345C76.8875 52.4345 74.6018 49.443 74.6018 44.3354V35.8812ZM89.4558 44.1599V28.9837L83.8312 31.2154C81.5454 32.1547 80.8138 33.3584 80.8138 35.9989V42.9852C80.8138 45.2149 81.867 46.3008 83.8312 46.3008C85.7067 46.3008 87.4359 45.6257 89.4558 44.1599Z" fill="#222222"/>
<path fill-rule="evenodd" clip-rule="evenodd" d="M120.751 51.937H114.541V14.8377C114.541 12.5481 113.483 11.5221 111.61 11.5221C109.91 11.5221 108.092 12.1951 105.895 13.8096V51.937H99.6847V5.88594H105.895V8.87949C107.713 7.08955 110.056 5.35742 113.483 5.35742C116.678 5.35742 118.787 6.73652 119.93 9.11484C122.158 7.14736 124.766 5.35742 128.34 5.35742C133.146 5.35742 135.607 8.43974 135.607 13.4586V51.9081H129.395V14.8377C129.395 12.5481 128.34 11.5221 126.466 11.5221C124.766 11.5221 122.948 12.1951 120.751 13.8096V51.937Z" fill="#222222"/>
<path fill-rule="evenodd" clip-rule="evenodd" d="M0 25.9614V32.1838L15.9402 47.8287V39.1701L5.50919 28.9838L15.9402 18.5952V10.1121L0 25.9614Z" fill="#23A2BC"/>
<path fill-rule="evenodd" clip-rule="evenodd" d="M143.488 18.5952L153.919 28.9838L143.488 39.199V47.8287L159.428 32.1838V25.9614L143.488 10.1121V18.5952Z" fill="#23A2BC"/>
</svg>
