<svg width="142" height="103" viewBox="0 0 142 103" fill="none" xmlns="http://www.w3.org/2000/svg">
<rect y="21.8955" width="91.3566" height="16.8882" rx="8.44411" fill="#F5F7FA"/>
<rect x="40.7133" y="29.8433" width="91.3566" height="16.8882" rx="8.44411" fill="#F5F7FA"/>
<rect x="5.95801" y="47.7246" width="91.3566" height="21.8554" rx="10.9277" fill="#F5F7FA"/>
<rect x="37.7343" y="51.6982" width="91.3566" height="9.93425" rx="4.96713" fill="#F5F7FA"/>
<rect x="50.6433" y="61.6328" width="91.3566" height="9.93425" rx="4.96713" fill="#F5F7FA"/>
<rect x="15.8881" y="11.9614" width="91.3566" height="9.93425" rx="4.96713" fill="#F5F7FA"/>
<rect x="14.8951" y="68.5864" width="91.3566" height="16.8882" rx="8.44411" fill="#F5F7FA"/>
<g filter="url(#filter0_d_473_23251)">
<mask id="mask0_473_23251" style="mask-type:alpha" maskUnits="userSpaceOnUse" x="23" y="17" width="94" height="72">
<path d="M23.8386 17.4077L116.092 17.4288L116.135 82.4914C116.138 86.0847 113.845 88.9972 111.015 88.9965L29.0116 88.9777C26.181 88.9771 23.8845 86.0636 23.8821 82.4703L23.8386 17.4077Z" fill="white"/>
</mask>
<g mask="url(#mask0_473_23251)">
<path d="M23.8365 17.4077L108.736 17.4272L108.778 79.4873C108.78 82.9147 106.67 85.6928 104.065 85.6922L28.5987 85.6748C25.9938 85.6742 23.8802 82.8952 23.8779 79.4678L23.8365 17.4077Z" fill="black"/>
<path d="M23.8365 17.4077L116.807 17.4291L116.85 82.1569C116.853 85.7317 114.542 88.6292 111.689 88.6285L29.0491 88.6095C26.1965 88.6089 23.8821 85.7104 23.8797 82.1356L23.8365 17.4077Z" fill="white"/>
</g>
<path d="M28.9598 6.00819L110.992 6.02198C113.824 6.02246 116.121 8.11672 116.122 10.6996L116.126 17.7148L23.8398 17.6993L23.8356 10.6841C23.834 8.1012 26.1282 6.00771 28.9598 6.00819Z" fill="#D1EEE8"/>
</g>
<rect x="32.0677" y="21.939" width="75.9482" height="30.0387" rx="2" fill="#F5F7FA"/>
<rect x="32.0676" y="62.5801" width="61.8183" height="3.53396" rx="1.76698" fill="#F5F7FA"/>
<rect x="32.0675" y="68.7637" width="31.3507" height="3.53396" rx="1.76698" fill="#F5F7FA"/>
<rect x="32.0665" y="77.5986" width="16.7793" height="4.41745" rx="1" fill="#1DA488"/>
<rect x="50.6705" y="78.0986" width="15.3377" height="3.41746" rx="0.5" stroke="#1DA488"/>
<ellipse cx="33.6762" cy="58.0042" rx="1.60854" ry="1.60921" fill="#1DA488"/>
<ellipse cx="38.5017" cy="58.0042" rx="1.60854" ry="1.60921" fill="#F5F7FA"/>
<ellipse cx="43.3278" cy="58.0042" rx="1.60854" ry="1.60921" fill="#F5F7FA"/>
<ellipse cx="48.1531" cy="58.0042" rx="1.60854" ry="1.60921" fill="#F5F7FA"/>
<path fill-rule="evenodd" clip-rule="evenodd" d="M69.7873 45.3537C71.9447 45.3541 73.6943 42.8657 73.6939 42.2549C73.6935 41.6441 71.8963 42.6287 69.7389 42.6283C67.5814 42.6279 65.7829 41.6427 65.7833 42.2535C65.7837 42.8643 67.6298 45.3533 69.7873 45.3537Z" fill="#4E545C"/>
<path fill-rule="evenodd" clip-rule="evenodd" d="M64.0918 29.788L64.2872 29.7904C65.0004 29.7991 65.5771 30.3756 65.587 31.0897L65.6353 34.5973C65.6453 35.3242 65.0648 35.9211 64.3388 35.9305C64.3278 35.9306 64.3168 35.9306 64.3058 35.9305L64.1104 35.9281C63.3972 35.9193 62.8205 35.3428 62.8106 34.6288L62.7623 31.1212C62.7523 30.3942 63.3328 29.7973 64.0588 29.788C64.0698 29.7878 64.0808 29.7878 64.0918 29.788Z" fill="#4E545C"/>
<path fill-rule="evenodd" clip-rule="evenodd" d="M75.4629 29.7714L75.6583 29.7738C76.3715 29.7825 76.9482 30.359 76.9581 31.0731L77.0064 34.5807C77.0164 35.3076 76.4359 35.9045 75.7099 35.9139C75.6989 35.914 75.6879 35.914 75.6769 35.9139L75.4815 35.9115C74.7683 35.9027 74.1916 35.3262 74.1817 34.6122L74.1334 31.1046C74.1234 30.3776 74.7038 29.7807 75.4299 29.7714C75.4409 29.7712 75.4519 29.7712 75.4629 29.7714Z" fill="#4E545C"/>
<defs>
<filter id="filter0_d_473_23251" x="13.8356" y="0.00830078" width="112.3" height="102.62" filterUnits="userSpaceOnUse" color-interpolation-filters="sRGB">
<feFlood flood-opacity="0" result="BackgroundImageFix"/>
<feColorMatrix in="SourceAlpha" type="matrix" values="0 0 0 0 0 0 0 0 0 0 0 0 0 0 0 0 0 0 127 0" result="hardAlpha"/>
<feOffset dy="4"/>
<feGaussianBlur stdDeviation="5"/>
<feComposite in2="hardAlpha" operator="out"/>
<feColorMatrix type="matrix" values="0 0 0 0 0.0335736 0 0 0 0 0.0303472 0 0 0 0 0.191667 0 0 0 0.1 0"/>
<feBlend mode="normal" in2="BackgroundImageFix" result="effect1_dropShadow_473_23251"/>
<feBlend mode="normal" in="SourceGraphic" in2="effect1_dropShadow_473_23251" result="shape"/>
</filter>
</defs>
</svg>
