<svg width="1260" height="60" viewBox="0 0 1260 60" fill="none" xmlns="http://www.w3.org/2000/svg">
<path d="M321.22 12.622C317.51 13.6749 314.036 15.4278 310.986 17.7862C303.766 23.1126 297.376 29.5303 287.764 29.4719C278.859 29.413 270.578 24.9323 262.617 21.394C255.367 18.2119 247.996 15.6649 239.992 15.6379C232.231 15.6252 224.594 17.5985 217.811 21.3701C217.521 21.5343 217.194 21.6996 216.923 21.8759C209.162 12.5633 192.65 12.7858 181.807 14.8755C173.339 16.5102 165.287 19.8355 158.133 24.6526C150.643 29.7111 144.69 38.3694 134.703 37.4264C129.058 36.8974 122.98 34.0651 117.899 30.3361C119.206 28.7555 120.299 27.0091 121.149 25.1423C123.369 20.258 123.641 14.3566 120.371 9.83392C117.491 5.85125 112.02 5.05481 108.627 8.90099C104.741 13.2923 105.787 19.546 109.096 23.9049C111.026 26.3842 113.283 28.5899 115.806 30.4617L115.526 30.7571C110.046 36.3367 101.993 39.3144 94.2562 39.4241C75.1735 39.6912 59.4924 26.4951 43.3976 18.1155C32.7236 12.5922 20.1522 8.62202 8.33339 11.1825L8.37204 12.608C18.6938 10.451 30.4174 13.3805 39.8009 17.9252C55.4673 25.503 69.5675 37.622 87.2357 40.3402C97.6092 41.9361 109.731 39.2297 116.989 31.3995C120.245 33.708 123.765 35.6205 127.474 37.0968C134.703 39.9479 141.822 39.4483 148.056 34.6616C151.322 32.1391 154.215 29.2075 157.585 26.8073C168.638 18.9245 181.952 14.842 195.524 15.1731C202.607 15.394 210.853 17.2164 215.637 22.6616C210.646 25.7565 205 30.4897 205.258 36.5644C205.476 41.8269 210.518 45.9511 215.497 43.1194C220.858 40.0645 221.861 32.9732 220.043 27.5665C219.494 25.9209 218.706 24.3653 217.703 22.9497C220.232 21.5635 222.873 20.393 225.598 19.4508C234.633 16.3741 244.425 16.3283 253.488 19.3202C262.535 22.2972 270.784 27.4545 280.052 29.8061C288.192 31.8692 295.86 30.6289 302.801 25.8356C308.328 22.0066 314.418 15.8411 321.249 13.9227L321.22 12.622ZM110.809 23.8397C107.944 20.4198 106.324 15.8273 108.512 11.5946C110.7 7.36188 115.663 6.48273 118.765 10.1465C123.691 15.9633 121.122 24.142 116.693 29.4678C114.545 27.7971 112.573 25.9113 110.809 23.8397ZM218.425 27.1786C219.767 30.521 220.025 34.4934 218.457 37.8146C217.468 39.9061 215.622 41.9584 213.291 42.5347C210.059 43.3294 207.563 40.8129 206.87 37.8659C205.491 31.9968 210.726 27.0683 216.496 23.6645C217.292 24.7475 217.94 25.9313 218.425 27.1849L218.425 27.1786Z" fill="white" fill-opacity="0.08"/>
<path d="M30.7592 16.2868C30.3859 15.6713 27.6588 15.0132 27.049 15.3676C27.049 15.3676 24.8021 16.4921 24.4299 17.9976C24.0578 19.5031 24.2808 25.8789 26.3089 26.3745C28.337 26.8701 31.4903 21.3287 31.8562 19.8234C32.2221 18.3181 30.7592 16.2868 30.7592 16.2868Z" fill="#AB0F0F"/>
<path d="M30.7927 13.5135L29.5331 13.2098L28.2733 12.8999C27.7696 12.7821 27.5829 13.05 27.5829 13.05L27.0201 15.3677L28.8784 15.8304L30.7302 16.287L31.2929 13.963C31.2929 13.963 31.2903 13.6377 30.7927 13.5135Z" fill="white" fill-opacity="0.08"/>
<path d="M25.2527 19.7082C25.3237 18.1734 25.4668 16.5302 27.3646 16.1409C28.1365 15.9841 28.9389 16.101 29.634 16.4714C30.3291 16.8419 30.8735 17.4429 31.1737 18.1712C31.8878 19.8161 31.2115 21.4112 30.2342 22.7516C29.4381 23.8493 27.7129 26.2174 26.3389 24.2337C25.5335 22.8674 25.1552 21.2913 25.2527 19.7082Z" fill="#D71E17"/>
<path d="M27.5875 18.9127C28.0666 17.4293 29.6829 16.3532 30.7575 18.6015C31.3604 19.8365 30.8237 22.1973 28.9641 21.6846C27.4949 21.2677 27.2474 19.9856 27.5875 18.9127Z" fill="#EC563D"/>
<path d="M30.6526 14.4442C31.4123 15.9253 28.684 16.3746 28.8652 14.7492C28.9085 14.5602 29.0068 14.3882 29.1478 14.2549C29.2887 14.1217 29.466 14.0332 29.6572 14.0006C29.8484 13.9679 30.0449 13.9927 30.2221 14.0716C30.3993 14.1506 30.5491 14.2802 30.6526 14.4442Z" fill="#E1E6FF"/>
<path d="M101.146 42.1399C100.512 41.8067 97.8237 42.5866 97.4713 43.2031C97.4713 43.2031 96.0826 45.293 96.5172 46.7828C96.9518 48.2726 100.321 53.6873 102.32 53.1075C104.319 52.5277 104.29 46.1716 103.861 44.6566C103.432 43.1416 101.146 42.1399 101.146 42.1399Z" fill="#EFDB29"/>
<path d="M99.7598 39.7244L98.5182 40.0834L97.2764 40.4362C96.7798 40.5811 96.7574 40.907 96.7574 40.907L97.4453 43.2034L99.3079 42.6711L101.171 42.1388L100.483 39.8425C100.483 39.8425 100.256 39.5796 99.7598 39.7244Z" fill="white" fill-opacity="0.08"/>
<path d="M98.0446 47.8545C97.3444 46.4907 96.6407 44.9957 98.1012 43.711C98.69 43.1816 99.4455 42.8751 100.237 42.8445C101.028 42.8139 101.805 43.0612 102.433 43.5435C103.87 44.6182 104.079 46.3332 103.904 47.9834C103.76 49.3326 103.451 52.2441 101.27 51.2145C99.8838 50.4417 98.7603 49.2715 98.0446 47.8545Z" fill="#FCE72C"/>
<path d="M99.6816 46.0031C99.3525 44.4791 100.219 42.7475 102.272 44.1497C103.419 44.932 104.12 47.228 102.262 47.7101C100.777 48.0882 99.9177 47.0979 99.6816 46.0031Z" fill="#FFD685"/>
<path d="M100.105 40.598C101.506 41.5048 99.3442 43.2277 98.7037 41.756C98.6456 41.5698 98.6442 41.3706 98.6997 41.1837C98.7553 40.9968 98.8652 40.8306 99.0155 40.7064C99.1659 40.5822 99.3498 40.5056 99.5438 40.4863C99.7378 40.467 99.9332 40.5059 100.105 40.598Z" fill="#E1E6FF"/>
<path d="M128.886 40.1739C128.612 39.5556 126.029 38.4181 125.366 38.6739C125.366 38.6739 122.971 39.4208 122.366 40.845C121.76 42.2692 120.955 48.5978 122.873 49.4155C124.791 50.2332 128.799 45.2693 129.404 43.8451C130.01 42.4209 128.886 40.1739 128.886 40.1739Z" fill="#AB0F0F"/>
<path d="M129.359 37.4457L128.181 36.9395L127.004 36.4396C126.529 36.2398 126.304 36.4586 126.304 36.4586L125.362 38.6615L127.122 39.4084L128.882 40.1615L129.823 37.9587C129.823 37.9587 129.808 37.6462 129.359 37.4457Z" fill="white" fill-opacity="0.08"/>
<path d="M122.892 42.6643C123.214 41.1665 123.615 39.5601 125.552 39.4638C126.34 39.4319 127.115 39.6755 127.743 40.1529C128.372 40.6302 128.814 41.3115 128.995 42.0796C129.43 43.8135 128.512 45.2774 127.33 46.4482C126.368 47.4003 124.284 49.4652 123.249 47.2847C122.676 45.8135 122.552 44.2059 122.892 42.6643Z" fill="#D71E17"/>
<path d="M125.334 42.2597C126.04 40.8703 127.777 40.0786 128.511 42.4551C128.904 43.7896 127.982 46.0233 126.252 45.213C124.858 44.5688 124.822 43.2559 125.334 42.2597Z" fill="#EC563D"/>
<path d="M129.069 38.3361C129.587 39.9237 126.821 39.8924 127.255 38.354C127.327 38.1739 127.452 38.0194 127.612 37.91C127.772 37.8006 127.962 37.7412 128.156 37.7393C128.35 37.7374 128.54 37.793 128.703 37.8993C128.865 38.0055 128.993 38.1575 129.069 38.3361Z" fill="#E1E6FF"/>
<path d="M201.987 18.2005C201.565 17.6301 198.799 17.1545 198.215 17.552C198.215 17.552 196.054 18.8306 195.789 20.3582C195.524 21.8858 196.203 28.2305 198.258 28.5815C200.313 28.9324 203.061 23.1831 203.326 21.6555C203.591 20.1279 201.987 18.2005 201.987 18.2005Z" fill="#AB0F0F"/>
<path d="M201.819 15.4333L200.562 15.2171L199.305 15.0009C198.796 14.9146 198.634 15.1943 198.634 15.1943L198.229 17.5516L200.115 17.8759L202.001 18.2001L202.4 15.843C202.4 15.843 202.329 15.5259 201.819 15.4333Z" fill="white" fill-opacity="0.08"/>
<path d="M196.732 22.0104C196.69 20.4723 196.714 18.8199 198.584 18.3C199.345 18.0877 200.157 18.1484 200.879 18.4716C201.601 18.7948 202.187 19.3602 202.536 20.0698C203.361 21.6617 202.805 23.2973 201.923 24.7102C201.204 25.8622 199.657 28.3505 198.148 26.4644C197.24 25.1553 196.747 23.6034 196.732 22.0104Z" fill="#D71E17"/>
<path d="M199.008 21.0481C199.374 19.5366 200.912 18.3561 202.122 20.5132C202.812 21.7458 202.438 24.096 200.557 23.7153C199.084 23.4048 198.738 22.1629 199.008 21.0481Z" fill="#EC563D"/>
<path d="M201.739 16.3671C202.603 17.7952 199.917 18.4061 199.974 16.8029C200.005 16.6117 200.091 16.4338 200.223 16.2914C200.354 16.1489 200.524 16.0482 200.712 16.0018C200.9 15.9554 201.098 15.9652 201.28 16.0302C201.463 16.0951 201.622 16.2123 201.739 16.3671Z" fill="#E1E6FF"/>
<path d="M272.17 29.5185C271.927 28.8556 269.398 27.6353 268.728 27.8599C268.728 27.8599 266.299 28.4952 265.623 29.89C264.948 31.2848 263.854 37.5712 265.737 38.4774C267.62 39.3837 271.845 34.6078 272.514 33.2069C273.183 31.806 272.17 29.5185 272.17 29.5185Z" fill="#AB0F0F"/>
<path d="M272.796 26.8182L271.642 26.2614L270.489 25.7045C270.02 25.4795 269.788 25.7235 269.788 25.7235L268.752 27.8789L270.47 28.7083L272.194 29.5375L273.231 27.3821C273.231 27.3821 273.234 27.0253 272.796 26.8182Z" fill="white" fill-opacity="0.08"/>
<path d="M266.046 31.7376C266.437 30.2504 266.907 28.6672 268.854 28.6833C269.642 28.6862 270.404 28.9646 271.009 29.4704C271.613 29.9762 272.022 30.6775 272.164 31.4528C272.524 33.2075 271.536 34.6295 270.303 35.7391C269.295 36.6487 267.121 38.6159 266.191 36.3887C265.678 34.8879 265.627 33.2675 266.046 31.7376Z" fill="#D71E17"/>
<path d="M268.541 31.4391C269.312 30.0855 271.113 29.3735 271.679 31.7857C272.01 33.1345 270.999 35.3205 269.298 34.4343C267.977 33.7256 267.942 32.4189 268.541 31.4391Z" fill="#EC563D"/>
<path d="M272.446 27.6719C272.884 29.2868 270.126 29.1301 270.629 27.6085C270.71 27.4309 270.841 27.2811 271.006 27.1783C271.172 27.0754 271.364 27.0241 271.559 27.0309C271.754 27.0377 271.942 27.1023 272.1 27.2164C272.258 27.3306 272.378 27.4891 272.446 27.6719Z" fill="#E1E6FF"/>
<path d="M234.738 13.5897C235.288 14.0315 238.084 13.7617 238.544 13.2237C238.544 13.2237 240.291 11.4244 240.143 9.88299C239.995 8.34158 237.682 2.39782 235.603 2.59182C233.525 2.78582 232.381 9.06733 232.53 10.615C232.678 12.1626 234.738 13.5897 234.738 13.5897Z" fill="#EFDB29"/>
<path d="M235.628 16.2133L236.876 16.0919L238.156 15.9696C238.668 15.9244 238.772 15.6088 238.772 15.6088L238.544 13.2248L236.641 13.4078L234.738 13.5908L234.965 15.9685C234.965 15.9685 235.11 16.2649 235.628 16.2133Z" fill="white" fill-opacity="0.08"/>
<path d="M239.443 7.67553C239.877 9.15287 240.29 10.7497 238.621 11.7397C237.944 12.1449 237.147 12.3013 236.367 12.182C235.587 12.0627 234.874 11.675 234.349 11.086C233.137 9.76735 233.246 8.04377 233.729 6.45398C234.119 5.15451 234.957 2.34754 236.91 3.77117C238.126 4.78995 239.008 6.14998 239.443 7.67553Z" fill="#FCE72C"/>
<path d="M238.739 7.59965C238.781 9.15644 237.603 10.6963 235.853 8.92926C234.869 7.94234 234.604 5.55318 236.515 5.42628C238.046 5.34098 238.709 6.47426 238.739 7.59965Z" fill="#FFD685"/>
<path d="M235.451 15.291C234.244 14.1475 236.686 12.8486 237.041 14.4157C237.063 14.609 237.027 14.8043 236.938 14.9769C236.848 15.1496 236.709 15.2918 236.539 15.3855C236.369 15.4793 236.174 15.5203 235.981 15.5035C235.787 15.4867 235.603 15.4127 235.451 15.291Z" fill="#E1E6FF"/>
<path d="M306.432 17.7513C307.123 17.8702 309.452 16.2929 309.596 15.6008C309.596 15.6008 310.262 13.1801 309.389 11.9024C308.516 10.6246 303.612 6.52177 301.905 7.6943C300.197 8.86682 302.194 14.9193 303.061 16.2034C303.928 17.4876 306.432 17.7513 306.432 17.7513Z" fill="#29B094"/>
<path d="M308.466 19.6311L309.529 18.9078L310.585 18.1909C311.016 17.8976 310.937 17.5556 310.937 17.5556L309.595 15.5774L308.011 16.6965L306.432 17.7717L307.775 19.7499C307.775 19.7499 308.042 19.9179 308.466 19.6311Z" fill="white" fill-opacity="0.08"/>
<path d="M307.665 10.4481C308.758 11.526 309.886 12.728 308.899 14.4065C308.5 15.0866 307.877 15.6065 307.136 15.8767C306.396 16.1469 305.584 16.1504 304.841 15.8868C303.142 15.3072 302.412 13.7503 302.067 12.1203C301.781 10.7954 301.171 7.92756 303.564 8.2381C305.122 8.54599 306.551 9.31613 307.665 10.4481Z" fill="#3DD1B0"/>
<path d="M306.622 10.2392C307.409 11.5818 307.123 13.4979 304.739 12.7929C303.402 12.4037 302.016 10.4329 303.64 9.40656C304.931 8.59569 306.056 9.24091 306.622 10.2392Z" fill="#75DDDD"/>
<path d="M307.87 18.9031C306.257 18.4776 307.796 16.1709 308.842 17.3689C308.954 17.5278 309.017 17.7165 309.022 17.911C309.027 18.1056 308.974 18.2972 308.87 18.4616C308.766 18.626 308.615 18.7557 308.437 18.8344C308.259 18.913 308.062 18.9369 307.87 18.9031Z" fill="#E1E6FF"/>
<path d="M222.799 36.375C222.15 36.6554 221.088 39.262 221.35 39.9118C221.35 39.9118 222.134 42.2994 223.564 42.8863C224.994 43.4732 231.345 44.1832 232.131 42.2536C232.917 40.324 227.893 36.387 226.463 35.8001C225.033 35.2132 222.799 36.375 222.799 36.375Z" fill="#29B094"/>
<path d="M220.063 35.9365C219.863 36.4175 219.575 37.126 219.575 37.126C219.575 37.126 219.288 37.8346 219.088 38.3092C218.888 38.7839 219.107 39.0095 219.107 39.0095L221.322 39.913L222.05 38.1476L222.771 36.3761L220.557 35.4726C220.557 35.4726 220.256 35.462 220.063 35.9365Z" fill="white" fill-opacity="0.08"/>
<path d="M225.382 42.3252C223.872 42.0282 222.235 41.6534 222.182 39.709C222.139 38.9231 222.371 38.1467 222.838 37.5129C223.305 36.8792 223.978 36.4278 224.741 36.2359C226.474 35.7697 227.95 36.6682 229.164 37.8304C230.134 38.7801 232.23 40.8318 230.063 41.8979C228.581 42.5093 226.949 42.6583 225.382 42.3252Z" fill="#3DD1B0"/>
<path d="M224.931 39.8974C223.536 39.2094 222.712 37.4548 225.083 36.7148C226.41 36.3034 228.655 37.1748 227.877 38.9291C227.251 40.3288 225.939 40.3894 224.931 39.8974Z" fill="#75DDDD"/>
<path d="M220.954 36.2145C222.529 35.6775 222.542 38.4427 221.004 38.0276C220.822 37.9581 220.666 37.8364 220.554 37.678C220.442 37.5196 220.379 37.3315 220.374 37.1375C220.369 36.9435 220.421 36.7523 220.524 36.588C220.628 36.4237 220.777 36.2937 220.954 36.2145Z" fill="#E1E6FF"/>
<path d="M123.392 10.2949C123.09 10.9288 124.013 13.5879 124.647 13.9086C124.647 13.9086 126.809 15.1764 128.271 14.6675C129.734 14.1585 134.96 10.5006 134.281 8.52931C133.601 6.55807 127.223 6.93749 125.761 7.44641C124.298 7.95533 123.392 10.2949 123.392 10.2949Z" fill="#29B094"/>
<path d="M121.045 11.755L121.467 12.9949L121.887 14.2035C122.057 14.6932 122.383 14.6969 122.383 14.6969L124.645 13.916L124.014 12.1062L123.39 10.3024L121.127 11.0833C121.127 11.0833 120.876 11.2903 121.045 11.755Z" fill="white" fill-opacity="0.08"/>
<path d="M129.264 13.0525C127.94 13.8267 126.484 14.6045 125.12 13.2149C124.568 12.6531 124.228 11.9165 124.16 11.1316C124.092 10.3467 124.3 9.56266 124.747 8.91412C125.739 7.41688 127.439 7.12052 129.08 7.2074C130.434 7.27707 133.36 7.42923 132.444 9.66894C131.744 11.088 130.637 12.266 129.264 13.0525Z" fill="#3DD1B0"/>
<path d="M127.322 11.5213C125.819 11.9249 124.04 11.1535 125.328 9.03511C126.053 7.84544 128.314 7.0208 128.889 8.85095C129.348 10.3151 128.403 11.2229 127.322 11.5213Z" fill="#75DDDD"/>
<path d="M121.897 11.3886C122.727 9.93958 124.566 12.0108 123.128 12.7255C122.945 12.7901 122.748 12.7998 122.56 12.7532C122.372 12.7066 122.202 12.6059 122.071 12.4635C121.94 12.3211 121.853 12.1433 121.822 11.9523C121.791 11.7612 121.817 11.5652 121.897 11.3886Z" fill="#E1E6FF"/>
<path d="M61.8598 26.4166C62.103 27.0795 64.6386 28.2933 65.3083 28.0687C65.3083 28.0687 67.7373 27.4272 68.3813 26.027C69.0253 24.6268 70.125 18.3402 68.2486 17.4401C66.3721 16.5399 62.1473 21.3283 61.5095 22.7283C60.8717 24.1284 61.8598 26.4166 61.8598 26.4166Z" fill="#29B094"/>
<path d="M61.2624 29.1245L62.4223 29.6749L63.5762 30.2318C64.0451 30.4506 64.2764 30.2128 64.2764 30.2128L65.3066 28.0575L63.5823 27.2284L61.8582 26.4054L60.8279 28.5607C60.8279 28.5607 60.7996 28.8993 61.2624 29.1245Z" fill="white" fill-opacity="0.08"/>
<path d="M68.7781 23.4392C68.3929 24.9263 67.9228 26.5095 65.9829 26.4995C65.1945 26.4961 64.4319 26.2186 63.8257 25.7145C63.2196 25.2104 62.8077 24.5111 62.6607 23.7365C62.3003 21.9819 63.2816 20.56 64.5152 19.4441C65.5165 18.5285 67.6842 16.5552 68.6267 18.7821C69.1416 20.2844 69.1943 21.9066 68.7781 23.4392Z" fill="#3DD1B0"/>
<path d="M68.5165 22.6218C67.7523 23.9752 65.9511 24.6935 65.3789 22.2814C65.0482 20.9326 66.0526 18.7468 67.7533 19.6267C69.0864 20.3351 69.0718 21.6432 68.5165 22.6218Z" fill="#75DDDD"/>
<path d="M61.5937 28.2463C61.1496 26.6379 63.9129 26.7882 63.4098 28.3097C63.3297 28.4873 63.1986 28.6371 63.0331 28.74C62.8676 28.8428 62.6752 28.8941 62.4805 28.8873C62.2857 28.8805 62.0974 28.8159 61.9395 28.7018C61.7816 28.5877 61.6612 28.4291 61.5937 28.2463Z" fill="#E1E6FF"/>
<path d="M161.955 19.5182C162.63 19.7314 165.142 18.4682 165.374 17.7987C165.374 17.7987 166.35 15.4885 165.656 14.1058C164.961 12.7231 160.648 8.01612 158.784 8.95513C156.92 9.89413 158.122 16.1559 158.823 17.5384C159.523 18.9209 161.955 19.5182 161.955 19.5182Z" fill="#EFDB29"/>
<path d="M163.73 21.6461L164.878 21.0706L166.02 20.4953C166.483 20.2638 166.449 19.9331 166.449 19.9331L165.378 17.7973L163.668 18.6571L161.958 19.5168L163.03 21.6526C163.134 21.7216 163.256 21.7578 163.381 21.7566C163.506 21.7555 163.627 21.717 163.73 21.6461Z" fill="white" fill-opacity="0.08"/>
<path d="M164.168 12.594C165.108 13.8198 166.07 15.1514 164.873 16.6793C164.389 17.3019 163.703 17.736 162.933 17.9065C162.163 18.0771 161.357 17.9733 160.656 17.6133C159.045 16.8248 158.525 15.1683 158.393 13.5201C158.287 12.1715 158.058 9.24958 160.39 9.86834C161.893 10.3789 163.209 11.3283 164.168 12.594Z" fill="#FCE72C"/>
<path d="M163.605 12.8406C164.207 14.2758 163.694 16.1417 161.402 15.1402C160.135 14.5802 159.014 12.4395 160.756 11.6352C162.147 10.9906 163.17 11.8075 163.605 12.8406Z" fill="#FFD685"/>
<path d="M163.24 20.8463C161.696 20.2124 163.504 18.1237 164.397 19.451C164.487 19.6226 164.524 19.817 164.504 20.0098C164.484 20.2026 164.407 20.3851 164.283 20.5343C164.16 20.6836 163.995 20.7928 163.809 20.8483C163.623 20.9038 163.425 20.9031 163.24 20.8463Z" fill="#E1E6FF"/>
<path d="M634.2 13.8241C630.491 14.877 627.017 16.6299 623.966 18.9883C616.746 24.3147 610.357 30.7324 600.744 30.674C591.839 30.6151 583.559 26.1344 575.598 22.5961C568.347 19.4139 560.976 16.867 552.973 16.84C545.211 16.8273 537.575 18.8006 530.791 22.5722C530.501 22.7364 530.174 22.9017 529.904 23.078C522.143 13.7654 505.631 13.9879 494.788 16.0776C486.319 17.7123 478.268 21.0376 471.114 25.8547C463.624 30.9131 457.67 39.5715 447.684 38.6284C442.038 38.0995 435.961 35.2672 430.879 31.5382C432.187 29.9576 433.28 28.2112 434.13 26.3444C436.35 21.4601 436.622 15.5587 433.352 11.036C430.472 7.05334 425 6.2569 421.607 10.1031C417.722 14.4944 418.767 20.7481 422.077 25.107C424.006 27.5863 426.263 29.792 428.787 31.6638L428.507 31.9592C423.027 37.5388 414.973 40.5165 407.237 40.6262C388.154 40.8933 372.473 27.6972 356.378 19.3175C345.704 13.7943 333.133 9.8241 321.314 12.3846L321.353 13.8101C331.674 11.6531 343.398 14.5826 352.781 19.1272C368.448 26.7051 382.548 38.8241 400.216 41.5423C410.59 43.1381 422.711 40.4318 429.969 32.6015C433.226 34.91 436.746 36.8226 440.454 38.2989C447.683 41.15 454.803 40.6504 461.036 35.8637C464.303 33.3412 467.195 30.4096 470.565 28.0094C481.619 20.1266 494.932 16.044 508.505 16.3752C515.587 16.5961 523.833 18.4185 528.617 23.8637C523.627 26.9586 517.98 31.6918 518.239 37.7665C518.456 43.0289 523.499 47.1532 528.477 44.3215C533.838 41.2666 534.841 34.1753 533.024 28.7686C532.475 27.123 531.686 25.5674 530.684 24.1518C533.212 22.7656 535.853 21.5951 538.579 20.6528C547.614 17.5762 557.406 17.5304 566.469 20.5223C575.516 23.4993 583.765 28.6566 593.032 31.0082C601.172 33.0713 608.841 31.8309 615.781 27.0376C621.309 23.2087 627.398 17.0432 634.229 15.1248L634.2 13.8241ZM423.789 25.0418C420.925 21.6218 419.305 17.0294 421.492 12.7967C423.68 8.56397 428.643 7.68482 431.746 11.3486C436.671 17.1654 434.103 25.344 429.673 30.6699C427.525 28.9992 425.554 27.1133 423.789 25.0418ZM531.405 28.3807C532.747 31.7231 533.005 35.6955 531.437 39.0166C530.449 41.1082 528.602 43.1605 526.272 43.7368C523.04 44.5315 520.544 42.015 519.851 39.068C518.471 33.1989 523.706 28.2704 529.477 24.8665C530.272 25.9496 530.921 27.1334 531.405 28.387L531.405 28.3807Z" fill="white" fill-opacity="0.08"/>
<path d="M343.236 17.0183C342.862 16.4028 340.135 15.7447 339.526 16.0991C339.526 16.0991 337.279 17.2236 336.907 18.7291C336.534 20.2346 336.757 26.6104 338.785 27.106C340.814 27.6016 343.967 22.0602 344.333 20.5549C344.699 19.0496 343.236 17.0183 343.236 17.0183Z" fill="#AB0F0F"/>
<path d="M343.269 14.246L342.01 13.9422L340.75 13.6323C340.246 13.5145 340.059 13.7824 340.059 13.7824L339.497 16.1001L341.355 16.5628L343.207 17.0194L343.769 14.6954C343.769 14.6954 343.767 14.3701 343.269 14.246Z" fill="white" fill-opacity="0.08"/>
<path d="M337.725 20.4397C337.796 18.9049 337.939 17.2617 339.837 16.8724C340.609 16.7156 341.412 16.8325 342.107 17.203C342.802 17.5735 343.346 18.1744 343.646 18.9027C344.36 20.5476 343.684 22.1427 342.707 23.4831C341.911 24.5809 340.186 26.9489 338.812 24.9652C338.006 23.5989 337.628 22.0228 337.725 20.4397Z" fill="#D71E17"/>
<path d="M340.064 19.6451C340.543 18.1618 342.16 17.0856 343.234 19.3339C343.837 20.5689 343.3 22.9298 341.441 22.4171C339.972 22.0002 339.724 20.718 340.064 19.6451Z" fill="#EC563D"/>
<path d="M343.129 15.1767C343.889 16.6577 341.161 17.1071 341.342 15.4816C341.385 15.2926 341.483 15.1206 341.624 14.9874C341.765 14.8541 341.943 14.7656 342.134 14.733C342.325 14.7004 342.522 14.7251 342.699 14.804C342.876 14.883 343.026 15.0127 343.129 15.1767Z" fill="#E1E6FF"/>
<path d="M413.623 42.8714C412.988 42.5382 410.3 43.3181 409.948 43.9346C409.948 43.9346 408.559 46.0245 408.994 47.5143C409.428 49.0042 412.797 54.4188 414.796 53.839C416.795 53.2592 416.767 46.9031 416.338 45.3881C415.909 43.8731 413.623 42.8714 413.623 42.8714Z" fill="#EFDB29"/>
<path d="M412.236 40.4568L410.995 40.8159L409.753 41.1686C409.256 41.3135 409.234 41.6394 409.234 41.6394L409.922 43.9358L411.784 43.4035L413.647 42.8712L412.959 40.5749C412.959 40.5749 412.733 40.312 412.236 40.4568Z" fill="white" fill-opacity="0.08"/>
<path d="M410.521 48.5869C409.821 47.2232 409.117 45.7281 410.578 44.4434C411.167 43.9141 411.922 43.6075 412.713 43.5769C413.504 43.5463 414.281 43.7936 414.909 44.2759C416.346 45.3506 416.555 47.0656 416.381 48.7158C416.236 50.065 415.927 52.9765 413.747 51.9469C412.36 51.1741 411.237 50.0039 410.521 48.5869Z" fill="#FCE72C"/>
<path d="M412.158 46.7346C411.829 45.2106 412.696 43.479 414.748 44.8812C415.896 45.6635 416.596 47.9595 414.738 48.4416C413.253 48.8197 412.394 47.8294 412.158 46.7346Z" fill="#FFD685"/>
<path d="M412.578 41.3304C413.979 42.2372 411.817 43.9601 411.176 42.4884C411.118 42.3023 411.117 42.103 411.172 41.9161C411.228 41.7292 411.338 41.5631 411.488 41.4389C411.639 41.3146 411.822 41.238 412.016 41.2187C412.21 41.1994 412.406 41.2383 412.578 41.3304Z" fill="#E1E6FF"/>
<path d="M441.362 40.9054C441.089 40.2872 438.505 39.1497 437.843 39.4054C437.843 39.4054 435.448 40.1523 434.842 41.5765C434.236 43.0007 433.432 49.3294 435.35 50.147C437.268 50.9647 441.275 46.0008 441.881 44.5766C442.487 43.1524 441.362 40.9054 441.362 40.9054Z" fill="#AB0F0F"/>
<path d="M441.831 38.1781L440.654 37.672L439.477 37.1721C439.002 36.9722 438.776 37.1911 438.776 37.1911L437.835 39.3939L439.595 40.1408L441.354 40.894L442.296 38.6911C442.296 38.6911 442.281 38.3787 441.831 38.1781Z" fill="white" fill-opacity="0.08"/>
<path d="M435.368 43.3968C435.691 41.8989 436.091 40.2926 438.028 40.1963C438.817 40.1643 439.592 40.408 440.22 40.8853C440.848 41.3627 441.291 42.0439 441.472 42.8121C441.907 44.5459 440.989 46.0099 439.807 47.1806C438.844 48.1327 436.76 50.1977 435.725 48.0171C435.153 46.5459 435.029 44.9383 435.368 43.3968Z" fill="#D71E17"/>
<path d="M437.81 42.9921C438.517 41.6027 440.254 40.8111 440.988 43.1875C441.38 44.5221 440.459 46.7557 438.729 45.9454C437.335 45.3012 437.299 43.9883 437.81 42.9921Z" fill="#EC563D"/>
<path d="M441.545 39.0676C442.064 40.6552 439.298 40.6239 439.731 39.0855C439.804 38.9054 439.928 38.7509 440.089 38.6415C440.249 38.5321 440.438 38.4727 440.632 38.4708C440.826 38.4689 441.017 38.5246 441.179 38.6308C441.342 38.737 441.469 38.889 441.545 39.0676Z" fill="#E1E6FF"/>
<path d="M514.46 18.9329C514.038 18.3625 511.272 17.8869 510.688 18.2844C510.688 18.2844 508.527 19.5631 508.262 21.0906C507.996 22.6182 508.675 28.963 510.731 29.3139C512.786 29.6649 515.533 23.9155 515.799 22.3879C516.064 20.8603 514.46 18.9329 514.46 18.9329Z" fill="#AB0F0F"/>
<path d="M514.292 16.1648L513.035 15.9486L511.778 15.7325C511.268 15.6462 511.107 15.9258 511.107 15.9258L510.702 18.2831L512.588 18.6074L514.473 18.9316L514.872 16.5745C514.872 16.5745 514.801 16.2574 514.292 16.1648Z" fill="white" fill-opacity="0.08"/>
<path d="M509.209 22.7419C509.167 21.2038 509.191 19.5514 511.06 19.0315C511.822 18.8192 512.634 18.8799 513.356 19.2031C514.077 19.5263 514.663 20.0917 515.012 20.8013C515.838 22.3932 515.281 24.0288 514.4 25.4417C513.68 26.5937 512.134 29.082 510.625 27.1959C509.717 25.8868 509.223 24.3349 509.209 22.7419Z" fill="#D71E17"/>
<path d="M511.485 21.7796C511.85 20.2681 513.389 19.0876 514.598 21.2447C515.289 22.4773 514.915 24.8275 513.034 24.4468C511.561 24.1363 511.214 22.8944 511.485 21.7796Z" fill="#EC563D"/>
<path d="M514.215 17.0995C515.08 18.5276 512.394 19.1386 512.45 17.5353C512.481 17.3441 512.568 17.1662 512.699 17.0238C512.831 16.8814 513.001 16.7807 513.189 16.7342C513.377 16.6878 513.575 16.6977 513.757 16.7626C513.94 16.8276 514.099 16.9447 514.215 17.0995Z" fill="#E1E6FF"/>
<path d="M584.643 30.25C584.4 29.5871 581.87 28.3668 581.201 28.5915C581.201 28.5915 578.771 29.2267 578.096 30.6215C577.421 32.0163 576.327 38.3027 578.21 39.2089C580.093 40.1152 584.318 35.3393 584.987 33.9384C585.656 32.5376 584.643 30.25 584.643 30.25Z" fill="#AB0F0F"/>
<path d="M585.273 27.5497L584.119 26.9929L582.965 26.436C582.496 26.211 582.265 26.455 582.265 26.455L581.228 28.6104L582.947 29.4398L584.671 30.269L585.707 28.1136C585.707 28.1136 585.71 27.7568 585.273 27.5497Z" fill="white" fill-opacity="0.08"/>
<path d="M578.519 32.4691C578.91 30.9819 579.38 29.3987 581.326 29.4148C582.115 29.4177 582.877 29.6961 583.481 30.2019C584.086 30.7077 584.494 31.409 584.636 32.1844C584.997 33.939 584.009 35.361 582.775 36.4706C581.768 37.3802 579.593 39.3474 578.663 37.1202C578.15 35.6194 578.1 33.999 578.519 32.4691Z" fill="#D71E17"/>
<path d="M581.022 32.1706C581.792 30.817 583.593 30.105 584.159 32.5172C584.49 33.866 583.479 36.052 581.779 35.1658C580.458 34.4571 580.423 33.1504 581.022 32.1706Z" fill="#EC563D"/>
<path d="M584.922 28.4043C585.36 30.0192 582.603 29.8625 583.106 28.341C583.186 28.1633 583.317 28.0136 583.483 27.9107C583.648 27.8078 583.841 27.7565 584.035 27.7633C584.23 27.7701 584.418 27.8347 584.576 27.9489C584.734 28.063 584.855 28.2216 584.922 28.4043Z" fill="#E1E6FF"/>
<path d="M547.214 14.3221C547.764 14.7639 550.56 14.4942 551.021 13.9561C551.021 13.9561 552.768 12.1568 552.62 10.6154C552.472 9.07402 550.158 3.13025 548.08 3.32425C546.002 3.51826 544.858 9.79977 545.006 11.3474C545.155 12.8951 547.214 14.3221 547.214 14.3221Z" fill="#EFDB29"/>
<path d="M548.101 16.9448L549.349 16.8234L550.628 16.7011C551.14 16.6559 551.244 16.3403 551.244 16.3403L551.017 13.9563L549.114 14.1393L547.21 14.3223L547.437 16.7C547.437 16.7 547.583 16.9964 548.101 16.9448Z" fill="white" fill-opacity="0.08"/>
<path d="M551.92 8.40705C552.354 9.88439 552.766 11.4812 551.098 12.4712C550.421 12.8764 549.624 13.0328 548.844 12.9135C548.064 12.7942 547.35 12.4066 546.825 11.8175C545.613 10.4989 545.723 8.77529 546.205 7.18551C546.596 5.88603 547.433 3.07906 549.386 4.50269C550.602 5.52147 551.485 6.88151 551.92 8.40705Z" fill="#FCE72C"/>
<path d="M551.216 8.33207C551.258 9.88887 550.08 11.4287 548.33 9.66168C547.346 8.67476 547.081 6.2856 548.992 6.1587C550.523 6.0734 551.185 7.20668 551.216 8.33207Z" fill="#FFD685"/>
<path d="M547.928 16.0234C546.72 14.8799 549.163 13.5811 549.518 15.1481C549.54 15.3414 549.504 15.5367 549.414 15.7093C549.325 15.882 549.186 16.0242 549.016 16.118C548.845 16.2117 548.651 16.2528 548.457 16.2359C548.264 16.2191 548.079 16.1451 547.928 16.0234Z" fill="#E1E6FF"/>
<path d="M618.909 18.4837C619.6 18.6026 621.929 17.0253 622.072 16.3332C622.072 16.3332 622.739 13.9125 621.866 12.6348C620.993 11.3571 616.089 7.2542 614.381 8.42672C612.674 9.59924 614.671 15.6517 615.538 16.9358C616.405 18.22 618.909 18.4837 618.909 18.4837Z" fill="#29B094"/>
<path d="M620.943 20.3626L622.005 19.6393L623.062 18.9224C623.492 18.6292 623.414 18.2871 623.414 18.2871L622.071 16.3089L620.488 17.428L618.909 18.5032L620.251 20.4814C620.251 20.4814 620.519 20.6494 620.943 20.3626Z" fill="white" fill-opacity="0.08"/>
<path d="M620.142 11.1806C621.235 12.2584 622.362 13.4604 621.376 15.1389C620.977 15.8191 620.353 16.3389 619.613 16.6091C618.872 16.8793 618.06 16.8829 617.317 16.6192C615.619 16.0396 614.888 14.4827 614.544 12.8528C614.258 11.5278 613.648 8.65998 616.04 8.97052C617.598 9.27841 619.028 10.0486 620.142 11.1806Z" fill="#3DD1B0"/>
<path d="M619.098 10.9707C619.885 12.3133 619.6 14.2294 617.215 13.5245C615.878 13.1352 614.492 11.1644 616.116 10.1381C617.408 9.32719 618.533 9.97242 619.098 10.9707Z" fill="#75DDDD"/>
<path d="M620.346 19.6346C618.733 19.2091 620.272 16.9024 621.318 18.1004C621.431 18.2593 621.494 18.448 621.499 18.6425C621.503 18.8371 621.451 19.0287 621.346 19.1931C621.242 19.3575 621.092 19.4872 620.914 19.5659C620.736 19.6445 620.538 19.6684 620.346 19.6346Z" fill="#E1E6FF"/>
<path d="M535.272 37.1074C534.623 37.3878 533.561 39.9944 533.822 40.6442C533.822 40.6442 534.607 43.0318 536.037 43.6187C537.467 44.2056 543.818 44.9156 544.604 42.986C545.39 41.0564 540.365 37.1195 538.935 36.5326C537.505 35.9457 535.272 37.1074 535.272 37.1074Z" fill="#29B094"/>
<path d="M532.539 36.668C532.339 37.149 532.052 37.8575 532.052 37.8575C532.052 37.8575 531.765 38.5661 531.565 39.0408C531.365 39.5154 531.584 39.741 531.584 39.741L533.798 40.6445L534.526 38.8791L535.248 37.1077L533.033 36.2042C533.033 36.2042 532.733 36.1935 532.539 36.668Z" fill="white" fill-opacity="0.08"/>
<path d="M537.858 43.0567C536.348 42.7598 534.711 42.3849 534.659 40.4405C534.616 39.6546 534.848 38.8782 535.314 38.2445C535.781 37.6108 536.454 37.1593 537.217 36.9674C538.95 36.5012 540.426 37.3997 541.64 38.5619C542.611 39.5116 544.706 41.5633 542.539 42.6294C541.058 43.2408 539.426 43.3898 537.858 43.0567Z" fill="#3DD1B0"/>
<path d="M537.408 40.6298C536.012 39.9419 535.189 38.1873 537.559 37.4473C538.887 37.0359 541.132 37.9072 540.353 39.6615C539.728 41.0612 538.416 41.1218 537.408 40.6298Z" fill="#75DDDD"/>
<path d="M533.435 36.9451C535.01 36.4081 535.022 39.1733 533.484 38.7583C533.303 38.6887 533.146 38.5671 533.034 38.4086C532.922 38.2502 532.86 38.0621 532.854 37.8681C532.849 37.6741 532.901 37.4829 533.005 37.3186C533.108 37.1543 533.258 37.0244 533.435 36.9451Z" fill="#E1E6FF"/>
<path d="M435.868 11.0273C435.566 11.6612 436.489 14.3203 437.124 14.641C437.124 14.641 439.285 15.9088 440.748 15.3999C442.211 14.891 447.436 11.233 446.757 9.26173C446.078 7.2905 439.7 7.66991 438.237 8.17883C436.774 8.68776 435.868 11.0273 435.868 11.0273Z" fill="#29B094"/>
<path d="M433.518 12.4865L433.939 13.7264L434.36 14.9351C434.53 15.4247 434.855 15.4284 434.855 15.4284L437.118 14.6475L436.487 12.8377L435.862 11.0339L433.6 11.8148C433.6 11.8148 433.349 12.0218 433.518 12.4865Z" fill="white" fill-opacity="0.08"/>
<path d="M441.736 13.784C440.412 14.5582 438.957 15.336 437.593 13.9464C437.04 13.3846 436.701 12.648 436.633 11.8631C436.565 11.0782 436.772 10.2942 437.219 9.64562C438.211 8.14839 439.911 7.85202 441.553 7.9389C442.906 8.00857 445.832 8.16073 444.917 10.4004C444.217 11.8195 443.11 12.9975 441.736 13.784Z" fill="#3DD1B0"/>
<path d="M439.799 12.2528C438.296 12.6564 436.517 11.885 437.804 9.76662C438.529 8.57695 440.791 7.7523 441.366 9.58246C441.825 11.0466 440.879 11.9544 439.799 12.2528Z" fill="#75DDDD"/>
<path d="M434.373 12.1201C435.203 10.6711 437.043 12.7423 435.604 13.457C435.422 13.5217 435.224 13.5313 435.037 13.4847C434.849 13.4382 434.679 13.3374 434.547 13.195C434.416 13.0526 434.33 12.8749 434.299 12.6838C434.268 12.4927 434.294 12.2967 434.373 12.1201Z" fill="#E1E6FF"/>
<path d="M374.336 27.149C374.58 27.8119 377.115 29.0258 377.785 28.8011C377.785 28.8011 380.214 28.1596 380.858 26.7594C381.502 25.3592 382.602 19.0726 380.725 18.1725C378.849 17.2723 374.624 22.0607 373.986 23.4607C373.348 24.8608 374.336 27.149 374.336 27.149Z" fill="#29B094"/>
<path d="M373.739 29.856L374.899 30.4064L376.053 30.9633C376.522 31.1821 376.753 30.9443 376.753 30.9443L377.783 28.7891L376.059 27.9599L374.335 27.1369L373.304 29.2922C373.304 29.2922 373.276 29.6308 373.739 29.856Z" fill="white" fill-opacity="0.08"/>
<path d="M381.255 24.1717C380.869 25.6587 380.399 27.2419 378.459 27.2319C377.671 27.2286 376.908 26.951 376.302 26.4469C375.696 25.9428 375.284 25.2435 375.137 24.4689C374.777 22.7143 375.758 21.2924 376.992 20.1765C377.993 19.2609 380.161 17.2876 381.103 19.5145C381.618 21.0168 381.671 22.639 381.255 24.1717Z" fill="#3DD1B0"/>
<path d="M380.993 23.3524C380.229 24.7058 378.428 25.4241 377.855 23.012C377.525 21.6632 378.529 19.4774 380.23 20.3573C381.563 21.0657 381.548 22.3738 380.993 23.3524Z" fill="#75DDDD"/>
<path d="M374.066 28.9778C373.622 27.3694 376.386 27.5197 375.882 29.0412C375.802 29.2188 375.671 29.3686 375.506 29.4715C375.34 29.5743 375.148 29.6256 374.953 29.6188C374.758 29.612 374.57 29.5474 374.412 29.4333C374.254 29.3192 374.134 29.1606 374.066 28.9778Z" fill="#E1E6FF"/>
<path d="M474.431 20.2488C475.106 20.462 477.619 19.1988 477.851 18.5293C477.851 18.5293 478.827 16.2191 478.132 14.8364C477.438 13.4537 473.124 8.74671 471.26 9.68572C469.396 10.6247 470.598 16.8864 471.299 18.269C472 19.6515 474.431 20.2488 474.431 20.2488Z" fill="#EFDB29"/>
<path d="M476.203 22.3785L477.351 21.8031L478.493 21.2278C478.956 20.9962 478.922 20.6655 478.922 20.6655L477.85 18.5297L476.141 19.3895L474.431 20.2492L475.502 22.385C475.606 22.454 475.729 22.4902 475.854 22.4891C475.978 22.4879 476.1 22.4494 476.203 22.3785Z" fill="white" fill-opacity="0.08"/>
<path d="M476.64 13.3255C477.581 14.5513 478.543 15.883 477.345 17.4108C476.861 18.0334 476.175 18.4675 475.405 18.638C474.635 18.8086 473.83 18.7048 473.129 18.3448C471.518 17.5563 470.998 15.8998 470.865 14.2516C470.76 12.903 470.53 9.98108 472.862 10.5998C474.366 11.1104 475.682 12.0598 476.64 13.3255Z" fill="#FCE72C"/>
<path d="M476.081 13.573C476.683 15.0083 476.171 16.8742 473.879 15.8727C472.612 15.3126 471.49 13.1719 473.233 12.3676C474.623 11.723 475.646 12.5399 476.081 13.573Z" fill="#FFD685"/>
<path d="M475.716 21.5787C474.172 20.9449 475.98 18.8561 476.874 20.1834C476.964 20.355 477.001 20.5495 476.981 20.7423C476.961 20.935 476.884 21.1176 476.76 21.2668C476.636 21.416 476.471 21.5252 476.285 21.5807C476.1 21.6363 475.902 21.6356 475.716 21.5787Z" fill="#E1E6FF"/>
<path d="M947.184 14.9786C943.475 16.0315 940.001 17.7844 936.95 20.1428C929.73 25.4692 923.341 31.8869 913.729 31.8284C904.823 31.7696 896.543 27.2889 888.582 23.7506C881.331 20.5684 873.961 18.0215 865.957 17.9945C858.195 17.9818 850.559 19.955 843.775 23.7266C843.486 23.8909 843.159 24.0562 842.888 24.2325C835.127 14.9199 818.615 15.1423 807.772 17.2321C799.304 18.8668 791.252 22.1921 784.098 27.0091C776.608 32.0676 770.655 40.726 760.668 39.7829C755.022 39.254 748.945 36.4217 743.864 32.6927C745.171 31.1121 746.264 29.3657 747.114 27.4989C749.334 22.6146 749.606 16.7132 746.336 12.1905C743.456 8.20782 737.985 7.41138 734.591 11.2576C730.706 15.6489 731.752 21.9025 735.061 26.2615C736.99 28.7408 739.248 30.9465 741.771 32.8183L741.491 33.1137C736.011 38.6933 727.958 41.671 720.221 41.7806C701.138 42.0478 685.457 28.8516 669.362 20.472C658.688 14.9487 646.117 10.9786 634.298 13.539L634.337 14.9646C644.659 12.8076 656.382 15.7371 665.766 20.2817C681.432 27.8596 695.532 39.9786 713.201 42.6968C723.574 44.2926 735.695 41.5863 742.954 33.756C746.21 36.0645 749.73 37.9771 753.439 39.4534C760.668 42.3045 767.787 41.8048 774.02 37.0182C777.287 34.4957 780.18 31.5641 783.55 29.1639C794.603 21.2811 807.917 17.1985 821.489 17.5296C828.572 17.7506 836.818 19.573 841.602 25.0182C836.611 28.113 830.964 32.8462 831.223 38.921C831.441 44.1834 836.483 48.3077 841.462 45.4759C846.823 42.4211 847.825 35.3298 846.008 29.923C845.459 28.2775 844.671 26.7219 843.668 25.3063C846.197 23.9201 848.838 22.7496 851.563 21.8073C860.598 18.7307 870.39 18.6849 879.453 21.6768C888.5 24.6538 896.749 29.8111 906.017 32.1627C914.157 34.2258 921.825 32.9854 928.766 28.1921C934.293 24.3632 940.383 18.1976 947.213 16.2792L947.184 14.9786ZM736.774 26.1963C733.909 22.7763 732.289 18.1839 734.477 13.9511C736.665 9.71845 741.628 8.8393 744.73 12.5031C749.656 18.3199 747.087 26.4985 742.657 31.8244C740.51 30.1537 738.538 28.2678 736.774 26.1963ZM844.39 29.5352C845.732 32.8776 845.99 36.85 844.421 40.1711C843.433 42.2627 841.587 44.315 839.256 44.8913C836.024 45.6859 833.528 43.1695 832.835 40.2225C831.456 34.3534 836.691 29.4248 842.461 26.021C843.257 27.1041 843.905 28.2879 844.39 29.5415L844.39 29.5352Z" fill="white" fill-opacity="0.08"/>
<path d="M656.724 18.6434C656.351 18.0278 653.624 17.3697 653.014 17.7241C653.014 17.7241 650.767 18.8487 650.395 20.3542C650.023 21.8596 650.246 28.2355 652.274 28.7311C654.302 29.2267 657.455 23.6853 657.821 22.18C658.187 20.6747 656.724 18.6434 656.724 18.6434Z" fill="#AB0F0F"/>
<path d="M656.757 15.871L655.498 15.5673L654.238 15.2573C653.734 15.1396 653.548 15.4075 653.548 15.4075L652.985 17.7252L654.843 18.1879L656.695 18.6445L657.258 16.3205C657.258 16.3205 657.255 15.9952 656.757 15.871Z" fill="white" fill-opacity="0.08"/>
<path d="M651.218 22.0648C651.289 20.53 651.432 18.8868 653.329 18.4975C654.101 18.3406 654.904 18.4575 655.599 18.828C656.294 19.1985 656.838 19.7995 657.139 20.5278C657.853 22.1727 657.176 23.7677 656.199 25.1082C655.403 26.2059 653.678 28.574 652.304 26.5903C651.498 25.2239 651.12 23.6479 651.218 22.0648Z" fill="#D71E17"/>
<path d="M653.552 21.2702C654.031 19.7868 655.648 18.7106 656.722 20.959C657.325 22.194 656.789 24.5548 654.929 24.0421C653.46 23.6252 653.212 22.343 653.552 21.2702Z" fill="#EC563D"/>
<path d="M656.617 16.8008C657.377 18.2818 654.649 18.7312 654.83 17.1058C654.873 16.9167 654.972 16.7447 655.113 16.6115C655.254 16.4783 655.431 16.3898 655.622 16.3571C655.813 16.3245 656.01 16.3492 656.187 16.4282C656.364 16.5072 656.514 16.6368 656.617 16.8008Z" fill="#E1E6FF"/>
<path d="M727.111 44.4974C726.477 44.1642 723.789 44.9441 723.436 45.5606C723.436 45.5606 722.047 47.6504 722.482 49.1403C722.917 50.6301 726.286 56.0447 728.285 55.465C730.284 54.8852 730.255 48.5291 729.826 47.0141C729.397 45.499 727.111 44.4974 727.111 44.4974Z" fill="#EFDB29"/>
<path d="M725.725 42.0819L724.483 42.4409L723.241 42.7937C722.745 42.9385 722.722 43.2645 722.722 43.2645L723.41 45.5608L725.273 45.0286L727.135 44.4963L726.447 42.1999C726.447 42.1999 726.221 41.937 725.725 42.0819Z" fill="white" fill-opacity="0.08"/>
<path d="M724.009 50.212C723.309 48.8482 722.606 47.3532 724.066 46.0685C724.655 45.5391 725.41 45.2326 726.201 45.202C726.993 45.1714 727.77 45.4187 728.397 45.901C729.834 46.9757 730.043 48.6906 729.869 50.3409C729.724 51.69 729.415 54.6015 727.235 53.572C725.849 52.7992 724.725 51.6289 724.009 50.212Z" fill="#FCE72C"/>
<path d="M725.646 48.3606C725.317 46.8366 726.184 45.105 728.237 46.5072C729.384 47.2895 730.084 49.5855 728.227 50.0676C726.742 50.4457 725.883 49.4554 725.646 48.3606Z" fill="#FFD685"/>
<path d="M726.07 42.9555C727.471 43.8623 725.309 45.5852 724.669 44.1134C724.61 43.9273 724.609 43.7281 724.665 43.5412C724.72 43.3542 724.83 43.1881 724.98 43.0639C725.131 42.9397 725.315 42.863 725.509 42.8437C725.703 42.8244 725.898 42.8633 726.07 42.9555Z" fill="#E1E6FF"/>
<path d="M754.85 42.5305C754.577 41.9122 751.994 40.7747 751.331 41.0305C751.331 41.0305 748.936 41.7774 748.33 43.2016C747.725 44.6258 746.92 50.9544 748.838 51.7721C750.756 52.5898 754.763 47.6259 755.369 46.2017C755.975 44.7775 754.85 42.5305 754.85 42.5305Z" fill="#AB0F0F"/>
<path d="M755.32 39.8023L754.142 39.2961L752.965 38.7962C752.49 38.5964 752.265 38.8152 752.265 38.8152L751.323 41.0181L753.083 41.765L754.843 42.5181L755.784 40.3153C755.784 40.3153 755.769 40.0028 755.32 39.8023Z" fill="white" fill-opacity="0.08"/>
<path d="M748.857 45.0209C749.179 43.5231 749.58 41.9167 751.517 41.8204C752.305 41.7885 753.08 42.0321 753.708 42.5095C754.337 42.9868 754.779 43.6681 754.96 44.4362C755.395 46.1701 754.477 47.634 753.295 48.8048C752.332 49.7569 750.249 51.8218 749.213 49.6413C748.641 48.1701 748.517 46.5625 748.857 45.0209Z" fill="#D71E17"/>
<path d="M751.298 44.6163C752.005 43.2269 753.742 42.4352 754.476 44.8117C754.869 46.1462 753.947 48.3798 752.217 47.5696C750.823 46.9254 750.787 45.6124 751.298 44.6163Z" fill="#EC563D"/>
<path d="M755.03 40.6935C755.548 42.2812 752.782 42.2499 753.216 40.7114C753.288 40.5314 753.413 40.3769 753.573 40.2675C753.733 40.1581 753.923 40.0987 754.117 40.0968C754.311 40.0949 754.501 40.1505 754.664 40.2567C754.826 40.363 754.954 40.515 755.03 40.6935Z" fill="#E1E6FF"/>
<path d="M827.952 20.558C827.53 19.9875 824.764 19.5119 824.18 19.9094C824.18 19.9094 822.019 21.1881 821.754 22.7157C821.489 24.2433 822.167 30.588 824.223 30.939C826.278 31.2899 829.026 25.5405 829.291 24.013C829.556 22.4854 827.952 20.558 827.952 20.558Z" fill="#AB0F0F"/>
<path d="M827.784 17.7908L826.527 17.5746L825.27 17.3584C824.761 17.2721 824.599 17.5518 824.599 17.5518L824.194 19.9091L826.08 20.2334L827.966 20.5576L828.365 18.2005C828.365 18.2005 828.293 17.8834 827.784 17.7908Z" fill="white" fill-opacity="0.08"/>
<path d="M822.701 24.3679C822.659 22.8298 822.683 21.1774 824.552 20.6574C825.314 20.4451 826.126 20.5059 826.848 20.8291C827.57 21.1523 828.156 21.7176 828.505 22.4273C829.33 24.0192 828.774 25.6548 827.892 27.0677C827.173 28.2197 825.626 30.708 824.117 28.8218C823.209 27.5128 822.715 25.9609 822.701 24.3679Z" fill="#D71E17"/>
<path d="M824.973 23.4037C825.339 21.8922 826.877 20.7118 828.087 22.8688C828.777 24.1015 828.403 26.4516 826.522 26.0709C825.049 25.7605 824.703 24.5185 824.973 23.4037Z" fill="#EC563D"/>
<path d="M827.708 18.7246C828.572 20.1527 825.886 20.7636 825.942 19.1604C825.974 18.9691 826.06 18.7913 826.191 18.6488C826.323 18.5064 826.493 18.4057 826.681 18.3593C826.869 18.3129 827.067 18.3227 827.249 18.3877C827.432 18.4526 827.591 18.5698 827.708 18.7246Z" fill="#E1E6FF"/>
<path d="M898.135 31.8742C897.892 31.2113 895.362 29.991 894.693 30.2156C894.693 30.2156 892.264 30.8508 891.588 32.2456C890.913 33.6404 889.819 39.9269 891.702 40.8331C893.585 41.7393 897.81 36.9635 898.479 35.5626C899.148 34.1617 898.135 31.8742 898.135 31.8742Z" fill="#AB0F0F"/>
<path d="M898.765 29.1748L897.611 28.6179L896.457 28.0611C895.988 27.8361 895.757 28.0801 895.757 28.0801L894.721 30.2355L896.439 31.0648L898.163 31.894L899.2 29.7386C899.2 29.7386 899.202 29.3819 898.765 29.1748Z" fill="white" fill-opacity="0.08"/>
<path d="M892.011 34.0942C892.402 32.607 892.872 31.0238 894.819 31.0398C895.607 31.0427 896.369 31.3212 896.974 31.827C897.578 32.3328 897.987 33.0341 898.128 33.8094C898.489 35.5641 897.501 36.9861 896.267 38.0957C895.26 39.0052 893.086 40.9725 892.156 38.7453C891.643 37.2444 891.592 35.6241 892.011 34.0942Z" fill="#D71E17"/>
<path d="M894.506 33.7957C895.276 32.4421 897.078 31.73 897.644 34.1423C897.974 35.4911 896.964 37.677 895.263 36.7909C893.942 36.0822 893.907 34.7755 894.506 33.7957Z" fill="#EC563D"/>
<path d="M898.411 30.0294C898.849 31.6443 896.091 31.4875 896.594 29.966C896.674 29.7884 896.806 29.6386 896.971 29.5358C897.137 29.4329 897.329 29.3816 897.524 29.3884C897.718 29.3952 897.907 29.4598 898.065 29.5739C898.223 29.6881 898.343 29.8466 898.411 30.0294Z" fill="#E1E6FF"/>
<path d="M860.71 15.9462C861.26 16.3881 864.056 16.1183 864.517 15.5802C864.517 15.5802 866.264 13.781 866.116 12.2396C865.968 10.6982 863.654 4.75439 861.576 4.94839C859.498 5.14239 858.354 11.4239 858.502 12.9716C858.651 14.5192 860.71 15.9462 860.71 15.9462Z" fill="#EFDB29"/>
<path d="M861.593 18.5699L862.841 18.4484L864.121 18.3261C864.632 18.281 864.736 17.9653 864.736 17.9653L864.509 15.5814L862.606 15.7644L860.702 15.9474L860.93 18.3251C860.93 18.3251 861.075 18.6214 861.593 18.5699Z" fill="white" fill-opacity="0.08"/>
<path d="M865.404 10.0321C865.838 11.5094 866.251 13.1063 864.582 14.0963C863.905 14.5015 863.108 14.6579 862.328 14.5386C861.548 14.4192 860.835 14.0316 860.31 13.4425C859.098 12.1239 859.207 10.4003 859.69 8.81056C860.08 7.51108 860.917 4.70411 862.871 6.12775C864.087 7.14652 864.969 8.50656 865.404 10.0321Z" fill="#FCE72C"/>
<path d="M864.704 9.95714C864.746 11.5139 863.568 13.0538 861.818 11.2867C860.834 10.2998 860.569 7.91066 862.48 7.78376C864.011 7.69846 864.674 8.83174 864.704 9.95714Z" fill="#FFD685"/>
<path d="M861.416 17.6485C860.209 16.5049 862.651 15.2061 863.006 16.7732C863.028 16.9664 862.992 17.1618 862.902 17.3344C862.813 17.5071 862.674 17.6493 862.504 17.743C862.334 17.8368 862.139 17.8778 861.946 17.861C861.752 17.8442 861.567 17.7702 861.416 17.6485Z" fill="#E1E6FF"/>
<path d="M932.397 20.1088C933.088 20.2277 935.417 18.6504 935.561 17.9583C935.561 17.9583 936.227 15.5376 935.354 14.2598C934.481 12.9821 929.577 8.87926 927.87 10.0518C926.162 11.2243 928.159 17.2767 929.026 18.5609C929.893 19.8451 932.397 20.1088 932.397 20.1088Z" fill="#29B094"/>
<path d="M934.435 21.9877L935.498 21.2643L936.554 20.5474C936.984 20.2542 936.906 19.9122 936.906 19.9122L935.564 17.9339L933.98 19.053L932.401 20.1282L933.743 22.1065C933.743 22.1065 934.011 22.2744 934.435 21.9877Z" fill="white" fill-opacity="0.08"/>
<path d="M933.634 12.8056C934.727 13.8834 935.855 15.0855 934.868 16.764C934.469 17.4441 933.846 17.964 933.105 18.2342C932.364 18.5043 931.553 18.5079 930.81 18.2443C929.111 17.6647 928.38 16.1077 928.036 14.4778C927.75 13.1529 927.14 10.285 929.532 10.5956C931.091 10.9035 932.52 11.6736 933.634 12.8056Z" fill="#3DD1B0"/>
<path d="M932.59 12.5958C933.378 13.9384 933.092 15.8544 930.708 15.1495C929.371 14.7603 927.984 12.7895 929.608 11.7631C930.9 10.9523 932.025 11.5975 932.59 12.5958Z" fill="#75DDDD"/>
<path d="M933.839 21.2597C932.225 20.8342 933.765 18.5275 934.811 19.7255C934.923 19.8843 934.986 20.073 934.991 20.2676C934.996 20.4621 934.943 20.6538 934.839 20.8182C934.734 20.9826 934.584 21.1123 934.406 21.1909C934.228 21.2695 934.03 21.2935 933.839 21.2597Z" fill="#E1E6FF"/>
<path d="M848.76 38.7325C848.111 39.0129 847.049 41.6194 847.311 42.2693C847.311 42.2693 848.095 44.6569 849.525 45.2438C850.955 45.8307 857.306 46.5407 858.092 44.6111C858.878 42.6814 853.854 38.7445 852.424 38.1576C850.994 37.5707 848.76 38.7325 848.76 38.7325Z" fill="#29B094"/>
<path d="M846.027 38.2931C845.828 38.774 845.54 39.4826 845.54 39.4826C845.54 39.4826 845.253 40.1911 845.053 40.6658C844.853 41.1405 845.072 41.366 845.072 41.366L847.286 42.2695L848.014 40.5042L848.736 38.7327L846.522 37.8292C846.522 37.8292 846.221 37.8186 846.027 38.2931Z" fill="white" fill-opacity="0.08"/>
<path d="M851.346 44.6817C849.837 44.3848 848.2 44.01 848.147 42.0656C848.104 41.2796 848.336 40.5032 848.803 39.8695C849.27 39.2358 849.942 38.7843 850.706 38.5925C852.439 38.1263 853.915 39.0248 855.129 40.1869C856.099 41.1367 858.195 43.1884 856.027 44.2545C854.546 44.8659 852.914 45.0148 851.346 44.6817Z" fill="#3DD1B0"/>
<path d="M850.892 42.254C849.497 41.566 848.673 39.8114 851.043 39.0714C852.371 38.66 854.616 39.5314 853.838 41.2856C853.212 42.6853 851.9 42.7459 850.892 42.254Z" fill="#75DDDD"/>
<path d="M846.923 38.5711C848.498 38.0341 848.51 40.7993 846.972 40.3842C846.791 40.3147 846.635 40.193 846.523 40.0346C846.41 39.8762 846.348 39.6881 846.343 39.4941C846.337 39.3001 846.39 39.1089 846.493 38.9446C846.596 38.7803 846.746 38.6503 846.923 38.5711Z" fill="#E1E6FF"/>
<path d="M749.356 12.6524C749.054 13.2863 749.977 15.9454 750.612 16.2661C750.612 16.2661 752.774 17.5339 754.236 17.0249C755.699 16.516 760.924 12.858 760.245 10.8868C759.566 8.91556 753.188 9.29497 751.726 9.8039C750.263 10.3128 749.356 12.6524 749.356 12.6524Z" fill="#29B094"/>
<path d="M747.01 14.1124L747.432 15.3524L747.852 16.561C748.022 17.0507 748.347 17.0544 748.347 17.0544L750.61 16.2735L749.979 14.4637L749.354 12.6599L747.092 13.4407C747.092 13.4407 746.841 13.6478 747.01 14.1124Z" fill="white" fill-opacity="0.08"/>
<path d="M755.229 15.41C753.904 16.1842 752.449 16.9619 751.085 15.5724C750.533 15.0106 750.193 14.2739 750.125 13.4891C750.057 12.7042 750.264 11.9201 750.712 11.2716C751.703 9.77436 753.404 9.478 755.045 9.56488C756.398 9.63455 759.325 9.78671 758.409 12.0264C757.709 13.4455 756.602 14.6235 755.229 15.41Z" fill="#3DD1B0"/>
<path d="M753.287 13.8778C751.784 14.2815 750.005 13.5101 751.293 11.3917C752.017 10.202 754.279 9.37737 754.854 11.2075C755.313 12.6717 754.368 13.5795 753.287 13.8778Z" fill="#75DDDD"/>
<path d="M747.865 13.7443C748.696 12.2952 750.535 14.3664 749.097 15.0811C748.914 15.1458 748.717 15.1554 748.529 15.1089C748.341 15.0623 748.171 14.9616 748.04 14.8192C747.908 14.6768 747.822 14.499 747.791 14.3079C747.76 14.1168 747.786 13.9208 747.865 13.7443Z" fill="#E1E6FF"/>
<path d="M687.825 28.7741C688.068 29.4369 690.603 30.6508 691.273 30.4262C691.273 30.4262 693.702 29.7847 694.346 28.3845C694.99 26.9843 696.09 20.6977 694.213 19.7975C692.337 18.8974 688.112 23.6858 687.474 25.0858C686.837 26.4858 687.825 28.7741 687.825 28.7741Z" fill="#29B094"/>
<path d="M687.227 31.482L688.387 32.0324L689.541 32.5893C690.01 32.808 690.241 32.5703 690.241 32.5703L691.271 30.415L689.547 29.5858L687.823 28.7629L686.793 30.9181C686.793 30.9181 686.764 31.2568 687.227 31.482Z" fill="white" fill-opacity="0.08"/>
<path d="M694.743 25.7967C694.358 27.2838 693.888 28.867 691.948 28.857C691.159 28.8536 690.397 28.5761 689.791 28.072C689.184 27.5679 688.773 26.8685 688.626 26.094C688.265 24.3393 689.246 22.9175 690.48 21.8016C691.481 20.886 693.649 18.9127 694.592 21.1395C695.106 22.6419 695.159 24.2641 694.743 25.7967Z" fill="#3DD1B0"/>
<path d="M694.481 24.9783C693.717 26.3317 691.916 27.0501 691.344 24.638C691.013 23.2892 692.017 21.1034 693.718 21.9833C695.051 22.6917 695.037 23.9997 694.481 24.9783Z" fill="#75DDDD"/>
<path d="M687.555 30.6029C687.111 28.9944 689.874 29.1448 689.371 30.6663C689.291 30.8439 689.16 30.9937 688.994 31.0965C688.829 31.1994 688.636 31.2507 688.441 31.2439C688.247 31.2371 688.058 31.1725 687.9 31.0584C687.743 30.9442 687.622 30.7857 687.555 30.6029Z" fill="#E1E6FF"/>
<path d="M787.919 21.8738C788.595 22.087 791.107 20.8239 791.339 20.1543C791.339 20.1543 792.315 17.8442 791.621 16.4615C790.926 15.0788 786.613 10.3718 784.749 11.3108C782.885 12.2498 784.087 18.5115 784.787 19.894C785.488 21.2765 787.919 21.8738 787.919 21.8738Z" fill="#EFDB29"/>
<path d="M789.695 24.0036L790.843 23.4281L791.985 22.8528C792.448 22.6213 792.414 22.2906 792.414 22.2906L791.343 20.1548L789.633 21.0145L787.923 21.8743L788.994 24.0101C789.099 24.079 789.221 24.1153 789.346 24.1141C789.471 24.113 789.592 24.0745 789.695 24.0036Z" fill="white" fill-opacity="0.08"/>
<path d="M790.132 14.9514C791.073 16.1773 792.035 17.5089 790.838 19.0368C790.354 19.6594 789.667 20.0935 788.898 20.264C788.128 20.4346 787.322 20.3308 786.621 19.9707C785.01 19.1823 784.49 17.5258 784.357 15.8776C784.252 14.529 784.023 11.6071 786.354 12.2258C787.858 12.7364 789.174 13.6857 790.132 14.9514Z" fill="#FCE72C"/>
<path d="M789.569 15.1981C790.172 16.6333 789.659 18.4992 787.367 17.4977C786.1 16.9377 784.979 14.797 786.721 13.9927C788.112 13.3481 789.135 14.165 789.569 15.1981Z" fill="#FFD685"/>
<path d="M789.205 23.2038C787.661 22.5699 789.469 20.4812 790.362 21.8084C790.452 21.9801 790.489 22.1745 790.469 22.3673C790.449 22.5601 790.372 22.7426 790.248 22.8918C790.125 23.041 789.959 23.1503 789.774 23.2058C789.588 23.2613 789.39 23.2606 789.205 23.2038Z" fill="#E1E6FF"/>
<path d="M1259.26 16.6403C1255.55 17.6932 1252.08 19.4461 1249.02 21.8044C1241.8 27.1309 1235.42 33.5486 1225.8 33.4901C1216.9 33.4312 1208.62 28.9506 1200.66 25.4123C1193.41 22.2301 1186.03 19.6832 1178.03 19.6562C1170.27 19.6434 1162.63 21.6167 1155.85 25.3883C1155.56 25.5526 1155.23 25.7179 1154.96 25.8942C1147.2 16.5815 1130.69 16.804 1119.85 18.8938C1111.38 20.5285 1103.33 23.8538 1096.17 28.6708C1088.68 33.7293 1082.73 42.3877 1072.74 41.4446C1067.1 40.9157 1061.02 38.0834 1055.94 34.3544C1057.25 32.7738 1058.34 31.0274 1059.19 29.1606C1061.41 24.2763 1061.68 18.3749 1058.41 13.8522C1055.53 9.8695 1050.06 9.07306 1046.67 12.9192C1042.78 17.3106 1043.83 23.5642 1047.14 27.9232C1049.06 30.4024 1051.32 32.6082 1053.85 34.48L1053.57 34.7754C1048.09 40.355 1040.03 43.3327 1032.3 43.4423C1013.21 43.7095 997.531 30.5133 981.437 22.1337C970.763 16.6104 958.191 12.6403 946.372 15.2007L946.411 16.6263C956.733 14.4693 968.456 17.3988 977.84 21.9434C993.506 29.5212 1007.61 41.6403 1025.27 44.3585C1035.65 45.9543 1047.77 43.248 1055.03 35.4177C1058.28 37.7262 1061.8 39.6388 1065.51 41.115C1072.74 43.9662 1079.86 43.4665 1086.09 38.6799C1089.36 36.1574 1092.25 33.2258 1095.62 30.8256C1106.68 22.9428 1119.99 18.8602 1133.56 19.1913C1140.65 19.4122 1148.89 21.2347 1153.68 26.6799C1148.69 29.7747 1143.04 34.5079 1143.3 40.5827C1143.51 45.8451 1148.56 49.9694 1153.54 47.1376C1158.9 44.0828 1159.9 36.9915 1158.08 31.5847C1157.53 29.9392 1156.74 28.3835 1155.74 26.968C1158.27 25.5818 1160.91 24.4113 1163.64 23.469C1172.67 20.3924 1182.46 20.3465 1191.53 23.3385C1200.57 26.3155 1208.82 31.4728 1218.09 33.8244C1226.23 35.8874 1233.9 34.6471 1240.84 29.8538C1246.37 26.0248 1252.46 19.8593 1259.29 17.9409L1259.26 16.6403ZM1048.85 27.858C1045.98 24.438 1044.36 19.8455 1046.55 15.6128C1048.74 11.3801 1053.7 10.501 1056.8 14.1648C1061.73 19.9816 1059.16 28.1602 1054.73 33.4861C1052.58 31.8153 1050.61 29.9295 1048.85 27.858ZM1156.46 31.1969C1157.81 34.5392 1158.06 38.5117 1156.5 41.8328C1155.51 43.9244 1153.66 45.9767 1151.33 46.553C1148.1 47.3476 1145.6 44.8312 1144.91 41.8842C1143.53 36.015 1148.76 31.0865 1154.54 27.6827C1155.33 28.7658 1155.98 29.9496 1156.46 31.2031L1156.46 31.1969Z" fill="white" fill-opacity="0.08"/>
<path d="M968.794 20.3051C968.421 19.6895 965.694 19.0314 965.084 19.3858C965.084 19.3858 962.837 20.5104 962.465 22.0158C962.093 23.5213 962.316 29.8972 964.344 30.3928C966.372 30.8884 969.525 25.347 969.891 23.8417C970.257 22.3364 968.794 20.3051 968.794 20.3051Z" fill="#AB0F0F"/>
<path d="M968.832 17.5327L967.572 17.229L966.312 16.919C965.809 16.8013 965.622 17.0691 965.622 17.0691L965.059 19.3869L966.917 19.8496L968.769 20.3061L969.332 17.9821C969.332 17.9821 969.329 17.6569 968.832 17.5327Z" fill="white" fill-opacity="0.08"/>
<path d="M963.288 23.7265C963.359 22.1916 963.502 20.5485 965.4 20.1592C966.172 20.0023 966.974 20.1192 967.669 20.4897C968.364 20.8602 968.909 21.4612 969.209 22.1894C969.923 23.8344 969.247 25.4294 968.269 26.7698C967.473 27.8676 965.748 30.2356 964.374 28.252C963.569 26.8856 963.19 25.3096 963.288 23.7265Z" fill="#D71E17"/>
<path d="M965.623 22.9318C966.102 21.4485 967.718 20.3723 968.793 22.6206C969.396 23.8557 968.859 26.2165 966.999 25.7038C965.53 25.2869 965.283 24.0047 965.623 22.9318Z" fill="#EC563D"/>
<path d="M968.692 18.4634C969.451 19.9444 966.723 20.3938 966.904 18.7684C966.948 18.5793 967.046 18.4073 967.187 18.2741C967.328 18.1409 967.505 18.0523 967.696 18.0197C967.887 17.9871 968.084 18.0118 968.261 18.0908C968.438 18.1697 968.588 18.2994 968.692 18.4634Z" fill="#E1E6FF"/>
<path d="M1039.18 46.1591C1038.55 45.8259 1035.86 46.6058 1035.51 47.2223C1035.51 47.2223 1034.12 49.3121 1034.55 50.802C1034.99 52.2918 1038.36 57.7064 1040.35 57.1267C1042.35 56.5469 1042.33 50.1908 1041.9 48.6757C1041.47 47.1607 1039.18 46.1591 1039.18 46.1591Z" fill="#EFDB29"/>
<path d="M1037.8 43.7436L1036.56 44.1026L1035.32 44.4554C1034.82 44.6002 1034.8 44.9262 1034.8 44.9262L1035.48 47.2225L1037.35 46.6903L1039.21 46.158L1038.52 43.8616C1038.52 43.8616 1038.3 43.5987 1037.8 43.7436Z" fill="white" fill-opacity="0.08"/>
<path d="M1036.09 51.8737C1035.39 50.5099 1034.68 49.0148 1036.14 47.7301C1036.73 47.2008 1037.49 46.8942 1038.28 46.8636C1039.07 46.833 1039.85 47.0803 1040.48 47.5626C1041.91 48.6374 1042.12 50.3523 1041.95 52.0026C1041.8 53.3517 1041.49 56.2632 1039.31 55.2337C1037.93 54.4609 1036.8 53.2906 1036.09 51.8737Z" fill="#FCE72C"/>
<path d="M1037.72 50.0223C1037.39 48.4983 1038.25 46.7667 1040.31 48.1689C1041.45 48.9511 1042.15 51.2471 1040.3 51.7292C1038.81 52.1074 1037.95 51.1171 1037.72 50.0223Z" fill="#FFD685"/>
<path d="M1038.14 44.6172C1039.54 45.524 1037.38 47.2469 1036.74 45.7751C1036.68 45.589 1036.68 45.3898 1036.73 45.2029C1036.79 45.0159 1036.9 44.8498 1037.05 44.7256C1037.2 44.6014 1037.38 44.5247 1037.58 44.5054C1037.77 44.4861 1037.97 44.525 1038.14 44.6172Z" fill="#E1E6FF"/>
<path d="M1066.92 44.1922C1066.65 43.5739 1064.06 42.4364 1063.4 42.6921C1063.4 42.6921 1061.01 43.4391 1060.4 44.8633C1059.79 46.2875 1058.99 52.6161 1060.91 53.4338C1062.83 54.2515 1066.83 49.2875 1067.44 47.8633C1068.05 46.4391 1066.92 44.1922 1066.92 44.1922Z" fill="#AB0F0F"/>
<path d="M1067.39 41.4649L1066.22 40.9587L1065.04 40.4588C1064.56 40.259 1064.34 40.4778 1064.34 40.4778L1063.4 42.6807L1065.16 43.4276L1066.92 44.1807L1067.86 41.9779C1067.86 41.9779 1067.84 41.6654 1067.39 41.4649Z" fill="white" fill-opacity="0.08"/>
<path d="M1060.93 46.6835C1061.25 45.1857 1061.65 43.5793 1063.59 43.483C1064.38 43.4511 1065.15 43.6947 1065.78 44.1721C1066.41 44.6494 1066.85 45.3307 1067.03 46.0988C1067.47 47.8327 1066.55 49.2966 1065.37 50.4674C1064.41 51.4195 1062.32 53.4844 1061.29 51.3039C1060.72 49.8327 1060.59 48.2251 1060.93 46.6835Z" fill="#D71E17"/>
<path d="M1063.37 46.2779C1064.08 44.8885 1065.82 44.0969 1066.55 46.4733C1066.94 47.8079 1066.02 50.0415 1064.29 49.2313C1062.9 48.5871 1062.86 47.2741 1063.37 46.2779Z" fill="#EC563D"/>
<path d="M1067.1 42.3552C1067.62 43.9429 1064.86 43.9115 1065.29 42.3731C1065.36 42.1931 1065.49 42.0386 1065.65 41.9292C1065.81 41.8198 1066 41.7604 1066.19 41.7585C1066.39 41.7565 1066.58 41.8122 1066.74 41.9184C1066.9 42.0246 1067.03 42.1767 1067.1 42.3552Z" fill="#E1E6FF"/>
<path d="M1140.02 22.2197C1139.6 21.6492 1136.83 21.1736 1136.25 21.5711C1136.25 21.5711 1134.09 22.8498 1133.82 24.3774C1133.56 25.905 1134.24 32.2497 1136.29 32.6007C1138.35 32.9516 1141.1 27.2022 1141.36 25.6746C1141.63 24.1471 1140.02 22.2197 1140.02 22.2197Z" fill="#AB0F0F"/>
<path d="M1139.85 19.4525L1138.6 19.2363L1137.34 19.0201C1136.83 18.9338 1136.67 19.2135 1136.67 19.2135L1136.26 21.5708L1138.15 21.895L1140.04 22.2193L1140.43 19.8622C1140.43 19.8622 1140.36 19.545 1139.85 19.4525Z" fill="white" fill-opacity="0.08"/>
<path d="M1134.77 26.0295C1134.73 24.4915 1134.75 22.8391 1136.62 22.3191C1137.38 22.1068 1138.2 22.1675 1138.92 22.4907C1139.64 22.814 1140.23 23.3793 1140.57 24.089C1141.4 25.6809 1140.84 27.3165 1139.96 28.7294C1139.24 29.8813 1137.7 32.3697 1136.19 30.4835C1135.28 29.1744 1134.79 27.6226 1134.77 26.0295Z" fill="#D71E17"/>
<path d="M1137.05 25.0663C1137.42 23.5548 1138.96 22.3744 1140.16 24.5314C1140.86 25.7641 1140.48 28.1142 1138.6 27.7335C1137.13 27.4231 1136.78 26.1811 1137.05 25.0663Z" fill="#EC563D"/>
<path d="M1139.78 20.3863C1140.65 21.8144 1137.96 22.4253 1138.02 20.822C1138.05 20.6308 1138.13 20.4529 1138.27 20.3105C1138.4 20.1681 1138.57 20.0674 1138.76 20.021C1138.94 19.9745 1139.14 19.9844 1139.32 20.0494C1139.51 20.1143 1139.67 20.2315 1139.78 20.3863Z" fill="#E1E6FF"/>
<path d="M1210.21 33.5368C1209.97 32.8739 1207.44 31.6536 1206.77 31.8782C1206.77 31.8782 1204.34 32.5134 1203.66 33.9082C1202.99 35.303 1201.89 41.5895 1203.78 42.4957C1205.66 43.4019 1209.88 38.6261 1210.55 37.2252C1211.22 35.8243 1210.21 33.5368 1210.21 33.5368Z" fill="#AB0F0F"/>
<path d="M1210.84 30.8365L1209.68 30.2796L1208.53 29.7228C1208.06 29.4977 1207.83 29.7418 1207.83 29.7418L1206.79 31.8972L1208.51 32.7265L1210.23 33.5557L1211.27 31.4003C1211.27 31.4003 1211.27 31.0436 1210.84 30.8365Z" fill="white" fill-opacity="0.08"/>
<path d="M1204.08 35.7568C1204.48 34.2696 1204.95 32.6864 1206.89 32.7024C1207.68 32.7053 1208.44 32.9838 1209.05 33.4896C1209.65 33.9954 1210.06 34.6967 1210.2 35.472C1210.56 37.2266 1209.58 38.6487 1208.34 39.7583C1207.33 40.6678 1205.16 42.6351 1204.23 40.4079C1203.72 38.907 1203.67 37.2867 1204.08 35.7568Z" fill="#D71E17"/>
<path d="M1206.58 35.4574C1207.35 34.1038 1209.15 33.3917 1209.72 35.804C1210.05 37.1527 1209.04 39.3387 1207.34 38.4526C1206.02 37.7438 1205.98 36.4371 1206.58 35.4574Z" fill="#EC563D"/>
<path d="M1210.48 31.6911C1210.92 33.306 1208.17 33.1492 1208.67 31.6277C1208.75 31.4501 1208.88 31.3003 1209.05 31.1974C1209.21 31.0946 1209.4 31.0433 1209.6 31.0501C1209.79 31.0569 1209.98 31.1215 1210.14 31.2356C1210.3 31.3497 1210.42 31.5083 1210.48 31.6911Z" fill="#E1E6FF"/>
<path d="M1172.78 17.6088C1173.33 18.0507 1176.13 17.7809 1176.59 17.2428C1176.59 17.2428 1178.33 15.4436 1178.19 13.9022C1178.04 12.3608 1175.72 6.41699 1173.65 6.61099C1171.57 6.80499 1170.42 13.0865 1170.57 14.6342C1170.72 16.1818 1172.78 17.6088 1172.78 17.6088Z" fill="#EFDB29"/>
<path d="M1173.66 20.2315L1174.91 20.1101L1176.19 19.9878C1176.7 19.9427 1176.81 19.627 1176.81 19.627L1176.58 17.2431L1174.68 17.4261L1172.77 17.6091L1173 19.9868C1173 19.9868 1173.15 20.2831 1173.66 20.2315Z" fill="white" fill-opacity="0.08"/>
<path d="M1177.47 11.6938C1177.91 13.1711 1178.32 14.7679 1176.65 15.758C1175.98 16.1632 1175.18 16.3196 1174.4 16.2002C1173.62 16.0809 1172.9 15.6933 1172.38 15.1042C1171.17 13.7856 1171.28 12.062 1171.76 10.4722C1172.15 9.17277 1172.99 6.36579 1174.94 7.78943C1176.16 8.80821 1177.04 10.1682 1177.47 11.6938Z" fill="#FCE72C"/>
<path d="M1176.78 11.6188C1176.82 13.1756 1175.64 14.7154 1173.89 12.9484C1172.91 11.9615 1172.64 9.57235 1174.55 9.44544C1176.09 9.36014 1176.75 10.4934 1176.78 11.6188Z" fill="#FFD685"/>
<path d="M1173.49 19.3102C1172.28 18.1666 1174.73 16.8678 1175.08 18.4349C1175.1 18.6281 1175.07 18.8234 1174.98 18.9961C1174.89 19.1687 1174.75 19.3109 1174.58 19.4047C1174.41 19.4984 1174.21 19.5395 1174.02 19.5227C1173.83 19.5058 1173.64 19.4319 1173.49 19.3102Z" fill="#E1E6FF"/>
<path d="M1244.47 21.7705C1245.16 21.8894 1247.49 20.3121 1247.63 19.6199C1247.63 19.6199 1248.3 17.1993 1247.43 15.9215C1246.56 14.6438 1241.65 10.5409 1239.94 11.7135C1238.24 12.886 1240.23 18.9384 1241.1 20.2226C1241.97 21.5067 1244.47 21.7705 1244.47 21.7705Z" fill="#29B094"/>
<path d="M1246.51 23.6493L1247.57 22.926L1248.63 22.2091C1249.06 21.9159 1248.98 21.5739 1248.98 21.5739L1247.64 19.5956L1246.05 20.7147L1244.48 21.7899L1245.82 23.7682C1245.82 23.7682 1246.08 23.9361 1246.51 23.6493Z" fill="white" fill-opacity="0.08"/>
<path d="M1245.7 14.4673C1246.8 15.5451 1247.92 16.7471 1246.94 18.4257C1246.54 19.1058 1245.92 19.6257 1245.18 19.8959C1244.43 20.166 1243.62 20.1696 1242.88 19.906C1241.18 19.3263 1240.45 17.7694 1240.11 16.1395C1239.82 14.8146 1239.21 11.9467 1241.6 12.2573C1243.16 12.5652 1244.59 13.3353 1245.7 14.4673Z" fill="#3DD1B0"/>
<path d="M1244.66 14.2574C1245.45 15.6001 1245.16 17.5161 1242.78 16.8112C1241.44 16.422 1240.05 14.4512 1241.68 13.4248C1242.97 12.6139 1244.1 13.2592 1244.66 14.2574Z" fill="#75DDDD"/>
<path d="M1245.91 22.9214C1244.3 22.4959 1245.83 20.1892 1246.88 21.3871C1246.99 21.546 1247.06 21.7347 1247.06 21.9293C1247.07 22.1238 1247.01 22.3154 1246.91 22.4798C1246.8 22.6442 1246.65 22.774 1246.48 22.8526C1246.3 22.9312 1246.1 22.9552 1245.91 22.9214Z" fill="#E1E6FF"/>
<path d="M1160.83 40.3941C1160.19 40.6745 1159.12 43.2811 1159.38 43.931C1159.38 43.931 1160.17 46.3186 1161.6 46.9055C1163.03 47.4924 1169.38 48.2024 1170.17 46.2728C1170.95 44.3431 1165.93 40.4062 1164.5 39.8193C1163.07 39.2324 1160.83 40.3941 1160.83 40.3941Z" fill="#29B094"/>
<path d="M1158.1 39.9557C1157.9 40.4366 1157.61 41.1452 1157.61 41.1452C1157.61 41.1452 1157.32 41.8537 1157.12 42.3284C1156.92 42.8031 1157.14 43.0286 1157.14 43.0286L1159.36 43.9321L1160.08 42.1668L1160.81 40.3953L1158.59 39.4918C1158.59 39.4918 1158.29 39.4812 1158.1 39.9557Z" fill="white" fill-opacity="0.08"/>
<path d="M1163.42 46.3434C1161.91 46.0465 1160.27 45.6717 1160.22 43.7272C1160.18 42.9413 1160.41 42.1649 1160.88 41.5312C1161.34 40.8975 1162.02 40.446 1162.78 40.2542C1164.51 39.788 1165.99 40.6865 1167.2 41.8486C1168.17 42.7983 1170.27 44.8501 1168.1 45.9162C1166.62 46.5276 1164.99 46.6765 1163.42 46.3434Z" fill="#3DD1B0"/>
<path d="M1162.97 43.9166C1161.57 43.2286 1160.75 41.474 1163.12 40.734C1164.45 40.3226 1166.69 41.194 1165.92 42.9482C1165.29 44.3479 1163.98 44.4085 1162.97 43.9166Z" fill="#75DDDD"/>
<path d="M1159 40.2328C1160.57 39.6958 1160.58 42.461 1159.05 42.0459C1158.87 41.9764 1158.71 41.8547 1158.6 41.6963C1158.48 41.5379 1158.42 41.3498 1158.42 41.1558C1158.41 40.9617 1158.46 40.7705 1158.57 40.6063C1158.67 40.442 1158.82 40.312 1159 40.2328Z" fill="#E1E6FF"/>
<path d="M1061.43 14.3141C1061.13 14.9479 1062.05 17.6071 1062.69 17.9277C1062.69 17.9277 1064.85 19.1956 1066.31 18.6866C1067.77 18.1777 1073 14.5197 1072.32 12.5485C1071.64 10.5772 1065.26 10.9567 1063.8 11.4656C1062.34 11.9745 1061.43 14.3141 1061.43 14.3141Z" fill="#29B094"/>
<path d="M1059.08 15.7741L1059.51 17.0141L1059.93 18.2227C1060.1 18.7124 1060.42 18.7161 1060.42 18.7161L1062.68 17.9352L1062.05 16.1253L1061.43 14.3216L1059.17 15.1024C1059.17 15.1024 1058.92 15.3095 1059.08 15.7741Z" fill="white" fill-opacity="0.08"/>
<path d="M1067.3 17.0717C1065.97 17.8459 1064.52 18.6236 1063.16 17.2341C1062.6 16.6722 1062.26 15.9356 1062.2 15.1508C1062.13 14.3659 1062.33 13.5818 1062.78 12.9333C1063.77 11.436 1065.47 11.1397 1067.12 11.2266C1068.47 11.2962 1071.39 11.4484 1070.48 13.6881C1069.78 15.1072 1068.67 16.2852 1067.3 17.0717Z" fill="#3DD1B0"/>
<path d="M1065.36 15.5404C1063.86 15.9441 1062.08 15.1727 1063.37 13.0543C1064.09 11.8646 1066.35 11.04 1066.93 12.8701C1067.39 14.3343 1066.44 15.2421 1065.36 15.5404Z" fill="#75DDDD"/>
<path d="M1059.94 15.406C1060.77 13.9569 1062.61 16.0281 1061.17 16.7428C1060.98 16.8075 1060.79 16.8171 1060.6 16.7706C1060.41 16.724 1060.24 16.6232 1060.11 16.4808C1059.98 16.3385 1059.89 16.1607 1059.86 15.9696C1059.83 15.7785 1059.86 15.5825 1059.94 15.406Z" fill="#E1E6FF"/>
<path d="M999.899 30.4357C1000.14 31.0986 1002.68 32.3125 1003.35 32.0879C1003.35 32.0879 1005.78 31.4464 1006.42 30.0462C1007.06 28.646 1008.16 22.3594 1006.29 21.4592C1004.41 20.5591 1000.19 25.3474 999.549 26.7475C998.911 28.1475 999.899 30.4357 999.899 30.4357Z" fill="#29B094"/>
<path d="M999.301 33.1437L1000.46 33.6941L1001.62 34.2509C1002.08 34.4697 1002.32 34.2319 1002.32 34.2319L1003.35 32.0767L1001.62 31.2475L999.897 30.4246L998.867 32.5798C998.867 32.5798 998.839 32.9185 999.301 33.1437Z" fill="white" fill-opacity="0.08"/>
<path d="M1006.81 27.4584C1006.43 28.9454 1005.96 30.5286 1004.02 30.5187C1003.23 30.5153 1002.47 30.2378 1001.86 29.7337C1001.25 29.2295 1000.84 28.5302 1000.7 27.7557C1000.34 26.001 1001.32 24.5792 1002.55 23.4633C1003.55 22.5477 1005.72 20.5743 1006.66 22.8012C1007.18 24.3036 1007.23 25.9258 1006.81 27.4584Z" fill="#3DD1B0"/>
<path d="M1006.56 26.64C1005.8 27.9934 1003.99 28.7117 1003.42 26.2996C1003.09 24.9509 1004.1 22.7651 1005.8 23.6449C1007.13 24.3534 1007.11 25.6614 1006.56 26.64Z" fill="#75DDDD"/>
<path d="M999.629 32.2646C999.185 30.6561 1001.95 30.8064 1001.44 32.328C1001.36 32.5056 1001.23 32.6553 1001.07 32.7582C1000.9 32.8611 1000.71 32.9124 1000.52 32.9056C1000.32 32.8988 1000.13 32.8342 999.975 32.72C999.817 32.6059 999.696 32.4474 999.629 32.2646Z" fill="#E1E6FF"/>
<path d="M1099.99 23.5355C1100.66 23.7487 1103.18 22.4855 1103.41 21.816C1103.41 21.816 1104.39 19.5058 1103.69 18.1232C1103 16.7405 1098.68 12.0335 1096.82 12.9725C1094.95 13.9115 1096.16 20.1732 1096.86 21.5557C1097.56 22.9382 1099.99 23.5355 1099.99 23.5355Z" fill="#EFDB29"/>
<path d="M1101.77 25.6653L1102.92 25.0898L1104.06 24.5145C1104.52 24.283 1104.49 23.9523 1104.49 23.9523L1103.42 21.8165L1101.71 22.6762L1100 23.536L1101.07 25.6718C1101.17 25.7407 1101.3 25.777 1101.42 25.7758C1101.54 25.7747 1101.67 25.7362 1101.77 25.6653Z" fill="white" fill-opacity="0.08"/>
<path d="M1102.2 16.6131C1103.14 17.839 1104.11 19.1706 1102.91 20.6984C1102.42 21.3211 1101.74 21.7552 1100.97 21.9257C1100.2 22.0962 1099.39 21.9925 1098.69 21.6324C1097.08 20.8439 1096.56 19.1875 1096.43 17.5393C1096.32 16.1907 1096.09 13.2687 1098.42 13.8875C1099.93 14.398 1101.24 15.3474 1102.2 16.6131Z" fill="#FCE72C"/>
<path d="M1101.64 16.8597C1102.24 18.295 1101.73 20.1609 1099.44 19.1594C1098.17 18.5993 1097.05 16.4587 1098.79 15.6543C1100.18 15.0097 1101.21 15.8267 1101.64 16.8597Z" fill="#FFD685"/>
<path d="M1101.28 24.8655C1099.73 24.2316 1101.54 22.1429 1102.44 23.4701C1102.53 23.6417 1102.56 23.8362 1102.54 24.029C1102.52 24.2218 1102.45 24.4043 1102.32 24.5535C1102.2 24.7027 1102.03 24.812 1101.85 24.8675C1101.66 24.923 1101.46 24.9223 1101.28 24.8655Z" fill="#E1E6FF"/>
</svg>
