<svg width="1344" height="64" viewBox="0 0 1344 64" fill="none" xmlns="http://www.w3.org/2000/svg">
<path d="M342.633 13.4635C338.676 14.5866 334.971 16.4563 331.717 18.9719C324.015 24.6535 317.2 31.499 306.947 31.4367C297.448 31.3739 288.615 26.5945 280.124 22.8203C272.39 19.426 264.527 16.7092 255.991 16.6804C247.711 16.6669 239.566 18.7717 232.33 22.7947C232.021 22.97 231.672 23.1463 231.383 23.3343C223.105 13.4008 205.492 13.6381 193.926 15.8672C184.894 17.6109 176.305 21.1579 168.674 26.2961C160.685 31.6918 154.334 40.9274 143.682 39.9214C137.66 39.3573 131.178 36.3361 125.757 32.3585C127.152 30.6725 128.318 28.8097 129.224 26.8185C131.593 21.6086 131.882 15.3137 128.395 10.4895C125.323 6.24133 119.487 5.3918 115.867 9.49438C111.723 14.1785 112.838 20.849 116.368 25.4986C118.426 28.1431 120.834 30.4959 123.525 32.4925L123.227 32.8076C117.381 38.7592 108.791 41.9354 100.539 42.0524C80.1837 42.3373 63.4573 28.2614 46.2894 19.3231C34.9039 13.4317 21.4943 9.19682 8.88764 11.928L8.92888 13.4485C19.9388 11.1478 32.444 14.2725 42.453 19.1202C59.1638 27.2032 74.204 40.1302 93.0501 43.0296C104.115 44.7318 117.045 41.8451 124.787 33.4928C128.26 35.9552 132.015 37.9952 135.971 39.5699C143.682 42.6111 151.276 42.0782 157.925 36.9724C161.409 34.2817 164.494 31.1547 168.089 28.5945C179.88 20.1862 194.081 15.8314 208.558 16.1846C216.113 16.4203 224.908 18.3642 230.011 24.1724C224.688 27.4736 218.665 32.5223 218.941 39.002C219.173 44.6153 224.551 49.0145 229.862 45.994C235.58 42.7355 236.65 35.1715 234.712 29.4042C234.126 27.649 233.285 25.9896 232.215 24.4797C234.913 23.0011 237.73 21.7526 240.637 20.7475C250.274 17.4657 260.719 17.4168 270.386 20.6082C280.036 23.7837 288.835 29.2848 298.721 31.7932C307.403 33.9938 315.583 32.6708 322.986 27.5579C328.882 23.4737 335.378 16.8971 342.664 14.8509L342.633 13.4635ZM118.195 25.429C115.139 21.7811 113.411 16.8824 115.745 12.3676C118.078 7.85267 123.372 6.91492 126.682 10.8229C131.936 17.0275 129.196 25.7514 124.471 31.4324C122.18 29.6502 120.077 27.6387 118.195 25.429ZM232.985 28.9905C234.417 32.5557 234.692 36.793 233.019 40.3355C231.965 42.5666 229.995 44.7557 227.509 45.3704C224.062 46.218 221.399 43.5338 220.66 40.3903C219.189 34.1299 224.773 28.8728 230.928 25.2421C231.777 26.3974 232.468 27.6601 232.985 28.9972L232.985 28.9905Z" fill="white" fill-opacity="0.08"/>
<path d="M32.809 17.3726C32.4108 16.716 29.502 16.014 28.8515 16.3921C28.8515 16.3921 26.4548 17.5916 26.0578 19.1974C25.6609 20.8033 25.8987 27.6042 28.062 28.1328C30.2253 28.6615 33.5889 22.7506 33.9791 21.145C34.3694 19.5393 32.809 17.3726 32.809 17.3726Z" fill="#673FEF"/>
<path d="M32.8455 14.4144L31.502 14.0905L30.1582 13.7598C29.6209 13.6343 29.4218 13.92 29.4218 13.92L28.8214 16.3922L30.8036 16.8858L32.7789 17.3728L33.3791 14.8938C33.3791 14.8938 33.3764 14.5469 32.8455 14.4144Z" fill="white" fill-opacity="0.08"/>
<path d="M26.937 21.0221C27.0127 19.385 27.1654 17.6323 29.1897 17.217C30.013 17.0497 30.869 17.1744 31.6104 17.5695C32.3519 17.9647 32.9326 18.6058 33.2527 19.3826C34.0144 21.1372 33.293 22.8386 32.2506 24.2684C31.4014 25.4393 29.5612 27.9652 28.0956 25.8493C27.2365 24.3918 26.833 22.7107 26.937 21.0221Z" fill="#8967FD"/>
<path d="M29.429 20.1735C29.94 18.5913 31.6642 17.4434 32.8104 19.8416C33.4534 21.1589 32.881 23.6772 30.8974 23.1303C29.3303 22.6856 29.0663 21.3179 29.429 20.1735Z" fill="#A489FF"/>
<path d="M32.6959 15.4072C33.5062 16.987 30.596 17.4663 30.7893 15.7325C30.8355 15.5308 30.9404 15.3474 31.0907 15.2053C31.2411 15.0631 31.4301 14.9687 31.6341 14.9339C31.838 14.8991 32.0477 14.9255 32.2366 15.0097C32.4256 15.094 32.5854 15.2323 32.6959 15.4072Z" fill="#E1E6FF"/>
<path d="M107.89 44.9492C107.213 44.5938 104.346 45.4257 103.97 46.0833C103.97 46.0833 102.488 48.3125 102.952 49.9017C103.415 51.4908 107.009 57.2664 109.141 56.648C111.274 56.0296 111.243 49.2497 110.786 47.6337C110.328 46.0177 107.89 44.9492 107.89 44.9492Z" fill="#29B094"/>
<path d="M106.411 42.3727L105.087 42.7557L103.762 43.1319C103.233 43.2865 103.209 43.6341 103.209 43.6341L103.942 46.0836L105.929 45.5158L107.916 44.9481L107.182 42.4986C107.182 42.4986 106.941 42.2182 106.411 42.3727Z" fill="white" fill-opacity="0.08"/>
<path d="M104.583 51.0448C103.836 49.5901 103.085 47.9954 104.643 46.625C105.271 46.0604 106.077 45.7334 106.921 45.7008C107.765 45.6681 108.594 45.9319 109.264 46.4464C110.796 47.5928 111.019 49.422 110.834 51.1823C110.679 52.6214 110.349 55.727 108.024 54.6288C106.545 53.8045 105.346 52.5562 104.583 51.0448Z" fill="#75DDDD"/>
<path d="M106.326 49.07C105.975 47.4444 106.899 45.5974 109.089 47.093C110.313 47.9274 111.06 50.3765 109.078 50.8907C107.494 51.2941 106.578 50.2378 106.326 49.07Z" fill="#8EEDED"/>
<path d="M106.777 43.3046C108.272 44.2718 105.966 46.1096 105.283 44.5397C105.221 44.3412 105.219 44.1287 105.278 43.9293C105.338 43.7299 105.455 43.5527 105.615 43.4202C105.776 43.2877 105.972 43.206 106.179 43.1854C106.386 43.1648 106.594 43.2063 106.777 43.3046Z" fill="#E1E6FF"/>
<path d="M137.477 42.8522C137.186 42.1927 134.43 40.9793 133.723 41.2521C133.723 41.2521 131.169 42.0488 130.522 43.568C129.876 45.0871 129.018 51.8377 131.064 52.7099C133.11 53.5821 137.384 48.2872 138.031 46.7681C138.677 45.2489 137.477 42.8522 137.477 42.8522Z" fill="#673FEF"/>
<path d="M137.985 39.9421L136.729 39.4022L135.473 38.8689C134.967 38.6558 134.726 38.8892 134.726 38.8892L133.722 41.2389L135.599 42.0356L137.476 42.839L138.48 40.4892C138.48 40.4892 138.464 40.156 137.985 39.9421Z" fill="white" fill-opacity="0.08"/>
<path d="M131.085 45.5086C131.429 43.9109 131.856 42.1975 133.922 42.0948C134.763 42.0607 135.59 42.3206 136.26 42.8298C136.93 43.3389 137.402 44.0656 137.595 44.885C138.059 46.7344 137.08 48.2959 135.82 49.5448C134.793 50.5604 132.57 52.7629 131.466 50.437C130.855 48.8677 130.723 47.153 131.085 45.5086Z" fill="#8967FD"/>
<path d="M133.69 45.077C134.444 43.595 136.297 42.7506 137.079 45.2854C137.499 46.709 136.515 49.0915 134.67 48.2272C133.183 47.5401 133.145 46.1396 133.69 45.077Z" fill="#A489FF"/>
<path d="M137.675 40.8918C138.228 42.5853 135.277 42.5519 135.74 40.9109C135.817 40.7188 135.95 40.5541 136.121 40.4374C136.292 40.3207 136.494 40.2573 136.701 40.2552C136.908 40.2532 137.111 40.3126 137.284 40.4259C137.458 40.5392 137.594 40.7013 137.675 40.8918Z" fill="#E1E6FF"/>
<path d="M215.454 19.4139C215.004 18.8054 212.053 18.2981 211.431 18.7221C211.431 18.7221 209.125 20.086 208.842 21.7154C208.56 23.3449 209.284 30.1126 211.476 30.4869C213.669 30.8613 216.599 24.7286 216.882 23.0992C217.165 21.4697 215.454 19.4139 215.454 19.4139Z" fill="#673FEF"/>
<path d="M215.274 16.4622L213.933 16.2316L212.592 16.001C212.049 15.909 211.877 16.2073 211.877 16.2073L211.445 18.7217L213.456 19.0676L215.468 19.4135L215.893 16.8992C215.893 16.8992 215.817 16.5609 215.274 16.4622Z" fill="white" fill-opacity="0.08"/>
<path d="M209.848 23.4777C209.804 21.8372 209.829 20.0746 211.823 19.52C212.636 19.2935 213.502 19.3583 214.272 19.703C215.042 20.0478 215.667 20.6508 216.039 21.4078C216.919 23.1058 216.326 24.8504 215.386 26.3575C214.618 27.5863 212.968 30.2406 211.359 28.2286C210.39 26.8323 209.864 25.177 209.848 23.4777Z" fill="#8967FD"/>
<path d="M212.276 22.4513C212.666 20.839 214.307 19.5798 215.597 21.8807C216.334 23.1955 215.934 25.7024 213.928 25.2963C212.357 24.9651 211.988 23.6404 212.276 22.4513Z" fill="#A489FF"/>
<path d="M215.19 17.4582C216.112 18.9816 213.247 19.6332 213.307 17.9231C213.34 17.7191 213.433 17.5294 213.573 17.3774C213.713 17.2255 213.895 17.1181 214.095 17.0686C214.296 17.0191 214.507 17.0296 214.701 17.0989C214.896 17.1681 215.066 17.2931 215.19 17.4582Z" fill="#E1E6FF"/>
<path d="M290.316 31.4864C290.056 30.7793 287.358 29.4777 286.644 29.7173C286.644 29.7173 284.053 30.3949 283.332 31.8827C282.612 33.3704 281.445 40.076 283.454 41.0426C285.462 42.0093 289.969 36.915 290.683 35.4207C291.396 33.9264 290.316 31.4864 290.316 31.4864Z" fill="#673FEF"/>
<path d="M290.984 28.6061L289.753 28.0121L288.523 27.4182C288.022 27.1781 287.776 27.4384 287.776 27.4384L286.67 29.7375L288.503 30.6222L290.342 31.5066L291.448 29.2075C291.448 29.2075 291.451 28.827 290.984 28.6061Z" fill="white" fill-opacity="0.08"/>
<path d="M283.785 33.8534C284.202 32.2671 284.704 30.5783 286.78 30.5955C287.621 30.5986 288.434 30.8956 289.079 31.4351C289.723 31.9746 290.159 32.7227 290.31 33.5497C290.695 35.4213 289.641 36.9382 288.325 38.1218C287.251 39.0919 284.931 41.1903 283.939 38.8146C283.392 37.2137 283.338 35.4853 283.785 33.8534Z" fill="#8967FD"/>
<path d="M286.445 33.535C287.267 32.0912 289.189 31.3317 289.792 33.9048C290.145 35.3435 289.067 37.6752 287.253 36.73C285.844 35.974 285.806 34.5802 286.445 33.535Z" fill="#A489FF"/>
<path d="M290.608 29.5167C291.075 31.2392 288.134 31.0721 288.67 29.4491C288.756 29.2596 288.896 29.0999 289.072 28.9902C289.249 28.8804 289.454 28.8257 289.662 28.833C289.869 28.8402 290.07 28.9091 290.239 29.0309C290.407 29.1526 290.536 29.3217 290.608 29.5167Z" fill="#E1E6FF"/>
<path d="M250.388 14.4957C250.975 14.9669 253.957 14.6792 254.448 14.1053C254.448 14.1053 256.312 12.186 256.154 10.5419C255.996 8.89771 253.528 2.55769 251.311 2.76463C249.094 2.97156 247.875 9.67185 248.033 11.3227C248.191 12.9735 250.388 14.4957 250.388 14.4957Z" fill="#29B094"/>
<path d="M251.337 17.2942L252.668 17.1647L254.033 17.0342C254.578 16.986 254.689 16.6493 254.689 16.6493L254.447 14.1065L252.417 14.3017L250.387 14.4969L250.629 17.0331C250.629 17.0331 250.784 17.3492 251.337 17.2942Z" fill="white" fill-opacity="0.08"/>
<path d="M255.407 8.18725C255.87 9.76308 256.31 11.4663 254.53 12.5224C253.808 12.9546 252.958 13.1214 252.126 12.9941C251.294 12.8669 250.533 12.4534 249.973 11.825C248.68 10.4185 248.797 8.58005 249.312 6.88427C249.728 5.49817 250.621 2.50406 252.704 4.02261C254.002 5.1093 254.943 6.56001 255.407 8.18725Z" fill="#75DDDD"/>
<path d="M254.657 8.10631C254.702 9.76689 253.445 11.4094 251.579 9.52456C250.529 8.47185 250.246 5.92341 252.285 5.78805C253.918 5.69706 254.624 6.90589 254.657 8.10631Z" fill="#8EEDED"/>
<path d="M251.147 16.3104C249.859 15.0906 252.464 13.7052 252.843 15.3768C252.866 15.5829 252.828 15.7912 252.732 15.9754C252.637 16.1595 252.489 16.3112 252.307 16.4112C252.126 16.5112 251.918 16.555 251.712 16.5371C251.505 16.5191 251.308 16.4402 251.147 16.3104Z" fill="#E1E6FF"/>
<path d="M326.861 18.9347C327.598 19.0615 330.082 17.3791 330.235 16.6408C330.235 16.6408 330.946 14.0588 330.015 12.6959C329.084 11.3329 323.853 6.95656 322.031 8.20725C320.21 9.45794 322.34 15.9139 323.265 17.2836C324.19 18.6534 326.861 18.9347 326.861 18.9347Z" fill="#F57D18"/>
<path d="M329.031 20.9398L330.165 20.1683L331.292 19.4036C331.751 19.0908 331.667 18.726 331.667 18.726L330.235 16.6159L328.546 17.8096L326.862 18.9564L328.294 21.0666C328.294 21.0666 328.579 21.2457 329.031 20.9398Z" fill="white" fill-opacity="0.08"/>
<path d="M328.178 11.1447C329.344 12.2944 330.547 13.5765 329.494 15.367C329.069 16.0924 328.404 16.647 327.614 16.9351C326.824 17.2233 325.958 17.2271 325.165 16.9459C323.353 16.3277 322.574 14.6669 322.207 12.9284C321.901 11.5151 321.251 8.45606 323.803 8.7873C325.465 9.11573 326.99 9.93721 328.178 11.1447Z" fill="#F18E3B"/>
<path d="M327.064 10.9218C327.903 12.3539 327.598 14.3977 325.055 13.6458C323.629 13.2307 322.151 11.1284 323.883 10.0337C325.261 9.16873 326.461 9.85697 327.064 10.9218Z" fill="#FFBE87"/>
<path d="M328.395 20.1633C326.674 19.7095 328.316 17.249 329.432 18.5268C329.552 18.6963 329.619 18.8975 329.624 19.1051C329.629 19.3126 329.573 19.517 329.462 19.6924C329.351 19.8677 329.19 20.0061 329 20.09C328.81 20.1738 328.6 20.1994 328.395 20.1633Z" fill="#E1E6FF"/>
<path d="M237.652 38.8C236.959 39.0991 235.827 41.8794 236.106 42.5726C236.106 42.5726 236.942 45.1194 238.468 45.7454C239.993 46.3714 246.767 47.1288 247.606 45.0705C248.444 43.0122 243.085 38.8128 241.559 38.1868C240.034 37.5608 237.652 38.8 237.652 38.8Z" fill="#F57D18"/>
<path d="M234.733 38.3323C234.52 38.8453 234.213 39.6011 234.213 39.6011C234.213 39.6011 233.907 40.3569 233.693 40.8632C233.48 41.3695 233.714 41.6101 233.714 41.6101L236.076 42.5738L236.852 40.6908L237.622 38.8012L235.26 37.8375C235.26 37.8375 234.939 37.8262 234.733 38.3323Z" fill="white" fill-opacity="0.08"/>
<path d="M240.406 45.1469C238.796 44.8301 237.05 44.4303 236.993 42.3563C236.947 41.5179 237.195 40.6898 237.693 40.0138C238.191 39.3379 238.908 38.8563 239.723 38.6517C241.571 38.1544 243.145 39.1128 244.44 40.3524C245.476 41.3654 247.711 43.5539 245.399 44.6911C243.819 45.3433 242.078 45.5021 240.406 45.1469Z" fill="#F18E3B"/>
<path d="M239.926 42.5572C238.438 41.8234 237.559 39.9518 240.087 39.1625C241.504 38.7237 243.898 39.6531 243.068 41.5243C242.401 43.0173 241.001 43.082 239.926 42.5572Z" fill="#FFBE87"/>
<path d="M235.686 38.6288C237.366 38.056 237.379 41.0055 235.739 40.5628C235.545 40.4886 235.379 40.3589 235.259 40.1899C235.139 40.0209 235.073 39.8202 235.067 39.6133C235.061 39.4064 235.117 39.2024 235.227 39.0272C235.338 38.852 235.497 38.7133 235.686 38.6288Z" fill="#E1E6FF"/>
<path d="M131.617 10.9813C131.295 11.6574 132.279 14.4938 132.956 14.8358C132.956 14.8358 135.262 16.1882 136.822 15.6453C138.382 15.1025 143.956 11.2006 143.231 9.09795C142.507 6.99529 135.704 7.40001 134.144 7.94286C132.583 8.48571 131.617 10.9813 131.617 10.9813Z" fill="#F57D18"/>
<path d="M129.117 12.5386L129.567 13.8612L130.016 15.1504C130.197 15.6728 130.544 15.6767 130.544 15.6767L132.957 14.8438L132.284 12.9133L131.618 10.9892L129.205 11.8221C129.205 11.8221 128.937 12.043 129.117 12.5386Z" fill="white" fill-opacity="0.08"/>
<path d="M137.881 13.9227C136.468 14.7485 134.916 15.5781 133.461 14.0959C132.872 13.4966 132.51 12.7109 132.437 11.8737C132.365 11.0365 132.586 10.2002 133.063 9.5084C134.121 7.91136 135.934 7.59523 137.685 7.68791C139.129 7.76222 142.25 7.92452 141.273 10.3136C140.527 11.8272 139.346 13.0838 137.881 13.9227Z" fill="#F18E3B"/>
<path d="M135.81 12.2894C134.206 12.7199 132.309 11.8971 133.682 9.63745C134.455 8.36847 136.867 7.48885 137.481 9.44101C137.97 11.0028 136.962 11.9711 135.81 12.2894Z" fill="#FFBE87"/>
<path d="M130.025 12.1479C130.911 10.6022 132.873 12.8115 131.338 13.5739C131.144 13.6428 130.933 13.6531 130.733 13.6034C130.532 13.5538 130.351 13.4463 130.211 13.2944C130.071 13.1425 129.979 12.9529 129.946 12.7491C129.913 12.5452 129.94 12.3362 130.025 12.1479Z" fill="#E1E6FF"/>
<path d="M65.9832 28.1777C66.2427 28.8847 68.9473 30.1796 69.6616 29.94C69.6616 29.94 72.2526 29.2557 72.9395 27.7621C73.6265 26.2686 74.7994 19.5629 72.7979 18.6027C70.7964 17.6426 66.2899 22.7502 65.6096 24.2435C64.9293 25.7369 65.9832 28.1777 65.9832 28.1777Z" fill="#F57D18"/>
<path d="M65.346 31.0661L66.5833 31.6533L67.814 32.2472C68.3142 32.4806 68.561 32.227 68.561 32.227L69.6599 29.9281L67.8206 29.0436L65.9815 28.1658L64.8826 30.4647C64.8826 30.4647 64.8523 30.8259 65.346 31.0661Z" fill="white" fill-opacity="0.08"/>
<path d="M73.3643 25.0019C72.9535 26.588 72.452 28.2768 70.3828 28.2661C69.5419 28.2626 68.7284 27.9665 68.0818 27.4288C67.4353 26.8911 66.9959 26.1451 66.8392 25.3189C66.4547 23.4473 67.5014 21.9307 68.8173 20.7404C69.8853 19.7637 72.1975 17.6588 73.2029 20.0342C73.7521 21.6367 73.8083 23.3671 73.3643 25.0019Z" fill="#F18E3B"/>
<path d="M73.0856 24.1299C72.2705 25.5735 70.3491 26.3397 69.7388 23.7668C69.3861 22.3281 70.4574 19.9966 72.2715 20.9351C73.6935 21.6908 73.6779 23.086 73.0856 24.1299Z" fill="#FFBE87"/>
<path d="M65.6999 30.1294C65.2262 28.4137 68.1738 28.5741 67.6372 30.197C67.5517 30.3865 67.4118 30.5462 67.2353 30.656C67.0587 30.7657 66.8536 30.8204 66.6458 30.8131C66.4381 30.8059 66.2373 30.737 66.0688 30.6153C65.9004 30.4935 65.7719 30.3244 65.6999 30.1294Z" fill="#E1E6FF"/>
<path d="M172.754 20.8194C173.474 21.0468 176.154 19.6994 176.401 18.9853C176.401 18.9853 177.442 16.5211 176.702 15.0462C175.961 13.5713 171.36 8.55053 169.371 9.55214C167.383 10.5537 168.665 17.2329 169.413 18.7076C170.16 20.1823 172.754 20.8194 172.754 20.8194Z" fill="#29B094"/>
<path d="M174.644 23.0892L175.869 22.4753L177.087 21.8617C177.581 21.6147 177.545 21.262 177.545 21.262L176.402 18.9838L174.578 19.9009L172.754 20.8179L173.897 23.0961C174.008 23.1697 174.139 23.2083 174.272 23.2071C174.405 23.2059 174.535 23.1648 174.644 23.0892Z" fill="white" fill-opacity="0.08"/>
<path d="M175.112 13.4336C176.115 14.7411 177.141 16.1615 175.864 17.7912C175.348 18.4554 174.616 18.9184 173.795 19.1003C172.974 19.2822 172.115 19.1716 171.366 18.7875C169.648 17.9464 169.093 16.1796 168.952 14.4215C168.84 12.983 168.595 9.86622 171.082 10.5262C172.686 11.0708 174.09 12.0835 175.112 13.4336Z" fill="#75DDDD"/>
<path d="M174.513 13.6966C175.155 15.2276 174.609 17.2178 172.164 16.1496C170.813 15.5522 169.616 13.2688 171.475 12.4109C172.958 11.7233 174.049 12.5947 174.513 13.6966Z" fill="#8EEDED"/>
<path d="M174.122 22.2361C172.475 21.5599 174.403 19.332 175.356 20.7477C175.452 20.9307 175.492 21.1382 175.47 21.3438C175.449 21.5495 175.367 21.7441 175.235 21.9033C175.103 22.0625 174.927 22.179 174.729 22.2382C174.531 22.2974 174.319 22.2967 174.122 22.2361Z" fill="#E1E6FF"/>
<path d="M676.481 14.7457C672.524 15.8688 668.818 17.7386 665.564 20.2542C657.863 25.9357 651.047 32.7812 640.794 32.7189C631.296 32.6561 622.463 27.8767 613.971 24.1025C606.237 20.7082 598.375 17.9915 589.838 17.9627C581.559 17.9491 573.414 20.0539 566.178 24.077C565.869 24.2522 565.52 24.4285 565.231 24.6165C556.953 14.6831 539.34 14.9204 527.774 17.1494C518.741 18.8932 510.153 22.4401 502.522 27.5783C494.532 32.974 488.182 42.2096 477.53 41.2037C471.508 40.6395 465.025 37.6184 459.605 33.6408C461 31.9548 462.165 30.092 463.072 28.1007C465.44 22.8908 465.73 16.596 462.242 11.7717C459.17 7.52356 453.334 6.67402 449.715 10.7766C445.57 15.4607 446.686 22.1313 450.215 26.7808C452.274 29.4254 454.681 31.7782 457.373 33.7747L457.074 34.0898C451.229 40.0414 442.639 43.2176 434.386 43.3346C414.031 43.6195 397.305 29.5436 380.137 20.6054C368.752 14.7139 355.342 10.479 342.735 13.2102L342.777 14.7308C353.786 12.43 366.292 15.5548 376.301 20.4024C393.011 28.4854 408.052 41.4124 426.898 44.3118C437.963 46.014 450.892 43.1273 458.635 34.775C462.108 37.2374 465.862 39.2775 469.818 40.8521C477.529 43.8933 485.123 43.3604 491.772 38.2546C495.257 35.5639 498.342 32.4369 501.937 29.8767C513.727 21.4684 527.928 17.1137 542.405 17.4668C549.96 17.7025 558.756 19.6464 563.859 25.4546C558.536 28.7558 552.513 33.8045 552.788 40.2843C553.021 45.8975 558.399 50.2967 563.71 47.2762C569.428 44.0177 570.498 36.4537 568.559 30.6865C567.974 28.9312 567.133 27.2719 566.063 25.7619C568.76 24.2833 571.578 23.0348 574.485 22.0297C584.122 18.748 594.566 18.6991 604.234 21.8905C613.884 25.0659 622.683 30.5671 632.568 33.0754C641.251 35.276 649.431 33.953 656.834 28.8402C662.73 24.7559 669.225 18.1794 676.511 16.1331L676.481 14.7457ZM452.042 26.7113C448.987 23.0633 447.259 18.1647 449.592 13.6498C451.926 9.1349 457.22 8.19714 460.529 12.1052C465.783 18.3098 463.043 27.0336 458.318 32.7146C456.027 30.9325 453.924 28.9209 452.042 26.7113ZM566.833 30.2728C568.264 33.8379 568.539 38.0752 566.867 41.6178C565.813 43.8488 563.843 46.0379 561.357 46.6526C557.909 47.5002 555.247 44.816 554.508 41.6726C553.037 35.4121 558.62 30.1551 564.776 26.5243C565.624 27.6796 566.316 28.9423 566.833 30.2794L566.833 30.2728Z" fill="white" fill-opacity="0.08"/>
<path d="M366.118 18.1529C365.719 17.4963 362.811 16.7943 362.16 17.1723C362.16 17.1723 359.763 18.3719 359.366 19.9777C358.969 21.5835 359.207 28.3844 361.371 28.9131C363.534 29.4417 366.897 23.5309 367.288 21.9253C367.678 20.3196 366.118 18.1529 366.118 18.1529Z" fill="#673FEF"/>
<path d="M366.154 15.1957L364.811 14.8717L363.467 14.5411C362.929 14.4155 362.73 14.7012 362.73 14.7012L362.13 17.1735L364.112 17.667L366.088 18.154L366.688 15.6751C366.688 15.6751 366.685 15.3281 366.154 15.1957Z" fill="white" fill-opacity="0.08"/>
<path d="M360.242 21.8024C360.317 20.1652 360.47 18.4125 362.494 17.9973C363.318 17.83 364.174 17.9546 364.915 18.3498C365.657 18.745 366.237 19.3861 366.557 20.1629C367.319 21.9175 366.598 23.6189 365.555 25.0486C364.706 26.2196 362.866 28.7455 361.4 26.6296C360.541 25.1721 360.138 23.491 360.242 21.8024Z" fill="#8967FD"/>
<path d="M362.738 20.9548C363.249 19.3726 364.973 18.2246 366.119 20.6228C366.762 21.9402 366.19 24.4584 364.206 23.9115C362.639 23.4668 362.375 22.0992 362.738 20.9548Z" fill="#A489FF"/>
<path d="M366.004 16.1884C366.815 17.7682 363.905 18.2475 364.098 16.5138C364.144 16.3121 364.249 16.1286 364.399 15.9865C364.55 15.8444 364.739 15.75 364.943 15.7152C365.147 15.6804 365.356 15.7068 365.545 15.791C365.734 15.8752 365.894 16.0135 366.004 16.1884Z" fill="#E1E6FF"/>
<path d="M441.198 45.7295C440.521 45.3741 437.654 46.206 437.278 46.8636C437.278 46.8636 435.797 49.0928 436.261 50.6819C436.724 52.2711 440.318 58.0467 442.45 57.4283C444.582 56.8098 444.552 50.03 444.094 48.414C443.637 46.7979 441.198 45.7295 441.198 45.7295Z" fill="#29B094"/>
<path d="M439.72 43.154L438.395 43.5369L437.071 43.9132C436.541 44.0677 436.517 44.4154 436.517 44.4154L437.251 46.8648L439.238 46.2971L441.225 45.7293L440.491 43.2799C440.491 43.2799 440.25 42.9994 439.72 43.154Z" fill="white" fill-opacity="0.08"/>
<path d="M437.892 51.826C437.145 50.3714 436.394 48.7766 437.952 47.4063C438.58 46.8417 439.386 46.5147 440.23 46.482C441.074 46.4494 441.902 46.7132 442.572 47.2276C444.105 48.374 444.328 50.2033 444.142 51.9636C443.988 53.4026 443.658 56.5083 441.332 55.4101C439.853 54.5857 438.655 53.3375 437.892 51.826Z" fill="#75DDDD"/>
<path d="M439.635 49.8503C439.284 48.2247 440.208 46.3776 442.397 47.8733C443.621 48.7077 444.368 51.1568 442.387 51.671C440.803 52.0744 439.886 51.018 439.635 49.8503Z" fill="#8EEDED"/>
<path d="M440.086 44.0858C441.581 45.053 439.274 46.8908 438.591 45.321C438.529 45.1224 438.528 44.9099 438.587 44.7105C438.646 44.5111 438.764 44.3339 438.924 44.2014C439.084 44.069 439.28 43.9872 439.487 43.9666C439.694 43.946 439.903 43.9875 440.086 44.0858Z" fill="#E1E6FF"/>
<path d="M470.786 43.6325C470.494 42.973 467.739 41.7596 467.032 42.0324C467.032 42.0324 464.477 42.8291 463.831 44.3483C463.185 45.8674 462.327 52.618 464.373 53.4902C466.418 54.3624 470.693 49.0675 471.339 47.5484C471.985 46.0292 470.786 43.6325 470.786 43.6325Z" fill="#673FEF"/>
<path d="M471.289 40.7233L470.033 40.1834L468.778 39.6502C468.271 39.437 468.031 39.6705 468.031 39.6705L467.027 42.0202L468.904 42.8169L470.781 43.6203L471.785 41.2705C471.785 41.2705 471.769 40.9373 471.289 40.7233Z" fill="white" fill-opacity="0.08"/>
<path d="M464.394 46.2899C464.737 44.6922 465.165 42.9787 467.231 42.876C468.072 42.842 468.899 43.1018 469.569 43.611C470.239 44.1202 470.711 44.8469 470.904 45.6662C471.368 47.5156 470.389 49.0772 469.128 50.326C468.101 51.3416 465.878 53.5442 464.774 51.2182C464.164 49.649 464.031 47.9342 464.394 46.2899Z" fill="#8967FD"/>
<path d="M466.999 45.8583C467.753 44.3762 469.605 43.5318 470.388 46.0667C470.807 47.4902 469.824 49.8727 467.978 49.0085C466.492 48.3213 466.454 46.9208 466.999 45.8583Z" fill="#A489FF"/>
<path d="M470.983 41.6721C471.537 43.3656 468.586 43.3321 469.049 41.6912C469.126 41.4991 469.259 41.3343 469.43 41.2176C469.601 41.1009 469.803 41.0376 470.01 41.0355C470.217 41.0335 470.42 41.0929 470.593 41.2062C470.766 41.3195 470.902 41.4816 470.983 41.6721Z" fill="#E1E6FF"/>
<path d="M548.759 20.1951C548.308 19.5866 545.358 19.0793 544.736 19.5033C544.736 19.5033 542.43 20.8673 542.147 22.4967C541.864 24.1261 542.588 30.8938 544.781 31.2682C546.973 31.6425 549.904 25.5098 550.187 23.8804C550.47 22.251 548.759 20.1951 548.759 20.1951Z" fill="#673FEF"/>
<path d="M548.579 17.2425L547.238 17.0119L545.897 16.7813C545.354 16.6892 545.182 16.9875 545.182 16.9875L544.749 19.502L546.761 19.8479L548.772 20.1938L549.198 17.6795C549.198 17.6795 549.122 17.3412 548.579 17.2425Z" fill="white" fill-opacity="0.08"/>
<path d="M543.157 24.258C543.112 22.6174 543.138 20.8548 545.132 20.3002C545.944 20.0738 546.811 20.1385 547.58 20.4833C548.35 20.828 548.975 21.4311 549.348 22.1881C550.228 23.8861 549.634 25.6307 548.694 27.1378C547.927 28.3666 546.277 31.0208 544.667 29.0089C543.699 27.6126 543.173 25.9573 543.157 24.258Z" fill="#8967FD"/>
<path d="M545.584 23.2316C545.974 21.6193 547.615 20.3601 548.906 22.661C549.642 23.9758 549.243 26.4827 547.237 26.0766C545.666 25.7454 545.296 24.4207 545.584 23.2316Z" fill="#A489FF"/>
<path d="M548.499 18.2395C549.421 19.7628 546.556 20.4145 546.616 18.7043C546.649 18.5004 546.741 18.3106 546.881 18.1587C547.022 18.0068 547.203 17.8994 547.404 17.8499C547.604 17.8003 547.815 17.8108 548.01 17.8801C548.205 17.9494 548.375 18.0744 548.499 18.2395Z" fill="#E1E6FF"/>
<path d="M623.62 32.2667C623.361 31.5596 620.663 30.2579 619.948 30.4976C619.948 30.4976 617.357 31.1751 616.637 32.6629C615.916 34.1507 614.75 40.8562 616.758 41.8229C618.767 42.7895 623.274 37.6953 623.987 36.201C624.701 34.7067 623.62 32.2667 623.62 32.2667Z" fill="#673FEF"/>
<path d="M624.293 29.3864L623.062 28.7924L621.831 28.1984C621.331 27.9584 621.084 28.2187 621.084 28.2187L619.979 30.5178L621.811 31.4024L623.651 32.2869L624.756 29.9878C624.756 29.9878 624.759 29.6073 624.293 29.3864Z" fill="white" fill-opacity="0.08"/>
<path d="M617.09 34.6337C617.507 33.0474 618.008 31.3586 620.085 31.3757C620.925 31.3788 621.738 31.6759 622.383 32.2154C623.028 32.7549 623.464 33.503 623.615 34.33C623.999 36.2016 622.946 37.7184 621.63 38.902C620.555 39.8722 618.236 41.9706 617.244 39.5949C616.697 37.994 616.643 36.2656 617.09 34.6337Z" fill="#8967FD"/>
<path d="M619.758 34.3153C620.58 32.8715 622.501 32.112 623.105 34.6851C623.458 36.1237 622.38 38.4555 620.565 37.5102C619.157 36.7542 619.119 35.3604 619.758 34.3153Z" fill="#A489FF"/>
<path d="M623.916 30.2979C624.383 32.0205 621.442 31.8533 621.979 30.2304C622.064 30.0409 622.204 29.8811 622.381 29.7714C622.557 29.6617 622.763 29.607 622.97 29.6142C623.178 29.6215 623.379 29.6904 623.547 29.8121C623.716 29.9339 623.844 30.103 623.916 30.2979Z" fill="#E1E6FF"/>
<path d="M583.697 15.2769C584.283 15.7482 587.265 15.4604 587.757 14.8865C587.757 14.8865 589.62 12.9673 589.462 11.3231C589.304 9.67894 586.837 3.33893 584.62 3.54586C582.403 3.7528 581.183 10.4531 581.341 12.1039C581.5 13.7547 583.697 15.2769 583.697 15.2769Z" fill="#29B094"/>
<path d="M584.641 18.0745L585.973 17.9449L587.337 17.8145C587.883 17.7663 587.994 17.4296 587.994 17.4296L587.752 14.8868L585.721 15.082L583.691 15.2772L583.933 17.8133C583.933 17.8133 584.089 18.1295 584.641 18.0745Z" fill="white" fill-opacity="0.08"/>
<path d="M588.715 8.96751C589.179 10.5433 589.619 12.2466 587.839 13.3026C587.117 13.7349 586.266 13.9017 585.434 13.7744C584.603 13.6471 583.841 13.2337 583.281 12.6053C581.989 11.1988 582.106 9.36031 582.62 7.66453C583.036 6.27842 583.93 3.28432 586.013 4.80287C587.31 5.88956 588.251 7.34027 588.715 8.96751Z" fill="#75DDDD"/>
<path d="M587.966 8.88755C588.011 10.5481 586.754 12.1906 584.887 10.3058C583.838 9.25308 583.555 6.70464 585.594 6.56928C587.226 6.47829 587.933 7.68713 587.966 8.88755Z" fill="#8EEDED"/>
<path d="M584.455 17.0916C583.167 15.8719 585.773 14.4865 586.152 16.158C586.175 16.3641 586.136 16.5725 586.041 16.7566C585.946 16.9408 585.798 17.0925 585.616 17.1925C585.434 17.2925 585.227 17.3363 585.02 17.3183C584.814 17.3004 584.617 17.2215 584.455 17.0916Z" fill="#E1E6FF"/>
<path d="M660.169 19.716C660.907 19.8428 663.39 18.1604 663.544 17.4221C663.544 17.4221 664.255 14.84 663.324 13.4771C662.392 12.1142 657.161 7.73781 655.34 8.9885C653.519 10.2392 655.649 16.6951 656.574 18.0649C657.499 19.4347 660.169 19.716 660.169 19.716Z" fill="#F57D18"/>
<path d="M662.34 21.7201L663.473 20.9486L664.601 20.1839C665.059 19.8711 664.976 19.5063 664.976 19.5063L663.544 17.3961L661.854 18.5899L660.17 19.7367L661.602 21.8469C661.602 21.8469 661.888 22.026 662.34 21.7201Z" fill="white" fill-opacity="0.08"/>
<path d="M661.487 11.9259C662.653 13.0756 663.855 14.3578 662.803 16.1482C662.377 16.8737 661.712 17.4282 660.922 17.7164C660.132 18.0046 659.267 18.0084 658.474 17.7272C656.662 17.1089 655.883 15.4482 655.515 13.7096C655.21 12.2963 654.56 9.23731 657.112 9.56855C658.774 9.89698 660.298 10.7185 661.487 11.9259Z" fill="#F18E3B"/>
<path d="M660.372 11.7021C661.212 13.1342 660.907 15.178 658.364 14.4261C656.938 14.0109 655.459 11.9087 657.191 10.8139C658.569 9.94901 659.769 10.6372 660.372 11.7021Z" fill="#FFBE87"/>
<path d="M661.704 20.9436C659.983 20.4897 661.625 18.0293 662.74 19.3071C662.86 19.4766 662.927 19.6778 662.933 19.8853C662.938 20.0929 662.881 20.2973 662.77 20.4726C662.659 20.648 662.498 20.7864 662.309 20.8703C662.119 20.9541 661.908 20.9796 661.704 20.9436Z" fill="#E1E6FF"/>
<path d="M570.957 39.5812C570.264 39.8803 569.131 42.6607 569.41 43.3539C569.41 43.3539 570.247 45.9006 571.772 46.5267C573.297 47.1527 580.072 47.91 580.91 45.8517C581.749 43.7935 576.389 39.5941 574.864 38.9681C573.339 38.342 570.957 39.5812 570.957 39.5812Z" fill="#F57D18"/>
<path d="M568.041 39.1126C567.828 39.6256 567.522 40.3813 567.522 40.3813C567.522 40.3813 567.215 41.1371 567.002 41.6435C566.789 42.1498 567.022 42.3904 567.022 42.3904L569.384 43.3541L570.161 41.471L570.93 39.5815L568.568 38.6178C568.568 38.6178 568.248 38.6064 568.041 39.1126Z" fill="white" fill-opacity="0.08"/>
<path d="M573.715 45.9271C572.104 45.6104 570.358 45.2106 570.302 43.1365C570.256 42.2982 570.503 41.47 571.001 40.7941C571.499 40.1181 572.217 39.6365 573.031 39.4319C574.88 38.9347 576.454 39.8931 577.749 41.1327C578.784 42.1457 581.019 44.3342 578.708 45.4714C577.127 46.1235 575.387 46.2824 573.715 45.9271Z" fill="#F18E3B"/>
<path d="M573.235 43.3385C571.746 42.6046 570.868 40.7331 573.396 39.9437C574.812 39.5049 577.207 40.4344 576.377 42.3056C575.71 43.7986 574.31 43.8632 573.235 43.3385Z" fill="#FFBE87"/>
<path d="M568.999 39.4081C570.678 38.8353 570.692 41.7849 569.051 41.3421C568.858 41.268 568.691 41.1382 568.571 40.9692C568.452 40.8002 568.385 40.5996 568.38 40.3926C568.374 40.1857 568.43 39.9817 568.54 39.8065C568.65 39.6313 568.81 39.4927 568.999 39.4081Z" fill="#E1E6FF"/>
<path d="M464.925 11.7625C464.603 12.4386 465.588 15.275 466.264 15.6171C466.264 15.6171 468.57 16.9694 470.13 16.4265C471.691 15.8837 477.264 11.9818 476.54 9.87918C475.816 7.77653 469.013 8.18124 467.452 8.72409C465.892 9.26694 464.925 11.7625 464.925 11.7625Z" fill="#F57D18"/>
<path d="M462.422 13.3189L462.872 14.6415L463.321 15.9307C463.502 16.4531 463.849 16.457 463.849 16.457L466.262 15.6241L465.589 13.6935L464.923 11.7695L462.51 12.6024C462.51 12.6024 462.242 12.8232 462.422 13.3189Z" fill="white" fill-opacity="0.08"/>
<path d="M471.186 14.7029C469.773 15.5288 468.221 16.3584 466.765 14.8762C466.176 14.2769 465.814 13.4912 465.742 12.654C465.669 11.8168 465.89 10.9804 466.367 10.2887C467.425 8.69161 469.239 8.37549 470.99 8.46816C472.433 8.54248 475.555 8.70478 474.578 11.0938C473.831 12.6075 472.65 13.864 471.186 14.7029Z" fill="#F18E3B"/>
<path d="M469.118 13.0696C467.515 13.5002 465.617 12.6774 466.991 10.4177C467.764 9.14874 470.176 8.26912 470.79 10.2213C471.279 11.7831 470.271 12.7514 469.118 13.0696Z" fill="#FFBE87"/>
<path d="M463.334 12.9282C464.219 11.3825 466.181 13.5917 464.647 14.3541C464.452 14.4231 464.242 14.4334 464.041 14.3837C463.841 14.334 463.659 14.2266 463.52 14.0747C463.38 13.9228 463.288 13.7332 463.254 13.5293C463.221 13.3255 463.249 13.1165 463.334 12.9282Z" fill="#E1E6FF"/>
<path d="M399.292 28.9589C399.551 29.666 402.256 30.9608 402.97 30.7212C402.97 30.7212 405.561 30.0369 406.248 28.5434C406.935 27.0498 408.108 20.3441 406.107 19.384C404.105 18.4238 399.598 23.5314 398.918 25.0248C398.238 26.5182 399.292 28.9589 399.292 28.9589Z" fill="#F57D18"/>
<path d="M398.655 31.8464L399.892 32.4335L401.123 33.0275C401.623 33.2609 401.87 33.0072 401.87 33.0072L402.968 30.7083L401.129 29.8239L399.29 28.9461L398.191 31.245C398.191 31.245 398.161 31.6062 398.655 31.8464Z" fill="white" fill-opacity="0.08"/>
<path d="M406.673 25.7831C406.262 27.3693 405.761 29.058 403.691 29.0474C402.85 29.0438 402.037 28.7478 401.39 28.21C400.744 27.6723 400.305 26.9264 400.148 26.1002C399.763 24.2286 400.81 22.7119 402.126 21.5216C403.194 20.545 405.506 18.4401 406.511 20.8154C407.061 22.418 407.117 24.1483 406.673 25.7831Z" fill="#F18E3B"/>
<path d="M406.394 24.9092C405.579 26.3528 403.658 27.119 403.047 24.5461C402.695 23.1074 403.766 20.7759 405.58 21.7144C407.002 22.4701 406.987 23.8653 406.394 24.9092Z" fill="#FFBE87"/>
<path d="M399.005 30.9097C398.531 29.194 401.478 29.3543 400.942 30.9773C400.856 31.1668 400.716 31.3265 400.54 31.4362C400.363 31.5459 400.158 31.6007 399.951 31.5934C399.743 31.5862 399.542 31.5173 399.373 31.3955C399.205 31.2738 399.077 31.1046 399.005 30.9097Z" fill="#E1E6FF"/>
<path d="M506.062 21.5987C506.782 21.8261 509.462 20.4787 509.71 19.7646C509.71 19.7646 510.751 17.3004 510.01 15.8255C509.269 14.3506 504.668 9.32983 502.68 10.3314C500.692 11.333 501.974 18.0122 502.721 19.4869C503.469 20.9616 506.062 21.5987 506.062 21.5987Z" fill="#29B094"/>
<path d="M507.953 23.8704L509.178 23.2566L510.396 22.6429C510.889 22.396 510.853 22.0432 510.853 22.0432L509.71 19.7651L507.886 20.6821L506.063 21.5992L507.206 23.8773C507.317 23.9509 507.447 23.9896 507.58 23.9883C507.713 23.9871 507.843 23.946 507.953 23.8704Z" fill="white" fill-opacity="0.08"/>
<path d="M508.417 14.2138C509.42 15.5214 510.446 16.9418 509.169 18.5715C508.653 19.2357 507.921 19.6987 507.1 19.8806C506.278 20.0625 505.419 19.9518 504.671 19.5677C502.953 18.7267 502.398 16.9598 502.257 15.2017C502.144 13.7632 501.9 10.6465 504.387 11.3065C505.991 11.8511 507.394 12.8638 508.417 14.2138Z" fill="#75DDDD"/>
<path d="M507.822 14.4779C508.464 16.0088 507.917 17.9991 505.472 16.9308C504.121 16.3334 502.925 14.05 504.784 13.1921C506.267 12.5045 507.358 13.3759 507.822 14.4779Z" fill="#8EEDED"/>
<path d="M507.43 23.0173C505.783 22.3412 507.712 20.1132 508.665 21.5289C508.761 21.712 508.801 21.9194 508.779 22.1251C508.757 22.3307 508.675 22.5254 508.543 22.6845C508.412 22.8437 508.235 22.9602 508.037 23.0195C507.839 23.0787 507.628 23.0779 507.43 23.0173Z" fill="#E1E6FF"/>
<path d="M1010.33 15.9772C1006.37 17.1003 1002.67 18.97 999.412 21.4856C991.711 27.1672 984.895 34.0127 974.642 33.9503C965.143 33.8875 956.311 29.1081 947.819 25.3339C940.085 21.9396 932.223 19.2229 923.686 19.1941C915.407 19.1805 907.261 21.2854 900.025 25.3084C899.716 25.4836 899.367 25.66 899.079 25.848C890.801 15.9145 873.187 16.1518 861.622 18.3809C852.589 20.1246 844 23.6716 836.369 28.8098C828.38 34.2055 822.03 43.441 811.377 42.4351C805.355 41.8709 798.873 38.8498 793.453 34.8722C794.847 33.1862 796.013 31.3234 796.92 29.3322C799.288 24.1222 799.578 17.8274 796.09 13.0032C793.018 8.755 787.182 7.90547 783.562 12.0081C779.418 16.6922 780.533 23.3627 784.063 28.0123C786.121 30.6568 788.529 33.0096 791.22 35.0062L790.922 35.3213C785.077 41.2729 776.487 44.449 768.234 44.566C747.879 44.851 731.153 30.7751 713.985 21.8368C702.599 15.9453 689.19 11.7105 676.583 14.4416L676.624 15.9622C687.634 13.6615 700.139 16.7862 710.148 21.6338C726.859 29.7169 741.899 42.6438 760.745 45.5433C771.81 47.2455 784.74 44.3587 792.482 36.0064C795.956 38.4688 799.71 40.5089 803.666 42.0836C811.377 45.1248 818.971 44.5918 825.62 39.4861C829.104 36.7954 832.19 33.6684 835.784 31.1082C847.575 22.6998 861.776 18.3451 876.253 18.6983C883.808 18.9339 892.604 20.8778 897.707 26.6861C892.383 29.9872 886.36 35.036 886.636 41.5157C886.868 47.129 892.247 51.5282 897.557 48.5077C903.276 45.2492 904.345 37.6851 902.407 31.9179C901.821 30.1627 900.98 28.5033 899.911 26.9934C902.608 25.5148 905.425 24.2663 908.332 23.2611C917.969 19.9794 928.414 19.9305 938.082 23.1219C947.732 26.2974 956.53 31.7985 966.416 34.3069C975.099 36.5075 983.278 35.1845 990.681 30.0716C996.577 25.9874 1003.07 19.4108 1010.36 17.3645L1010.33 15.9772ZM785.89 27.9427C782.834 24.2947 781.106 19.3961 783.44 14.8812C785.774 10.3663 791.068 9.42859 794.377 13.3366C799.631 19.5412 796.891 28.2651 792.166 33.946C789.875 32.1639 787.772 30.1523 785.89 27.9427ZM900.68 31.5042C902.112 35.0694 902.387 39.3066 900.714 42.8492C899.66 45.0802 897.691 47.2693 895.205 47.884C891.757 48.7317 889.095 46.0475 888.356 42.904C886.884 36.6436 892.468 31.3865 898.623 27.7558C899.472 28.911 900.164 30.1738 900.681 31.5109L900.68 31.5042Z" fill="white" fill-opacity="0.08"/>
<path d="M700.504 19.8863C700.106 19.2297 697.197 18.5277 696.547 18.9057C696.547 18.9057 694.15 20.1053 693.753 21.7111C693.356 23.3169 693.594 30.1178 695.757 30.6465C697.921 31.1751 701.284 25.2643 701.674 23.6587C702.065 22.053 700.504 19.8863 700.504 19.8863Z" fill="#673FEF"/>
<path d="M700.541 16.9291L699.197 16.6051L697.854 16.2745C697.316 16.1489 697.117 16.4346 697.117 16.4346L696.517 18.9069L698.499 19.4004L700.474 19.8874L701.074 17.4085C701.074 17.4085 701.072 17.0615 700.541 16.9291Z" fill="white" fill-opacity="0.08"/>
<path d="M694.632 23.5358C694.708 21.8986 694.861 20.1459 696.885 19.7306C697.708 19.5634 698.564 19.688 699.306 20.0832C700.047 20.4784 700.628 21.1195 700.948 21.8963C701.71 23.6509 700.988 25.3523 699.946 26.782C699.097 27.953 697.257 30.4789 695.791 28.363C694.932 26.9055 694.528 25.2244 694.632 23.5358Z" fill="#8967FD"/>
<path d="M697.124 22.6882C697.635 21.106 699.359 19.958 700.506 22.3562C701.149 23.6736 700.576 26.1918 698.593 25.6449C697.026 25.2002 696.762 23.8326 697.124 22.6882Z" fill="#A489FF"/>
<path d="M700.391 17.9209C701.202 19.5006 698.291 19.98 698.485 18.2462C698.531 18.0445 698.636 17.8611 698.786 17.7189C698.936 17.5768 699.125 17.4824 699.329 17.4476C699.533 17.4128 699.743 17.4392 699.932 17.5234C700.121 17.6076 700.281 17.7459 700.391 17.9209Z" fill="#E1E6FF"/>
<path d="M775.585 47.4639C774.908 47.1085 772.041 47.9404 771.665 48.598C771.665 48.598 770.184 50.8271 770.647 52.4163C771.111 54.0055 774.704 59.7811 776.837 59.1626C778.969 58.5442 778.939 51.7644 778.481 50.1483C778.023 48.5323 775.585 47.4639 775.585 47.4639Z" fill="#29B094"/>
<path d="M774.107 44.8874L772.782 45.2703L771.458 45.6466C770.928 45.8011 770.904 46.1488 770.904 46.1488L771.638 48.5982L773.625 48.0305L775.611 47.4627L774.878 45.0133C774.878 45.0133 774.636 44.7328 774.107 44.8874Z" fill="white" fill-opacity="0.08"/>
<path d="M772.278 53.5594C771.531 52.1048 770.781 50.51 772.339 49.1397C772.967 48.5751 773.773 48.2481 774.616 48.2154C775.46 48.1828 776.289 48.4466 776.959 48.961C778.492 50.1074 778.715 51.9367 778.529 53.697C778.374 55.136 778.045 58.2417 775.719 57.1435C774.24 56.3191 773.042 55.0709 772.278 53.5594Z" fill="#75DDDD"/>
<path d="M774.021 51.5846C773.67 49.9591 774.595 48.112 776.784 49.6077C778.008 50.4421 778.755 52.8912 776.774 53.4054C775.189 53.8087 774.273 52.7524 774.021 51.5846Z" fill="#8EEDED"/>
<path d="M774.473 45.8192C775.967 46.7864 773.661 48.6242 772.978 47.0544C772.916 46.8558 772.914 46.6433 772.974 46.4439C773.033 46.2445 773.15 46.0673 773.311 45.9348C773.471 45.8024 773.667 45.7206 773.874 45.7C774.081 45.6794 774.289 45.7209 774.473 45.8192Z" fill="#E1E6FF"/>
<path d="M805.173 45.3659C804.881 44.7064 802.125 43.493 801.419 43.7658C801.419 43.7658 798.864 44.5625 798.218 46.0817C797.572 47.6008 796.713 54.3514 798.759 55.2236C800.805 56.0958 805.08 50.8009 805.726 49.2818C806.372 47.7626 805.173 45.3659 805.173 45.3659Z" fill="#673FEF"/>
<path d="M805.676 42.4558L804.42 41.9159L803.164 41.3826C802.658 41.1695 802.417 41.4029 802.417 41.4029L801.413 43.7526L803.29 44.5493L805.167 45.3527L806.171 43.0029C806.171 43.0029 806.156 42.6697 805.676 42.4558Z" fill="white" fill-opacity="0.08"/>
<path d="M798.78 48.0223C799.124 46.4246 799.552 44.7112 801.618 44.6084C802.459 44.5744 803.285 44.8343 803.956 45.3434C804.626 45.8526 805.098 46.5793 805.291 47.3986C805.754 49.2481 804.776 50.8096 803.515 52.0584C802.488 53.074 800.265 55.2766 799.161 52.9507C798.551 51.3814 798.418 49.6667 798.78 48.0223Z" fill="#8967FD"/>
<path d="M801.385 47.5907C802.139 46.1087 803.992 45.2642 804.775 47.7991C805.194 49.2226 804.211 51.6052 802.365 50.7409C800.878 50.0537 800.84 48.6533 801.385 47.5907Z" fill="#A489FF"/>
<path d="M805.366 43.4065C805.919 45.1 802.969 45.0665 803.431 43.4255C803.509 43.2335 803.641 43.0687 803.813 42.952C803.984 42.8353 804.185 42.7719 804.392 42.7699C804.6 42.7678 804.803 42.8272 804.976 42.9405C805.149 43.0538 805.285 43.216 805.366 43.4065Z" fill="#E1E6FF"/>
<path d="M883.149 21.9285C882.699 21.32 879.749 20.8127 879.126 21.2367C879.126 21.2367 876.821 22.6007 876.538 24.2301C876.255 25.8595 876.979 32.6272 879.172 33.0016C881.364 33.3759 884.294 27.2432 884.577 25.6138C884.86 23.9844 883.149 21.9285 883.149 21.9285Z" fill="#673FEF"/>
<path d="M882.97 18.9768L881.628 18.7462L880.287 18.5157C879.744 18.4236 879.572 18.7219 879.572 18.7219L879.14 21.2364L881.151 21.5822L883.163 21.9281L883.589 19.4139C883.589 19.4139 883.513 19.0756 882.97 18.9768Z" fill="white" fill-opacity="0.08"/>
<path d="M877.548 25.9924C877.503 24.3518 877.529 22.5892 879.523 22.0346C880.335 21.8082 881.201 21.8729 881.971 22.2177C882.741 22.5624 883.366 23.1655 883.738 23.9225C884.618 25.6205 884.025 27.3651 883.085 28.8722C882.317 30.101 880.667 32.7552 879.058 30.7433C878.089 29.3469 877.563 27.6916 877.548 25.9924Z" fill="#8967FD"/>
<path d="M879.971 24.964C880.361 23.3517 882.002 22.0925 883.293 24.3934C884.029 25.7082 883.63 28.2151 881.623 27.809C880.053 27.4778 879.683 26.1531 879.971 24.964Z" fill="#A489FF"/>
<path d="M882.889 19.9729C883.812 21.4962 880.946 22.1479 881.007 20.4377C881.04 20.2338 881.132 20.044 881.272 19.8921C881.412 19.7402 881.594 19.6328 881.794 19.5832C881.995 19.5337 882.206 19.5442 882.4 19.6135C882.595 19.6828 882.765 19.8078 882.889 19.9729Z" fill="#E1E6FF"/>
<path d="M958.011 33.9991C957.751 33.292 955.053 31.9904 954.339 32.23C954.339 32.23 951.748 32.9076 951.027 34.3953C950.307 35.8831 949.141 42.5887 951.149 43.5553C953.157 44.5219 957.664 39.4277 958.378 37.9334C959.091 36.4391 958.011 33.9991 958.011 33.9991Z" fill="#673FEF"/>
<path d="M958.683 31.1198L957.452 30.5258L956.222 29.9318C955.721 29.6918 955.475 29.9521 955.475 29.9521L954.369 32.2512L956.202 33.1358L958.041 34.0203L959.147 31.7212C959.147 31.7212 959.15 31.3407 958.683 31.1198Z" fill="white" fill-opacity="0.08"/>
<path d="M951.48 36.3671C951.898 34.7808 952.399 33.092 954.475 33.1091C955.316 33.1122 956.129 33.4093 956.774 33.9488C957.419 34.4883 957.854 35.2364 958.006 36.0634C958.39 37.935 957.337 39.4518 956.021 40.6354C954.946 41.6056 952.627 43.704 951.635 41.3283C951.087 39.7274 951.034 37.999 951.48 36.3671Z" fill="#8967FD"/>
<path d="M954.141 36.0487C954.963 34.6049 956.884 33.8454 957.488 36.4185C957.84 37.8571 956.762 40.1889 954.948 39.2436C953.539 38.4876 953.502 37.0938 954.141 36.0487Z" fill="#A489FF"/>
<path d="M958.303 32.0313C958.77 33.7539 955.829 33.5867 956.366 31.9638C956.451 31.7743 956.591 31.6145 956.768 31.5048C956.944 31.3951 957.149 31.3404 957.357 31.3476C957.565 31.3549 957.766 31.4238 957.934 31.5455C958.103 31.6673 958.231 31.8364 958.303 32.0313Z" fill="#E1E6FF"/>
<path d="M918.091 17.0093C918.678 17.4806 921.66 17.1929 922.152 16.6189C922.152 16.6189 924.015 14.6997 923.857 13.0555C923.699 11.4114 921.231 5.07137 919.014 5.2783C916.798 5.48523 915.578 12.1855 915.736 13.8364C915.894 15.4872 918.091 17.0093 918.091 17.0093Z" fill="#29B094"/>
<path d="M919.032 19.8079L920.363 19.6783L921.728 19.5479C922.274 19.4997 922.385 19.163 922.385 19.163L922.142 16.6202L920.112 16.8154L918.082 17.0106L918.324 19.5467C918.324 19.5467 918.479 19.8629 919.032 19.8079Z" fill="white" fill-opacity="0.08"/>
<path d="M923.098 10.7009C923.561 12.2768 924.001 13.98 922.221 15.036C921.499 15.4683 920.649 15.6351 919.817 15.5078C918.985 15.3805 918.224 14.9671 917.664 14.3387C916.371 12.9322 916.488 11.0937 917.003 9.39795C917.419 8.01184 918.312 5.01773 920.396 6.53628C921.693 7.62297 922.634 9.07368 923.098 10.7009Z" fill="#75DDDD"/>
<path d="M922.352 10.6209C922.397 12.2815 921.141 13.924 919.274 12.0392C918.224 10.9865 917.942 8.43804 919.98 8.30268C921.613 8.21169 922.32 9.42053 922.352 10.6209Z" fill="#8EEDED"/>
<path d="M918.842 18.825C917.554 17.6053 920.16 16.2199 920.539 17.8914C920.562 18.0975 920.523 18.3059 920.428 18.49C920.332 18.6742 920.184 18.8259 920.003 18.9259C919.821 19.0259 919.614 19.0697 919.407 19.0517C919.2 19.0338 919.004 18.9549 918.842 18.825Z" fill="#E1E6FF"/>
<path d="M994.556 21.4494C995.293 21.5762 997.777 19.8938 997.931 19.1555C997.931 19.1555 998.642 16.5734 997.71 15.2105C996.779 13.8476 991.548 9.47121 989.727 10.7219C987.905 11.9726 990.036 18.4285 990.961 19.7983C991.885 21.1681 994.556 21.4494 994.556 21.4494Z" fill="#F57D18"/>
<path d="M996.73 23.4535L997.864 22.682L998.991 21.9173C999.45 21.6045 999.367 21.2397 999.367 21.2397L997.935 19.1295L996.245 20.3232L994.561 21.4701L995.993 23.5803C995.993 23.5803 996.278 23.7594 996.73 23.4535Z" fill="white" fill-opacity="0.08"/>
<path d="M995.877 13.6593C997.043 14.809 998.246 16.0912 997.193 17.8816C996.768 18.6071 996.103 19.1616 995.313 19.4498C994.523 19.738 993.657 19.7418 992.865 19.4606C991.053 18.8423 990.273 17.1816 989.906 15.443C989.601 14.0297 988.95 10.9707 991.502 11.302C993.164 11.6304 994.689 12.4519 995.877 13.6593Z" fill="#F18E3B"/>
<path d="M994.763 13.4355C995.602 14.8676 995.298 16.9114 992.754 16.1595C991.328 15.7443 989.85 13.6421 991.582 12.5473C992.96 11.6824 994.16 12.3706 994.763 13.4355Z" fill="#FFBE87"/>
<path d="M996.094 22.677C994.373 22.2231 996.015 19.7627 997.131 21.0405C997.251 21.21 997.318 21.4112 997.323 21.6187C997.328 21.8263 997.272 22.0307 997.161 22.206C997.05 22.3814 996.889 22.5198 996.699 22.6036C996.509 22.6875 996.299 22.713 996.094 22.677Z" fill="#E1E6FF"/>
<path d="M905.343 41.3146C904.651 41.6137 903.518 44.3941 903.797 45.0873C903.797 45.0873 904.634 47.634 906.159 48.2601C907.684 48.8861 914.459 49.6434 915.297 47.5851C916.136 45.5269 910.776 41.3275 909.251 40.7015C907.726 40.0754 905.343 41.3146 905.343 41.3146Z" fill="#F57D18"/>
<path d="M902.428 40.846C902.215 41.359 901.908 42.1147 901.908 42.1147C901.908 42.1147 901.602 42.8705 901.389 43.3769C901.175 43.8832 901.409 44.1238 901.409 44.1238L903.771 45.0875L904.547 43.2044L905.317 41.3149L902.955 40.3511C902.955 40.3511 902.634 40.3398 902.428 40.846Z" fill="white" fill-opacity="0.08"/>
<path d="M908.101 47.6605C906.491 47.3438 904.745 46.944 904.689 44.8699C904.643 44.0316 904.89 43.2034 905.388 42.5275C905.886 41.8515 906.604 41.3699 907.418 41.1653C909.266 40.6681 910.841 41.6265 912.136 42.8661C913.171 43.8791 915.406 46.0676 913.094 47.2048C911.514 47.8569 909.773 48.0158 908.101 47.6605Z" fill="#F18E3B"/>
<path d="M907.617 45.0709C906.129 44.3371 905.251 42.4655 907.779 41.6762C909.195 41.2373 911.59 42.1668 910.759 44.038C910.092 45.531 908.693 45.5957 907.617 45.0709Z" fill="#FFBE87"/>
<path d="M903.386 41.1425C905.065 40.5697 905.078 43.5192 903.438 43.0765C903.245 43.0024 903.078 42.8726 902.958 42.7036C902.839 42.5346 902.772 42.3339 902.766 42.127C902.761 41.9201 902.816 41.7161 902.927 41.5409C903.037 41.3657 903.197 41.227 903.386 41.1425Z" fill="#E1E6FF"/>
<path d="M799.312 13.4959C798.99 14.172 799.974 17.0084 800.651 17.3505C800.651 17.3505 802.957 18.7028 804.517 18.1599C806.078 17.6171 811.651 13.7152 810.927 11.6126C810.202 9.50993 803.399 9.91464 801.839 10.4575C800.279 11.0003 799.312 13.4959 799.312 13.4959Z" fill="#F57D18"/>
<path d="M796.813 15.0533L797.262 16.3759L797.711 17.6651C797.892 18.1874 798.239 18.1914 798.239 18.1914L800.653 17.3584L799.98 15.4279L799.314 13.5039L796.9 14.3368C796.9 14.3368 796.632 14.5576 796.813 15.0533Z" fill="white" fill-opacity="0.08"/>
<path d="M805.576 16.4373C804.164 17.2631 802.611 18.0927 801.156 16.6106C800.567 16.0113 800.205 15.2255 800.132 14.3883C800.06 13.5512 800.281 12.7148 800.758 12.023C801.816 10.426 803.629 10.1099 805.38 10.2025C806.824 10.2769 809.945 10.4392 808.969 12.8282C808.222 14.3418 807.041 15.5984 805.576 16.4373Z" fill="#F18E3B"/>
<path d="M803.505 14.803C801.902 15.2336 800.004 14.4108 801.378 12.1511C802.151 10.8821 804.563 10.0025 805.176 11.9547C805.666 13.5164 804.658 14.4848 803.505 14.803Z" fill="#FFBE87"/>
<path d="M797.724 14.6606C798.61 13.1149 800.572 15.3242 799.038 16.0865C798.843 16.1555 798.632 16.1658 798.432 16.1161C798.232 16.0665 798.05 15.959 797.91 15.8071C797.77 15.6552 797.678 15.4656 797.645 15.2618C797.612 15.0579 797.64 14.8489 797.724 14.6606Z" fill="#E1E6FF"/>
<path d="M733.679 30.6923C733.938 31.3994 736.643 32.6942 737.357 32.4546C737.357 32.4546 739.948 31.7703 740.635 30.2768C741.322 28.7832 742.495 22.0775 740.493 21.1174C738.492 20.1572 733.985 25.2648 733.305 26.7582C732.625 28.2516 733.679 30.6923 733.679 30.6923Z" fill="#F57D18"/>
<path d="M733.041 33.5808L734.279 34.1679L735.509 34.7619C736.01 34.9952 736.256 34.7416 736.256 34.7416L737.355 32.4427L735.516 31.5582L733.677 30.6804L732.578 32.9793C732.578 32.9793 732.548 33.3406 733.041 33.5808Z" fill="white" fill-opacity="0.08"/>
<path d="M741.06 27.5165C740.649 29.1027 740.147 30.7914 738.078 30.7808C737.237 30.7772 736.424 30.4812 735.777 29.9434C735.131 29.4057 734.691 28.6598 734.534 27.8336C734.15 25.962 735.197 24.4453 736.513 23.255C737.581 22.2784 739.893 20.1735 740.898 22.5488C741.447 24.1514 741.504 25.8817 741.06 27.5165Z" fill="#F18E3B"/>
<path d="M740.781 26.6436C739.966 28.0872 738.044 28.8534 737.434 26.2805C737.081 24.8418 738.153 22.5103 739.967 23.4488C741.389 24.2045 741.373 25.5997 740.781 26.6436Z" fill="#FFBE87"/>
<path d="M733.391 32.6431C732.918 30.9274 735.865 31.0877 735.329 32.7107C735.243 32.9002 735.103 33.0599 734.927 33.1696C734.75 33.2793 734.545 33.3341 734.337 33.3268C734.13 33.3196 733.929 33.2507 733.76 33.1289C733.592 33.0072 733.463 32.838 733.391 32.6431Z" fill="#E1E6FF"/>
<path d="M840.449 23.3321C841.169 23.5595 843.849 22.2121 844.097 21.498C844.097 21.498 845.138 19.0338 844.397 17.5589C843.656 16.084 839.055 11.0632 837.067 12.0648C835.078 13.0664 836.361 19.7456 837.108 21.2203C837.856 22.695 840.449 23.3321 840.449 23.3321Z" fill="#29B094"/>
<path d="M842.34 25.6038L843.564 24.99L844.782 24.3763C845.276 24.1294 845.24 23.7766 845.24 23.7766L844.097 21.4985L842.273 22.4155L840.449 23.3326L841.592 25.6107C841.703 25.6843 841.834 25.723 841.967 25.7217C842.1 25.7205 842.23 25.6794 842.34 25.6038Z" fill="white" fill-opacity="0.08"/>
<path d="M842.807 15.9482C843.811 17.2558 844.837 18.6762 843.56 20.3059C843.043 20.97 842.311 21.4331 841.49 21.615C840.669 21.7969 839.81 21.6862 839.062 21.3021C837.344 20.4611 836.789 18.6942 836.647 16.9361C836.535 15.4976 836.29 12.3809 838.778 13.0409C840.381 13.5855 841.785 14.5981 842.807 15.9482Z" fill="#75DDDD"/>
<path d="M842.208 16.2113C842.851 17.7422 842.304 19.7325 839.859 18.6642C838.508 18.0668 837.312 15.7834 839.17 14.9255C840.653 14.2379 841.745 15.1093 842.208 16.2113Z" fill="#8EEDED"/>
<path d="M841.817 24.7507C840.17 24.0746 842.099 21.8466 843.051 23.2623C843.147 23.4454 843.187 23.6528 843.166 23.8585C843.144 24.0641 843.062 24.2588 842.93 24.4179C842.798 24.5771 842.622 24.6936 842.424 24.7529C842.226 24.8121 842.015 24.8113 841.817 24.7507Z" fill="#E1E6FF"/>
<path d="M1343.21 17.7496C1339.25 18.8727 1335.54 20.7425 1332.29 23.2581C1324.59 28.9396 1317.77 35.7852 1307.52 35.7228C1298.02 35.66 1289.19 30.8806 1280.7 27.1064C1272.96 23.7121 1265.1 20.9954 1256.56 20.9666C1248.29 20.953 1240.14 23.0578 1232.9 27.0809C1232.6 27.2561 1232.25 27.4324 1231.96 27.6204C1223.68 17.687 1206.07 17.9243 1194.5 20.1533C1185.47 21.8971 1176.88 25.444 1169.25 30.5822C1161.26 35.9779 1154.91 45.2135 1144.26 44.2076C1138.23 43.6434 1131.75 40.6223 1126.33 36.6447C1127.73 34.9587 1128.89 33.0959 1129.8 31.1046C1132.17 25.8947 1132.46 19.5999 1128.97 14.7756C1125.9 10.5275 1120.06 9.67793 1116.44 13.7805C1112.3 18.4646 1113.41 25.1352 1116.94 29.7847C1119 32.4293 1121.41 34.7821 1124.1 36.7786L1123.8 37.0937C1117.96 43.0453 1109.37 46.2215 1101.11 46.3385C1080.76 46.6234 1064.03 32.5475 1046.86 23.6093C1035.48 17.7178 1022.07 13.483 1009.46 16.2141L1009.5 17.7347C1020.51 15.4339 1033.02 18.5587 1043.03 23.4063C1059.74 31.4893 1074.78 44.4163 1093.62 47.3157C1104.69 49.0179 1117.62 46.1312 1125.36 37.7789C1128.83 40.2413 1132.59 42.2814 1136.54 43.856C1144.26 46.8972 1151.85 46.3643 1158.5 41.2585C1161.98 38.5679 1165.07 35.4408 1168.66 32.8806C1180.45 24.4723 1194.65 20.1176 1209.13 20.4707C1216.69 20.7064 1225.48 22.6503 1230.59 28.4585C1225.26 31.7597 1219.24 36.8085 1219.51 43.2882C1219.75 48.9014 1225.13 53.3006 1230.44 50.2801C1236.15 47.0216 1237.22 39.4576 1235.29 33.6904C1234.7 31.9351 1233.86 30.2758 1232.79 28.7658C1235.49 27.2872 1238.3 26.0387 1241.21 25.0336C1250.85 21.7519 1261.29 21.703 1270.96 24.8944C1280.61 28.0698 1289.41 33.571 1299.29 36.0793C1307.98 38.2799 1316.16 36.9569 1323.56 31.8441C1329.46 27.7598 1335.95 21.1833 1343.24 19.137L1343.21 17.7496ZM1118.77 29.7152C1115.71 26.0672 1113.99 21.1686 1116.32 16.6537C1118.65 12.1388 1123.95 11.2011 1127.26 15.1091C1132.51 21.3137 1129.77 30.0376 1125.05 35.7185C1122.75 33.9364 1120.65 31.9248 1118.77 29.7152ZM1233.56 33.2767C1234.99 36.8418 1235.27 41.0791 1233.59 44.6217C1232.54 46.8527 1230.57 49.0418 1228.08 49.6565C1224.64 50.5041 1221.97 47.8199 1221.23 44.6765C1219.76 38.416 1225.35 33.159 1231.5 29.5282C1232.35 30.6835 1233.04 31.9462 1233.56 33.2833L1233.56 33.2767Z" fill="white" fill-opacity="0.08"/>
<path d="M1033.38 21.6587C1032.98 21.0021 1030.07 20.3002 1029.42 20.6782C1029.42 20.6782 1027.03 21.8777 1026.63 23.4836C1026.23 25.0894 1026.47 31.8903 1028.63 32.419C1030.8 32.9476 1034.16 27.0368 1034.55 25.4311C1034.94 23.8255 1033.38 21.6587 1033.38 21.6587Z" fill="#673FEF"/>
<path d="M1033.42 18.7015L1032.08 18.3776L1030.73 18.047C1030.2 17.9214 1030 18.2071 1030 18.2071L1029.4 20.6793L1031.38 21.1729L1033.35 21.6599L1033.95 19.1809C1033.95 19.1809 1033.95 18.834 1033.42 18.7015Z" fill="white" fill-opacity="0.08"/>
<path d="M1027.51 25.3082C1027.58 23.6711 1027.74 21.9184 1029.76 21.5031C1030.58 21.3358 1031.44 21.4605 1032.18 21.8557C1032.92 22.2509 1033.5 22.8919 1033.82 23.6687C1034.58 25.4233 1033.86 27.1247 1032.82 28.5545C1031.97 29.7254 1030.13 32.2513 1028.67 30.1354C1027.81 28.678 1027.4 26.9969 1027.51 25.3082Z" fill="#8967FD"/>
<path d="M1030 24.4606C1030.51 22.8784 1032.23 21.7305 1033.38 24.1287C1034.02 25.446 1033.45 27.9643 1031.47 27.4174C1029.9 26.9727 1029.64 25.605 1030 24.4606Z" fill="#A489FF"/>
<path d="M1033.27 19.6943C1034.08 21.2741 1031.17 21.7534 1031.36 20.0196C1031.41 19.818 1031.51 19.6345 1031.66 19.4924C1031.82 19.3503 1032 19.2558 1032.21 19.221C1032.41 19.1862 1032.62 19.2126 1032.81 19.2968C1033 19.3811 1033.16 19.5194 1033.27 19.6943Z" fill="#E1E6FF"/>
<path d="M1108.46 49.2363C1107.78 48.881 1104.92 49.7129 1104.54 50.3704C1104.54 50.3704 1103.06 52.5996 1103.52 54.1888C1103.99 55.7779 1107.58 61.5535 1109.71 60.9351C1111.84 60.3167 1111.81 53.5368 1111.36 51.9208C1110.9 50.3048 1108.46 49.2363 1108.46 49.2363Z" fill="#29B094"/>
<path d="M1106.99 46.6598L1105.66 47.0428L1104.34 47.4191C1103.81 47.5736 1103.78 47.9213 1103.78 47.9213L1104.52 50.3707L1106.5 49.8029L1108.49 49.2352L1107.76 46.7857C1107.76 46.7857 1107.52 46.5053 1106.99 46.6598Z" fill="white" fill-opacity="0.08"/>
<path d="M1105.16 55.3319C1104.41 53.8772 1103.66 52.2825 1105.22 50.9122C1105.85 50.3475 1106.66 50.0205 1107.5 49.9879C1108.34 49.9552 1109.17 50.219 1109.84 50.7335C1111.37 51.8799 1111.6 53.7091 1111.41 55.4694C1111.26 56.9085 1110.93 60.0141 1108.6 58.9159C1107.12 58.0916 1105.92 56.8433 1105.16 55.3319Z" fill="#75DDDD"/>
<path d="M1106.9 53.3571C1106.55 51.7315 1107.47 49.8845 1109.66 51.3801C1110.88 52.2145 1111.63 54.6636 1109.65 55.1778C1108.06 55.5812 1107.15 54.5249 1106.9 53.3571Z" fill="#8EEDED"/>
<path d="M1107.35 47.5917C1108.84 48.5589 1106.54 50.3967 1105.85 48.8268C1105.79 48.6283 1105.79 48.4158 1105.85 48.2164C1105.91 48.017 1106.03 47.8398 1106.19 47.7073C1106.35 47.5748 1106.54 47.4931 1106.75 47.4725C1106.96 47.4519 1107.16 47.4934 1107.35 47.5917Z" fill="#E1E6FF"/>
<path d="M1138.05 47.1383C1137.76 46.4788 1135 45.2655 1134.29 45.5383C1134.29 45.5383 1131.74 46.335 1131.09 47.8541C1130.45 49.3733 1129.59 56.1238 1131.63 56.996C1133.68 57.8682 1137.95 52.5734 1138.6 51.0542C1139.25 49.5351 1138.05 47.1383 1138.05 47.1383Z" fill="#673FEF"/>
<path d="M1138.56 44.2292L1137.3 43.6893L1136.04 43.1561C1135.54 42.9429 1135.3 43.1763 1135.3 43.1763L1134.29 45.5261L1136.17 46.3228L1138.05 47.1261L1139.05 44.7764C1139.05 44.7764 1139.03 44.4431 1138.56 44.2292Z" fill="white" fill-opacity="0.08"/>
<path d="M1131.66 49.7957C1132 48.198 1132.43 46.4846 1134.5 46.3819C1135.34 46.3478 1136.16 46.6077 1136.83 47.1169C1137.5 47.626 1137.98 48.3527 1138.17 49.1721C1138.63 51.0215 1137.65 52.583 1136.39 53.8319C1135.37 54.8475 1133.14 57.0501 1132.04 54.7241C1131.43 53.1549 1131.3 51.4401 1131.66 49.7957Z" fill="#8967FD"/>
<path d="M1134.26 49.3631C1135.02 47.8811 1136.87 47.0367 1137.65 49.5716C1138.07 50.9951 1137.09 53.3776 1135.24 52.5133C1133.76 51.8262 1133.72 50.4257 1134.26 49.3631Z" fill="#A489FF"/>
<path d="M1138.25 45.1789C1138.8 46.8724 1135.85 46.839 1136.31 45.198C1136.39 45.006 1136.52 44.8412 1136.69 44.7245C1136.86 44.6078 1137.06 44.5444 1137.27 44.5424C1137.48 44.5403 1137.68 44.5997 1137.85 44.713C1138.03 44.8263 1138.16 44.9884 1138.25 45.1789Z" fill="#E1E6FF"/>
<path d="M1216.02 23.701C1215.57 23.0925 1212.62 22.5852 1212 23.0092C1212 23.0092 1209.7 24.3731 1209.41 26.0025C1209.13 27.632 1209.85 34.3997 1212.05 34.774C1214.24 35.1484 1217.17 29.0157 1217.45 27.3863C1217.74 25.7569 1216.02 23.701 1216.02 23.701Z" fill="#673FEF"/>
<path d="M1215.84 20.7493L1214.5 20.5187L1213.16 20.2881C1212.62 20.1961 1212.45 20.4944 1212.45 20.4944L1212.01 23.0088L1214.03 23.3547L1216.04 23.7006L1216.46 21.1863C1216.46 21.1863 1216.39 20.848 1215.84 20.7493Z" fill="white" fill-opacity="0.08"/>
<path d="M1210.42 27.7648C1210.38 26.1243 1210.4 24.3617 1212.4 23.8071C1213.21 23.5806 1214.08 23.6454 1214.85 23.9901C1215.62 24.3349 1216.24 24.9379 1216.61 25.6949C1217.49 27.3929 1216.9 29.1376 1215.96 30.6446C1215.19 31.8734 1213.54 34.5277 1211.93 32.5157C1210.96 31.1194 1210.44 29.4641 1210.42 27.7648Z" fill="#8967FD"/>
<path d="M1212.85 26.7374C1213.24 25.1251 1214.88 23.866 1216.18 26.1668C1216.91 27.4817 1216.51 29.9885 1214.51 29.5824C1212.94 29.2513 1212.57 27.9265 1212.85 26.7374Z" fill="#A489FF"/>
<path d="M1215.77 21.7453C1216.69 23.2687 1213.83 23.9203 1213.89 22.2102C1213.92 22.0062 1214.01 21.8165 1214.15 21.6646C1214.29 21.5126 1214.47 21.4052 1214.67 21.3557C1214.87 21.3062 1215.08 21.3167 1215.28 21.386C1215.47 21.4553 1215.64 21.5802 1215.77 21.7453Z" fill="#E1E6FF"/>
<path d="M1290.89 35.7725C1290.63 35.0655 1287.93 33.7638 1287.22 34.0034C1287.22 34.0034 1284.63 34.681 1283.91 36.1688C1283.19 37.6566 1282.02 44.3621 1284.03 45.3287C1286.04 46.2954 1290.54 41.2011 1291.26 39.7069C1291.97 38.2126 1290.89 35.7725 1290.89 35.7725Z" fill="#673FEF"/>
<path d="M1291.56 32.8922L1290.33 32.2983L1289.1 31.7043C1288.6 31.4642 1288.35 31.7245 1288.35 31.7245L1287.24 34.0236L1289.08 34.9083L1290.92 35.7928L1292.02 33.4937C1292.02 33.4937 1292.02 33.1132 1291.56 32.8922Z" fill="white" fill-opacity="0.08"/>
<path d="M1284.36 38.1406C1284.77 36.5542 1285.27 34.8655 1287.35 34.8826C1288.19 34.8857 1289 35.1827 1289.65 35.7222C1290.29 36.2618 1290.73 37.0098 1290.88 37.8368C1291.27 39.7084 1290.21 41.2253 1288.9 42.4089C1287.82 43.379 1285.5 45.4774 1284.51 43.1017C1283.96 41.5008 1283.91 39.7724 1284.36 38.1406Z" fill="#8967FD"/>
<path d="M1287.02 37.8212C1287.84 36.3774 1289.76 35.6178 1290.37 38.1909C1290.72 39.6296 1289.64 41.9613 1287.83 41.0161C1286.42 40.2601 1286.38 38.8663 1287.02 37.8212Z" fill="#A489FF"/>
<path d="M1291.18 33.8038C1291.65 35.5264 1288.71 35.3592 1289.24 33.7362C1289.33 33.5467 1289.47 33.387 1289.65 33.2773C1289.82 33.1676 1290.03 33.1128 1290.24 33.1201C1290.44 33.1273 1290.64 33.1962 1290.81 33.318C1290.98 33.4397 1291.11 33.6088 1291.18 33.8038Z" fill="#E1E6FF"/>
<path d="M1250.97 18.7828C1251.55 19.254 1254.53 18.9663 1255.03 18.3924C1255.03 18.3924 1256.89 16.4731 1256.73 14.829C1256.57 13.1848 1254.11 6.84479 1251.89 7.05172C1249.67 7.25866 1248.45 13.9589 1248.61 15.6098C1248.77 17.2606 1250.97 18.7828 1250.97 18.7828Z" fill="#29B094"/>
<path d="M1251.91 21.5803L1253.24 21.4508L1254.6 21.3203C1255.15 21.2722 1255.26 20.9355 1255.26 20.9355L1255.02 18.3926L1252.99 18.5878L1250.96 18.783L1251.2 21.3192C1251.2 21.3192 1251.35 21.6353 1251.91 21.5803Z" fill="white" fill-opacity="0.08"/>
<path d="M1255.97 12.4734C1256.44 14.0492 1256.88 15.7525 1255.1 16.8085C1254.37 17.2407 1253.52 17.4075 1252.69 17.2803C1251.86 17.153 1251.1 16.7395 1250.54 16.1112C1249.25 14.7047 1249.36 12.8662 1249.88 11.1704C1250.29 9.78428 1251.19 6.79018 1253.27 8.30872C1254.57 9.39542 1255.51 10.8461 1255.97 12.4734Z" fill="#75DDDD"/>
<path d="M1255.23 12.3934C1255.28 14.054 1254.02 15.6965 1252.15 13.8117C1251.1 12.7589 1250.82 10.2105 1252.86 10.0751C1254.49 9.98415 1255.2 11.193 1255.23 12.3934Z" fill="#8EEDED"/>
<path d="M1251.72 20.5975C1250.43 19.3777 1253.04 17.9923 1253.42 19.6639C1253.44 19.87 1253.4 20.0783 1253.31 20.2625C1253.21 20.4467 1253.06 20.5983 1252.88 20.6983C1252.7 20.7983 1252.49 20.8421 1252.29 20.8242C1252.08 20.8062 1251.88 20.7273 1251.72 20.5975Z" fill="#E1E6FF"/>
<path d="M1327.43 23.2218C1328.17 23.3487 1330.66 21.6662 1330.81 20.9279C1330.81 20.9279 1331.52 18.3459 1330.59 16.983C1329.66 15.62 1324.43 11.2437 1322.61 12.4944C1320.78 13.745 1322.91 20.201 1323.84 21.5708C1324.76 22.9405 1327.43 23.2218 1327.43 23.2218Z" fill="#F57D18"/>
<path d="M1329.61 25.226L1330.74 24.4544L1331.87 23.6897C1332.33 23.377 1332.25 23.0122 1332.25 23.0122L1330.81 20.902L1329.12 22.0957L1327.44 23.2426L1328.87 25.3527C1328.87 25.3527 1329.16 25.5319 1329.61 25.226Z" fill="white" fill-opacity="0.08"/>
<path d="M1328.75 15.4318C1329.92 16.5815 1331.12 17.8636 1330.07 19.6541C1329.64 20.3795 1328.98 20.9341 1328.19 21.2222C1327.4 21.5104 1326.53 21.5142 1325.74 21.233C1323.93 20.6148 1323.15 18.9541 1322.78 17.2155C1322.48 15.8022 1321.83 12.7432 1324.38 13.0744C1326.04 13.4028 1327.56 14.2243 1328.75 15.4318Z" fill="#F18E3B"/>
<path d="M1327.64 15.2079C1328.48 16.6401 1328.17 18.6839 1325.63 17.9319C1324.2 17.5168 1322.72 15.4146 1324.46 14.3198C1325.84 13.4549 1327.03 14.1431 1327.64 15.2079Z" fill="#FFBE87"/>
<path d="M1328.97 24.4495C1327.25 23.9956 1328.89 21.5351 1330.01 22.813C1330.13 22.9824 1330.19 23.1837 1330.2 23.3912C1330.2 23.5987 1330.15 23.8031 1330.04 23.9785C1329.92 24.1539 1329.76 24.2923 1329.57 24.3761C1329.38 24.46 1329.17 24.4855 1328.97 24.4495Z" fill="#E1E6FF"/>
<path d="M1238.22 43.0871C1237.53 43.3862 1236.4 46.1665 1236.68 46.8597C1236.68 46.8597 1237.51 49.4065 1239.04 50.0325C1240.56 50.6585 1247.34 51.4159 1248.18 49.3576C1249.01 47.2993 1243.66 43.1 1242.13 42.4739C1240.6 41.8479 1238.22 43.0871 1238.22 43.0871Z" fill="#F57D18"/>
<path d="M1235.3 42.6194C1235.09 43.1324 1234.78 43.8882 1234.78 43.8882C1234.78 43.8882 1234.48 44.644 1234.26 45.1503C1234.05 45.6566 1234.28 45.8972 1234.28 45.8972L1236.65 46.861L1237.42 44.9779L1238.19 43.0883L1235.83 42.1246C1235.83 42.1246 1235.51 42.1133 1235.3 42.6194Z" fill="white" fill-opacity="0.08"/>
<path d="M1240.98 49.433C1239.37 49.1163 1237.62 48.7164 1237.57 46.6424C1237.52 45.8041 1237.77 44.9759 1238.27 44.2999C1238.76 43.624 1239.48 43.1424 1240.3 42.9378C1242.15 42.4405 1243.72 43.3989 1245.01 44.6385C1246.05 45.6516 1248.28 47.8401 1245.97 48.9772C1244.39 49.6294 1242.65 49.7883 1240.98 49.433Z" fill="#F18E3B"/>
<path d="M1240.5 46.8443C1239.01 46.1105 1238.13 44.2389 1240.66 43.4496C1242.08 43.0108 1244.47 43.9403 1243.64 45.8114C1242.98 47.3045 1241.58 47.3691 1240.5 46.8443Z" fill="#FFBE87"/>
<path d="M1236.26 42.915C1237.94 42.3422 1237.96 45.2917 1236.32 44.849C1236.12 44.7748 1235.96 44.645 1235.84 44.476C1235.72 44.307 1235.65 44.1064 1235.65 43.8995C1235.64 43.6925 1235.7 43.4886 1235.81 43.3134C1235.92 43.1381 1236.08 42.9995 1236.26 42.915Z" fill="#E1E6FF"/>
<path d="M1132.19 15.2684C1131.87 15.9445 1132.85 18.7809 1133.53 19.1229C1133.53 19.1229 1135.84 20.4753 1137.4 19.9324C1138.96 19.3896 1144.53 15.4877 1143.81 13.385C1143.08 11.2824 1136.28 11.6871 1134.72 12.2299C1133.16 12.7728 1132.19 15.2684 1132.19 15.2684Z" fill="#F57D18"/>
<path d="M1129.69 16.8257L1130.14 18.1483L1130.59 19.4376C1130.77 19.9599 1131.11 19.9638 1131.11 19.9638L1133.53 19.1309L1132.85 17.2004L1132.19 15.2763L1129.78 16.1093C1129.78 16.1093 1129.51 16.3301 1129.69 16.8257Z" fill="white" fill-opacity="0.08"/>
<path d="M1138.45 18.2098C1137.04 19.0356 1135.49 19.8652 1134.03 18.383C1133.44 17.7837 1133.08 16.998 1133.01 16.1608C1132.93 15.3236 1133.16 14.4873 1133.63 13.7955C1134.69 12.1985 1136.5 11.8823 1138.26 11.975C1139.7 12.0493 1142.82 12.2116 1141.84 14.6006C1141.1 16.1143 1139.92 17.3709 1138.45 18.2098Z" fill="#F18E3B"/>
<path d="M1136.38 16.5765C1134.78 17.007 1132.88 16.1842 1134.26 13.9246C1135.03 12.6556 1137.44 11.776 1138.06 13.7281C1138.54 15.2899 1137.54 16.2582 1136.38 16.5765Z" fill="#FFBE87"/>
<path d="M1130.6 16.433C1131.49 14.8874 1133.45 17.0966 1131.91 17.859C1131.72 17.928 1131.51 17.9383 1131.31 17.8886C1131.11 17.8389 1130.93 17.7315 1130.79 17.5796C1130.65 17.4277 1130.55 17.2381 1130.52 17.0342C1130.49 16.8304 1130.51 16.6214 1130.6 16.433Z" fill="#E1E6FF"/>
<path d="M1066.56 32.4648C1066.82 33.1719 1069.52 34.4667 1070.24 34.2271C1070.24 34.2271 1072.83 33.5428 1073.51 32.0493C1074.2 30.5557 1075.37 23.85 1073.37 22.8898C1071.37 21.9297 1066.86 27.0373 1066.18 28.5307C1065.5 30.024 1066.56 32.4648 1066.56 32.4648Z" fill="#F57D18"/>
<path d="M1065.92 35.3532L1067.16 35.9404L1068.39 36.5343C1068.89 36.7677 1069.14 36.5141 1069.14 36.5141L1070.23 34.2152L1068.39 33.3307L1066.56 32.4529L1065.46 34.7518C1065.46 34.7518 1065.43 35.113 1065.92 35.3532Z" fill="white" fill-opacity="0.08"/>
<path d="M1073.93 29.289C1073.52 30.8751 1073.02 32.5639 1070.95 32.5532C1070.11 32.5497 1069.3 32.2536 1068.65 31.7159C1068.01 31.1782 1067.57 30.4322 1067.41 29.606C1067.03 27.7344 1068.07 26.2178 1069.39 25.0275C1070.46 24.0509 1072.77 21.946 1073.77 24.3213C1074.32 25.9238 1074.38 27.6542 1073.93 29.289Z" fill="#F18E3B"/>
<path d="M1073.66 28.416C1072.85 29.8597 1070.93 30.6259 1070.32 28.0529C1069.96 26.6143 1071.04 24.2827 1072.85 25.2213C1074.27 25.9769 1074.26 27.3722 1073.66 28.416Z" fill="#FFBE87"/>
<path d="M1066.27 34.4155C1065.8 32.6999 1068.74 32.8602 1068.21 34.4832C1068.12 34.6726 1067.98 34.8324 1067.81 34.9421C1067.63 35.0518 1067.42 35.1065 1067.22 35.0993C1067.01 35.092 1066.81 35.0231 1066.64 34.9014C1066.47 34.7796 1066.34 34.6105 1066.27 34.4155Z" fill="#E1E6FF"/>
<path d="M1173.32 25.1045C1174.04 25.3319 1176.72 23.9846 1176.97 23.2704C1176.97 23.2704 1178.01 20.8062 1177.27 19.3314C1176.53 17.8565 1171.93 12.8357 1169.94 13.8373C1167.95 14.8389 1169.24 21.5181 1169.98 22.9927C1170.73 24.4674 1173.32 25.1045 1173.32 25.1045Z" fill="#29B094"/>
<path d="M1175.22 27.3763L1176.44 26.7624L1177.66 26.1488C1178.16 25.9018 1178.12 25.5491 1178.12 25.5491L1176.98 23.2709L1175.15 24.188L1173.33 25.105L1174.47 27.3832C1174.58 27.4568 1174.71 27.4954 1174.85 27.4942C1174.98 27.493 1175.11 27.4519 1175.22 27.3763Z" fill="white" fill-opacity="0.08"/>
<path d="M1175.68 17.7207C1176.69 19.0282 1177.71 20.4487 1176.43 22.0783C1175.92 22.7425 1175.19 23.2055 1174.37 23.3874C1173.54 23.5693 1172.68 23.4587 1171.94 23.0746C1170.22 22.2335 1169.66 20.4667 1169.52 18.7086C1169.41 17.2701 1169.17 14.1533 1171.65 14.8133C1173.26 15.3579 1174.66 16.3706 1175.68 17.7207Z" fill="#75DDDD"/>
<path d="M1175.08 17.9837C1175.73 19.5147 1175.18 21.505 1172.73 20.4367C1171.38 19.8393 1170.19 17.5559 1172.05 16.698C1173.53 16.0104 1174.62 16.8818 1175.08 17.9837Z" fill="#8EEDED"/>
<path d="M1174.7 26.5232C1173.05 25.847 1174.98 23.6191 1175.93 25.0348C1176.03 25.2179 1176.07 25.4253 1176.04 25.6309C1176.02 25.8366 1175.94 26.0312 1175.81 26.1904C1175.68 26.3496 1175.5 26.4661 1175.3 26.5253C1175.1 26.5845 1174.89 26.5838 1174.7 26.5232Z" fill="#E1E6FF"/>
</svg>
