<?xml version="1.0" encoding="UTF-8"?>
<svg width="24px" height="24px" viewBox="0 0 24 24" version="1.1" xmlns="http://www.w3.org/2000/svg" xmlns:xlink="http://www.w3.org/1999/xlink">
    <title>3.0 Icons / Flat icons/ Solution Action Banner/ PDF</title>
    <g id="3.0-Icons-/-Flat-icons/-Solution-Action-Banner/-PDF" stroke="none" stroke-width="1" fill="none" fill-rule="evenodd">
        <g id="Group" transform="translate(1.000000, 1.000000)" fill-rule="nonzero">
            <g id="pdf">
                <path d="M4.07142857,0 C3.325,0 2.71428571,0.61875 2.71428571,1.375 L2.71428571,20.625 C2.71428571,21.38125 3.325,22 4.07142857,22 L17.6428571,22 C18.3892857,22 19,21.38125 19,20.625 L19,5.5 L13.5714286,0 L4.07142857,0 Z" id="Path" fill="#A7EADB"></path>
                <path d="M14.9285714,5.5 L19,5.5 L13.5714286,0 L13.5714286,4.125 C13.5714286,4.88125 14.1821429,5.5 14.9285714,5.5 Z" id="Path" fill="#29B094"></path>
                <polygon id="Path" fill="#168A72" points="19 9.625 14.9285714 5.5 19 5.5"></polygon>
                <path d="M16.2857143,17.875 C16.2857143,18.253125 15.9803571,18.5625 15.6071429,18.5625 L0.678571429,18.5625 C0.305357143,18.5625 0,18.253125 0,17.875 L0,11 C0,10.621875 0.305357143,10.3125 0.678571429,10.3125 L15.6071429,10.3125 C15.9803571,10.3125 16.2857143,10.621875 16.2857143,11 L16.2857143,17.875 Z" id="Path" fill="#29B094"></path>
                <path d="M15.6071429,18.5625 L2.71428571,18.5625 L2.71428571,19.25 L15.6071429,19.25 C15.9803571,19.25 16.2857143,18.940625 16.2857143,18.5625 L16.2857143,17.875 C16.2857143,18.253125 15.9803571,18.5625 15.6071429,18.5625 Z" id="Path" fill="#168A72"></path>
                <path d="M3.21642857,16.5859375 L3.21642857,15.0665625 L3.76607143,15.0665625 C4.00130952,15.0665625 4.22297619,15.0367708 4.43107143,14.9771875 C4.63916667,14.9176042 4.82238095,14.8259375 4.98071429,14.7021875 C5.13904762,14.5784375 5.26458333,14.4203125 5.35732143,14.2278125 C5.45005952,14.0353125 5.49642857,13.8084375 5.49642857,13.5471875 C5.49642857,13.2767708 5.45005952,13.04875 5.35732143,12.863125 C5.26458333,12.6775 5.13904762,12.5285417 4.98071429,12.41625 C4.82238095,12.3039583 4.63690476,12.22375 4.42428571,12.175625 C4.21166667,12.1275 3.98321429,12.1034375 3.73892857,12.1034375 L3.73892857,12.1034375 L2.21892857,12.1034375 L2.21892857,16.5859375 L3.21642857,16.5859375 Z M3.705,14.2621875 L3.21642857,14.2621875 L3.21642857,12.9078125 L3.67785714,12.9078125 C3.94928571,12.9078125 4.15738095,12.9559375 4.30214286,13.0521875 C4.44690476,13.1484375 4.51928571,13.3134375 4.51928571,13.5471875 C4.51928571,14.0238542 4.24785714,14.2621875 3.705,14.2621875 L3.705,14.2621875 Z M7.80841837,16.5859375 C8.13413265,16.5859375 8.42931122,16.5401042 8.69395408,16.4484375 C8.95859694,16.3567708 9.18591837,16.218125 9.37591837,16.0325 C9.56591837,15.846875 9.71294218,15.6119792 9.8169898,15.3278125 C9.92103741,15.0436458 9.97306122,14.7090625 9.97306122,14.3240625 C9.97306122,13.9390625 9.92103741,13.6067708 9.8169898,13.3271875 C9.71294218,13.0476042 9.56365646,12.8172917 9.36913265,12.63625 C9.17460884,12.4552083 8.94163265,12.3211458 8.67020408,12.2340625 C8.39877551,12.1469792 8.09341837,12.1034375 7.75413265,12.1034375 L7.75413265,12.1034375 L6.50556122,12.1034375 L6.50556122,16.5859375 L7.80841837,16.5859375 Z M7.69306122,15.7678125 L7.50306122,15.7678125 L7.50306122,12.9215625 L7.69306122,12.9215625 C7.88306122,12.9215625 8.05496599,12.9444792 8.20877551,12.9903125 C8.36258503,13.0361458 8.49377551,13.1129167 8.60234694,13.220625 C8.71091837,13.3283333 8.7957398,13.4727083 8.85681122,13.65375 C8.91788265,13.8347917 8.94841837,14.0582292 8.94841837,14.3240625 C8.94841837,14.5944792 8.91788265,14.8213542 8.85681122,15.0046875 C8.7957398,15.1880208 8.71091837,15.3358333 8.60234694,15.448125 C8.49377551,15.5604167 8.36258503,15.6417708 8.20877551,15.6921875 C8.05496599,15.7426042 7.88306122,15.7678125 7.69306122,15.7678125 L7.69306122,15.7678125 Z M12.0543367,16.5859375 L12.0543367,14.8465625 L13.5879082,14.8465625 L13.5879082,13.9940625 L12.0543367,13.9940625 L12.0543367,12.9559375 L13.8457653,12.9559375 L13.8457653,12.1034375 L11.0568367,12.1034375 L11.0568367,16.5859375 L12.0543367,16.5859375 Z" id="PDF" fill="#FFFFFF"></path>
            </g>
        </g>
    </g>
</svg>