<svg width="19" height="22" viewBox="0 0 19 22" fill="none" xmlns="http://www.w3.org/2000/svg">
<path d="M4.0715 0C3.32507 0 2.71436 0.61875 2.71436 1.375V20.625C2.71436 21.3813 3.32507 22 4.0715 22H17.6429C18.3894 22 19.0001 21.3813 19.0001 20.625V5.5L13.5715 0H4.0715Z" fill="#E1E6FF"/>
<path d="M14.9284 5.5H18.9999L13.5713 0V4.125C13.5713 4.88125 14.182 5.5 14.9284 5.5Z" fill="#4556AD"/>
<path d="M19.0001 9.625L14.9287 5.5H19.0001V9.625Z" fill="#1A255A"/>
<path d="M16.2857 17.875C16.2857 18.2531 15.9804 18.5625 15.6071 18.5625H0.678571C0.305357 18.5625 0 18.2531 0 17.875V11C0 10.6219 0.305357 10.3125 0.678571 10.3125H15.6071C15.9804 10.3125 16.2857 10.6219 16.2857 11V17.875Z" fill="#4556AD"/>
<path d="M15.6072 18.5625H2.71436V19.25H15.6072C15.9804 19.25 16.2858 18.9406 16.2858 18.5625V17.875C16.2858 18.2531 15.9804 18.5625 15.6072 18.5625Z" fill="#1A255A"/>
<path d="M3.21625 16.5859V15.0666H3.76589C4.00113 15.0666 4.2228 15.0368 4.43089 14.9772C4.63899 14.9176 4.8222 14.8259 4.98054 14.7022C5.13887 14.5784 5.2644 14.4203 5.35714 14.2278C5.44988 14.0353 5.49625 13.8084 5.49625 13.5472C5.49625 13.2768 5.44988 13.0487 5.35714 12.8631C5.2644 12.6775 5.13887 12.5285 4.98054 12.4163C4.8222 12.304 4.63673 12.2237 4.42411 12.1756C4.21149 12.1275 3.98304 12.1034 3.73875 12.1034H2.21875V16.5859H3.21625ZM3.70482 14.2622H3.21625V12.9078H3.67768C3.94911 12.9078 4.1572 12.9559 4.30196 13.0522C4.44673 13.1484 4.51911 13.3134 4.51911 13.5472C4.51911 14.0239 4.24768 14.2622 3.70482 14.2622ZM7.80824 16.5859C8.13395 16.5859 8.42913 16.5401 8.69378 16.4484C8.95842 16.3568 9.18574 16.2181 9.37574 16.0325C9.56574 15.8469 9.71276 15.612 9.81681 15.3278C9.92086 15.0436 9.97288 14.7091 9.97288 14.3241C9.97288 13.9391 9.92086 13.6068 9.81681 13.3272C9.71276 13.0476 9.56348 12.8173 9.36895 12.6362C9.17443 12.4552 8.94145 12.3211 8.67003 12.2341C8.3986 12.147 8.09324 12.1034 7.75395 12.1034H6.50538V16.5859H7.80824ZM7.69288 15.7678H7.50288V12.9216H7.69288C7.88288 12.9216 8.05479 12.9445 8.2086 12.9903C8.36241 13.0361 8.4936 13.1129 8.60217 13.2206C8.71074 13.3283 8.79556 13.4727 8.85663 13.6538C8.9177 13.8348 8.94824 14.0582 8.94824 14.3241C8.94824 14.5945 8.9177 14.8214 8.85663 15.0047C8.79556 15.188 8.71074 15.3358 8.60217 15.4481C8.4936 15.5604 8.36241 15.6418 8.2086 15.6922C8.05479 15.7426 7.88288 15.7678 7.69288 15.7678ZM12.0542 16.5859V14.8466H13.5877V13.9941H12.0542V12.9559H13.8456V12.1034H11.0567V16.5859H12.0542Z" fill="white"/>
</svg>
