<svg width="22" height="22" viewBox="0 0 22 22" fill="none" xmlns="http://www.w3.org/2000/svg">
<path d="M21.962 8.44181C21.8696 8.15703 21.6237 7.9492 21.3278 7.90615L14.6784 6.93815L11.705 0.902922C11.4404 0.365693 10.5603 0.365693 10.2955 0.902922L7.32214 6.93815L0.672662 7.90602C0.37679 7.94906 0.130916 8.1569 0.0384701 8.44167C-0.053958 8.72681 0.023212 9.03935 0.237182 9.24876L5.04851 13.9464L3.91253 20.5798C3.8622 20.875 3.98356 21.1736 4.22524 21.3497C4.4678 21.5257 4.78841 21.5491 5.05272 21.4096L11 18.2774L16.9472 21.4096C17.2114 21.5484 17.532 21.526 17.7747 21.3497C18.0164 21.1736 18.1376 20.875 18.0874 20.5798L16.9515 13.9464L21.7628 9.24876C21.9769 9.03934 22.0539 8.72695 21.9615 8.44185L21.962 8.44181Z" fill="#F18E3B"/>
</svg>
