<svg width="16" height="14" viewBox="0 0 16 14" fill="none" xmlns="http://www.w3.org/2000/svg">
<path fill-rule="evenodd" clip-rule="evenodd" d="M15.328 5.53342C15.3281 5.5329 15.3282 5.53238 15.3283 5.53186C15.3395 5.4542 15.3334 5.37364 15.3085 5.29607C15.3083 5.29559 15.3082 5.29512 15.308 5.29465C15.3079 5.29418 15.308 5.29353 15.3079 5.29307C15.2459 5.10397 15.0823 4.96606 14.8856 4.93744L10.4526 4.2921L8.47036 0.268615C8.29392 -0.0895382 7.7072 -0.0895382 7.53063 0.268615L5.54842 4.2921L1.11543 4.93735C0.918185 4.96604 0.75427 5.1046 0.692639 5.29445C0.63102 5.48454 0.682467 5.6929 0.825114 5.8325L4.03267 8.96428L3.27535 13.3865C3.24179 13.5833 3.3227 13.7824 3.48382 13.8998C3.64552 14.0171 3.85926 14.0327 4.03547 13.9397L8.00032 11.8516L11.9652 13.9397C12.1412 14.0322 12.355 14.0174 12.5168 13.8998C12.6779 13.7824 12.7587 13.5833 12.7253 13.3865L11.968 8.96428L15.1755 5.8325C15.2593 5.75059 15.3116 5.64505 15.328 5.53342ZM12.0195 13.2149L11.2518 8.73181L14.5047 5.55569L10.0095 4.9013L8.00049 0.823394L5.99147 4.90131L1.49586 5.55567L4.74885 8.73181L3.98112 13.2149L8.00032 11.0982L12.0195 13.2149ZM1.21169 5.59703C1.21179 5.59701 1.2116 5.59704 1.21169 5.59703V5.59703Z" fill="#F18E3B"/>
</svg>
