<svg width="22" height="22" viewBox="0 0 22 22" fill="none" xmlns="http://www.w3.org/2000/svg">
<path fill-rule="evenodd" clip-rule="evenodd" d="M10.2955 0.902922C10.4278 0.634409 10.7139 0.500102 11 0.5C11.2863 0.499898 11.5727 0.634205 11.705 0.902922L14.6784 6.93815L21.3278 7.90615C21.6237 7.9492 21.8696 8.15703 21.962 8.44181C22.0545 8.72691 21.9769 9.03934 21.7628 9.24876L16.9515 13.9464L18.0874 20.5798C18.1376 20.875 18.0164 21.1736 17.7747 21.3497C17.532 21.526 17.2114 21.5484 16.9472 21.4096L11 18.2774L5.05272 21.4096C4.78841 21.5491 4.4678 21.5257 4.22524 21.3497C3.98356 21.1736 3.8622 20.875 3.91253 20.5798L5.04851 13.9464L0.237182 9.24876C0.023212 9.03935 -0.053958 8.72681 0.0384701 8.44167C0.130916 8.1569 0.37679 7.94906 0.672662 7.90602L7.32214 6.93815L10.2955 0.902922ZM11 17.1472L17.0288 20.3223L15.8772 13.5977L20.7566 8.83354L14.0138 7.85195L11.0003 1.73509L11 1.7356L11 17.1472Z" fill="#F18E3B"/>
</svg>
