<svg width="20" height="18" viewBox="0 0 20 18" fill="none" xmlns="http://www.w3.org/2000/svg">
<path d="M19.1337 6.86818C19.0567 6.63086 18.8518 6.45766 18.6052 6.4218L13.064 5.61513L10.5862 0.585768C10.3657 0.138077 9.63229 0.138077 9.41158 0.585768L6.93381 5.61513L1.39258 6.42168C1.14602 6.45755 0.941128 6.63075 0.86409 6.86806C0.787066 7.10567 0.851375 7.36613 1.02968 7.54063L5.03912 11.4554L4.09248 16.9832C4.05053 17.2291 4.15167 17.478 4.35307 17.6247C4.5552 17.7714 4.82237 17.7909 5.04263 17.6746L9.99869 15.0645L14.9547 17.6746C15.1748 17.7903 15.442 17.7717 15.6443 17.6247C15.8457 17.478 15.9467 17.2291 15.9049 16.9832L14.9582 11.4554L18.9677 7.54063C19.1461 7.36612 19.2103 7.10579 19.1333 6.86821L19.1337 6.86818Z" fill="#F18E3B"/>
</svg>
