<svg width="20" height="18" viewBox="0 0 20 18" fill="none" xmlns="http://www.w3.org/2000/svg">
<path fill-rule="evenodd" clip-rule="evenodd" d="M9.9987 0.25C10.2373 0.249915 10.4759 0.361837 10.5862 0.585768L13.064 5.61513L18.6052 6.4218C18.8518 6.45766 19.0567 6.63086 19.1337 6.86818C19.2107 7.10576 19.1461 7.36612 18.9677 7.54063L14.9582 11.4553L15.9049 16.9832C15.9467 17.2291 15.8457 17.478 15.6443 17.6247C15.442 17.7717 15.1748 17.7903 14.9547 17.6746L9.99869 15.0645L5.04263 17.6746C4.82238 17.7909 4.55521 17.7714 4.35309 17.6247C4.35308 17.6247 4.35307 17.6247 4.35307 17.6247C4.15167 17.478 4.05053 17.2291 4.09248 16.9832L5.03912 11.4553L1.02968 7.54063C0.851375 7.36613 0.787066 7.10567 0.86409 6.86806C0.891482 6.78368 0.935038 6.70741 0.990885 6.64253C0.996392 6.63613 1.00202 6.62985 1.00776 6.62367C1.10756 6.51639 1.24234 6.44354 1.39258 6.42168L6.93381 5.61513L9.41158 0.585768C9.52189 0.362008 9.76028 0.250085 9.9987 0.25ZM9.99869 14.1227L15.0227 16.7686L14.063 11.1648L18.1292 7.19462L12.5102 6.37662L9.99891 1.27924L9.9987 1.27967L9.99869 14.1227Z" fill="#F18E3B"/>
</svg>
