<?xml version="1.0" encoding="UTF-8"?>
<svg width="255px" height="192px" viewBox="0 0 255 192" version="1.1" xmlns="http://www.w3.org/2000/svg" xmlns:xlink="http://www.w3.org/1999/xlink">
    <title>C430DC66-E2AE-4831-9C38-E936CFC84A40@2x</title>
    <defs>
        <path d="M9.73333333,49.6949275 L9.73333333,52.1141304 L9.73333333,52.1141304 C9.73333333,52.7834755 9.18861311,53.326087 8.51666667,53.326087 C7.84472022,53.326087 7.3,52.7834755 7.3,52.1141304 L7.3,49.6949275 C7.3,49.0229811 7.84472022,48.4782609 8.51666667,48.4782609 C9.18861311,48.4782609 9.73333333,49.0229811 9.73333333,49.6949275 Z M13.3786232,43.6304348 L15.8166667,43.6304348 L15.8166667,43.6304348 C16.4886131,43.6304348 17.0333333,44.1730462 17.0333333,44.8423913 C17.0333333,45.5117364 16.4886131,46.0543478 15.8166667,46.0543478 L13.3786232,46.0543478 C12.7092781,46.0543478 12.1666667,45.5117364 12.1666667,44.8423913 C12.1666667,44.1730462 12.7092781,43.6304348 13.3786232,43.6304348 Z M3.65471041,46.0527288 L1.21666667,46.0543478 L1.21666667,46.0543478 C0.544720221,46.0543478 0,45.5117364 0,44.8423913 C0,44.1730462 0.544720221,43.6304348 1.21666667,43.6304348 L3.65471041,43.6288157 C4.32361101,43.6283715 4.86622219,44.1702625 4.8666664,44.8391631 C4.86666658,44.8394312 4.86666667,44.8396993 4.86666667,44.8399674 C4.86666667,45.5094426 4.32418552,46.0522842 3.65471041,46.0527288 Z M8.51666667,36.3586957 C9.18861311,36.3586957 9.73333333,36.9013071 9.73333333,37.5706522 L9.73333333,39.9898551 C9.73333333,40.6618015 9.18861311,41.2065217 8.51666667,41.2065217 C7.84472022,41.2065217 7.3,40.6618015 7.3,39.9898551 L7.3,37.5706522 L7.3,37.5706522 C7.3,36.9013071 7.84472022,36.3586957 8.51666667,36.3586957 Z" id="path-1"></path>
        <path d="M231.075917,-3.54308318 L231.075917,-1.64228091 L231.075917,-1.64228091 C231.075917,-1.1163669 230.647922,-0.690029354 230.119964,-0.690029354 C229.592006,-0.690029354 229.164012,-1.1163669 229.164012,-1.64228091 L229.164012,-3.54308318 C229.164012,-4.07104111 229.592006,-4.49903556 230.119964,-4.49903556 C230.647922,-4.49903556 231.075917,-4.07104111 231.075917,-3.54308318 Z M233.940073,-8.30804178 L235.855679,-8.30804178 L235.855679,-8.30804178 C236.383636,-8.30804178 236.811631,-7.88170423 236.811631,-7.35579022 C236.811631,-6.82987621 236.383636,-6.40353867 235.855679,-6.40353867 L233.940073,-6.40353867 C233.414159,-6.40353867 232.987821,-6.82987621 232.987821,-7.35579022 C232.987821,-7.88170423 233.414159,-8.30804178 233.940073,-8.30804178 Z M226.299856,-6.4048108 L224.38425,-6.40353867 L224.38425,-6.40353867 C223.856292,-6.40353867 223.428298,-6.82987621 223.428298,-7.35579022 C223.428298,-7.88170423 223.856292,-8.30804178 224.38425,-8.30804178 L226.299856,-8.3093139 C226.825421,-8.30966292 227.251758,-7.88389144 227.252107,-7.35832668 C227.252107,-7.35811603 227.252107,-7.35790538 227.252107,-7.35769473 C227.252107,-6.83167845 226.825872,-6.40516012 226.299856,-6.4048108 Z M230.119964,-14.0215511 C230.647922,-14.0215511 231.075917,-13.5952136 231.075917,-13.0692995 L231.075917,-11.1684973 C231.075917,-10.6405393 230.647922,-10.2125449 230.119964,-10.2125449 C229.592006,-10.2125449 229.164012,-10.6405393 229.164012,-11.1684973 L229.164012,-13.0692995 L229.164012,-13.0692995 C229.164012,-13.5952136 229.592006,-14.0215511 230.119964,-14.0215511 Z" id="path-3"></path>
        <path d="M63.017762,119.740021 L63.017762,120.949623 L63.017762,120.949623 C63.017762,121.284295 62.7454019,121.555601 62.4094287,121.555601 C62.0734555,121.555601 61.8010953,121.284295 61.8010953,120.949623 L61.8010953,119.740021 C61.8010953,119.404048 62.0734555,119.131688 62.4094287,119.131688 C62.7454019,119.131688 63.017762,119.404048 63.017762,119.740021 Z M64.8404069,116.707775 L66.0594287,116.707775 L66.0594287,116.707775 C66.3954019,116.707775 66.667762,116.97908 66.667762,117.313753 C66.667762,117.648426 66.3954019,117.919731 66.0594287,117.919731 L64.8404069,117.919731 C64.5057344,117.919731 64.2344287,117.648426 64.2344287,117.313753 C64.2344287,116.97908 64.5057344,116.707775 64.8404069,116.707775 Z M59.9784505,117.918922 L58.7594287,117.919731 L58.7594287,117.919731 C58.4234555,117.919731 58.1510953,117.648426 58.1510953,117.313753 C58.1510953,116.97908 58.4234555,116.707775 58.7594287,116.707775 L59.9784505,116.706965 C60.3129008,116.706743 60.5842064,116.977689 60.5844285,117.312139 C60.5844286,117.312273 60.5844287,117.312407 60.5844287,117.312541 C60.5844287,117.647279 60.3131881,117.918699 59.9784505,117.918922 Z M62.4094287,113.071905 C62.7454019,113.071905 63.017762,113.343211 63.017762,113.677883 L63.017762,114.887485 C63.017762,115.223458 62.7454019,115.495818 62.4094287,115.495818 C62.0734555,115.495818 61.8010953,115.223458 61.8010953,114.887485 L61.8010953,113.677883 L61.8010953,113.677883 C61.8010953,113.343211 62.0734555,113.071905 62.4094287,113.071905 Z" id="path-5"></path>
    </defs>
    <g id="Desktop-1344" stroke="none" stroke-width="1" fill="none" fill-rule="evenodd">
        <g id="[E]&amp;[I]-17.0.2-Survey-Page---Error-Screen" transform="translate(-540.000000, -358.000000)">
            <g id="Card-with-rate-Copy-2" transform="translate(0.000000, 300.000000)">
                <g id="Group-2" transform="translate(284.000000, 48.000000)">
                    <g id="Illustration/-Sad-Letter/-Unsubscribe-Screen" transform="translate(242.000000, 0.000000)">
                        <g id="bg" transform="translate(14.600000, 18.179348)">
                            <path d="M143.883333,122.407609 C152.443747,122.407609 159.383333,129.347195 159.383333,137.907609 L159.383333,144.478261 C159.383333,144.799391 159.373568,145.11824 159.354317,145.434528 L220.533333,145.434783 C229.093747,145.434783 236.033333,152.374369 236.033333,160.934783 L236.033333,167.505435 C236.033333,176.065848 229.093747,183.005435 220.533333,183.005435 L110.4,183.005435 C101.839586,183.005435 94.9,176.065848 94.9,167.505435 L94.9,160.934783 C94.9,160.613652 94.9097658,160.294803 94.9290165,159.978516 L33.75,159.978261 C25.1895864,159.978261 18.25,153.038674 18.25,144.478261 L18.25,137.907609 C18.25,129.347195 25.1895864,122.407609 33.75,122.407609 L143.883333,122.407609 Z M199.85,46.0543478 C208.410414,46.0543478 215.35,52.9939342 215.35,61.5543478 L215.35,68.125 C215.35,71.1481553 214.484504,73.9691632 212.987777,76.3537586 L238.783333,76.3532609 C247.343747,76.3532609 254.283333,83.2928472 254.283333,91.8532609 L254.283333,98.423913 C254.283333,106.984327 247.343747,113.923913 238.783333,113.923913 L193.521358,113.924016 C190.779975,118.291898 185.920758,121.195652 180.383333,121.195652 L52,121.195652 C43.4395864,121.195652 36.5,114.256066 36.5,105.695652 L36.5,99.125 C36.5,90.5645864 43.4395864,83.625 52,83.625 L15.5,83.625 C6.93958638,83.625 -7.28008525e-16,76.6854136 0,68.125 L0,61.5543478 C-1.04834831e-15,52.9939342 6.93958638,46.0543478 15.5,46.0543478 L199.85,46.0543478 Z M191.333333,0 C199.893747,1.185747e-14 206.833333,6.93958638 206.833333,15.5 L206.833333,22.0706522 C206.833333,30.6310658 199.893747,37.5706522 191.333333,37.5706522 L95.8,37.5706522 C87.2395864,37.5706522 80.3,30.6310658 80.3,22.0706522 L80.3,15.5 C80.3,6.93958638 87.2395864,-2.03834368e-16 95.8,0 L191.333333,0 Z" id="Combined-Shape" fill-opacity="0.3" fill="#ECEEF5"></path>
                            <g id="Group" transform="translate(125.316667, 86.048913) scale(1, -1) translate(-125.316667, -86.048913) translate(17.033333, 59.385870)">
                                <path d="M212.916667,6.66811594 L212.916667,7.87771739 L212.916667,7.87771739 C212.916667,8.21238994 212.644307,8.48369565 212.308333,8.48369565 C211.97236,8.48369565 211.7,8.21238994 211.7,7.87771739 L211.7,6.66811594 C211.7,6.33214272 211.97236,6.05978261 212.308333,6.05978261 C212.644307,6.05978261 212.916667,6.33214272 212.916667,6.66811594 Z M214.739312,3.63586957 L215.958333,3.63586957 L215.958333,3.63586957 C216.294307,3.63586957 216.566667,3.90717527 216.566667,4.24184783 C216.566667,4.57652038 216.294307,4.84782609 215.958333,4.84782609 L214.739312,4.84782609 C214.404639,4.84782609 214.133333,4.57652038 214.133333,4.24184783 C214.133333,3.90717527 214.404639,3.63586957 214.739312,3.63586957 Z M209.877355,4.84701655 L208.658333,4.84782609 L208.658333,4.84782609 C208.32236,4.84782609 208.05,4.57652038 208.05,4.24184783 C208.05,3.90717527 208.32236,3.63586957 208.658333,3.63586957 L209.877355,3.63506003 C210.211806,3.63483793 210.483111,3.90578341 210.483333,4.24023372 C210.483333,4.24036777 210.483333,4.24050182 210.483333,4.24063587 C210.483333,4.5753735 210.212093,4.84679426 209.877355,4.84701655 Z M212.308333,0 C212.644307,0 212.916667,0.271305709 212.916667,0.605978261 L212.916667,1.81557971 C212.916667,2.15155293 212.644307,2.42391304 212.308333,2.42391304 C211.97236,2.42391304 211.7,2.15155293 211.7,1.81557971 L211.7,0.605978261 L211.7,0.605978261 C211.7,0.271305709 211.97236,0 212.308333,0 Z" id="Shape" fill="#ECEEF5"></path>
                                <mask id="mask-2" fill="white">
                                    <use xlink:href="#path-1"></use>
                                </mask>
                                <use id="Shape-Copy" fill="#ECEEF5" xlink:href="#path-1"></use>
                                <mask id="mask-4" fill="white">
                                    <use xlink:href="#path-3"></use>
                                </mask>
                                <use id="Shape-Copy-3" fill="#ECEEF5" opacity="0.799999952" xlink:href="#path-3"></use>
                                <mask id="mask-6" fill="white">
                                    <use xlink:href="#path-5"></use>
                                </mask>
                                <use id="Shape-Copy-2" fill="#DDDEE0" transform="translate(62.409429, 117.313753) rotate(-315.000000) translate(-62.409429, -117.313753) " xlink:href="#path-5"></use>
                            </g>
                            <ellipse id="Oval" stroke="#ECEEF5" cx="43.1916667" cy="15.1494565" rx="4.975" ry="4.95380435"></ellipse>
                            <ellipse id="Oval-Copy-5" stroke="#ECEEF5" cx="208.05" cy="54.5380435" rx="3.15" ry="3.13586957"></ellipse>
                            <ellipse id="Oval-Copy-4" stroke="#ECEEF5" cx="51.7083333" cy="28.4809783" rx="2.54166667" ry="2.5298913"></ellipse>
                            <ellipse id="Oval-Copy-3" stroke="#ECEEF5" cx="222.65" cy="126.043478" rx="3.15" ry="3.13586957"></ellipse>
                        </g>
                        <g id="letter-illustration-copy" transform="translate(65.700000, 26.572420)">
                            <g id="envelope">
                                <path d="M79.3403344,11.153709 C82.8959615,11.135672 86.8580359,13.4427564 92.9637495,18.6171183 C98.0789965,22.952097 109.23441,31.1772268 120.984719,39.6283804 L122.142214,40.4602412 L123.968429,41.7701957 C140.512547,53.6241162 157.320623,65.3153866 159.39869,66.7594263 L159.39869,66.7594263 L0.5,66.9679482 C3.1560784,65.0291888 19.4675217,53.752292 35.5206019,42.2812964 L37.270153,41.0295848 C49.7916685,32.0597687 61.8460031,23.1745552 66.7840885,18.7436819 C72.0055375,14.0507036 75.3992961,11.1737012 79.3403344,11.153709 Z" id="Path" stroke-opacity="0.15" stroke="#242A33" fill="#FEFEFE"></path>
                                <path d="M159.390216,66.366387 L159.398345,160.738937 C159.398579,161.705392 159.007003,162.580388 158.373756,163.213798 C157.740475,163.847244 156.865499,164.239077 155.899036,164.239161 L155.899036,164.239161 L4,164.238816 C3.03350169,164.238816 2.15850169,163.847065 1.52512627,163.21369 C0.891750844,162.580314 0.5,161.705314 0.5,160.738816 L0.5,160.738816 L0.5,66.366387 L159.390216,66.366387 Z" id="Path" stroke-opacity="0.15" stroke="#242A33" fill="#ECEEF5"></path>
                                <g id="Group-4" transform="translate(19.466667, 0.000000)" fill="#FEFEFE" stroke="#242A33" stroke-opacity="0.15">
                                    <rect id="Rectangle" x="0.5" y="0.5" width="120.63787" height="118.983696" rx="4"></rect>
                                </g>
                                <g id="Group" transform="translate(43.106646, 68.707683)">
                                    <rect id="Rectangle-Copy-12" fill="#E7E9EB" x="0" y="1.21195652" width="12.3538462" height="12.3590536" rx="1"></rect>
                                    <g id="Group-5">
                                        <g id="Group-2" transform="translate(12.166667, 0.000000)"></g>
                                        <polygon id="Path-5-Copy-2" fill="#FFFFFF" points="15.3514023 1.21195652 17.1053254 2.84007384 5.99409567 13.5710102 -8.694645e-12 7.78206868 1.75392311 6.15395136 5.99389098 10.2483318"></polygon>
                                    </g>
                                    <rect id="Rectangle-Copy-14" fill="#E7E9EB" x="0" y="19.2751888" width="12.3538462" height="12.3590536" rx="1"></rect>
                                    <rect id="Rectangle-Copy-13" fill="#E7E9EB" x="21.5441267" y="5.01474225" width="53.5333333" height="4.75348217" rx="1"></rect>
                                    <rect id="Rectangle-Copy-15" fill="#E7E9EB" x="21.5441267" y="23.0779745" width="53.5333333" height="4.75348217" rx="1"></rect>
                                    <g id="Group-6" transform="translate(0.000000, 19.275189)">
                                        <polygon id="Path-5-Copy" fill="#FFFFFF" points="15.3514023 -6.35095841e-14 17.1053254 1.62811732 5.99409567 12.3590536 -8.694645e-12 6.57011216 1.75392311 4.94199484 5.99389098 9.03637525"></polygon>
                                        <path d="M15.3514023,0.116115595 L17.1053254,1.74423291 L12.3538167,6.33311559 L12.3538167,3.01011559 L15.3514023,0.116115595 Z" id="Combined-Shape-Copy" fill="#E7E9EB"></path>
                                    </g>
                                    <path d="M15.3514023,0 L17.1053254,1.62811732 L12.3538167,6.217 L12.3538167,2.894 L15.3514023,0 Z" id="Combined-Shape" fill="#E7E9EB"></path>
                                </g>
                                <path d="M159.39869,67.3794359 L159.39869,161.676828 L0.5,161.676828 L0.5,67.3794359 L79.949345,134.204058 L159.39869,67.3794359 Z" id="Path" stroke-opacity="0.15" stroke="#242A33" fill="#FEFEFE"></path>
                                <path d="M79.5022865,103.658432 C83.233502,103.719565 87.3548231,106.138167 93.5436455,111.365808 C106.220352,122.066794 155.450332,150.494421 159.390374,152.76411 L159.390374,152.76411 L159.395913,160.739793 C159.397798,161.705943 159.007453,162.58091 158.375117,163.214565 C157.742497,163.848504 156.867696,164.240921 155.901477,164.241592 L155.901477,164.241592 L4,164.238816 C3.03350169,164.238816 2.15850169,163.847065 1.52512627,163.21369 C0.891750844,162.580314 0.5,161.705314 0.5,160.738816 L0.5,160.738816 L0.5,152.764454 C2.37999678,151.684868 14.538421,144.686679 28.1078284,136.493613 L29.0678969,135.913356 L29.0678969,135.913356 L30.0319593,135.329499 C30.3539021,135.134321 30.6763951,134.938604 30.9993226,134.742411 L31.9692937,134.152462 L31.9692937,134.152462 L32.9411794,133.56002 C33.7516894,133.065383 34.563472,132.568534 35.3747221,132.070435 L35.3747221,132.070435 L37.2085772,130.941713 C37.4045543,130.820789 37.6004199,130.699833 37.7961484,130.57886 L38.9686721,129.852915 C50.8684695,122.472515 62.068804,115.127114 66.783363,110.907061 C71.9424466,106.288284 75.4723221,103.592403 79.5022865,103.658432 Z" id="Path" stroke-opacity="0.15" stroke="#242A33" fill="#FEFEFE"></path>
                            </g>
                            <g id="Group-7" transform="translate(64.483333, 23.117797)" fill="#4E545C">
                                <rect id="Rectangle" x="0" y="0" width="6.08333333" height="13.3315217" rx="2"></rect>
                                <path d="M14.1666667,20.6032609 L17.4666667,20.6032609 C18.5712362,20.6032609 19.4666667,21.4986914 19.4666667,22.6032609 L19.4666667,29.298913 C19.4666667,29.8511978 19.0189514,30.298913 18.4666667,30.298913 L13.1666667,30.298913 C12.6143819,30.298913 12.1666667,29.8511978 12.1666667,29.298913 L12.1666667,22.6032609 C12.1666667,21.4986914 13.0620972,20.6032609 14.1666667,20.6032609 Z" id="Rectangle-Copy-7"></path>
                                <rect id="Rectangle-Copy-6" x="25.55" y="0" width="6.08333333" height="13.3315217" rx="2"></rect>
                            </g>
                        </g>
                        <g id="icon" transform="translate(180.066667, 143.010870)">
                            <ellipse id="Oval" fill="#C64552" cx="28.5916667" cy="28.4809783" rx="28.5916667" ry="28.4809783"></ellipse>
                            <rect id="Rectangle" fill="#FFFFFF" x="26.1686441" y="14.4818534" width="4.8460452" height="19.3091378" rx="1"></rect>
                            <rect id="Rectangle-Copy-5" fill="#FFFFFF" x="26.1686441" y="37.6528187" width="4.8460452" height="4.82728445" rx="1"></rect>
                        </g>
                    </g>
                </g>
            </g>
        </g>
    </g>
</svg>