<?xml version="1.0" encoding="UTF-8"?>
<svg width="255px" height="193px" viewBox="0 0 255 193" version="1.1" xmlns="http://www.w3.org/2000/svg" xmlns:xlink="http://www.w3.org/1999/xlink">
    <title>38455EB8-B6BC-4A7A-91A4-9D331AE87556@2x</title>
    <defs>
        <path d="M9.73333333,49.9123188 L9.73333333,52.3478261 L9.73333333,52.3478261 C9.73333333,53.0201727 9.18861311,53.5652174 8.51666667,53.5652174 C7.84472022,53.5652174 7.3,53.0201727 7.3,52.3478261 L7.3,49.9123188 C7.3,49.2403724 7.84472022,48.6956522 8.51666667,48.6956522 C9.18861311,48.6956522 9.73333333,49.2403724 9.73333333,49.9123188 Z M13.384058,43.826087 L15.8166667,43.826087 L15.8166667,43.826087 C16.4886131,43.826087 17.0333333,44.3711316 17.0333333,45.0434783 C17.0333333,45.7158249 16.4886131,46.2608696 15.8166667,46.2608696 L13.384058,46.2608696 C12.7117113,46.2608696 12.1666667,45.7158249 12.1666667,45.0434783 C12.1666667,44.3711316 12.7117113,43.826087 13.384058,43.826087 Z M3.64927563,46.2592469 L1.21666667,46.2608696 L1.21666667,46.2608696 C0.544720221,46.2608696 0,45.7158249 0,45.0434783 C0,44.3711316 0.544720221,43.826087 1.21666667,43.826087 L3.64927563,43.8244643 C4.32117379,43.8240161 4.8662182,44.3683338 4.8666664,45.0402319 C4.86666658,45.0405025 4.86666667,45.040773 4.86666667,45.0410435 C4.86666667,45.7135215 4.32175346,46.2587983 3.64927563,46.2592469 Z M8.51666667,36.5217391 C9.18861311,36.5217391 9.73333333,37.0667838 9.73333333,37.7391304 L9.73333333,40.1746377 C9.73333333,40.8465841 9.18861311,41.3913043 8.51666667,41.3913043 C7.84472022,41.3913043 7.3,40.8465841 7.3,40.1746377 L7.3,37.7391304 L7.3,37.7391304 C7.3,37.0667838 7.84472022,36.5217391 8.51666667,36.5217391 Z" id="path-1"></path>
        <path d="M231.075917,-3.56325823 L231.075917,-1.64964539 L231.075917,-1.64964539 C231.075917,-1.12137303 230.647922,-0.693123656 230.119964,-0.693123656 C229.592006,-0.693123656 229.164012,-1.12137303 229.164012,-1.64964539 L229.164012,-3.56325823 C229.164012,-4.09121615 229.592006,-4.51921061 230.119964,-4.51921061 C230.647922,-4.51921061 231.075917,-4.09121615 231.075917,-3.56325823 Z M233.944343,-8.34529757 L235.855679,-8.34529757 L235.855679,-8.34529757 C236.383636,-8.34529757 236.811631,-7.9170482 236.811631,-7.38877583 C236.811631,-6.86050346 236.383636,-6.43225409 235.855679,-6.43225409 L233.944343,-6.43225409 C233.416071,-6.43225409 232.987821,-6.86050346 232.987821,-7.38877583 C232.987821,-7.9170482 233.416071,-8.34529757 233.944343,-8.34529757 Z M226.295586,-6.43352907 L224.38425,-6.43225409 L224.38425,-6.43225409 C223.856292,-6.43225409 223.428298,-6.86050346 223.428298,-7.38877583 C223.428298,-7.9170482 223.856292,-8.34529757 224.38425,-8.34529757 L226.295586,-8.34657255 C226.823506,-8.34692471 227.251755,-7.91924649 227.252107,-7.39132651 C227.252107,-7.39111396 227.252107,-7.39090142 227.252107,-7.39068887 C227.252107,-6.86231332 226.823961,-6.43388153 226.295586,-6.43352907 Z M230.119964,-14.084428 C230.647922,-14.084428 231.075917,-13.6561786 231.075917,-13.1279063 L231.075917,-11.2142934 C231.075917,-10.6863355 230.647922,-10.258341 230.119964,-10.258341 C229.592006,-10.258341 229.164012,-10.6863355 229.164012,-11.2142934 L229.164012,-13.1279063 L229.164012,-13.1279063 C229.164012,-13.6561786 229.592006,-14.084428 230.119964,-14.084428 Z" id="path-3"></path>
        <path d="M63.017762,120.274244 L63.017762,121.491998 L63.017762,121.491998 C63.017762,121.828171 62.7454019,122.100693 62.4094287,122.100693 C62.0734555,122.100693 61.8010953,121.828171 61.8010953,121.491998 L61.8010953,120.274244 C61.8010953,119.938271 62.0734555,119.665911 62.4094287,119.665911 C62.7454019,119.665911 63.017762,119.938271 63.017762,120.274244 Z M64.8431243,117.231128 L66.0594287,117.231128 L66.0594287,117.231128 C66.3954019,117.231128 66.667762,117.50365 66.667762,117.839824 C66.667762,118.175997 66.3954019,118.448519 66.0594287,118.448519 L64.8431243,118.448519 C64.506951,118.448519 64.2344287,118.175997 64.2344287,117.839824 C64.2344287,117.50365 64.506951,117.231128 64.8431243,117.231128 Z M59.9757332,118.447708 L58.7594287,118.448519 L58.7594287,118.448519 C58.4234555,118.448519 58.1510953,118.175997 58.1510953,117.839824 C58.1510953,117.50365 58.4234555,117.231128 58.7594287,117.231128 L59.9757332,117.230317 C60.3116822,117.230093 60.5842044,117.502251 60.5844285,117.8382 C60.5844286,117.838336 60.5844287,117.838471 60.5844287,117.838606 C60.5844287,118.174845 60.3119721,118.447484 59.9757332,118.447708 Z M62.4094287,113.578954 C62.7454019,113.578954 63.017762,113.851476 63.017762,114.18765 L63.017762,115.405403 C63.017762,115.741377 62.7454019,116.013737 62.4094287,116.013737 C62.0734555,116.013737 61.8010953,115.741377 61.8010953,115.405403 L61.8010953,114.18765 L61.8010953,114.18765 C61.8010953,113.851476 62.0734555,113.578954 62.4094287,113.578954 Z" id="path-5"></path>
    </defs>
    <g id="Desktop-1344" stroke="none" stroke-width="1" fill="none" fill-rule="evenodd">
        <g id="[E]&amp;[I]-17.0.1-Survey-Page---Success-Screen" transform="translate(-540.000000, -358.000000)">
            <g id="Card-with-rate-Copy-2" transform="translate(0.000000, 300.000000)">
                <g id="Content" transform="translate(284.000000, 48.000000)">
                    <g id="Illustration/-Sad-Letter/-Unsubscribe-Screen" transform="translate(242.000000, 0.000000)">
                        <g id="Group-2-Copy" transform="translate(14.600000, 18.260870)">
                            <path d="M143.883333,122.956522 C152.443747,122.956522 159.383333,129.896108 159.383333,138.456522 L159.383333,145.195652 C159.383333,145.494809 159.374858,145.791987 159.358135,146.086958 L220.533333,146.086957 C229.093747,146.086957 236.033333,153.026543 236.033333,161.586957 L236.033333,168.326087 C236.033333,176.886501 229.093747,183.826087 220.533333,183.826087 L110.4,183.826087 C101.839586,183.826087 94.9,176.886501 94.9,168.326087 L94.9,161.586957 C94.9,161.2878 94.9084751,160.990622 94.9251982,160.695651 L33.75,160.695652 C25.1895864,160.695652 18.25,153.756066 18.25,145.195652 L18.25,138.456522 C18.25,129.896108 25.1895864,122.956522 33.75,122.956522 L143.883333,122.956522 Z M199.85,46.2608696 C208.410414,46.2608696 215.35,53.2004559 215.35,61.7608696 L215.35,68.5 C215.35,71.5092605 214.492442,74.3182276 213.008375,76.6958515 L238.783333,76.6956522 C247.343747,76.6956522 254.283333,83.6352386 254.283333,92.1956522 L254.283333,98.9347826 C254.283333,107.495196 247.343747,114.434783 238.783333,114.434783 L193.541708,114.434982 C190.804065,118.820961 185.934486,121.73913 180.383333,121.73913 L52,121.73913 C43.4395864,121.73913 36.5,114.799544 36.5,106.23913 L36.5,99.5 C36.5,90.9395864 43.4395864,84 52,84 L15.5,84 C6.93958638,84 -7.28008525e-16,77.0604136 0,68.5 L0,61.7608696 C-1.04834831e-15,53.2004559 6.93958638,46.2608696 15.5,46.2608696 L199.85,46.2608696 Z M191.333333,0 C199.893747,-7.39934028e-15 206.833333,6.93958638 206.833333,15.5 L206.833333,22.2391304 C206.833333,30.7995441 199.893747,37.7391304 191.333333,37.7391304 L95.8,37.7391304 C87.2395864,37.7391304 80.3,30.7995441 80.3,22.2391304 L80.3,15.5 C80.3,6.93958638 87.2395864,3.34887931e-15 95.8,0 L191.333333,0 Z" id="Combined-Shape" fill="#F4FBFA"></path>
                            <g id="Group" transform="translate(125.316667, 86.434783) scale(1, -1) translate(-125.316667, -86.434783) translate(17.033333, 59.652174)">
                                <path d="M212.916667,6.69528986 L212.916667,7.91304348 L212.916667,7.91304348 C212.916667,8.2492168 212.644307,8.52173913 212.308333,8.52173913 C211.97236,8.52173913 211.7,8.2492168 211.7,7.91304348 L211.7,6.69528986 C211.7,6.35931663 211.97236,6.08695652 212.308333,6.08695652 C212.644307,6.08695652 212.916667,6.35931663 212.916667,6.69528986 Z M214.742029,3.65217391 L215.958333,3.65217391 L215.958333,3.65217391 C216.294307,3.65217391 216.566667,3.92469624 216.566667,4.26086957 C216.566667,4.59704289 216.294307,4.86956522 215.958333,4.86956522 L214.742029,4.86956522 C214.405856,4.86956522 214.133333,4.59704289 214.133333,4.26086957 C214.133333,3.92469624 214.405856,3.65217391 214.742029,3.65217391 Z M209.874638,4.86875386 L208.658333,4.86956522 L208.658333,4.86956522 C208.32236,4.86956522 208.05,4.59704289 208.05,4.26086957 C208.05,3.92469624 208.32236,3.65217391 208.658333,3.65217391 L209.874638,3.65136256 C210.210587,3.65113846 210.483109,3.92329733 210.483333,4.25924641 C210.483333,4.25938166 210.483333,4.25951692 210.483333,4.25965217 C210.483333,4.59589116 210.210877,4.86852957 209.874638,4.86875386 Z M212.308333,0 C212.644307,0 212.916667,0.272522326 212.916667,0.608695652 L212.916667,1.82644928 C212.916667,2.1624225 212.644307,2.43478261 212.308333,2.43478261 C211.97236,2.43478261 211.7,2.1624225 211.7,1.82644928 L211.7,0.608695652 L211.7,0.608695652 C211.7,0.272522326 211.97236,0 212.308333,0 Z" id="Shape" fill="#ECEEF5"></path>
                                <mask id="mask-2" fill="white">
                                    <use xlink:href="#path-1"></use>
                                </mask>
                                <use id="Shape-Copy" fill="#ECEEF5" xlink:href="#path-1"></use>
                                <mask id="mask-4" fill="white">
                                    <use xlink:href="#path-3"></use>
                                </mask>
                                <use id="Shape-Copy-3" fill="#ECEEF5" opacity="0.799999952" xlink:href="#path-3"></use>
                                <mask id="mask-6" fill="white">
                                    <use xlink:href="#path-5"></use>
                                </mask>
                                <use id="Shape-Copy-2" fill="#DDDEE0" transform="translate(62.409429, 117.839824) rotate(-315.000000) translate(-62.409429, -117.839824) " xlink:href="#path-5"></use>
                            </g>
                            <ellipse id="Oval" stroke="#ECEEF5" cx="43.1916667" cy="15.2173913" rx="4.975" ry="4.97826087"></ellipse>
                            <ellipse id="Oval-Copy-5" stroke="#ECEEF5" cx="208.05" cy="54.7826087" rx="3.15" ry="3.15217391"></ellipse>
                            <ellipse id="Oval-Copy-4" stroke="#ECEEF5" cx="51.7083333" cy="28.6086957" rx="2.54166667" ry="2.54347826"></ellipse>
                            <ellipse id="Oval-Copy-3" stroke="#ECEEF5" cx="222.65" cy="126.608696" rx="3.15" ry="3.15217391"></ellipse>
                        </g>
                        <g transform="translate(64.876703, 25.397765)" id="letter-illustration-copy">
                            <g transform="translate(0.823297, 0.167453)">
                                <g id="envelope" transform="translate(0.000000, 0.441123)">
                                    <path d="M79.3403458,11.8867217 C82.8958479,11.8686045 86.8575786,14.1861779 92.9629082,19.3834162 C98.0781522,23.7378318 109.233557,31.9998381 120.983859,40.488884 L122.141353,41.3244746 L123.967569,42.6403034 C124.272275,42.8596055 124.57707,43.0788522 124.882061,43.2981229 L124.882061,43.2981229 L126.709792,44.6108029 C142.326375,55.8153328 157.439002,66.3743121 159.39869,67.7421943 L159.39869,67.7421943 L0.5,67.9557332 C2.40885308,66.4354723 16.6615339,56.5823933 31.6838737,45.8781752 L32.6236674,45.208121 C32.9371963,44.9844453 33.2509546,44.7604678 33.5648376,44.5362562 L33.5648376,44.5362562 L35.4001999,43.2235359 C36.3408767,42.5498408 37.2808369,41.8752521 38.2172736,41.2016313 L39.3391268,40.39387 C51.0970535,31.9197557 62.1173308,23.717498 66.784915,19.5105604 C72.0060271,14.7968415 75.3994287,11.9068029 79.3403458,11.8867217 Z" id="Path" stroke-opacity="0.15" stroke="#242A33" fill="#FEFEFE"></path>
                                    <path d="M159.390216,67.3469902 L159.398347,162.162914 C159.39858,163.129369 159.007003,164.004365 158.373756,164.637775 C157.740473,165.27122 156.865498,165.663053 155.899034,165.663136 L155.899034,165.663136 L4,165.662793 C3.03350169,165.662793 2.15850169,165.271043 1.52512627,164.637667 C0.891750844,164.004292 0.5,163.129292 0.5,162.162793 L0.5,162.162793 L0.5,67.3469902 L159.390216,67.3469902 Z" id="Path" stroke-opacity="0.15" stroke="#242A33" fill="#E0F4F0"></path>
                                    <g id="Group-4" transform="translate(19.005917, 0.000000)">
                                        <rect id="Rectangle" stroke-opacity="0.15" stroke="#242A33" fill="#FEFEFE" x="1.0353195" y="1.18523822" width="120.63787" height="119.521739" rx="4"></rect>
                                        <g id="Face" transform="translate(30.409467, 14.145703)">
                                            <path d="M36.7471246,46.2182254 C36.4422918,43.4177838 34.1463808,41.2408599 31.3597633,41.2408599 C28.5731459,41.2408599 26.2787218,43.4177838 25.9724021,46.2182254 C27.7062313,45.525277 29.5020184,45.1788028 31.3597633,45.1788028 C33.2175083,45.1788028 35.0132954,45.525277 36.7471246,46.2182254 Z" id="Path" fill="#4E545C" transform="translate(31.359763, 43.729543) rotate(-180.000000) translate(-31.359763, -43.729543) "></path>
                                            <g id="eyes" transform="translate(12.039139, 0.059828)">
                                                <ellipse id="Oval" fill="#4E545C" cx="31.8911342" cy="22.8013269" rx="3.59157417" ry="7.46604814"></ellipse>
                                                <path d="M30.4171587,1.21898091 C30.6345626,5.032503 32.5324629,7.57032973 36.1108596,8.83246111" id="Path-2" stroke="#4E545C" stroke-linecap="round" transform="translate(33.264009, 5.025721) rotate(-216.000000) translate(-33.264009, -5.025721) "></path>
                                                <path d="M2.43382539,1.21898091 C2.65122927,5.032503 4.54912955,7.57032973 8.12752623,8.83246111" id="Path-2-Copy" stroke="#4E545C" stroke-linecap="round" transform="translate(5.280676, 5.025721) scale(-1, 1) rotate(-216.000000) translate(-5.280676, -5.025721) "></path>
                                                <ellipse id="Oval" fill="#4E545C" transform="translate(6.750115, 22.801327) scale(-1, 1) translate(-6.750115, -22.801327) " cx="6.75011502" cy="22.8013269" rx="3.59157417" ry="7.46604814"></ellipse>
                                                <ellipse id="Oval" fill="#FFFFFF" transform="translate(7.015654, 20.717779) scale(-1, 1) translate(-7.015654, -20.717779) " cx="7.01565368" cy="20.7177785" rx="1.42544379" ry="1.90991929"></ellipse>
                                                <ellipse id="Oval-Copy-2" fill="#FFFFFF" transform="translate(31.723346, 19.762819) scale(-1, 1) translate(-31.723346, -19.762819) " cx="31.723346" cy="19.7628189" rx="1.42544379" ry="1.90991929"></ellipse>
                                            </g>
                                            <ellipse id="Oval" fill-opacity="0.1" fill="#C64552" cx="6.65207101" cy="37.720906" rx="6.65207101" ry="6.68471752"></ellipse>
                                            <ellipse id="Oval-Copy" fill-opacity="0.1" fill="#C64552" cx="56.0674556" cy="37.720906" rx="6.65207101" ry="6.68471752"></ellipse>
                                        </g>
                                    </g>
                                    <g id="Group" transform="translate(43.106646, 69.701027)">
                                        <rect id="Rectangle-Copy-12" fill="#E7E9EB" x="0" y="1.2173913" width="12.3538462" height="12.4144754" rx="1"></rect>
                                        <g id="Group-5">
                                            <g id="Group-2" transform="translate(12.166667, 0.000000)"></g>
                                            <polygon id="Path-5-Copy-2" fill="#FFFFFF" points="15.3514023 1.2173913 17.1053254 2.8528096 5.99409567 13.6318667 -8.694645e-12 7.81696585 1.75392311 6.18154756 5.99389098 10.2942884"></polygon>
                                        </g>
                                        <rect id="Rectangle-Copy-14" fill="#E7E9EB" x="0" y="19.3616246" width="12.3538462" height="12.4144754" rx="1"></rect>
                                        <rect id="Rectangle-Copy-13" fill="#E7E9EB" x="21.5441267" y="5.03722989" width="53.5333333" height="4.77479823" rx="1"></rect>
                                        <rect id="Rectangle-Copy-15" fill="#E7E9EB" x="21.5441267" y="23.1814632" width="53.5333333" height="4.77479823" rx="1"></rect>
                                        <g id="Group-6" transform="translate(0.000000, 19.361625)">
                                            <polygon id="Path-5-Copy" fill="#FFFFFF" points="15.3514023 -6.37943804e-14 17.1053254 1.63541829 5.99409567 12.4144754 -8.694645e-12 6.59957455 1.75392311 4.96415625 5.99389098 9.07689712"></polygon>
                                            <path d="M15.3514023,0.116636293 L17.1053254,1.75205459 L12.3538167,6.36063629 L12.3538167,3.02363629 L15.3514023,0.116636293 Z" id="Combined-Shape-Copy" fill="#E7E9EB"></path>
                                        </g>
                                        <path d="M15.3514023,0 L17.1053254,1.63541829 L12.3538167,6.244 L12.3538167,2.907 L15.3514023,0 Z" id="Combined-Shape" fill="#E7E9EB"></path>
                                    </g>
                                    <path d="M159.39869,68.3651098 L159.39869,163.089317 L0.5,163.089317 L0.5,68.3651098 L79.949345,135.489394 L159.39869,68.3651098 Z" id="Path" stroke-opacity="0.15" stroke="#242A33" fill="#FEFEFE"></path>
                                    <path d="M79.5022498,104.806263 C83.2333417,104.867669 87.3543307,107.297232 93.5428034,112.548019 C106.220412,123.297756 155.456472,151.856144 159.390372,154.132447 L159.390372,154.132447 L159.395925,162.163766 C159.397802,163.129918 159.00745,164.004885 158.37511,164.638538 C157.742487,165.272475 156.867685,165.664889 155.901465,165.665557 L155.901465,165.665557 L4,165.662793 C3.03350169,165.662793 2.15850169,165.271043 1.52512627,164.637667 C0.891750844,164.004292 0.5,163.129292 0.5,162.162793 L0.5,162.162793 L0.5,154.132791 C2.44343165,153.011778 15.4078323,145.516189 29.5495898,136.913274 L30.5155094,136.325057 C30.6767615,136.226756 30.8381368,136.128327 30.9996208,136.029778 L31.9697137,135.43711 L31.9697137,135.43711 L32.941722,134.841937 C33.4280894,134.543786 33.9149152,134.244835 34.4018093,133.945294 L35.3755729,133.345483 L37.2094283,132.211699 C49.7519566,124.437857 61.8377703,116.534676 66.7841907,112.087228 C71.9429175,107.448059 75.472425,104.739941 79.5022498,104.806263 Z" id="Path" stroke-opacity="0.15" stroke="#242A33" fill="#FEFEFE"></path>
                                </g>
                            </g>
                        </g>
                        <g id="Icons-/-Request-Success" transform="translate(180.460036, 143.484721)">
                            <ellipse id="Oval" fill="#8EC622" cx="27.9833333" cy="28" rx="27.9833333" ry="28"></ellipse>
                            <polygon id="Path-5" fill="#FFFFFF" fill-rule="nonzero" points="38.1026789 19.774875 40.6004461 22.225125 24.7769097 38.374745 16.2406997 29.662625 18.738467 27.212375 24.7766182 33.37425"></polygon>
                        </g>
                    </g>
                </g>
            </g>
        </g>
    </g>
</svg>