<svg width="16" height="16" viewBox="0 0 16 16" fill="none" xmlns="http://www.w3.org/2000/svg">
<g clip-path="url(#clip0_3649_171165)">
<path d="M1.67742 2.13C1.30202 2.13 1 2.43202 1 2.80742V4.16226C1 4.53767 1.30202 4.83968 1.67742 4.83968H3.03226C3.40766 4.83968 3.70968 4.53767 3.70968 4.16226V2.80742C3.70968 2.43202 3.40766 2.13 3.03226 2.13H1.67742ZM5.96774 2.58162C5.46814 2.58162 5.06452 2.98525 5.06452 3.48484C5.06452 3.98444 5.46814 4.38807 5.96774 4.38807H14.0968C14.5964 4.38807 15 3.98444 15 3.48484C15 2.98525 14.5964 2.58162 14.0968 2.58162H5.96774ZM5.96774 7.09775C5.46814 7.09775 5.06452 7.50138 5.06452 8.00097C5.06452 8.50057 5.46814 8.9042 5.96774 8.9042H14.0968C14.5964 8.9042 15 8.50057 15 8.00097C15 7.50138 14.5964 7.09775 14.0968 7.09775H5.96774ZM5.96774 11.6139C5.46814 11.6139 5.06452 12.0175 5.06452 12.5171C5.06452 13.0167 5.46814 13.4203 5.96774 13.4203H14.0968C14.5964 13.4203 15 13.0167 15 12.5171C15 12.0175 14.5964 11.6139 14.0968 11.6139H5.96774ZM1 7.32355V8.67839C1 9.0538 1.30202 9.35581 1.67742 9.35581H3.03226C3.40766 9.35581 3.70968 9.0538 3.70968 8.67839V7.32355C3.70968 6.94815 3.40766 6.64613 3.03226 6.64613H1.67742C1.30202 6.64613 1 6.94815 1 7.32355ZM1.67742 11.1623C1.30202 11.1623 1 11.4643 1 11.8397V13.1945C1 13.5699 1.30202 13.8719 1.67742 13.8719H3.03226C3.40766 13.8719 3.70968 13.5699 3.70968 13.1945V11.8397C3.70968 11.4643 3.40766 11.1623 3.03226 11.1623H1.67742Z" fill="#313B71"/>
</g>
<defs>
<clipPath id="clip0_3649_171165">
<rect width="16" height="16" fill="white"/>
</clipPath>
</defs>
</svg>
