<svg width="16" height="16" viewBox="0 0 16 16" fill="none" xmlns="http://www.w3.org/2000/svg">
<g clip-path="url(#clip0_3675_171271)">
<path fill-rule="evenodd" clip-rule="evenodd" d="M13.5322 6.65385C13.8721 6.65385 14.1476 6.92937 14.1476 7.26924V13.1154L13.0382 15.3342C12.9622 15.4862 12.7773 15.5478 12.6254 15.4718C12.5658 15.442 12.5175 15.3938 12.4878 15.3342L11.3783 13.1154V7.26924C11.3783 6.92937 11.6539 6.65385 11.9937 6.65385H13.5322ZM11.686 0.500008C12.0259 0.500008 12.3014 0.775525 12.3014 1.11539V6.11443H11.3783C11.0539 6.11443 10.7881 6.36547 10.7646 6.68389L10.763 6.72981V12.8309L11.674 14.6539H2.45527C2.1154 14.6539 1.83988 14.3783 1.83988 14.0385V1.11539C1.83988 0.775525 2.1154 0.500008 2.45527 0.500008H11.686ZM8.45527 4.8077H3.2245C2.9696 4.8077 2.76296 5.01434 2.76296 5.26924C2.76296 5.50914 2.946 5.7063 3.18005 5.72866L3.2245 5.73078H8.45527C8.71017 5.73078 8.91681 5.52414 8.91681 5.26924C8.91681 5.02933 8.73376 4.83218 8.49972 4.80981L8.45527 4.8077ZM10.9168 2.65385H3.2245C2.9696 2.65385 2.76296 2.86049 2.76296 3.11539C2.76296 3.3553 2.946 3.55245 3.18005 3.57482L3.2245 3.57693H10.9168C11.1717 3.57693 11.3783 3.37029 11.3783 3.11539C11.3783 2.86049 11.1717 2.65385 10.9168 2.65385Z" fill="#313B71"/>
</g>
<defs>
<clipPath id="clip0_3675_171271">
<rect width="16" height="16" fill="white"/>
</clipPath>
</defs>
</svg>
