<svg width="16" height="16" viewBox="0 0 16 16" fill="none" xmlns="http://www.w3.org/2000/svg">
<g clip-path="url(#clip0_3652_171202)">
<path d="M3.875 5.75C2.83906 5.75 2 4.91094 2 3.875C2 2.83906 2.83906 2 3.875 2C4.91094 2 5.75 2.83906 5.75 3.875C5.75 4.91094 4.91094 5.75 3.875 5.75ZM12.5 5.75C11.4641 5.75 10.625 4.91094 10.625 3.875C10.625 2.83906 11.4641 2 12.5 2C13.5359 2 14.375 2.83906 14.375 3.875C14.375 4.91094 13.5359 5.75 12.5 5.75ZM0.5 9.00078C0.5 7.62031 1.62031 6.5 3.00078 6.5H4.00156C4.37422 6.5 4.72813 6.58203 5.04688 6.72734C5.01641 6.89609 5.00234 7.07188 5.00234 7.25C5.00234 8.14531 5.39609 8.94922 6.01719 9.5C6.0125 9.5 6.00781 9.5 6.00078 9.5H0.999219C0.725 9.5 0.5 9.275 0.5 9.00078ZM9.99922 9.5C9.99453 9.5 9.98984 9.5 9.98281 9.5C10.6062 8.94922 10.9977 8.14531 10.9977 7.25C10.9977 7.07188 10.9812 6.89844 10.9531 6.72734C11.2719 6.57969 11.6258 6.5 11.9984 6.5H12.9992C14.3797 6.5 15.5 7.62031 15.5 9.00078C15.5 9.27734 15.275 9.5 15.0008 9.5H9.99922ZM10.25 7.25C10.25 8.49219 9.24219 9.5 8 9.5C6.75781 9.5 5.75 8.49219 5.75 7.25C5.75 6.00781 6.75781 5 8 5C9.24219 5 10.25 6.00781 10.25 7.25ZM3.5 13.3742C3.5 11.6492 4.89922 10.25 6.62422 10.25H9.37578C11.1008 10.25 12.5 11.6492 12.5 13.3742C12.5 13.7188 12.2211 14 11.8742 14H4.12578C3.78125 14 3.5 13.7211 3.5 13.3742Z" fill="#313B71"/>
</g>
<defs>
<clipPath id="clip0_3652_171202">
<rect width="16" height="16" fill="white"/>
</clipPath>
</defs>
</svg>
