<svg width="16" height="16" viewBox="0 0 16 16" fill="none" xmlns="http://www.w3.org/2000/svg">
<g clip-path="url(#clip0_3647_171314)">
<path d="M15.3074 6.29454C15.2458 6.10468 15.0818 5.96613 14.8846 5.93744L10.4516 5.2921L8.46938 1.26861C8.29294 0.910462 7.70622 0.910462 7.52965 1.26861L5.54744 5.2921L1.11446 5.93735C0.917209 5.96604 0.753293 6.1046 0.691662 6.29445C0.630044 6.48454 0.68149 6.6929 0.824137 6.8325L4.03169 9.96428L3.27437 14.3865C3.24081 14.5833 3.32172 14.7824 3.48284 14.8998C3.64455 15.0171 3.85829 15.0327 4.0345 14.9397L7.99934 12.8516L11.9642 14.9397C12.1403 15.0322 12.354 15.0174 12.5158 14.8998C12.677 14.7824 12.7577 14.5833 12.7243 14.3865L11.967 9.96428L15.1745 6.8325C15.3173 6.69289 15.3686 6.48464 15.307 6.29457L15.3074 6.29454Z" fill="#313B71"/>
</g>
<defs>
<clipPath id="clip0_3647_171314">
<rect width="16" height="16" fill="white"/>
</clipPath>
</defs>
</svg>
