<svg width="16" height="16" viewBox="0 0 16 16" fill="none" xmlns="http://www.w3.org/2000/svg">
<g clip-path="url(#clip0_3647_171311)">
<path d="M11.9181 1.39376C12.1025 0.965633 11.965 0.465633 11.5868 0.190633C11.2087 -0.0843669 10.6931 -0.0593669 10.34 0.246883L2.33997 7.24688C2.02747 7.52188 1.91497 7.96251 2.06184 8.35001C2.20872 8.73751 2.58372 9.00001 2.99934 9.00001H6.48372L4.08059 14.6063C3.89622 15.0344 4.03372 15.5344 4.41184 15.8094C4.78997 16.0844 5.30559 16.0594 5.65872 15.7531L13.6587 8.75313C13.9712 8.47813 14.0837 8.03751 13.9368 7.65001C13.79 7.26251 13.4181 7.00313 12.9993 7.00313H9.51497L11.9181 1.39376Z" fill="#313B71"/>
</g>
<defs>
<clipPath id="clip0_3647_171311">
<rect width="14" height="16" fill="white" transform="translate(1)"/>
</clipPath>
</defs>
</svg>
