<svg width="16" height="16" viewBox="0 0 16 16" fill="none" xmlns="http://www.w3.org/2000/svg">
<g clip-path="url(#clip0_3652_171183)">
<g clip-path="url(#clip1_3652_171183)">
<path fill-rule="evenodd" clip-rule="evenodd" d="M0.25 1.27981V11.187C0.25 11.3693 0.333703 11.4994 0.50111 11.5774C0.669137 11.6554 0.824453 11.623 0.967059 11.4801L3.40748 9.08072H11.0998C11.3069 9.08072 11.4879 9.0027 11.643 8.84668C11.798 8.69066 11.8755 8.50873 11.8755 8.30091V1.27981C11.8755 1.05888 11.798 0.873522 11.643 0.723739C11.4879 0.57458 11.3069 0.5 11.0998 0.5H1.04425C0.824763 0.5 0.637516 0.57458 0.482509 0.723739C0.327503 0.873522 0.25 1.05888 0.25 1.27981ZM3.63999 12.7476C3.79499 12.9036 3.97604 12.9816 4.18313 12.9816H12.6502L15.0143 15.3613C15.1563 15.5042 15.3144 15.5367 15.4887 15.4587C15.6629 15.3807 15.75 15.2505 15.75 15.0683V4.4393C15.75 4.21837 15.6725 4.0299 15.5175 3.87387C15.3625 3.71785 15.1752 3.63983 14.9557 3.63983H13.503V10.719H3.40748V12.2018C3.40748 12.4097 3.48498 12.5916 3.63999 12.7476ZM6.56086 6.32093H5.43382V5.88648C5.43382 5.1743 5.87901 4.78728 6.28624 4.43327C6.62946 4.13491 6.9457 3.85999 6.9457 3.43362C6.9457 3.00821 6.56086 2.68237 6.0569 2.68237C5.53461 2.68237 5.07646 3.06252 5.07646 3.06252L4.43506 2.27507C4.43506 2.27507 5.0673 1.62339 6.15769 1.62339C7.1931 1.62339 8.15521 2.25697 8.15521 3.325C8.15521 4.15054 7.66803 4.57229 7.23228 4.94952C6.87974 5.25471 6.56086 5.53077 6.56086 5.96794V6.32093ZM6.56086 8.17641H5.43382V7.10838H6.56086V8.17641Z" fill="#313B71"/>
</g>
</g>
<defs>
<clipPath id="clip0_3652_171183">
<rect width="16" height="16" fill="white"/>
</clipPath>
<clipPath id="clip1_3652_171183">
<rect width="16" height="16" fill="white"/>
</clipPath>
</defs>
</svg>
