<svg width="46" height="45" viewBox="0 0 46 45" fill="none" xmlns="http://www.w3.org/2000/svg">
<path fill-rule="evenodd" clip-rule="evenodd" d="M18.1641 0C27.829 0 35.6641 7.83502 35.6641 17.5C35.6641 21.9125 34.0309 25.9437 31.3362 29.0219L31.9548 29.6411L33.6138 29.6499L45.1632 41.1993L41.8634 44.4992L30.314 32.9497L30.3191 31.3047L29.6859 30.6721C26.6077 33.3669 22.5766 35 18.1641 35C8.49908 35 0.664062 27.165 0.664062 17.5C0.664062 7.83502 8.49908 0 18.1641 0ZM18.1641 4.66667C11.0764 4.66667 5.33073 10.4123 5.33073 17.5C5.33073 24.5877 11.0764 30.3333 18.1641 30.3333C25.2517 30.3333 30.9974 24.5877 30.9974 17.5C30.9974 10.4123 25.2517 4.66667 18.1641 4.66667ZM19.3307 9.33333V16.3333H26.3307V18.6667H19.3307V25.6667H16.9974V18.6667H9.9974V16.3333H16.9974V9.33333H19.3307Z" fill="white"/>
</svg>
