<svg width="24" height="24" viewBox="0 0 24 24" fill="none" xmlns="http://www.w3.org/2000/svg">
<path d="M20.5 3H3.5C2.39543 3 1.5 3.89543 1.5 5V19C1.5 20.1046 2.39543 21 3.5 21H20.5C21.6046 21 22.5 20.1046 22.5 19V5C22.5 3.89543 21.6046 3 20.5 3Z" fill="#E1E6FF"/>
<path fill-rule="evenodd" clip-rule="evenodd" d="M3.5 3H20.5C21.6046 3 22.5 3.89543 22.5 5V8H1.5V5C1.5 3.89543 2.39543 3 3.5 3Z" fill="#4556AD"/>
<path d="M5.1 4.5H3.4C3.17909 4.5 3 4.67909 3 4.9V6.6C3 6.82091 3.17909 7 3.4 7H5.1C5.32091 7 5.5 6.82091 5.5 6.6V4.9C5.5 4.67909 5.32091 4.5 5.1 4.5Z" fill="#1A255A"/>
<path d="M4.6 4.5H3.4C3.17909 4.5 3 4.67909 3 4.9V6.1C3 6.32091 3.17909 6.5 3.4 6.5H4.6C4.82091 6.5 5 6.32091 5 6.1V4.9C5 4.67909 4.82091 4.5 4.6 4.5Z" fill="white"/>
<path d="M10.1 4.5H8.4C8.17909 4.5 8 4.67909 8 4.9V6.6C8 6.82091 8.17909 7 8.4 7H10.1C10.3209 7 10.5 6.82091 10.5 6.6V4.9C10.5 4.67909 10.3209 4.5 10.1 4.5Z" fill="#1A255A"/>
<path d="M9.6 4.5H8.4C8.17909 4.5 8 4.67909 8 4.9V6.1C8 6.32091 8.17909 6.5 8.4 6.5H9.6C9.82091 6.5 10 6.32091 10 6.1V4.9C10 4.67909 9.82091 4.5 9.6 4.5Z" fill="white"/>
<path d="M15.1 4.5H13.4C13.1791 4.5 13 4.67909 13 4.9V6.6C13 6.82091 13.1791 7 13.4 7H15.1C15.3209 7 15.5 6.82091 15.5 6.6V4.9C15.5 4.67909 15.3209 4.5 15.1 4.5Z" fill="#1A255A"/>
<path d="M14.6 4.5H13.4C13.1791 4.5 13 4.67909 13 4.9V6.1C13 6.32091 13.1791 6.5 13.4 6.5H14.6C14.8209 6.5 15 6.32091 15 6.1V4.9C15 4.67909 14.8209 4.5 14.6 4.5Z" fill="white"/>
<path d="M20.1 4.5H18.4C18.1791 4.5 18 4.67909 18 4.9V6.6C18 6.82091 18.1791 7 18.4 7H20.1C20.3209 7 20.5 6.82091 20.5 6.6V4.9C20.5 4.67909 20.3209 4.5 20.1 4.5Z" fill="#1A255A"/>
<path d="M19.6 4.5H18.4C18.1791 4.5 18 4.67909 18 4.9V6.1C18 6.32091 18.1791 6.5 18.4 6.5H19.6C19.8209 6.5 20 6.32091 20 6.1V4.9C20 4.67909 19.8209 4.5 19.6 4.5Z" fill="white"/>
<path fill-rule="evenodd" clip-rule="evenodd" d="M16.1053 14.4472L9.72337 17.6382C9.47638 17.7617 9.17604 17.6616 9.05255 17.4146C9.01783 17.3452 8.99976 17.2686 8.99976 17.191V10.809C8.99976 10.5329 9.22362 10.309 9.49976 10.309C9.57738 10.309 9.65394 10.3271 9.72337 10.3618L16.1053 13.5528C16.3523 13.6763 16.4524 13.9766 16.3289 14.2236C16.2806 14.3204 16.2021 14.3988 16.1053 14.4472Z" fill="#4556AD"/>
</svg>
