<?xml version="1.0" encoding="UTF-8"?>
<svg width="24px" height="24px" viewBox="0 0 24 24" version="1.1" xmlns="http://www.w3.org/2000/svg" xmlns:xlink="http://www.w3.org/1999/xlink">
    <title>3.0 Icons / Social Sharing / Facebook Copy</title>
    <g id="3.0-Icons-/-Social-Sharing-/-Facebook-Copy" stroke="none" stroke-width="1" fill="none" fill-rule="evenodd" fill-opacity="0.25">
        <g id="Icons-/-Actions-/-Facebook-Copy" transform="translate(2.000000, 2.000000)" fill="#FFFFFF">
            <path d="M11.4913914,12.2460697 L14.4385481,12.2460697 L14.8807085,9.22332876 L11.4913914,9.22332876 L11.4913914,7.29374948 C11.4913914,6.41886953 11.7654762,5.82264937 13.1882844,5.82264937 L15,5.82199189 L15,3.11834548 C14.6866893,3.08240352 13.6112042,3 12.3594508,3 C9.74559019,3 7.95609429,4.40842084 7.95609429,6.99437923 L7.95609429,9.22332876 L5,9.22332876 L5,12.2460697 L7.95609429,12.2460697 L7.95609429,20 L2,20 C0.8954305,20 1.3527075e-16,19.1045695 0,18 L0,2 C-1.3527075e-16,0.8954305 0.8954305,2.02906125e-16 2,0 L18,0 C19.1045695,-2.02906125e-16 20,0.8954305 20,2 L20,18 C20,19.1045695 19.1045695,20 18,20 L11.4913914,20 L11.4913914,12.2460697 Z" id="Combined-Shape"></path>
        </g>
    </g>
</svg>