<?xml version="1.0" encoding="UTF-8"?>
<svg width="24px" height="24px" viewBox="0 0 24 24" version="1.1" xmlns="http://www.w3.org/2000/svg" xmlns:xlink="http://www.w3.org/1999/xlink">
    <title>3.0 Icons / Flat icons/ Solution Action Banner/ Website</title>
    <defs>
        <circle id="path-1" cx="10.5" cy="10.5" r="10.5"></circle>
    </defs>
    <g id="3.0-Icons-/-Flat-icons/-Solution-Action-Banner/-Website" stroke="none" stroke-width="1" fill="none" fill-rule="evenodd">
        <g id="noun_Earth_3261899" transform="translate(1.000000, 0.000000)">
            <ellipse id="Oval" fill="#29B094" cx="10.5" cy="10.5" rx="10.5" ry="10"></ellipse>
            <path d="M19.9091935,5.875373 C18.1126141,2.196294 14.5925186,0 10.5007779,0 C0.725265408,0 -3.71709132,12.264018 3.73566996,18.5286553 C5.71218153,20.193021 8.1074709,21 10.5007779,21 C11.4592598,21 12.4005302,20.8710404 13.2945044,20.6174725 C15.4564292,20.0286517 17.4077324,18.7220463 18.7917121,16.9426942 C21.2673853,13.7664756 21.6928873,9.52435933 19.9091935,5.875373 Z M2.05084839,10.2120302 C1.3191118,10.2577383 1.1033788,10.2272635 0.873189405,11.0329614 C0.701182608,7.50997369 2.36424398,4.42087889 5.00359954,2.58739782 C5.11535314,2.72063293 5.25289474,2.83238528 5.40331354,2.91834991 C5.63112153,3.04298352 5.88899313,3.12034245 6.07811073,3.30085223 C6.35749472,3.55874614 6.42194792,3.97133692 6.41764712,4.34956368 C6.40046492,5.40688084 5.94917493,6.48567656 6.25004192,7.4999988 C6.34888892,7.83095089 6.51651932,8.21775816 6.31019432,8.49283408 C6.16837712,8.67764461 5.89759893,8.72491508 5.66549013,8.69055107 C4.64938415,8.55881534 5.14526554,8.22739705 2.89755157,9.21489419 C2.85458138,9.23637695 2.80731038,9.25358836 2.77291658,9.29225313 C2.54131598,9.50844151 3.01014517,10.1359145 2.05084839,10.2120302 Z M7.4964549,15.4254948 C7.31214631,15.5966261 7.25731111,15.6434052 7.23427831,15.9885321 C7.17281971,17.5849258 6.31313012,16.4037983 6.06950073,17.8108749 C5.90401653,18.7212273 5.42535094,18.0448081 5.31734374,18.6275012 C4.80172235,18.3052346 4.25686895,17.8593424 4.07523156,17.6776356 L4.07523156,17.5873954 C4.07093076,17.1532967 3.89899536,16.7277994 3.93338916,16.2936965 C3.95057136,16.0186206 4.04084196,15.713452 3.89039376,15.4856718 C3.73997496,15.2707728 3.42622657,15.2148966 3.28437997,14.9999976 C3.20702017,14.892546 3.18553297,14.7550101 3.12105037,14.6475585 C3.04799137,14.5358062 2.93193697,14.4670488 2.85027218,14.3681777 C2.31259658,13.7056855 3.30594277,12.8607432 3.49928137,12.3653251 C3.58094616,12.1461212 3.61103496,11.8925574 3.80014836,11.7464116 C4.30622735,11.3668157 4.85481034,12.1283932 5.00789614,12.0773637 C5.30223214,12.0773637 5.22830374,11.8762616 5.88468813,12.7951231 C6.07527573,13.0452387 6.04966833,13.0055449 6.31879592,13.1131687 C6.76604972,13.3148463 6.56855312,13.7353246 6.69702692,13.8352288 C7.28597611,14.2226871 7.4985843,14.1527495 7.7070555,14.3681777 C8.1006753,14.7864216 7.5396309,15.4686704 7.4964549,15.4254948 Z M9.85607367,2.97422609 C9.74004447,2.98280239 9.61538427,2.90114271 9.51653727,2.96131963 C9.20869828,3.23492557 9.29148868,4.16318657 8.57526689,3.76934438 C8.41113089,3.67697482 8.34691709,3.61673489 8.33457749,3.38251612 C8.27014109,2.36420392 8.57868989,2.46648958 8.52369089,2.26504723 C8.48546669,2.15799043 8.28203969,2.25813831 8.32597169,1.99427206 C8.33883629,1.87216683 8.45794829,1.58321427 8.0208291,1.55586837 C7.8855933,1.55250421 7.4966481,1.61995126 7.42769671,1.36675709 C8.63794769,0.950760151 9.93157287,0.800103639 11.0810288,0.87680738 C10.8368871,1.05113483 11.2091918,1.31030132 11.149787,1.54299132 C11.1111176,1.69340843 10.9133985,1.74928461 10.8317379,1.88682467 C10.7672553,1.99857702 10.7930685,2.14041783 10.7973483,2.26505143 C10.7973483,2.69202705 10.5178719,2.58829661 10.3804521,2.60888478 C10.1655465,2.65615525 10.0752801,2.96131963 9.85607367,2.97422609 Z M16.0763312,9.08162696 C15.7235562,9.16012422 15.6159335,9.4168057 15.4156165,9.47115949 C15.2960422,9.49532066 15.1734588,9.44397374 15.0538844,9.44397374 C14.8894602,9.44699536 14.7429503,9.55269607 14.4021473,9.72179773 C13.9507097,9.93618535 14.1719412,10.0056473 13.852047,10.5310701 C13.5560764,10.7122435 13.3109242,10.8632273 13.0119621,11.0444213 L13.003002,11.0444213 C12.360225,11.0927289 12.5336268,11.3614851 12.3213582,11.5487047 C12.2286815,11.6211734 12.1031212,11.6181518 11.9954984,11.6543847 C11.654678,11.7510176 11.5171485,12.1224322 10.8265447,12.1858508 C10.659126,12.1949187 10.6471744,12.1888725 10.1239892,11.7087355 C10.0731533,11.6664741 10.0582073,11.6392884 10.1120201,11.5668196 C10.6172677,10.9719319 10.4169682,11.0081677 10.4169682,10.6578927 C10.4438834,10.383111 10.7667487,10.2109848 10.874389,9.96336815 C10.9790173,9.74896577 10.9401534,9.48323122 11.0627193,9.28091828 C11.1583905,9.12993456 11.3317922,9.04236948 11.4812733,8.93364715 C12.4469186,8.24214717 11.8460174,7.19130433 12.4558961,7.01615648 C12.8296002,6.59641659 12.2914719,6.52394782 12.2376591,6.32766042 C12.22569,6.29142456 12.2316731,6.24311992 12.2197215,6.20688406 C12.1210588,5.93510627 11.5380777,5.87170532 11.3557159,5.67239335 C11.2989115,5.62106413 11.227164,5.61199632 11.1524249,5.60596783 C11.0477762,5.59992163 10.9222187,4.58229007 11.0089094,4.171618 C11.1135581,3.79113558 11.2002488,3.87870066 11.379619,3.66129141 C11.6666296,3.32611267 11.4274634,2.86409072 12.6143372,2.69801069 C13.2750519,2.6164741 13.1614431,2.30545654 13.3826746,2.2299632 C13.5022665,2.19673126 13.6218408,2.26619906 13.8072146,2.1876841 C14.3274083,2.49870166 14.8057407,2.88825189 15.2272891,3.34422765 C14.9881288,3.71746289 15.2869127,3.78623725 15.3767702,3.93909474 C15.446014,4.07508543 15.3914708,4.38604398 15.621902,4.36486312 C15.726352,4.3509855 15.7222766,4.11603668 15.9358277,4.25313687 C16.0972603,4.50377511 16.2437498,4.76648509 16.3782878,5.04429137 C16.8566201,6.02871164 17.0868292,7.07957218 17.0778692,8.12134721 C16.2018915,7.98547749 16.2078775,7.98245292 16.1331355,8.07303962 C16.0882828,8.13645827 16.0942688,8.22402334 16.1480816,8.29044887 C16.3069259,8.51509938 16.7153133,8.39417844 16.772921,8.61960206 C16.5068367,9.07558077 16.3214805,9.03632329 16.0763312,9.08162696 Z" id="Shape" fill="#A7EADB" fill-rule="nonzero"></path>
            <g id="Path">
                <mask id="mask-2" fill="white">
                    <use xlink:href="#path-1"></use>
                </mask>
                <g id="Mask"></g>
                <path d="M14.4163462,24 C14.4113465,24 14.405347,24 14.3993474,24 C14.0833711,23.9930008 13.805392,23.7880242 13.7053995,23.4870586 L10.538637,13.9881441 C10.4486438,13.7181749 10.5186385,13.4212089 10.7196235,13.2202318 C10.9206084,13.0182549 11.2175861,12.9482629 11.4875658,13.0392525 L20.9868533,16.2058907 C21.2868308,16.3058792 21.4918154,16.5838475 21.4998148,16.8998114 C21.5068143,17.2157753 21.3148287,17.5037423 21.0188509,17.6167294 L16.7561706,19.256542 L15.1162937,23.519055 C15.0043021,23.8100217 14.725323,24 14.4163462,24 L14.4163462,24 Z" fill="#168A72" fill-rule="nonzero" mask="url(#mask-2)"></path>
            </g>
            <path d="M15.2723776,24 C15.2669235,24 15.2603785,24 15.2538336,24 C14.9091321,23.9923645 14.6058822,23.7687537 14.4967994,23.4404276 L11.0421495,13.0779754 C10.943975,12.7834636 11.0203329,12.4595006 11.2395892,12.2402529 C11.4588455,12.0199144 11.7828212,11.9435595 12.0773446,12.0428209 L22.4402036,15.4973353 C22.7674518,15.6064137 22.9910714,15.9096518 22.999798,16.2543397 C23.0074338,16.5990275 22.7979949,16.9131735 22.4751101,17.0364321 L17.8249134,18.8253186 L16.0359567,23.4753327 C15.9137841,23.792751 15.6094433,24 15.2723776,24 L15.2723776,24 Z" id="Path" fill="#29B094" fill-rule="nonzero"></path>
        </g>
    </g>
</svg>