<svg width="23" height="24" viewBox="0 0 23 24" fill="none" xmlns="http://www.w3.org/2000/svg">
<path d="M10.5 20.5C16.299 20.5 21 16.0228 21 10.5C21 4.97715 16.299 0.5 10.5 0.5C4.70101 0.5 0 4.97715 0 10.5C0 16.0228 4.70101 20.5 10.5 20.5Z" fill="#4556AD"/>
<path d="M19.9092 5.87537C18.1126 2.19629 14.5925 0 10.5008 0C0.725266 0 -3.71709 12.264 3.73567 18.5287C5.71218 20.193 8.10747 21 10.5008 21C11.4593 21 12.4005 20.871 13.2945 20.6175C15.4564 20.0287 17.4077 18.722 18.7917 16.9427C21.2674 13.7665 21.6929 9.52436 19.9092 5.87537ZM2.05085 10.212C1.31911 10.2577 1.10338 10.2273 0.873189 11.033C0.701183 7.50997 2.36424 4.42088 5.0036 2.5874C5.11535 2.72063 5.25289 2.83239 5.40331 2.91835C5.63112 3.04298 5.88899 3.12034 6.07811 3.30085C6.35749 3.55875 6.42195 3.97134 6.41765 4.34956C6.40046 5.40688 5.94917 6.48568 6.25004 7.5C6.34889 7.83095 6.51652 8.21776 6.31019 8.49283C6.16838 8.67764 5.8976 8.72491 5.66549 8.69055C4.64938 8.55882 5.14527 8.2274 2.89755 9.21489C2.85458 9.23638 2.80731 9.25359 2.77292 9.29225C2.54132 9.50844 3.01015 10.1359 2.05085 10.212ZM7.49645 15.4255C7.31215 15.5966 7.25731 15.6434 7.23428 15.9885C7.17282 17.5849 6.31313 16.4038 6.0695 17.8109C5.90402 18.7212 5.42535 18.0448 5.31734 18.6275C4.80172 18.3052 4.25687 17.8593 4.07523 17.6776V17.5874C4.07093 17.1533 3.899 16.7278 3.93339 16.2937C3.95057 16.0186 4.04084 15.7135 3.89039 15.4857C3.73997 15.2708 3.42623 15.2149 3.28438 15C3.20702 14.8925 3.18553 14.755 3.12105 14.6476C3.04799 14.5358 2.93194 14.467 2.85027 14.3682C2.3126 13.7057 3.30594 12.8607 3.49928 12.3653C3.58095 12.1461 3.61103 11.8926 3.80015 11.7464C4.30623 11.3668 4.85481 12.1284 5.0079 12.0774C5.30223 12.0774 5.2283 11.8763 5.88469 12.7951C6.07528 13.0452 6.04967 13.0055 6.3188 13.1132C6.76605 13.3148 6.56855 13.7353 6.69703 13.8352C7.28598 14.2227 7.49858 14.1527 7.70706 14.3682C8.10068 14.7864 7.53963 15.4687 7.49645 15.4255ZM9.85607 2.97423C9.74004 2.9828 9.61539 2.90114 9.51654 2.96132C9.2087 3.23493 9.29149 4.16319 8.57527 3.76934C8.41113 3.67697 8.34692 3.61673 8.33458 3.38252C8.27014 2.3642 8.57869 2.46649 8.52369 2.26505C8.48547 2.15799 8.28204 2.25814 8.32597 1.99427C8.33884 1.87217 8.45795 1.58321 8.02083 1.55587C7.88559 1.5525 7.49665 1.61995 7.4277 1.36676C8.63795 0.95076 9.93157 0.800104 11.081 0.876807C10.8369 1.05113 11.2092 1.3103 11.1498 1.54299C11.1111 1.69341 10.9134 1.74928 10.8317 1.88682C10.7673 1.99858 10.7931 2.14042 10.7973 2.26505C10.7973 2.69203 10.5179 2.5883 10.3805 2.60888C10.1655 2.65616 10.0753 2.96132 9.85607 2.97423ZM16.0763 9.08163C15.7236 9.16012 15.6159 9.41681 15.4156 9.47116C15.296 9.49532 15.1735 9.44397 15.0539 9.44397C14.8895 9.44699 14.743 9.5527 14.4021 9.7218C13.9507 9.93619 14.1719 10.0056 13.852 10.5311C13.5561 10.7122 13.3109 10.8632 13.012 11.0444H13.003C12.3602 11.0927 12.5336 11.3615 12.3214 11.5487C12.2287 11.6212 12.1031 11.6182 11.9955 11.6544C11.6547 11.751 11.5171 12.1224 10.8265 12.1859C10.6591 12.1949 10.6472 12.1889 10.124 11.7087C10.0732 11.6665 10.0582 11.6393 10.112 11.5668C10.6173 10.9719 10.417 11.0082 10.417 10.6579C10.4439 10.3831 10.7667 10.211 10.8744 9.96337C10.979 9.74897 10.9402 9.48323 11.0627 9.28092C11.1584 9.12993 11.3318 9.04237 11.4813 8.93365C12.4469 8.24215 11.846 7.1913 12.4559 7.01616C12.8296 6.59642 12.2915 6.52395 12.2377 6.32766C12.2257 6.29142 12.2317 6.24312 12.2197 6.20688C12.1211 5.93511 11.5381 5.87171 11.3557 5.67239C11.2989 5.62106 11.2272 5.612 11.1524 5.60597C11.0478 5.59992 10.9222 4.58229 11.0089 4.17162C11.1136 3.79114 11.2002 3.8787 11.3796 3.66129C11.6666 3.32611 11.4275 2.86409 12.6143 2.69801C13.2751 2.61647 13.1614 2.30546 13.3827 2.22996C13.5023 2.19673 13.6218 2.2662 13.8072 2.18768C14.3274 2.4987 14.8057 2.88825 15.2273 3.34423C14.9881 3.71746 15.2869 3.78624 15.3768 3.93909C15.446 4.07509 15.3915 4.38604 15.6219 4.36486C15.7264 4.35099 15.7223 4.11604 15.9358 4.25314C16.0973 4.50377 16.2437 4.76649 16.3783 5.04429C16.8566 6.02871 17.0868 7.07957 17.0779 8.12135C16.2019 7.98548 16.2079 7.98245 16.1331 8.07304C16.0883 8.13646 16.0943 8.22402 16.1481 8.29045C16.3069 8.5151 16.7153 8.39418 16.7729 8.6196C16.5068 9.07558 16.3215 9.03632 16.0763 9.08163Z" fill="#E1E6FF"/>
<mask id="mask0_1331_5971" style="mask-type:alpha" maskUnits="userSpaceOnUse" x="0" y="0" width="21" height="21">
<path d="M10.5 21C16.299 21 21 16.299 21 10.5C21 4.70101 16.299 0 10.5 0C4.70101 0 0 4.70101 0 10.5C0 16.299 4.70101 21 10.5 21Z" fill="white"/>
</mask>
<g mask="url(#mask0_1331_5971)">
<path d="M14.4163 24C14.4113 24 14.4053 24 14.3993 24C14.0834 23.993 13.8054 23.788 13.7054 23.4871L10.5386 13.9881C10.4486 13.7182 10.5186 13.4212 10.7196 13.2202C10.9206 13.0183 11.2176 12.9483 11.4876 13.0393L20.9869 16.2059C21.2868 16.3059 21.4918 16.5838 21.4998 16.8998C21.5068 17.2158 21.3148 17.5037 21.0189 17.6167L16.7562 19.2565L15.1163 23.5191C15.0043 23.81 14.7253 24 14.4163 24Z" fill="#1A255A"/>
</g>
<path d="M15.2724 24C15.2669 24 15.2604 24 15.2538 24C14.9091 23.9924 14.6059 23.7688 14.4968 23.4404L11.0421 13.078C10.944 12.7835 11.0203 12.4595 11.2396 12.2403C11.4588 12.0199 11.7828 11.9436 12.0773 12.0428L22.4402 15.4973C22.7675 15.6064 22.9911 15.9097 22.9998 16.2543C23.0074 16.599 22.798 16.9132 22.4751 17.0364L17.8249 18.8253L16.036 23.4753C15.9138 23.7928 15.6094 24 15.2724 24Z" fill="#4556AD"/>
</svg>
