<?xml version="1.0" encoding="UTF-8"?>
<svg width="24px" height="24px" viewBox="0 0 24 24" version="1.1" xmlns="http://www.w3.org/2000/svg" xmlns:xlink="http://www.w3.org/1999/xlink">
    <title>3.0 Icons / Social Sharing / LinkedIn Copy</title>
    <g id="3.0-Icons-/-Social-Sharing-/-LinkedIn-Copy" stroke="none" stroke-width="1" fill="none" fill-rule="evenodd">
        <g id="Icons-/-Actions-/-Lindkin-Copy-2">
            <rect id="bounds" x="0" y="0" width="24" height="24"></rect>
            <path d="M20,2 C21.1045695,2 22,2.8954305 22,4 L22,20 C22,21.1045695 21.1045695,22 20,22 L4,22 C2.8954305,22 2,21.1045695 2,20 L2,4 C2,2.8954305 2.8954305,2 4,2 L20,2 Z M12.5728333,10.1745652 L12.5728333,8.95652174 L9.67483333,8.95652174 L9.67483333,18 L12.5734167,18 L12.5734167,13.2527391 C12.5734167,10.6131739 16.0903333,10.3972609 16.0903333,13.2527391 L16.0903333,18 L19,18 L19,12.2737826 C19,7.81986957 13.7955,7.98208696 12.5728333,10.1745652 Z M7.91666667,8.95652174 L5,8.95652174 L5,18 L7.91666667,18 L7.91666667,8.95652174 Z M6.45833333,5 C5.65916667,5 5.01166667,5.63304348 5.01166667,6.41304348 C5.01166667,7.1936087 5.65916667,7.82608696 6.45833333,7.82608696 C7.2575,7.82608696 7.905,7.1936087 7.905,6.41304348 C7.905,5.63304348 7.2575,5 6.45833333,5 Z" id="Combined-Shape" fill-opacity="0.25" fill="#FFFFFF"></path>
        </g>
    </g>
</svg>