<svg width="16" height="14" viewBox="0 0 16 14" fill="none" xmlns="http://www.w3.org/2000/svg">
<path d="M15.3083 5.29454C15.2467 5.10468 15.0828 4.96613 14.8856 4.93744L10.4526 4.2921L8.47036 0.268615C8.29392 -0.0895382 7.7072 -0.0895382 7.53063 0.268615L5.54842 4.2921L1.11543 4.93735C0.918185 4.96604 0.75427 5.1046 0.692639 5.29445C0.63102 5.48454 0.682467 5.6929 0.825114 5.8325L4.03267 8.96428L3.27535 13.3865C3.24179 13.5833 3.3227 13.7824 3.48382 13.8998C3.64552 14.0171 3.85926 14.0327 4.03547 13.9397L8.00032 11.8516L11.9652 13.9397C12.1412 14.0322 12.355 14.0174 12.5168 13.8998C12.6779 13.7824 12.7587 13.5833 12.7253 13.3865L11.968 8.96428L15.1755 5.8325C15.3183 5.69289 15.3696 5.48464 15.308 5.29457L15.3083 5.29454Z" fill="#F18E3B"/>
</svg>
