<svg width="22" height="22" viewBox="0 0 22 22" fill="none" xmlns="http://www.w3.org/2000/svg">
<path fill-rule="evenodd" clip-rule="evenodd" d="M21.9916 8.80012C21.9917 8.79935 21.9918 8.79857 21.9919 8.79779C22.0087 8.6813 21.9996 8.56046 21.9622 8.4441C21.962 8.44339 21.9618 8.44268 21.9615 8.44197C21.9613 8.44127 21.9615 8.4403 21.9613 8.4396C21.8683 8.15595 21.6229 7.94908 21.3278 7.90615L14.6784 6.93815L11.705 0.902922C11.4404 0.365693 10.5603 0.365693 10.2955 0.902922L7.32214 6.93815L0.672662 7.90602C0.37679 7.94906 0.130916 8.1569 0.0384701 8.44167C-0.053958 8.72681 0.023212 9.03935 0.237182 9.24876L5.04851 13.9464L3.91253 20.5798C3.8622 20.875 3.98356 21.1736 4.22524 21.3497C4.4678 21.5257 4.78841 21.5491 5.05272 21.4096L11 18.2774L16.9472 21.4096C17.2114 21.5484 17.532 21.526 17.7747 21.3497C18.0164 21.1736 18.1376 20.875 18.0874 20.5798L16.9515 13.9464L21.7628 9.24876C21.8884 9.12589 21.9669 8.96758 21.9916 8.80012ZM17.0288 20.3223L15.8772 13.5977L20.7566 8.83354L14.0138 7.85195L11.0003 1.73509L7.98671 7.85196L1.2433 8.8335L6.12279 13.5977L4.97119 20.3223L11 17.1472L17.0288 20.3223ZM0.817053 8.89554C0.817196 8.89552 0.81691 8.89556 0.817053 8.89554V8.89554Z" fill="#F18E3B"/>
</svg>
