<?xml version="1.0" encoding="UTF-8"?>
<svg width="24px" height="24px" viewBox="0 0 24 24" version="1.1" xmlns="http://www.w3.org/2000/svg" xmlns:xlink="http://www.w3.org/1999/xlink">
    <title>3.0 Icons / Social Sharing / Share Copy</title>
    <g id="3.0-Icons-/-Social-Sharing-/-Share-Copy" stroke="none" stroke-width="1" fill="none" fill-rule="evenodd">
        <g id="noun_Share_608833" transform="translate(2.000000, 2.000000)" fill="#FFFFFF">
            <path d="M3.52941176,13.5293356 C4.48070588,13.5293356 5.34258824,13.1512135 5.97717647,12.5392063 L12.9705882,16.0359534 C12.9531765,16.1785433 12.9411765,16.3230156 12.9411765,16.4705467 C12.9411765,18.4197461 14.5214118,20 16.4705882,20 C18.4197647,20 20,18.4197461 20,16.4705467 C20,14.5213473 18.4197647,12.9410934 16.4705882,12.9410934 C15.5192941,12.9410934 14.6574118,13.3194508 14.0228235,13.931458 L7.02941176,10.4344757 C7.04682353,10.2918858 7.05882353,10.1474135 7.05882353,9.99988235 C7.05882353,9.8523512 7.04682353,9.70787892 7.02941176,9.565289 L14.0228235,6.06854198 C14.6576471,6.68054918 15.5192941,7.05890658 16.4705882,7.05890658 C18.4197647,7.05890658 20,5.47865269 20,3.52945329 C20,1.58025389 18.4197647,0 16.4705882,0 C14.5214118,0 12.9411765,1.58025389 12.9411765,3.52945329 C12.9411765,3.67698444 12.9531765,3.82145672 12.9705882,3.96428193 L5.97717647,7.46055836 C5.34258824,6.84855116 4.48070588,6.47042906 3.52941176,6.47042906 C1.58023529,6.47042906 0,8.05068295 0,9.99988235 C0,11.9490818 1.58023529,13.5293356 3.52941176,13.5293356 Z" id="Path"></path>
        </g>
    </g>
</svg>