<?xml version="1.0" encoding="UTF-8"?>
<svg width="48px" height="48px" viewBox="0 0 48 48" version="1.1" xmlns="http://www.w3.org/2000/svg" xmlns:xlink="http://www.w3.org/1999/xlink">
    <title>3.0 Icons / Solution&amp;Asset Details / Solid / And_Symbol / Large</title>
    <g id="Screens" stroke="none" stroke-width="1" fill="none" fill-rule="evenodd">
        <g id="[E]/[I]-Works-Better-Banner-(SDP)" transform="translate(-492.000000, -4098.000000)">
            <g id="Group-19" transform="translate(80.000000, 3726.000000)">
                <g id="-Ñonnection" transform="translate(40.000000, 220.000000)">
                    <g id="Group" transform="translate(372.000000, 152.000000)">
                        <g id="&amp;-group" fill="#313B71">
                            <rect id="Rectangle" x="0" y="0" width="48" height="48" rx="23.5"></rect>
                        </g>
                        <path d="M22.7265625,32.5488281 C24.0026042,32.5488281 25.1669922,32.3597005 26.2197266,31.9814453 C27.2724609,31.6031901 28.2636719,31.0403646 29.1933594,30.2929688 L29.1933594,30.2929688 L31.2304688,32.2753906 L35.3730469,32.2753906 L31.2578125,28.296875 C32.6614583,26.6653646 33.6822917,24.5553385 34.3203125,21.9667969 L34.3203125,21.9667969 L31.0117188,21.9667969 C30.5195312,23.8535156 29.9042969,25.2845052 29.1660156,26.2597656 L29.1660156,26.2597656 L24.4355469,21.6933594 C25.875651,20.8457031 26.9033203,19.9980469 27.5185547,19.1503906 C28.1337891,18.3027344 28.4414062,17.359375 28.4414062,16.3203125 C28.4414062,14.9986979 27.9811198,13.9482422 27.0605469,13.1689453 C26.139974,12.3896484 24.8730469,12 23.2597656,12 C21.5917969,12 20.2633464,12.4010417 19.2744141,13.203125 C18.2854818,14.0052083 17.7910156,15.0989583 17.7910156,16.484375 C17.7910156,17.2317708 17.9482422,17.9541016 18.2626953,18.6513672 C18.5771484,19.3486328 19.1673177,20.203125 20.0332031,21.2148438 C18.5110677,22.0898438 17.4583333,22.9716797 16.875,23.8603516 C16.2916667,24.7490234 16,25.7903646 16,26.984375 C16,28.7070312 16.5970052,30.0651042 17.7910156,31.0585938 C18.985026,32.0520833 20.6302083,32.5488281 22.7265625,32.5488281 Z M22.5898438,19.8476562 C22.0429688,19.2734375 21.616862,18.7311198 21.3115234,18.2207031 C21.0061849,17.7102865 20.8535156,17.1679688 20.8535156,16.59375 C20.8535156,15.9739583 21.0654297,15.4794922 21.4892578,15.1103516 C21.9130859,14.7412109 22.485026,14.5566406 23.2050781,14.5566406 C23.8613281,14.5566406 24.3876953,14.734375 24.7841797,15.0898438 C25.1806641,15.4453125 25.3789062,15.9192708 25.3789062,16.5117188 C25.3789062,17.140625 25.1715495,17.7080078 24.7568359,18.2138672 C24.3421224,18.7197266 23.6197917,19.2643229 22.5898438,19.8476562 Z M22.890625,29.7871094 C21.8242188,29.7871094 20.9742839,29.5068359 20.3408203,28.9462891 C19.7073568,28.3857422 19.390625,27.6588542 19.390625,26.765625 C19.390625,26.0729167 19.5729167,25.4554036 19.9375,24.9130859 C20.3020833,24.3707682 20.9674479,23.7897135 21.9335938,23.1699219 L21.9335938,23.1699219 L27.1699219,28.3242188 C25.985026,29.2994792 24.5585938,29.7871094 22.890625,29.7871094 Z" id="&amp;" fill="#FFFFFF"></path>
                    </g>
                </g>
            </g>
        </g>
    </g>
</svg>