<?xml version="1.0" encoding="UTF-8"?>
<svg width="24px" height="24px" viewBox="0 0 24 24" version="1.1" xmlns="http://www.w3.org/2000/svg" xmlns:xlink="http://www.w3.org/1999/xlink">
    <title>3.0 Icons / Social Sharing / Twitter Copy</title>
    <g id="3.0-Icons-/-Social-Sharing-/-Twitter-Copy" stroke="none" stroke-width="1" fill="none" fill-rule="evenodd">
        <g id="Icons-/-Actions-/-Lindkin-Copy-3">
            <rect id="bounds" x="0" y="0" width="24" height="24"></rect>
            <g id="icons8-twitter" transform="translate(1.000000, 3.000000)" fill="#FFFFFF" fill-opacity="0.25">
                <path d="M23,2.24858521 C22.1521317,2.63124585 21.243317,2.88817487 20.2878966,3.00479518 C21.263035,2.41076022 22.0123138,1.47050893 22.3636504,0.35168302 C21.4530433,0.900162822 20.4402619,1.29922308 19.3665341,1.51424155 C18.5061179,0.581279032 17.2800248,0 15.9230769,0 C13.3167332,0 11.2033358,2.14654244 11.2033358,4.79601045 C11.2033358,5.17138185 11.2463566,5.53764241 11.3270205,5.8893259 C7.40495676,5.6888845 3.92923379,3.77922684 1.60073285,0.876474437 C1.19382759,1.58712925 0.962590852,2.41076022 0.962590852,3.2890572 C0.962590852,4.95271876 1.79432649,6.42140608 3.06164748,7.28330298 C2.28727292,7.25779205 1.55950446,7.04095151 0.923154881,6.68197925 C0.923154881,6.70202348 0.923154881,6.72206772 0.923154881,6.74211195 C0.923154881,9.06722948 2.55077549,11.0042197 4.70719365,11.4470125 C4.31283623,11.5563441 3.89517599,11.6146542 3.46496791,11.6146542 C3.16023695,11.6146542 2.864469,11.5854992 2.57587119,11.527189 C3.17816251,13.43138 4.92050527,14.8217129 6.98371123,14.8599788 C5.37043089,16.1464469 3.33590548,16.9117677 1.12391866,16.9117677 C0.742109092,16.9117677 0.367469662,16.8899014 0,16.8443467 C2.08650914,18.2073466 4.56737579,19 7.23287353,19 C15.912322,19 20.6589512,11.6911866 20.6589512,5.35360109 C20.6589512,5.14587139 20.6535735,4.93631915 20.6464034,4.73223359 C21.5677655,4.05620009 22.3672357,3.21070281 23,2.24858521 Z" id="Path"></path>
            </g>
        </g>
    </g>
</svg>