<svg width="16" height="16" viewBox="0 0 16 16" fill="none" xmlns="http://www.w3.org/2000/svg">
<g clip-path="url(#clip0_3649_171183)">
<path d="M7.47417 0.6604C7.79644 0.446533 8.21831 0.446533 8.54058 0.6604L9.06206 1.00317C9.23784 1.11743 9.44292 1.1731 9.65093 1.16138L10.275 1.12329C10.6617 1.09985 11.025 1.31079 11.1978 1.65649L11.4791 2.21606C11.5728 2.40356 11.7251 2.55298 11.9097 2.64673L12.4751 2.93091C12.8209 3.10376 13.0318 3.46704 13.0084 3.85376L12.9703 4.47778C12.9585 4.68579 13.0142 4.8938 13.1285 5.06665L13.4742 5.58813C13.688 5.9104 13.688 6.33228 13.4742 6.65454L13.1285 7.17896C13.0142 7.35474 12.9585 7.55981 12.9703 7.76782L13.0084 8.39185C13.0318 8.77856 12.8209 9.14185 12.4751 9.3147L11.9156 9.59595C11.7281 9.6897 11.5787 9.84204 11.4849 10.0266L11.2007 10.592C11.0279 10.9377 10.6646 11.1487 10.2779 11.1252L9.65386 11.0872C9.44585 11.0754 9.23784 11.1311 9.06499 11.2454L8.54351 11.5911C8.22124 11.8049 7.79937 11.8049 7.4771 11.5911L6.95269 11.2454C6.77691 11.1311 6.57183 11.0754 6.36382 11.0872L5.7398 11.1252C5.35308 11.1487 4.9898 10.9377 4.81694 10.592L4.5357 10.0325C4.44195 9.84497 4.2896 9.69556 4.10503 9.60181L3.5396 9.31763C3.1939 9.14478 2.98296 8.78149 3.0064 8.39478L3.04448 7.77075C3.0562 7.56274 3.00054 7.35474 2.88628 7.18189L2.54351 6.65747C2.32964 6.33521 2.32964 5.91333 2.54351 5.59106L2.88628 5.06958C3.00054 4.8938 3.0562 4.68872 3.04448 4.48071L3.0064 3.85669C2.98296 3.46997 3.1939 3.10669 3.5396 2.93384L4.09917 2.65259C4.28667 2.55591 4.43902 2.40356 4.53277 2.21606L4.81402 1.65649C4.98687 1.31079 5.35015 1.09985 5.73687 1.12329L6.36089 1.16138C6.5689 1.1731 6.77691 1.11743 6.94976 1.00317L7.47417 0.6604ZM10.3511 6.12427C10.3511 4.82935 9.3023 3.78052 8.00737 3.78052C6.71245 3.78052 5.66362 4.82935 5.66362 6.12427C5.66362 7.41919 6.71245 8.46802 8.00737 8.46802C9.3023 8.46802 10.3511 7.41919 10.3511 6.12427ZM2.42046 13.4426L3.68316 10.4397C3.68902 10.4426 3.69194 10.4456 3.69487 10.4514L3.97612 11.011C4.3189 11.6907 5.03081 12.1038 5.79253 12.0598L6.41655 12.0217C6.42241 12.0217 6.4312 12.0217 6.43706 12.0276L6.95855 12.3733C7.10796 12.47 7.26616 12.5461 7.43023 12.5989L6.32866 15.2151C6.26128 15.3762 6.11187 15.4846 5.93902 15.4993C5.76616 15.5139 5.59917 15.4348 5.50542 15.2883L4.56206 13.844L2.91851 14.0872C2.75152 14.1106 2.58452 14.0432 2.47905 13.9114C2.37359 13.7795 2.35308 13.5979 2.41753 13.4426H2.42046ZM9.68609 15.2122L8.58452 12.5989C8.74859 12.5461 8.90679 12.4729 9.0562 12.3733L9.57769 12.0276C9.58355 12.0247 9.58941 12.0217 9.59819 12.0217L10.2222 12.0598C10.9839 12.1038 11.6959 11.6907 12.0386 11.011L12.3199 10.4514C12.3228 10.4456 12.3257 10.4426 12.3316 10.4397L13.5972 13.4426C13.6617 13.5979 13.6382 13.7766 13.5357 13.9114C13.4332 14.0461 13.2632 14.1135 13.0962 14.0872L11.4527 13.844L10.5093 15.2854C10.4156 15.4319 10.2486 15.511 10.0757 15.4963C9.90288 15.4817 9.75347 15.3704 9.68609 15.2122Z" fill="#313B71"/>
</g>
<defs>
<clipPath id="clip0_3649_171183">
<rect width="16" height="16" fill="white"/>
</clipPath>
</defs>
</svg>
