<svg width="16" height="16" viewBox="0 0 16 16" fill="none" xmlns="http://www.w3.org/2000/svg">
<g clip-path="url(#clip0_3740_192114)">
<g clip-path="url(#clip1_3740_192114)">
<path fill-rule="evenodd" clip-rule="evenodd" d="M11.6429 6.07143C11.6429 2.99441 9.14844 0.5 6.07143 0.5C2.99441 0.5 0.5 2.99441 0.5 6.07143C0.5 9.14844 2.99441 11.6429 6.07143 11.6429C7.45143 11.6429 8.72 11.1371 9.69714 10.3057L9.92857 10.5371V11.2143L14.2143 15.5L15.5 14.2143L11.2143 9.92857H10.5371L10.3057 9.69714C11.1371 8.72 11.6429 7.45143 11.6429 6.07143ZM6.32139 7.20909H5.31154V6.81981C5.31154 6.18168 5.71044 5.8349 6.07532 5.51771C6.38285 5.25037 6.66622 5.00403 6.66622 4.62199C6.66622 4.24082 6.32139 3.94886 5.86983 3.94886C5.40185 3.94886 4.99134 4.28948 4.99134 4.28948L4.41663 3.58391C4.41663 3.58391 4.98313 2.99999 5.96014 2.99999C6.88789 2.99999 7.74996 3.56769 7.74996 4.52467C7.74996 5.26438 7.31344 5.64227 6.92299 5.98028C6.60711 6.25374 6.32139 6.50108 6.32139 6.8928V7.20909ZM6.32139 8.87164H5.31154V7.91466H6.32139V8.87164Z" fill="#313B71"/>
</g>
</g>
<defs>
<clipPath id="clip0_3740_192114">
<rect width="16" height="16" fill="white"/>
</clipPath>
<clipPath id="clip1_3740_192114">
<rect width="16" height="16" fill="white"/>
</clipPath>
</defs>
</svg>
