<svg width="16" height="16" viewBox="0 0 16 16" fill="none" xmlns="http://www.w3.org/2000/svg">
<g clip-path="url(#clip0_3675_171280)">
<g clip-path="url(#clip1_3675_171280)">
<path fill-rule="evenodd" clip-rule="evenodd" d="M14.8939 14.2792C15.2287 14.2792 15.5 14.5525 15.5 14.8896C15.5 15.2267 15.2287 15.5 14.8939 15.5H1.10606C0.771343 15.5 0.5 15.2267 0.5 14.8896C0.5 14.5525 0.771343 14.2792 1.10606 14.2792H14.8939ZM14.8939 11.0748C15.2287 11.0748 15.5 11.348 15.5 11.6851C15.5 12.0222 15.2287 12.2955 14.8939 12.2955H1.10606C0.771343 12.2955 0.5 12.0222 0.5 11.6851C0.5 11.348 0.771343 11.0748 1.10606 11.0748H14.8939ZM6.875 0.5C7.49632 0.5 8 1.00727 8 1.63301V6.99669C8 7.62244 7.49632 8.1297 6.875 8.1297H1.625C1.00368 8.1297 0.5 7.62244 0.5 6.99669V1.63301C0.5 1.00727 1.00368 0.5 1.625 0.5H6.875ZM14.8939 6.90895C15.2287 6.90895 15.5 7.18223 15.5 7.51933C15.5 7.85643 15.2287 8.1297 14.8939 8.1297H10.8561C10.5213 8.1297 10.25 7.85643 10.25 7.51933C10.25 7.18223 10.5213 6.90895 10.8561 6.90895H14.8939ZM14.8939 3.70448C15.2287 3.70448 15.5 3.97775 15.5 4.31485C15.5 4.65195 15.2287 4.92523 14.8939 4.92523H10.8561C10.5213 4.92523 10.25 4.65195 10.25 4.31485C10.25 3.97775 10.5213 3.70448 10.8561 3.70448H14.8939ZM14.8939 0.5C15.2287 0.5 15.5 0.773275 15.5 1.11038C15.5 1.44748 15.2287 1.72075 14.8939 1.72075H10.8561C10.5213 1.72075 10.25 1.44748 10.25 1.11038C10.25 0.773275 10.5213 0.5 10.8561 0.5H14.8939Z" fill="#313B71"/>
</g>
</g>
<defs>
<clipPath id="clip0_3675_171280">
<rect width="16" height="16" fill="white"/>
</clipPath>
<clipPath id="clip1_3675_171280">
<rect width="16" height="16" fill="white"/>
</clipPath>
</defs>
</svg>
