<svg width="16" height="16" viewBox="0 0 16 16" fill="none" xmlns="http://www.w3.org/2000/svg">
<g clip-path="url(#clip0_3649_169084)">
<path fill-rule="evenodd" clip-rule="evenodd" d="M6.44444 8.77778C6.874 8.77778 7.22222 9.126 7.22222 9.55556V14.2222C7.22222 14.6518 6.874 15 6.44444 15H1.77778C1.34822 15 1 14.6518 1 14.2222V9.55556C1 9.126 1.34822 8.77778 1.77778 8.77778H6.44444ZM14.2222 8.77778C14.6518 8.77778 15 9.126 15 9.55556V14.2222C15 14.6518 14.6518 15 14.2222 15H9.55556C9.126 15 8.77778 14.6518 8.77778 14.2222V9.55556C8.77778 9.126 9.126 8.77778 9.55556 8.77778H14.2222ZM6.44444 1C6.874 1 7.22222 1.34822 7.22222 1.77778V6.44444C7.22222 6.874 6.874 7.22222 6.44444 7.22222H1.77778C1.34822 7.22222 1 6.874 1 6.44444V1.77778C1 1.34822 1.34822 1 1.77778 1H6.44444Z" fill="#313B71"/>
<path d="M14.9998 4.1C14.9998 5.81208 13.6119 7.2 11.8998 7.2C10.1877 7.2 8.7998 5.81208 8.7998 4.1C8.7998 2.38792 10.1877 1 11.8998 1C13.6119 1 14.9998 2.38792 14.9998 4.1Z" fill="#313B71"/>
</g>
<defs>
<clipPath id="clip0_3649_169084">
<rect width="16" height="16" fill="white"/>
</clipPath>
</defs>
</svg>
