<svg width="16" height="16" viewBox="0 0 16 16" fill="none" xmlns="http://www.w3.org/2000/svg">
<g clip-path="url(#clip0_3649_169208)">
<path d="M14.6417 5.83506C15.5332 5.83506 15.9999 6.52309 15.9999 7.20281C15.9999 7.55515 15.8741 7.90998 15.6296 8.16987C15.8745 8.42954 16 8.78424 16 9.13656C16 9.74395 15.6273 10.3584 14.9115 10.482C14.9922 10.6667 15.0331 10.8689 15.0331 11.0699C15.0331 11.4211 14.9127 11.7512 14.6941 11.9996C14.5015 12.2181 14.2415 12.361 13.9446 12.4144C14.0257 12.5996 14.0666 12.8018 14.0666 13.0035C14.0666 13.683 13.6 14.3713 12.7084 14.3713H9.44112C7.71702 14.3713 6.58899 13.9829 5.28374 13.533L5.00142 13.436V6.82951C5.00142 6.80021 4.99992 6.77166 4.99756 6.74299C5.11559 6.68416 5.22791 6.62918 5.33205 6.5782C5.34459 6.57206 5.357 6.56598 5.3693 6.55996C6.16024 6.17327 6.63731 5.93979 7.19466 5.38244C7.85658 4.72041 8.31851 2.85578 8.42242 1.80162C8.46194 1.32801 8.87254 0.972574 9.34703 1.00167L9.35884 1.00263C10.0879 1.04899 10.6513 1.50524 10.9461 2.28695C11.3475 3.34962 11.1777 4.80226 10.6003 5.83506H14.6417Z" fill="#313B71"/>
<path d="M1.41717 6.41208H3.92011C4.15392 6.41208 4.33738 6.59572 4.33717 6.82952L4.33706 13.5039C4.33706 13.7376 4.15381 13.9211 3.92011 13.9211H1.41717C1.18346 13.9211 1 13.7376 1 13.5039V6.82925C1 6.59554 1.18347 6.41208 1.41717 6.41208Z" fill="#313B71"/>
</g>
<defs>
<clipPath id="clip0_3649_169208">
<rect width="16" height="16" fill="white"/>
</clipPath>
</defs>
</svg>
