<svg width="16" height="16" viewBox="0 0 16 16" fill="none" xmlns="http://www.w3.org/2000/svg">
<g clip-path="url(#clip0_3647_171310)">
<path d="M10.5 12C10.8 11.0031 11.4219 10.1531 12.0375 9.30625C12.2 9.08437 12.3625 8.8625 12.5188 8.6375C13.1375 7.74687 13.5 6.66875 13.5 5.50313C13.5 2.4625 11.0375 0 8 0C4.9625 0 2.5 2.4625 2.5 5.5C2.5 6.66563 2.8625 7.74687 3.48125 8.63437C3.6375 8.85938 3.8 9.08125 3.9625 9.30313C4.58125 10.15 5.20312 11.0031 5.5 11.9969H10.5V12ZM8 16C9.38125 16 10.5 14.8813 10.5 13.5V13H5.5V13.5C5.5 14.8813 6.61875 16 8 16ZM5.5 5.5C5.5 5.775 5.275 6 5 6C4.725 6 4.5 5.775 4.5 5.5C4.5 3.56562 6.06562 2 8 2C8.275 2 8.5 2.225 8.5 2.5C8.5 2.775 8.275 3 8 3C6.61875 3 5.5 4.11875 5.5 5.5Z" fill="#313B71"/>
</g>
<defs>
<clipPath id="clip0_3647_171310">
<rect width="12" height="16" fill="white" transform="translate(2)"/>
</clipPath>
</defs>
</svg>
