<?xml version="1.0" encoding="UTF-8"?>
<svg width="112px" height="27px" viewBox="0 0 112 27" version="1.1" xmlns="http://www.w3.org/2000/svg" xmlns:xlink="http://www.w3.org/1999/xlink">
    <title>Block/Open Source/Elements/Tape/big Copy</title>
    <g id="Block/Open-Source/Elements/Tape/big-Copy" stroke="none" stroke-width="1" fill="none" fill-rule="evenodd">
        <path d="M6.5120037,4.96925324 L110.52228,5.12663677 C111.074564,5.1274721 111.521602,5.57586401 111.520766,6.12814813 C111.520451,6.33681071 111.45487,6.54014782 111.333211,6.7096747 L104.630678,16.0494158 L111.3311,25.3862142 C111.653103,25.8349147 111.550395,26.4596938 111.101695,26.7816974 C110.931748,26.9036571 110.727835,26.9692532 110.518656,26.9692532 L6.46714531,26.9692532 C2.25370215,26.9692532 0.0991005394,25.3098722 0.00334046762,21.9911102 L0,21.7568764 L0,8.10959039 C0,7.01462606 0.133423582,5.94727206 0.423502724,4.96925324 L6.5120037,4.96925324 Z" id="tape" fill="#8EC622"></path>
        <path d="M3.7250698,0 C4.72161941,2.97964648 5.63564458,4.63606423 6.46714531,4.96925324 C6.48479945,4.97545565 6.50202902,4.98564802 6.51883399,4.99983034 L0.435050932,5.0003442 C0.993700949,3.11665867 2.09037391,1.44987727 3.7250698,0 Z" id="back-triangle" fill="#6E991A"></path>
        <g id="open-source-text" transform="translate(15.858078, 12.696000)" fill="#FFFFFF" fill-rule="nonzero">
            <path d="M3.256,7.436 C2.772,7.436 2.33016667,7.34983333 1.9305,7.1775 C1.53083333,7.00516667 1.188,6.75766667 0.902,6.435 C0.616,6.11233333 0.394166667,5.72 0.2365,5.258 C0.0788333333,4.796 0,4.27166667 0,3.685 C0,3.09833333 0.0788333333,2.57583333 0.2365,2.1175 C0.394166667,1.65916667 0.616,1.27416667 0.902,0.9625 C1.188,0.650833333 1.53083333,0.4125 1.9305,0.2475 C2.33016667,0.0825 2.772,0 3.256,0 C3.74,0 4.18183333,0.0825 4.5815,0.2475 C4.98116667,0.4125 5.324,0.652666667 5.61,0.968 C5.896,1.28333333 6.11783333,1.67016667 6.2755,2.1285 C6.43316667,2.58683333 6.512,3.10566667 6.512,3.685 C6.512,4.27166667 6.43316667,4.796 6.2755,5.258 C6.11783333,5.72 5.896,6.11233333 5.61,6.435 C5.324,6.75766667 4.98116667,7.00516667 4.5815,7.1775 C4.18183333,7.34983333 3.74,7.436 3.256,7.436 Z M3.256,6.039 C3.74733333,6.039 4.136,5.82816667 4.422,5.4065 C4.708,4.98483333 4.851,4.411 4.851,3.685 C4.851,2.96633333 4.708,2.40533333 4.422,2.002 C4.136,1.59866667 3.74733333,1.397 3.256,1.397 C2.76466667,1.397 2.376,1.59866667 2.09,2.002 C1.804,2.40533333 1.661,2.96633333 1.661,3.685 C1.661,4.411 1.804,4.98483333 2.09,5.4065 C2.376,5.82816667 2.76466667,6.039 3.256,6.039 Z" id="O"></path>
            <path d="M8.415,7.304 L8.415,0.132 L10.879,0.132 C11.275,0.132 11.6453333,0.1705 11.99,0.2475 C12.3346667,0.3245 12.6353333,0.452833333 12.892,0.6325 C13.1486667,0.812166667 13.3521667,1.0505 13.5025,1.3475 C13.6528333,1.6445 13.728,2.00933333 13.728,2.442 C13.728,2.86 13.6528333,3.223 13.5025,3.531 C13.3521667,3.839 13.1486667,4.092 12.892,4.29 C12.6353333,4.488 12.3383333,4.63466667 12.001,4.73 C11.6636667,4.82533333 11.3043333,4.873 10.923,4.873 L10.032,4.873 L10.032,7.304 L8.415,7.304 Z M10.032,3.586 L10.824,3.586 C11.704,3.586 12.144,3.20466667 12.144,2.442 C12.144,2.068 12.0266667,1.804 11.792,1.65 C11.5573333,1.496 11.22,1.419 10.78,1.419 L10.032,1.419 L10.032,3.586 Z" id="P"></path>
            <polygon id="E" points="15.521 7.304 15.521 0.132 20.009 0.132 20.009 1.496 17.138 1.496 17.138 2.937 19.58 2.937 19.58 4.29 17.138 4.29 17.138 5.94 20.119 5.94 20.119 7.304"></polygon>
            <path d="M22.099,7.304 L22.099,0.132 L23.76,0.132 L25.63,3.696 L26.334,5.28 L26.378,5.28 C26.3413333,4.89866667 26.2991667,4.47333333 26.2515,4.004 C26.2038333,3.53466667 26.18,3.08733333 26.18,2.662 L26.18,0.132 L27.72,0.132 L27.72,7.304 L26.059,7.304 L24.189,3.729 L23.485,2.167 L23.441,2.167 C23.4776667,2.563 23.5198333,2.98833333 23.5675,3.443 C23.6151667,3.89766667 23.639,4.33766667 23.639,4.763 L23.639,7.304 L22.099,7.304 Z" id="N"></path>
            <path d="M34.903,7.436 C34.4336667,7.436 33.9661667,7.34983333 33.5005,7.1775 C33.0348333,7.00516667 32.6186667,6.74666667 32.252,6.402 L33.176,5.291 C33.4326667,5.511 33.7168333,5.69066667 34.0285,5.83 C34.3401667,5.96933333 34.6463333,6.039 34.947,6.039 C35.2843333,6.039 35.5355,5.97666667 35.7005,5.852 C35.8655,5.72733333 35.948,5.55866667 35.948,5.346 C35.948,5.236 35.9241667,5.14066667 35.8765,5.06 C35.8288333,4.97933333 35.7591667,4.90783333 35.6675,4.8455 C35.5758333,4.78316667 35.4658333,4.7245 35.3375,4.6695 C35.2091667,4.6145 35.068,4.554 34.914,4.488 L33.979,4.092 C33.7956667,4.01866667 33.6178333,3.92333333 33.4455,3.806 C33.2731667,3.68866667 33.1191667,3.55116667 32.9835,3.3935 C32.8478333,3.23583333 32.7396667,3.0525 32.659,2.8435 C32.5783333,2.6345 32.538,2.398 32.538,2.134 C32.538,1.84066667 32.6003333,1.56383333 32.725,1.3035 C32.8496667,1.04316667 33.0256667,0.815833333 33.253,0.6215 C33.4803333,0.427166667 33.7498333,0.275 34.0615,0.165 C34.3731667,0.055 34.716,0 35.09,0 C35.508,0 35.9205,0.0806666667 36.3275,0.242 C36.7345,0.403333333 37.092,0.638 37.4,0.946 L36.575,1.969 C36.3403333,1.78566667 36.1056667,1.6445 35.871,1.5455 C35.6363333,1.4465 35.376,1.397 35.09,1.397 C34.8113333,1.397 34.5895,1.45383333 34.4245,1.5675 C34.2595,1.68116667 34.177,1.84066667 34.177,2.046 C34.177,2.156 34.2045,2.2495 34.2595,2.3265 C34.3145,2.4035 34.3915,2.47316667 34.4905,2.5355 C34.5895,2.59783333 34.705,2.6565 34.837,2.7115 C34.969,2.7665 35.112,2.827 35.266,2.893 L36.19,3.267 C36.63,3.443 36.9765,3.685 37.2295,3.993 C37.4825,4.301 37.609,4.708 37.609,5.214 C37.609,5.51466667 37.5485,5.79883333 37.4275,6.0665 C37.3065,6.33416667 37.1305,6.56883333 36.8995,6.7705 C36.6685,6.97216667 36.3843333,7.1335 36.047,7.2545 C35.7096667,7.3755 35.3283333,7.436 34.903,7.436 Z" id="S"></path>
            <path d="M42.295,7.436 C41.811,7.436 41.3691667,7.34983333 40.9695,7.1775 C40.5698333,7.00516667 40.227,6.75766667 39.941,6.435 C39.655,6.11233333 39.4331667,5.72 39.2755,5.258 C39.1178333,4.796 39.039,4.27166667 39.039,3.685 C39.039,3.09833333 39.1178333,2.57583333 39.2755,2.1175 C39.4331667,1.65916667 39.655,1.27416667 39.941,0.9625 C40.227,0.650833333 40.5698333,0.4125 40.9695,0.2475 C41.3691667,0.0825 41.811,0 42.295,0 C42.779,0 43.2208333,0.0825 43.6205,0.2475 C44.0201667,0.4125 44.363,0.652666667 44.649,0.968 C44.935,1.28333333 45.1568333,1.67016667 45.3145,2.1285 C45.4721667,2.58683333 45.551,3.10566667 45.551,3.685 C45.551,4.27166667 45.4721667,4.796 45.3145,5.258 C45.1568333,5.72 44.935,6.11233333 44.649,6.435 C44.363,6.75766667 44.0201667,7.00516667 43.6205,7.1775 C43.2208333,7.34983333 42.779,7.436 42.295,7.436 Z M42.295,6.039 C42.7863333,6.039 43.175,5.82816667 43.461,5.4065 C43.747,4.98483333 43.89,4.411 43.89,3.685 C43.89,2.96633333 43.747,2.40533333 43.461,2.002 C43.175,1.59866667 42.7863333,1.397 42.295,1.397 C41.8036667,1.397 41.415,1.59866667 41.129,2.002 C40.843,2.40533333 40.7,2.96633333 40.7,3.685 C40.7,4.411 40.843,4.98483333 41.129,5.4065 C41.415,5.82816667 41.8036667,6.039 42.295,6.039 Z" id="O"></path>
            <path d="M50.281,7.436 C49.3496667,7.436 48.6383333,7.161 48.147,6.611 C47.6556667,6.061 47.41,5.18466667 47.41,3.982 L47.41,0.132 L49.038,0.132 L49.038,4.147 C49.038,4.851 49.1443333,5.34233333 49.357,5.621 C49.5696667,5.89966667 49.8776667,6.039 50.281,6.039 C50.6843333,6.039 50.996,5.89966667 51.216,5.621 C51.436,5.34233333 51.546,4.851 51.546,4.147 L51.546,0.132 L53.108,0.132 L53.108,3.982 C53.108,5.18466667 52.8678333,6.061 52.3875,6.611 C51.9071667,7.161 51.205,7.436 50.281,7.436 Z" id="U"></path>
            <path d="M55.319,7.304 L55.319,0.132 L57.904,0.132 C58.2853333,0.132 58.6428333,0.168666667 58.9765,0.242 C59.3101667,0.315333333 59.6016667,0.438166667 59.851,0.6105 C60.1003333,0.782833333 60.2983333,1.012 60.445,1.298 C60.5916667,1.584 60.665,1.93966667 60.665,2.365 C60.665,2.893 60.5495,3.3275 60.3185,3.6685 C60.0875,4.0095 59.7776667,4.26433333 59.389,4.433 L61.017,7.304 L59.202,7.304 L57.827,4.719 L56.936,4.719 L56.936,7.304 L55.319,7.304 Z M56.936,3.432 L57.772,3.432 C58.1973333,3.432 58.5218333,3.34216667 58.7455,3.1625 C58.9691667,2.98283333 59.081,2.717 59.081,2.365 C59.081,2.013 58.9691667,1.76733333 58.7455,1.628 C58.5218333,1.48866667 58.1973333,1.419 57.772,1.419 L56.936,1.419 L56.936,3.432 Z" id="R"></path>
            <path d="M65.604,7.436 C65.1493333,7.436 64.7203333,7.35716667 64.317,7.1995 C63.9136667,7.04183333 63.5598333,6.809 63.2555,6.501 C62.9511667,6.193 62.711,5.80983333 62.535,5.3515 C62.359,4.89316667 62.271,4.36333333 62.271,3.762 C62.271,3.168 62.3626667,2.63816667 62.546,2.1725 C62.7293333,1.70683333 62.975,1.31266667 63.283,0.99 C63.591,0.667333333 63.9503333,0.421666667 64.361,0.253 C64.7716667,0.0843333333 65.2043333,0 65.659,0 C66.121,0 66.5353333,0.0935 66.902,0.2805 C67.2686667,0.4675 67.573,0.685666667 67.815,0.935 L66.957,1.969 C66.7736667,1.80033333 66.5811667,1.66283333 66.3795,1.5565 C66.1778333,1.45016667 65.9486667,1.397 65.692,1.397 C65.45,1.397 65.2208333,1.45016667 65.0045,1.5565 C64.7881667,1.66283333 64.6011667,1.815 64.4435,2.013 C64.2858333,2.211 64.1611667,2.453 64.0695,2.739 C63.9778333,3.025 63.932,3.34766667 63.932,3.707 C63.932,4.44766667 64.0896667,5.0215 64.405,5.4285 C64.7203333,5.8355 65.142,6.039 65.67,6.039 C65.9633333,6.039 66.2255,5.97483333 66.4565,5.8465 C66.6875,5.71816667 66.891,5.55866667 67.067,5.368 L67.925,6.38 C67.3236667,7.084 66.55,7.436 65.604,7.436 Z" id="C"></path>
            <polygon id="E" points="69.564 7.304 69.564 0.132 74.052 0.132 74.052 1.496 71.181 1.496 71.181 2.937 73.623 2.937 73.623 4.29 71.181 4.29 71.181 5.94 74.162 5.94 74.162 7.304"></polygon>
        </g>
    </g>
</svg>