<svg width="50" height="50" viewBox="0 0 50 50" fill="none" xmlns="http://www.w3.org/2000/svg">
<path d="M34.1187 9.59265C34.4079 8.76322 34.7698 7.99234 35.4106 7.36422C36.2453 6.54622 37.1906 6.29009 38.3004 6.68384C38.4978 6.75397 38.7004 6.81766 38.8877 6.91191C40.7989 7.86372 42.5763 7.49416 44.2276 6.30416C44.6977 5.96397 44.894 5.96778 45.1143 6.51947C45.5578 7.63434 45.7897 8.78359 45.8189 10.0858C45.8023 11.3178 45.5717 12.5958 44.7843 13.7221C44.4772 14.163 44.0861 14.5083 43.607 14.7478C42.8743 15.1161 42.2667 15.1568 41.5608 14.5045C39.5655 12.657 37.2185 11.3637 34.6183 10.5623C34.0439 10.3854 33.9308 10.1304 34.1183 9.5929L34.1187 9.59265Z" fill="#7BAE41"/>
<path d="M28.3458 38.9937C28.5598 39.0116 28.6491 39.1709 28.6656 39.3785C28.6401 39.6206 28.5037 39.7557 28.2553 39.7379C28.0413 39.7226 27.919 39.5811 27.9393 39.3709C27.9606 39.1397 28.0918 38.9728 28.3456 38.9934L28.3458 38.9937Z" fill="black"/>
<path d="M26.4775 35.8418C26.4329 36.0864 26.2851 36.2113 26.043 36.1756C25.7729 36.1361 25.6353 35.945 25.6442 35.6838C25.6544 35.4341 25.8226 35.3092 26.0685 35.355C26.1323 35.3665 26.1896 35.3856 26.2392 35.4124C26.2774 35.4328 26.3106 35.4557 26.3398 35.485C26.4261 35.5688 26.4748 35.6888 26.4773 35.8419L26.4775 35.8418Z" fill="black"/>
<path d="M11.3981 36.179C11.3995 35.9203 11.546 35.7318 11.8173 35.7216C12.0875 35.7114 12.2314 35.8821 12.2735 36.1179C12.2454 36.4682 12.0046 36.5906 11.746 36.6046C11.5022 36.6171 11.3966 36.3965 11.3978 36.179L11.3981 36.179Z" fill="black"/>
<path d="M11.3981 36.179C11.3968 36.3968 11.5025 36.6173 11.7459 36.6046C12.0045 36.5906 12.2453 36.4682 12.2734 36.1179C12.2313 35.8822 12.0873 35.7115 11.8173 35.7217C11.546 35.7317 11.3992 35.9204 11.3979 36.1792L11.3981 36.179ZM26.0431 36.1753C26.2852 36.211 26.433 36.0861 26.4776 35.8415C26.475 35.6886 26.4267 35.5688 26.34 35.4847C26.312 35.4567 26.2776 35.4325 26.2393 35.4121C26.1897 35.3853 26.1323 35.3662 26.0687 35.3547C25.8227 35.3089 25.6545 35.4338 25.6443 35.6835C25.635 35.9447 25.7731 36.136 26.0431 36.1753V36.1753ZM32.9275 11.6809C37.9119 12.8467 41.7862 15.7187 44.1387 20.4009C44.3056 20.7335 44.5502 20.9182 44.8612 21.0826C45.9888 21.6802 47.031 22.4 47.7101 23.5111C49.0288 25.6669 48.2134 28.1528 45.7505 29.5543C45.4994 29.6983 45.2395 29.8243 44.9783 29.9505C44.4522 30.2041 44.1349 30.492 44.6293 31.0871C44.9555 31.4783 44.586 31.8427 44.4343 32.1701C43.0341 35.2063 40.8961 37.6093 38.1568 39.5126C33.8401 42.5132 28.1118 44.2485 21.5537 44.2422C17.9658 44.3594 13.9062 43.2382 10.3925 40.5497C6.98415 37.9454 4.75184 34.5142 4.12996 30.2203C3.43809 25.4322 5.1314 21.4685 8.60346 18.1672C15.5366 11.5716 23.7247 9.52784 32.9266 11.681L32.9275 11.6809ZM28.665 39.3784C28.6484 39.1707 28.5592 39.0115 28.3452 38.9936C28.0916 38.9732 27.9604 39.1402 27.9387 39.3708C27.9183 39.581 28.0407 39.7224 28.2547 39.7377C28.5035 39.7552 28.6397 39.6202 28.6647 39.3783L28.665 39.3784Z" fill="#E7E74D"/>
<path d="M2.45896 30.3008C2.66534 32.1393 3.22977 33.7409 3.96752 35.317C1.87284 34.8414 0.977148 32.0514 2.45896 30.3008V30.3008Z" fill="#E7E74D"/>
<path d="M3.96748 35.3168C3.22979 33.7407 2.66536 32.1391 2.45892 30.3005C0.977107 32.0512 1.87279 34.8412 3.96748 35.3168ZM35.4106 7.36492C34.7697 7.99304 34.4079 8.76392 34.1187 9.59336C33.9314 10.131 34.0447 10.3859 34.6181 10.563C37.2185 11.3644 39.5655 12.6577 41.5606 14.5052C42.2665 15.1575 42.8742 15.1167 43.6069 14.7485C44.0859 14.509 44.477 14.1637 44.7841 13.7229C45.5715 12.5965 45.8022 11.3185 45.8187 10.0865C45.7894 8.78436 45.5575 7.63504 45.1142 6.52017C44.8938 5.96848 44.6975 5.96461 44.2274 6.30486C42.5761 7.49492 40.7987 7.86442 38.8875 6.91261C38.7002 6.81829 38.4977 6.75461 38.3002 6.68454C37.1909 6.29079 36.2452 6.54704 35.4109 7.36517L35.4106 7.36492ZM44.1381 20.4018C41.786 15.7194 37.9114 12.8474 32.9269 11.6818C23.725 9.52848 15.5375 11.5722 8.60248 18.1687C5.13048 21.4699 3.43711 25.4337 4.12898 30.2218C4.75073 34.5156 6.98304 37.9468 10.3915 40.5512C13.9055 43.2396 17.9652 44.3609 21.5527 44.2436C28.1109 44.25 33.839 42.5146 38.1559 39.514C40.8952 37.6105 43.0332 35.2075 44.4334 32.1715C44.585 31.8441 44.9545 31.4797 44.6283 31.0885C44.1339 30.4935 44.4512 30.2055 44.9774 29.952C45.2386 29.8258 45.4985 29.6997 45.7495 29.5557C48.2124 28.1542 49.0278 25.6684 47.7091 23.5125C47.03 22.4015 45.9878 21.6816 44.8602 21.084C44.5502 20.9184 44.3052 20.734 44.1383 20.4015L44.1381 20.4018ZM4.34936 37.1399C1.16911 36.7182 -0.65033 33.1239 0.846732 30.2949C0.883669 30.2249 0.906607 30.142 0.957544 30.0873C2.21892 28.7201 2.50561 26.9707 3.02292 25.2622C4.62836 19.9643 8.02517 16.0259 12.756 13.2128C18.7381 9.65542 25.161 8.59279 31.9785 9.89498C32.6449 10.0212 32.9965 9.98798 33.0768 9.21079C33.1482 8.52661 33.487 7.91117 33.854 7.32767C35.1091 5.33998 37.0101 4.68892 39.1532 5.65342C40.7038 6.35036 42.1015 6.26248 43.4623 5.27117C43.7184 5.08386 43.9324 4.86729 44.098 4.58442C44.5555 3.80592 45.0817 3.78679 45.585 4.56023C46.9802 6.70461 47.4108 9.06679 47.0783 11.5834C46.956 12.5071 46.6578 13.3786 46.1864 14.18C45.6678 15.063 45.0065 15.8045 43.9719 16.0849C43.5463 16.2008 43.4623 16.346 43.7604 16.7155C44.4739 17.5972 45.0804 18.5529 45.5837 19.5696C45.8015 20.0092 46.2322 20.171 46.6081 20.4004C47.8465 21.161 48.8774 22.1243 49.4685 23.471C50.5949 26.0372 49.7552 28.8288 47.384 30.4892C47.0324 30.7364 46.724 30.981 46.5712 31.4117C44.8752 36.2114 41.5676 39.6223 37.243 42.1273C32.9925 44.5876 27.7212 45.9089 21.8987 45.9076C17.7386 46.0491 13.473 44.794 9.63742 42.0992C8.00398 40.9512 6.65342 39.5242 5.53979 37.8742C5.24086 37.4292 4.91211 37.2148 4.34898 37.1398L4.34936 37.1399Z" fill="black"/>
</svg>
