<svg width="50" height="41" viewBox="0 0 50 41" fill="none" xmlns="http://www.w3.org/2000/svg">
<g clip-path="url(#clip0_401_5961)">
<path fill-rule="evenodd" clip-rule="evenodd" d="M21.0935 8.27388C21.0661 8.32461 21.5227 8.64463 21.6515 8.64853C21.7686 8.64463 21.9091 8.32461 21.8193 8.27388C21.7131 8.20754 21.1201 8.20754 21.093 8.27388H21.0935Z" fill="#D1ECA9"/>
<path fill-rule="evenodd" clip-rule="evenodd" d="M21.1867 8.18794C21.1594 8.23868 21.6121 8.55869 21.7487 8.56259C21.8658 8.55869 22.0063 8.23868 21.9165 8.18794C21.82 8.1216 21.2108 8.1216 21.1869 8.18794H21.1867Z" fill="#86A338"/>
<path fill-rule="evenodd" clip-rule="evenodd" d="M20.6372 9.36616C20.6099 9.4169 21.0626 9.73691 21.1991 9.74081C21.3084 9.73691 21.4528 9.4169 21.3631 9.36616C21.2655 9.29982 20.653 9.29982 20.6378 9.36616H20.6372Z" fill="#D1ECA9"/>
<path fill-rule="evenodd" clip-rule="evenodd" d="M20.7347 9.28023C20.7074 9.33096 21.1601 9.65097 21.2967 9.65488C21.4059 9.65097 21.5503 9.33096 21.4606 9.28023C21.363 9.21388 20.7505 9.21388 20.7354 9.28023H20.7347Z" fill="#86A338"/>
<path fill-rule="evenodd" clip-rule="evenodd" d="M18.455 8.27349C17.6705 7.70372 16.8978 7.01686 16.09 6.1817C15.2704 5.32704 14.2011 4.31236 13.6353 3.27427C13.0655 2.22838 12.7767 1.16687 12.726 0C13.0655 0.456603 13.323 0.694661 13.5455 0.729785C13.7523 0.761005 13.9084 0.573681 13.9982 0.183422C14.365 1.17479 14.8451 2.09959 15.4539 3.00109C16.0549 3.9104 16.9173 4.8236 17.6354 5.54558C18.3535 6.24805 19.0403 6.7788 19.7272 7.18077C19.3055 7.54371 18.8806 7.90665 18.4545 8.27349H18.455Z" fill="#7F4008"/>
<path fill-rule="evenodd" clip-rule="evenodd" d="M17.5464 6.91135C16.5513 6.2245 15.7786 5.50252 15.1815 4.7298C14.5727 3.93758 13.8624 2.23605 13.999 2.27507C14.1473 2.32581 15.5522 4.53858 16.001 4.99908C16.4225 5.42837 16.0283 4.53467 16.5474 4.90932C17.0703 5.28397 17.8977 6.0723 19.0919 7.27429L18.366 7.72699C18.0939 7.45772 17.8207 7.18453 17.5475 6.91135H17.5464Z" fill="black"/>
<path fill-rule="evenodd" clip-rule="evenodd" d="M17.7253 12.469C17.6004 12.4534 17.3468 12.6914 17.339 12.7617C17.3156 12.8085 17.5419 12.7578 17.6278 12.8202C17.698 12.8866 17.7331 13.1324 17.8073 13.1519C17.8853 13.148 18.0883 12.9841 18.0844 12.871C18.0605 12.7539 17.8491 12.484 17.7245 12.4688L17.7253 12.469Z" fill="#D1ECA9"/>
<path fill-rule="evenodd" clip-rule="evenodd" d="M17.8229 12.3518C17.698 12.3362 17.4443 12.5743 17.4365 12.6445C17.4131 12.703 17.6394 12.6328 17.7253 12.7069C17.7955 12.7733 17.8307 13.0191 17.9048 13.0387C17.9829 13.0426 18.1858 12.863 18.1819 12.7538C18.158 12.6367 17.9467 12.3668 17.822 12.3516L17.8229 12.3518Z" fill="#86A338"/>
<path fill-rule="evenodd" clip-rule="evenodd" d="M15.4543 19.8211C15.427 19.8718 15.8797 20.1918 16.0163 20.1957C16.1334 20.1918 16.2739 19.8718 16.1841 19.8211C16.0865 19.755 15.4784 19.755 15.4545 19.8211H15.4543Z" fill="#D1ECA9"/>
<path fill-rule="evenodd" clip-rule="evenodd" d="M15.5518 19.7351C15.5245 19.7859 15.9772 20.1059 16.1138 20.1098C16.2231 20.1059 16.3675 19.7859 16.2777 19.7351C16.1812 19.669 15.5677 19.669 15.5525 19.7351H15.5518Z" fill="#86A338"/>
<path fill-rule="evenodd" clip-rule="evenodd" d="M15.9106 10.455C15.8833 10.5058 16.3399 10.8258 16.4687 10.8297C16.5858 10.8258 16.7262 10.5058 16.6365 10.455C16.5313 10.3887 15.9373 10.3887 15.9102 10.455H15.9106Z" fill="#D1ECA9"/>
<path fill-rule="evenodd" clip-rule="evenodd" d="M16.005 10.3691C15.9777 10.4198 16.4304 10.7398 16.5669 10.7437C16.684 10.7398 16.8245 10.4198 16.7348 10.3691C16.6372 10.3027 16.028 10.3027 16.0052 10.3691H16.005Z" fill="#86A338"/>
<path fill-rule="evenodd" clip-rule="evenodd" d="M16.52 15.1658C16.4926 15.2399 16.5473 15.3297 16.6448 15.3687C16.7424 15.4078 16.8439 15.3804 16.8751 15.3102C16.9024 15.236 16.8478 15.1463 16.7502 15.1073C16.6527 15.0682 16.5475 15.0953 16.5204 15.1658H16.52Z" fill="#D1ECA9"/>
<path fill-rule="evenodd" clip-rule="evenodd" d="M16.5318 15.1032C16.5006 15.1734 16.5553 15.2632 16.6567 15.3022C16.7543 15.3413 16.8557 15.3139 16.8831 15.2437C16.9143 15.1695 16.8597 15.0798 16.7582 15.0408C16.6595 15.0006 16.5587 15.0288 16.5316 15.1025L16.5318 15.1032Z" fill="#86A338"/>
<path fill-rule="evenodd" clip-rule="evenodd" d="M20.157 11.8952C20.1257 11.9654 20.1804 12.0591 20.2818 12.0981C20.3794 12.1371 20.4809 12.1098 20.5082 12.0357C20.5394 11.9615 20.4848 11.8717 20.3833 11.8327C20.2857 11.7937 20.1838 11.8208 20.1567 11.8956L20.157 11.8952Z" fill="#D1ECA9"/>
<path fill-rule="evenodd" clip-rule="evenodd" d="M20.1645 11.8292C20.1372 11.8995 20.1918 11.9932 20.2894 12.0322C20.3869 12.0712 20.4923 12.0439 20.5196 11.9697C20.5509 11.8995 20.4923 11.8058 20.3947 11.7668C20.2972 11.7278 20.1964 11.7549 20.1649 11.8297L20.1645 11.8292Z" fill="#86A338"/>
<path fill-rule="evenodd" clip-rule="evenodd" d="M14.884 17.2568C14.8528 17.3309 14.9075 17.4207 15.005 17.4597C15.1065 17.4987 15.208 17.4714 15.2353 17.3973C15.2665 17.327 15.2119 17.2373 15.1104 17.1943C15.0128 17.1564 14.912 17.1835 14.8838 17.2572L14.884 17.2568Z" fill="#D1ECA9"/>
<path fill-rule="evenodd" clip-rule="evenodd" d="M14.8928 17.191C14.8654 17.2651 14.9201 17.3549 15.0176 17.3939C15.1152 17.4329 15.2206 17.4056 15.2479 17.3315C15.2752 17.2612 15.2206 17.1714 15.123 17.1324C15.0255 17.0945 14.9236 17.1216 14.8932 17.192L14.8928 17.191Z" fill="#86A338"/>
<path fill-rule="evenodd" clip-rule="evenodd" d="M13.362 12.8202C12.7337 14.3578 11.8712 15.6964 10.7278 16.9101C9.56525 18.1199 8.00031 19.7818 6.54465 20.0007C5.08117 20.1803 3.20012 18.5802 2.09179 18.0924C0.995161 17.6046 0.308305 17.2761 0 17.0929C0.788323 17.409 1.83812 16.929 3.18061 15.6372C4.5231 14.3298 6.25585 10.8643 8.00031 9.36575C9.74867 7.87496 11.778 6.95004 13.5459 6.7276C15.2982 6.49344 16.9099 6.92273 18.4554 7.99984C17.5929 8.78036 16.7694 9.54917 15.9109 10.3648C15.0512 11.1807 14.2165 11.9688 13.3612 12.8198L13.362 12.8202Z" fill="#5F6537"/>
<path fill-rule="evenodd" clip-rule="evenodd" d="M14.9079 9.72906C13.9713 9.31929 13.0268 9.52612 12.0005 10.3652C10.9741 11.2081 10.416 13.6004 8.81984 14.7283C7.21197 15.8405 5.12018 16.5781 2.45471 16.9996C3.26645 17.222 4.27722 17.1362 5.54556 16.7264C6.81391 16.3088 8.84716 15.5322 10.0023 14.5449C11.1458 13.5458 11.5321 11.6257 12.3634 10.8179C13.1905 10.0142 14.0177 9.65122 14.9077 9.72928L14.9079 9.72906Z" fill="#7FAE4E"/>
<path fill-rule="evenodd" clip-rule="evenodd" d="M18.4549 7.72715C16.9055 8.21498 15.6684 9.02281 14.6381 10.1819C13.6079 11.3253 12.6985 12.7108 12.3629 14.6386C12.0234 16.5899 12.1288 19.4505 12.6361 21.7295C13.1278 23.9774 13.9474 25.9523 15.364 28.091C16.7846 30.2335 19.13 32.8364 21.0891 34.456C23.0521 36.0406 25.4093 36.9849 27.0015 37.6366C28.5666 38.2766 29.4876 38.023 30.4553 38.3664C31.4037 38.7176 31.4739 39.5022 32.7266 39.7284C33.9911 39.9312 36.5473 39.4552 37.9093 39.6386C39.2518 39.8142 39.7747 40.6805 40.727 40.8211C41.6714 40.9537 42.5963 40.8366 43.5446 40.4542C44.8207 40.8796 45.9018 40.8444 46.8189 40.3644C47.736 39.8688 48.618 38.8698 49.0005 37.5467C49.3595 36.2082 49.3595 34.5457 49.0005 32.454C49.7574 31.2988 50.0854 29.7336 49.9995 27.638C49.8979 25.5425 49.137 22.6662 48.4541 20.0007C47.7633 17.3118 47.6579 14.1975 45.9095 11.7272C44.1416 9.26076 40.7112 6.79433 37.9989 5.36598C35.2749 3.95324 32.1568 3.49664 29.7293 3.27419C27.298 3.04394 25.4326 3.25077 23.5437 4.00007C21.6488 4.74373 19.9826 5.98085 18.4563 7.72921L18.4549 7.72715Z" fill="#ABD148"/>
<path fill-rule="evenodd" clip-rule="evenodd" d="M48.7282 32.2742C49.2785 33.4762 49.0326 34.12 49.0015 35.0919C48.9664 36.0478 48.896 37.1679 48.5487 37.9991C48.1936 38.8266 47.5574 39.5837 46.9096 40.0013C46.2423 40.3955 45.294 40.3212 44.6384 40.3642C43.9788 40.3837 43.4481 40.173 43.0032 40.1847C42.5622 40.1887 42.5192 40.4384 42.0002 40.454C41.4578 40.458 40.3493 40.454 39.8187 40.2744C39.2839 40.0794 39.4674 39.5798 38.8195 39.3652C38.1523 39.1465 36.8917 38.9905 35.9122 39.0021C34.9326 39.0021 33.711 39.4744 33.0009 39.3652C32.2828 39.2404 32.2712 38.5105 31.639 38.2725C30.9989 38.0189 30.2809 38.1788 29.1841 37.9094C28.0564 37.6284 26.4913 37.3942 25.0005 36.6373C23.4863 35.8607 21.6443 34.5885 20.2745 33.3629C18.9125 32.1414 17.4451 31.0253 16.9105 29.3668C16.3797 27.6965 15.3728 23.3569 17.0939 23.4542C18.8383 23.5753 25.1215 29.7024 27.1821 30.0028C29.2036 30.2489 27.8182 24.6836 29.1841 25.0934C30.5422 25.5383 33.7853 31.9268 35.2722 32.5474C36.7395 33.1134 36.8254 28.8438 38.0001 28.637C39.1826 28.4496 40.9738 31.4664 42.2734 31.3649C43.5457 31.2245 44.5565 27.7706 45.6374 27.9112C46.7182 28.0717 48.1503 31.0572 48.7281 32.2746L48.7282 32.2742Z" fill="#A2C644"/>
<path fill-rule="evenodd" clip-rule="evenodd" d="M45.9996 40.2747C45.4884 40.3293 44.7937 40.3644 44.2747 40.1849C43.748 39.9821 43.0923 39.6619 42.9088 39.1819C42.7293 38.6981 43.0063 37.4102 43.182 37.3634C43.3342 37.3205 43.5216 38.5186 43.9118 38.9089C44.302 39.2912 44.9772 39.4748 45.5469 39.6386C46.1089 39.779 47.186 39.7089 47.2719 39.8182C47.3391 39.9276 46.5044 40.2008 46.0003 40.2745L45.9996 40.2747Z" fill="#86A338"/>
<path fill-rule="evenodd" clip-rule="evenodd" d="M48.8171 34.5457C48.778 33.6169 48.4814 32.7701 48.0912 32.1847C47.6776 31.6032 46.62 30.8579 46.456 31.092C46.3077 31.33 46.8658 32.4344 47.1819 33.5469C47.4785 34.6513 47.9975 37.4494 48.2746 37.6367C48.5521 37.7808 48.8329 35.4664 48.8166 34.5449L48.8171 34.5457Z" fill="#86A338"/>
<path fill-rule="evenodd" clip-rule="evenodd" d="M22.5689 26.6277C22.3699 26.5885 22.0031 26.9906 21.9796 27.0804C21.9484 27.1661 22.2957 27.0609 22.4206 27.1701C22.526 27.2794 22.5767 27.6501 22.6938 27.6813C22.8109 27.6853 23.1348 27.4238 23.1231 27.2443C23.096 27.0589 22.7567 26.6535 22.5691 26.6264L22.5689 26.6277Z" fill="#D1ECA9"/>
<path fill-rule="evenodd" clip-rule="evenodd" d="M22.7207 26.4519C22.5138 26.4168 22.1548 26.807 22.1275 26.9008C22.0962 26.9866 22.4436 26.8813 22.5685 26.9906C22.6699 27.0999 22.7324 27.4706 22.8455 27.5017C22.9548 27.5135 23.2865 27.2327 23.2709 27.0648C23.2351 26.8805 22.9121 26.4707 22.7202 26.4512L22.7207 26.4519Z" fill="#86A338"/>
<path fill-rule="evenodd" clip-rule="evenodd" d="M32.8207 13.2733C34.5887 13.566 35.7867 15.1388 37.0903 16.6374C38.3859 18.1399 39.7088 22.2923 40.548 22.1831C41.3558 22.0113 40.9969 16.5749 41.9998 15.8217C43.0144 15.1037 45.8439 18.3935 46.5462 17.8199C47.2175 17.1993 46.9755 13.9563 46.0935 12.2743C45.1881 10.5845 42.628 8.92975 41.2738 7.82142C39.9235 6.72869 39.4747 6.36185 38.0932 5.72963C36.696 5.0818 33.4179 3.41149 33.0004 4.00078C32.6023 4.60178 36.6026 8.35607 35.6385 9.27318C34.6199 10.1552 28.6257 8.43022 27.0918 9.36684C25.5737 10.323 25.5776 14.2334 26.5455 14.9124C27.5092 15.552 31.041 12.9839 32.8211 13.2733H32.8207Z" fill="#D1ECA9"/>
<path fill-rule="evenodd" clip-rule="evenodd" d="M40.072 14.7006C39.8807 14.6694 39.553 15.0362 39.5257 15.1221C39.5022 15.1923 39.8145 15.1143 39.9354 15.204C40.0408 15.3094 40.0797 15.6489 40.1891 15.6802C40.3023 15.6841 40.5911 15.4382 40.5872 15.2743C40.5601 15.0976 40.2479 14.7312 40.0722 14.6997L40.072 14.7006Z" fill="#D1ECA9"/>
<path fill-rule="evenodd" clip-rule="evenodd" d="M40.2119 14.5371C40.0207 14.5098 39.6929 14.865 39.6656 14.9547C39.6421 15.0289 39.9543 14.9469 40.0753 15.0406C40.1807 15.1303 40.2197 15.4933 40.329 15.5128C40.4422 15.5167 40.7309 15.2708 40.727 15.1069C40.6999 14.9313 40.3877 14.5606 40.2121 14.5367L40.2119 14.5371Z" fill="#86A338"/>
<path fill-rule="evenodd" clip-rule="evenodd" d="M32.1649 20.6133C31.9776 20.586 31.6382 20.941 31.6147 21.0309C31.5912 21.105 31.9034 21.0231 32.0244 21.1168C32.1299 21.2066 32.1649 21.5695 32.282 21.5889C32.3991 21.5927 32.6763 21.347 32.6763 21.1831C32.6448 21.0086 32.3446 20.6378 32.1646 20.614L32.1649 20.6133Z" fill="#D1ECA9"/>
<path fill-rule="evenodd" clip-rule="evenodd" d="M32.3059 20.4449C32.1186 20.4175 31.7792 20.7728 31.7558 20.8625C31.7323 20.9367 32.0446 20.8547 32.1654 20.9483C32.2709 21.038 32.3059 21.401 32.423 21.4204C32.5401 21.4244 32.8173 21.1786 32.8173 21.0145C32.7847 20.8389 32.4834 20.4682 32.3045 20.4443L32.3059 20.4449Z" fill="#86A338"/>
<path fill-rule="evenodd" clip-rule="evenodd" d="M39.3424 26.4788C39.0966 26.4399 38.644 26.916 38.6165 27.0331C38.5892 27.1304 38.9951 27.0213 39.1591 27.1424C39.3035 27.2749 39.3464 27.7355 39.4986 27.7706C39.6469 27.7784 40.0372 27.4545 40.0216 27.2359C39.9793 27.0202 39.5782 26.502 39.3441 26.4782L39.3424 26.4788Z" fill="#D1ECA9"/>
<path fill-rule="evenodd" clip-rule="evenodd" d="M39.529 26.2567C39.2909 26.2175 38.8225 26.6937 38.7992 26.8107C38.7718 26.9043 39.1777 26.8067 39.3416 26.9238C39.486 27.0487 39.5291 27.5287 39.6812 27.5522C39.8295 27.5522 40.2159 27.2323 40.208 27.0136C40.1657 26.787 39.7635 26.284 39.5294 26.2569L39.529 26.2567Z" fill="#86A338"/>
<path fill-rule="evenodd" clip-rule="evenodd" d="M43.8413 22.9939C43.6422 22.959 43.2754 23.3491 43.252 23.4428C43.2208 23.5288 43.5681 23.4233 43.693 23.5326C43.7983 23.6418 43.849 24.0126 43.9662 24.0439C44.0832 24.0555 44.4072 23.7746 44.3955 23.6067C44.3684 23.4224 44.029 23.0127 43.8415 22.9931L43.8413 22.9939Z" fill="#D1ECA9"/>
<path fill-rule="evenodd" clip-rule="evenodd" d="M43.9941 22.8147C43.7873 22.7796 43.4282 23.1698 43.4009 23.2634C43.3697 23.3494 43.717 23.2439 43.8418 23.3532C43.9434 23.4625 44.0058 23.8332 44.119 23.8645C44.2283 23.8761 44.5599 23.5952 44.5444 23.4273C44.5086 23.243 44.1845 22.8333 43.9937 22.8138L43.9941 22.8147Z" fill="#86A338"/>
<path fill-rule="evenodd" clip-rule="evenodd" d="M44.7974 29.2064C44.5515 29.1674 44.0988 29.6436 44.0715 29.7606C44.0442 29.858 44.4501 29.7488 44.614 29.8699C44.7546 30.0025 44.8014 30.463 44.9497 30.4981C45.098 30.4981 45.4844 30.1782 45.4764 29.9597C45.4342 29.7418 45.032 29.2344 44.7978 29.2062L44.7974 29.2064Z" fill="#D1ECA9"/>
<path fill-rule="evenodd" clip-rule="evenodd" d="M44.9816 28.9842C44.7356 28.9451 44.283 29.4212 44.2557 29.5383C44.2284 29.6318 44.6343 29.5343 44.7982 29.6513C44.9426 29.7684 44.9856 30.2524 45.1377 30.276C45.286 30.2835 45.6764 29.9599 45.6606 29.7411C45.6184 29.5275 45.2173 29.0083 44.9831 28.9844L44.9816 28.9842Z" fill="#86A338"/>
<path fill-rule="evenodd" clip-rule="evenodd" d="M38.6161 35.5677C38.3703 35.5288 37.9177 36.0049 37.8904 36.122C37.863 36.2155 38.2689 36.118 38.4328 36.235C38.5733 36.3521 38.6201 36.8361 38.7684 36.8595C38.9167 36.8673 39.3032 36.5433 39.2953 36.3248C39.253 36.1112 38.8508 35.592 38.6167 35.5681L38.6161 35.5677Z" fill="#D1ECA9"/>
<path fill-rule="evenodd" clip-rule="evenodd" d="M38.7993 35.3499C38.5535 35.311 38.1008 35.7871 38.0735 35.904C38.0461 36.0015 38.452 35.8924 38.6159 36.0135C38.7603 36.146 38.8033 36.6066 38.9555 36.6417C39.1037 36.6495 39.4941 36.3256 39.4784 36.107C39.4372 35.8924 39.035 35.3731 38.8009 35.3503L38.7993 35.3499Z" fill="#86A338"/>
<path fill-rule="evenodd" clip-rule="evenodd" d="M30.9595 33.1373C30.6904 33.0984 30.1985 33.6174 30.1634 33.7463C30.1322 33.8477 30.5811 33.7422 30.7566 33.8671C30.901 34.0075 30.9753 34.5229 31.1313 34.554C31.2835 34.5656 31.7207 34.1948 31.7049 33.9686C31.6648 33.7171 31.216 33.1751 30.9591 33.136L30.9595 33.1373Z" fill="#D1ECA9"/>
<path fill-rule="evenodd" clip-rule="evenodd" d="M31.1622 32.8947C30.893 32.8557 30.4012 33.3749 30.3661 33.5036C30.3348 33.6128 30.7836 33.4879 30.9592 33.6244C31.1036 33.7572 31.1779 34.288 31.3339 34.3153C31.4861 34.3153 31.9233 33.9679 31.9076 33.7258C31.8685 33.4765 31.4197 32.9334 31.1617 32.8943L31.1622 32.8947Z" fill="#86A338"/>
<path fill-rule="evenodd" clip-rule="evenodd" d="M21.4524 18.6501C21.3236 18.6345 21.0855 18.8726 21.0699 18.9428C21.0465 19.0014 21.2767 18.9311 21.3548 19.0053C21.425 19.0638 21.4602 19.3136 21.5343 19.3331C21.6124 19.337 21.8153 19.1536 21.8114 19.0521C21.7875 18.935 21.5762 18.6662 21.4515 18.6499L21.4524 18.6501Z" fill="#D1ECA9"/>
<path fill-rule="evenodd" clip-rule="evenodd" d="M21.5499 18.5374C21.4211 18.5217 21.183 18.7598 21.1674 18.83C21.144 18.8769 21.3743 18.8261 21.4523 18.8886C21.5226 18.9549 21.5577 19.2008 21.6318 19.2203C21.7099 19.2242 21.9128 19.0447 21.9089 18.9354C21.8851 18.8183 21.6737 18.5452 21.549 18.5376L21.5499 18.5374Z" fill="#86A338"/>
<path fill-rule="evenodd" clip-rule="evenodd" d="M25.0893 13.1052C24.9645 13.0896 24.7108 13.3277 24.703 13.3979C24.6796 13.4565 24.9059 13.3862 24.9918 13.4604C25.062 13.5189 25.0971 13.7687 25.1713 13.7882C25.2494 13.7921 25.4523 13.6087 25.4484 13.5072C25.4245 13.3901 25.2142 13.1202 25.0885 13.105L25.0893 13.1052Z" fill="#D1ECA9"/>
<path fill-rule="evenodd" clip-rule="evenodd" d="M25.1869 12.9884C25.0621 12.9689 24.8083 13.2186 24.8006 13.285C24.7772 13.3318 25.0036 13.2811 25.0894 13.3435C25.1596 13.4099 25.1948 13.6557 25.2689 13.6752C25.347 13.6791 25.5499 13.4996 25.546 13.3904C25.5222 13.2733 25.3119 13.0033 25.1861 12.9882L25.1869 12.9884Z" fill="#86A338"/>
<path fill-rule="evenodd" clip-rule="evenodd" d="M27.6346 7.37964C27.5059 7.36403 27.2678 7.60209 27.2523 7.67234C27.2288 7.71917 27.459 7.66843 27.5372 7.73087C27.6073 7.79722 27.6426 8.04308 27.7166 8.0626C27.7948 8.0665 27.9977 7.88698 27.9938 7.77771C27.9689 7.66063 27.7586 7.38744 27.6339 7.37964H27.6346Z" fill="#D1ECA9"/>
<path fill-rule="evenodd" clip-rule="evenodd" d="M27.7323 7.26294C27.6035 7.24733 27.3654 7.48539 27.3498 7.55564C27.3264 7.60247 27.5566 7.55173 27.6347 7.61417C27.7049 7.68052 27.7402 7.92638 27.8142 7.9459C27.8923 7.9498 28.0952 7.77028 28.0913 7.66101C28.0664 7.54393 27.8561 7.27075 27.7314 7.26294H27.7323Z" fill="#86A338"/>
<path fill-rule="evenodd" clip-rule="evenodd" d="M23.7277 21.5465C23.7004 21.5973 24.1531 21.9173 24.2897 21.9213C24.399 21.9173 24.5434 21.5973 24.4536 21.5465C24.3571 21.4793 23.7436 21.4793 23.7284 21.5465H23.7277Z" fill="#D1ECA9"/>
<path fill-rule="evenodd" clip-rule="evenodd" d="M23.8254 21.4597C23.7981 21.5104 24.2508 21.8305 24.3874 21.8343C24.4966 21.8305 24.641 21.5104 24.5513 21.4597C24.4548 21.3936 23.8412 21.3936 23.8261 21.4597H23.8254Z" fill="#86A338"/>
<path fill-rule="evenodd" clip-rule="evenodd" d="M18.5449 25.7298C18.5176 25.7806 18.9703 26.1005 19.1069 26.1045C19.2239 26.1005 19.3644 25.7806 19.2747 25.7298C19.1771 25.6636 18.569 25.6636 18.5451 25.7298H18.5449Z" fill="#D1ECA9"/>
<path fill-rule="evenodd" clip-rule="evenodd" d="M18.6424 25.6442C18.6151 25.6948 19.0678 26.0149 19.2044 26.0187C19.3137 26.0149 19.4581 25.6948 19.3683 25.6442C19.2718 25.5769 18.6593 25.5769 18.6431 25.6442H18.6424Z" fill="#86A338"/>
<path fill-rule="evenodd" clip-rule="evenodd" d="M32.1811 12.0003C32.1538 12.051 32.6065 12.371 32.7431 12.3749C32.8602 12.371 33.0007 12.051 32.9109 12.0003C32.8134 11.9342 32.2041 11.9342 32.1813 12.0003H32.1811Z" fill="#D1ECA9"/>
<path fill-rule="evenodd" clip-rule="evenodd" d="M32.2788 11.9148C32.2515 11.9656 32.7043 12.2856 32.8408 12.2895C32.9579 12.2856 33.0984 11.9656 33.0087 11.9148C32.9111 11.8487 32.3019 11.8487 32.2791 11.9148H32.2788Z" fill="#86A338"/>
<path fill-rule="evenodd" clip-rule="evenodd" d="M36.4577 21.8199C36.4108 21.9332 37.1797 22.4288 37.3944 22.4483C37.6012 22.4288 37.8197 21.9332 37.6753 21.8199C37.5084 21.7104 36.5046 21.7104 36.458 21.8199H36.4577Z" fill="#D1ECA9"/>
<path fill-rule="evenodd" clip-rule="evenodd" d="M36.6182 21.6746C36.5675 21.7879 37.348 22.2835 37.5587 22.303C37.7617 22.2835 37.9803 21.7879 37.8359 21.6746C37.6668 21.5662 36.6641 21.5662 36.6174 21.6746H36.6182Z" fill="#86A338"/>
<path fill-rule="evenodd" clip-rule="evenodd" d="M31.8213 29.4566C31.7744 29.5581 32.5432 30.077 32.758 30.081C32.9647 30.077 33.1834 29.5581 33.039 29.4566C32.872 29.3471 31.8693 29.3471 31.8216 29.4566H31.8213Z" fill="#D1ECA9"/>
<path fill-rule="evenodd" clip-rule="evenodd" d="M31.9817 29.3126C31.9309 29.4257 32.7114 29.9213 32.9223 29.9408C33.1252 29.9213 33.3437 29.4257 33.1994 29.3126C33.0302 29.2031 32.0275 29.2031 31.9809 29.3126H31.9817Z" fill="#86A338"/>
<path fill-rule="evenodd" clip-rule="evenodd" d="M40.638 33.4571C40.5873 33.5702 41.3678 34.0658 41.5785 34.0854C41.7814 34.0658 42.0001 33.5702 41.8557 33.4571C41.6866 33.3487 40.6838 33.3487 40.6372 33.4582L40.638 33.4571Z" fill="#D1ECA9"/>
<path fill-rule="evenodd" clip-rule="evenodd" d="M40.8016 33.3131C40.7548 33.4261 41.5236 33.9218 41.7384 33.9413C41.9452 33.9218 42.1637 33.4261 42.0193 33.3131C41.8513 33.2036 40.8486 33.2036 40.8019 33.3131H40.8016Z" fill="#86A338"/>
<path fill-rule="evenodd" clip-rule="evenodd" d="M39.4596 38.4553C39.4127 38.5686 40.1815 39.064 40.3962 39.0838C40.603 39.064 40.8217 38.5686 40.6773 38.4553C40.5092 38.3469 39.5065 38.3469 39.4599 38.4553H39.4596Z" fill="#D1ECA9"/>
<path fill-rule="evenodd" clip-rule="evenodd" d="M39.619 38.3116C39.5681 38.4249 40.3486 38.9203 40.5595 38.94C40.7624 38.9203 40.981 38.4249 40.8366 38.3116C40.6685 38.2021 39.6647 38.2021 39.6181 38.3116H39.619Z" fill="#86A338"/>
<path fill-rule="evenodd" clip-rule="evenodd" d="M43.9118 35.1817C43.8611 35.2948 44.6416 35.7904 44.8523 35.8099C45.0553 35.7904 45.2738 35.2948 45.1295 35.1817C44.9615 35.0722 43.9576 35.0722 43.911 35.1817H43.9118Z" fill="#D1ECA9"/>
<path fill-rule="evenodd" clip-rule="evenodd" d="M44.0754 35.0377C44.0286 35.1508 44.7974 35.6464 45.0121 35.6659C45.2189 35.6464 45.4375 35.1508 45.2931 35.0377C45.1262 34.9293 44.1234 34.9293 44.0757 35.0388L44.0754 35.0377Z" fill="#86A338"/>
<path fill-rule="evenodd" clip-rule="evenodd" d="M45.4576 20.0006C45.4068 20.1137 46.1873 20.6093 46.3981 20.629C46.601 20.6093 46.8197 20.1137 46.6753 20.0006C46.5062 19.8911 45.5034 19.8911 45.4568 20.0006H45.4576Z" fill="#D1ECA9"/>
<path fill-rule="evenodd" clip-rule="evenodd" d="M45.6213 19.8565C45.5745 19.9697 46.3433 20.4653 46.558 20.4849C46.7649 20.4653 46.9834 19.9697 46.839 19.8565C46.671 19.747 45.6683 19.747 45.6216 19.8565H45.6213Z" fill="#86A338"/>
<path fill-rule="evenodd" clip-rule="evenodd" d="M27.0015 19.5476C26.9742 19.5984 27.4308 19.9184 27.5596 19.9223C27.6767 19.9184 27.8172 19.5984 27.7274 19.5476C27.6223 19.4815 27.0293 19.4815 27.0011 19.5476H27.0015Z" fill="#D1ECA9"/>
<path fill-rule="evenodd" clip-rule="evenodd" d="M27.0959 19.4622C27.0686 19.5129 27.5213 19.8329 27.6579 19.8368C27.7749 19.8329 27.9154 19.5129 27.8258 19.4622C27.7282 19.3961 27.119 19.3961 27.0962 19.4622H27.0959Z" fill="#86A338"/>
<path fill-rule="evenodd" clip-rule="evenodd" d="M31.4549 8.00044C31.4276 8.05118 31.8803 8.37119 32.0169 8.37509C32.134 8.37119 32.2745 8.05118 32.1848 8.00044C32.0873 7.9341 31.4791 7.9341 31.4552 8.00044H31.4549Z" fill="#D1ECA9"/>
<path fill-rule="evenodd" clip-rule="evenodd" d="M31.5525 7.9145C31.5251 7.96524 31.9778 8.28525 32.1144 8.28915C32.2237 8.28525 32.3681 7.96524 32.2783 7.9145C32.1819 7.84816 31.5683 7.84816 31.5531 7.9145H31.5525Z" fill="#86A338"/>
<path fill-rule="evenodd" clip-rule="evenodd" d="M28.5476 5.36616C28.5202 5.4169 28.9768 5.73691 29.1056 5.74081C29.2227 5.73691 29.3632 5.4169 29.2734 5.36616C29.1672 5.29982 28.5742 5.29982 28.5471 5.36616H28.5476Z" fill="#D1ECA9"/>
<path fill-rule="evenodd" clip-rule="evenodd" d="M28.6451 5.28023C28.6178 5.33096 29.0744 5.65097 29.2032 5.65487C29.3201 5.65097 29.4607 5.33096 29.371 5.28023C29.2647 5.21388 28.6718 5.21388 28.6447 5.28023H28.6451Z" fill="#86A338"/>
<path fill-rule="evenodd" clip-rule="evenodd" d="M24.1571 6.80248C24.1259 6.87663 24.1805 6.96639 24.282 7.00542C24.3795 7.04444 24.481 7.01712 24.5083 6.94297C24.5395 6.87273 24.4849 6.78297 24.3834 6.74394C24.2859 6.70491 24.184 6.73223 24.1569 6.80248H24.1571Z" fill="#D1ECA9"/>
<path fill-rule="evenodd" clip-rule="evenodd" d="M24.1646 6.73607C24.1373 6.81022 24.1919 6.89998 24.2895 6.93901C24.3871 6.97804 24.4924 6.95072 24.5198 6.88047C24.5471 6.80632 24.4924 6.71656 24.3949 6.67753C24.2973 6.63851 24.1965 6.66583 24.165 6.73607H24.1646Z" fill="#86A338"/>
<path fill-rule="evenodd" clip-rule="evenodd" d="M25.0665 8.71068C25.0353 8.78483 25.0899 8.87459 25.1914 8.91361C25.289 8.95264 25.3904 8.92532 25.4177 8.85508C25.449 8.78093 25.3943 8.69117 25.293 8.65214C25.1954 8.61312 25.0935 8.64043 25.0664 8.71068H25.0665Z" fill="#D1ECA9"/>
<path fill-rule="evenodd" clip-rule="evenodd" d="M25.0742 8.64428C25.0469 8.71843 25.1014 8.80819 25.1991 8.84721C25.2966 8.88624 25.402 8.85892 25.4293 8.78867C25.4566 8.71452 25.402 8.62476 25.3044 8.58574C25.2069 8.54671 25.106 8.57403 25.0746 8.64428H25.0742Z" fill="#86A338"/>
<path fill-rule="evenodd" clip-rule="evenodd" d="M28.8835 10.4396C28.8562 10.5098 28.9108 10.6035 29.0083 10.6425C29.1058 10.6815 29.2073 10.6542 29.2385 10.5801C29.2658 10.5098 29.2112 10.4162 29.1137 10.3771C29.0162 10.3381 28.911 10.3654 28.8839 10.4396H28.8835Z" fill="#D1ECA9"/>
<path fill-rule="evenodd" clip-rule="evenodd" d="M28.8944 10.3729C28.8632 10.447 28.9217 10.5368 29.0193 10.5758C29.1169 10.6148 29.2183 10.5875 29.2496 10.5134C29.2769 10.4431 29.2222 10.3534 29.1208 10.3143C29.0243 10.2714 28.9235 10.2987 28.8953 10.3729H28.8944Z" fill="#86A338"/>
<path fill-rule="evenodd" clip-rule="evenodd" d="M22.518 16.0743C22.4907 16.1484 22.5453 16.2382 22.6429 16.2772C22.7405 16.3162 22.8458 16.2889 22.8731 16.2187C22.9044 16.1445 22.8458 16.0548 22.7483 16.0157C22.6507 15.9767 22.5499 16.0049 22.5184 16.0743H22.518Z" fill="#D1ECA9"/>
<path fill-rule="evenodd" clip-rule="evenodd" d="M22.5298 16.0081C22.5025 16.0822 22.5572 16.172 22.6547 16.211C22.7523 16.25 22.8538 16.2227 22.885 16.1525C22.9123 16.0783 22.8577 15.9886 22.7601 15.9495C22.6625 15.9105 22.5617 15.9376 22.5303 16.0081H22.5298Z" fill="#86A338"/>
<path fill-rule="evenodd" clip-rule="evenodd" d="M19.8837 23.4396C19.8525 23.5137 19.911 23.6035 20.0086 23.6424C20.1061 23.6813 20.2076 23.654 20.2388 23.58C20.2661 23.5097 20.2115 23.4199 20.1139 23.3772C20.0164 23.3381 19.9112 23.3652 19.8841 23.44L19.8837 23.4396Z" fill="#D1ECA9"/>
<path fill-rule="evenodd" clip-rule="evenodd" d="M19.8913 23.3722C19.864 23.4466 19.9186 23.5361 20.0162 23.5753C20.1137 23.6142 20.2191 23.5869 20.2464 23.5128C20.2777 23.4426 20.2191 23.3527 20.1216 23.3138C20.024 23.2749 19.9232 23.304 19.8917 23.3734L19.8913 23.3722Z" fill="#86A338"/>
<path fill-rule="evenodd" clip-rule="evenodd" d="M21.5185 29.9841C21.4912 30.0582 21.5458 30.148 21.6434 30.1871C21.7409 30.226 21.8424 30.1987 21.8736 30.1285C21.901 30.0543 21.8463 29.9645 21.7487 29.9256C21.6523 29.8866 21.5471 29.9137 21.5189 29.9842L21.5185 29.9841Z" fill="#D1ECA9"/>
<path fill-rule="evenodd" clip-rule="evenodd" d="M21.5304 29.9174C21.4992 29.9915 21.5577 30.0813 21.6553 30.1202C21.7529 30.1594 21.8543 30.132 21.8816 30.0618C21.9129 29.9876 21.8582 29.8979 21.7568 29.8587C21.6592 29.8197 21.5573 29.8468 21.5302 29.9173L21.5304 29.9174Z" fill="#86A338"/>
<path fill-rule="evenodd" clip-rule="evenodd" d="M34.7059 16.2781C34.6552 16.4069 34.7527 16.5669 34.9283 16.6332C35.1001 16.7035 35.2796 16.6566 35.3342 16.5279C35.385 16.3991 35.2874 16.2391 35.1118 16.1688C34.9405 16.1016 34.7573 16.1482 34.7063 16.2772L34.7059 16.2781Z" fill="#D1ECA9"/>
<path fill-rule="evenodd" clip-rule="evenodd" d="M34.7254 16.1609C34.6747 16.2897 34.7723 16.4497 34.9441 16.5199C35.1196 16.5863 35.2991 16.5395 35.3498 16.4107C35.4007 16.2819 35.303 16.1219 35.1313 16.0555C34.96 15.9861 34.7768 16.0328 34.7259 16.1618L34.7254 16.1609Z" fill="#86A338"/>
<path fill-rule="evenodd" clip-rule="evenodd" d="M34.4328 22.7323C34.3821 22.8612 34.4798 23.0211 34.6554 23.0875C34.8271 23.1578 35.0104 23.1109 35.0611 22.9821C35.112 22.8533 35.0143 22.6933 34.8387 22.6229C34.6674 22.5557 34.4875 22.6023 34.4332 22.7313L34.4328 22.7323Z" fill="#D1ECA9"/>
<path fill-rule="evenodd" clip-rule="evenodd" d="M34.4524 22.6153C34.4016 22.7442 34.4992 22.9041 34.6748 22.9744C34.8466 23.0409 35.0261 22.994 35.0807 22.8652C35.1315 22.7364 35.0338 22.5764 34.8582 22.5101C34.6869 22.4407 34.5037 22.4874 34.4527 22.6164L34.4524 22.6153Z" fill="#86A338"/>
<path fill-rule="evenodd" clip-rule="evenodd" d="M29.16 29.4606C29.1093 29.5855 29.2068 29.7494 29.3824 29.8158C29.5541 29.8858 29.7376 29.8391 29.7883 29.7103C29.839 29.5815 29.7415 29.4215 29.5659 29.3512C29.3946 29.2807 29.2157 29.3317 29.1604 29.4596L29.16 29.4606Z" fill="#D1ECA9"/>
<path fill-rule="evenodd" clip-rule="evenodd" d="M29.1794 29.3429C29.1287 29.4718 29.2263 29.6317 29.402 29.6982C29.5737 29.7682 29.7531 29.7215 29.8077 29.5927C29.8586 29.4639 29.757 29.3039 29.5853 29.2335C29.414 29.1663 29.2308 29.214 29.1798 29.3419L29.1794 29.3429Z" fill="#86A338"/>
<path fill-rule="evenodd" clip-rule="evenodd" d="M33.5233 36.0948C33.4725 36.2235 33.5701 36.3836 33.7457 36.4537C33.9174 36.5202 34.1009 36.4734 34.1516 36.3444C34.2023 36.2156 34.1048 36.0556 33.9292 35.9894C33.7579 35.92 33.5779 35.9677 33.5237 36.0956L33.5233 36.0948Z" fill="#D1ECA9"/>
<path fill-rule="evenodd" clip-rule="evenodd" d="M33.5427 35.9776C33.4919 36.1064 33.5896 36.2664 33.7652 36.3365C33.9369 36.4067 34.1163 36.3562 34.171 36.2272C34.2218 36.1023 34.1241 35.9424 33.9485 35.8722C33.7773 35.8028 33.5941 35.8505 33.5431 35.9784L33.5427 35.9776Z" fill="#86A338"/>
<path fill-rule="evenodd" clip-rule="evenodd" d="M40.8872 26.0065C40.8364 26.1314 40.9341 26.2913 41.1097 26.3615C41.2814 26.4317 41.4647 26.381 41.5155 26.2562C41.5663 26.1273 41.4686 25.9674 41.293 25.8971C41.1217 25.8266 40.9429 25.8776 40.8876 26.0055L40.8872 26.0065Z" fill="#D1ECA9"/>
<path fill-rule="evenodd" clip-rule="evenodd" d="M40.9067 25.8893C40.8559 26.0142 40.9536 26.1781 41.1292 26.2443C41.3009 26.3146 41.4804 26.2678 41.5351 26.1391C41.5858 26.0102 41.4881 25.8503 41.3126 25.7799C41.1413 25.7094 40.9581 25.7604 40.9072 25.8883L40.9067 25.8893Z" fill="#86A338"/>
<path fill-rule="evenodd" clip-rule="evenodd" d="M43.709 15.552C43.6582 15.6769 43.7558 15.8369 43.9275 15.9071C44.0992 15.9774 44.2826 15.9305 44.3334 15.8017C44.3842 15.673 44.2865 15.5129 44.1109 15.4427C43.9386 15.3712 43.7597 15.4221 43.7088 15.5511L43.709 15.552Z" fill="#D1ECA9"/>
<path fill-rule="evenodd" clip-rule="evenodd" d="M43.7242 15.4348C43.6734 15.5636 43.7711 15.7236 43.9467 15.79C44.1184 15.8602 44.3017 15.8134 44.3526 15.6846C44.4033 15.5558 44.3056 15.3958 44.13 15.3256C43.9587 15.2583 43.7755 15.305 43.7246 15.434L43.7242 15.4348Z" fill="#86A338"/>
<path fill-rule="evenodd" clip-rule="evenodd" d="M40.7084 10.6423C40.6576 10.7672 40.7552 10.9311 40.9269 10.9974C41.0986 11.0677 41.2821 11.0208 41.3328 10.892C41.3835 10.7633 41.286 10.6032 41.1141 10.533C40.9385 10.4623 40.7586 10.5131 40.7087 10.6418L40.7084 10.6423Z" fill="#D1ECA9"/>
<path fill-rule="evenodd" clip-rule="evenodd" d="M40.7279 10.5257C40.6772 10.6544 40.7747 10.8145 40.9464 10.8808C41.1181 10.951 41.3016 10.9042 41.3523 10.7754C41.403 10.6466 41.3055 10.4866 41.1299 10.4164C40.9575 10.3498 40.7775 10.3967 40.7277 10.5254L40.7279 10.5257Z" fill="#86A338"/>
<path fill-rule="evenodd" clip-rule="evenodd" d="M46.2533 25.8229C46.2025 25.9517 46.3002 26.1117 46.4719 26.1779C46.6436 26.2482 46.8269 26.2014 46.8778 26.0724C46.9285 25.9436 46.8308 25.7836 46.6552 25.7135C46.4839 25.6474 46.304 25.694 46.2531 25.823L46.2533 25.8229Z" fill="#D1ECA9"/>
<path fill-rule="evenodd" clip-rule="evenodd" d="M46.2695 25.7061C46.2188 25.8348 46.3163 25.9948 46.4919 26.065C46.6637 26.1314 46.8471 26.0847 46.8978 25.9557C46.9486 25.8269 46.851 25.6669 46.6754 25.6007C46.5041 25.5302 46.3241 25.5768 46.2699 25.7058L46.2695 25.7061Z" fill="#86A338"/>
</g>
<defs>
<clipPath id="clip0_401_5961">
<rect width="50" height="40.8735" fill="white"/>
</clipPath>
</defs>
</svg>
