<svg width="50" height="54" viewBox="0 0 50 54" fill="none" xmlns="http://www.w3.org/2000/svg">
<g clip-path="url(#clip0_401_5947)">
<path d="M0 0V0.0565811C0.0137881 0.0420673 0.0420673 0.0137881 0.0565811 0H0ZM37.1303 0.213399C36.5724 0.465213 36.3199 1.06025 35.9971 1.53775C36.3774 2.45357 37.2546 3.3882 36.818 4.44846C36.3536 5.3824 35.8781 6.34542 35.9501 7.42756C35.7956 10.7292 33.9768 13.5739 32.5144 16.4203C32.4122 17.0369 32.0383 17.5623 31.4334 17.7742C31.0502 18.0766 30.5393 18.2607 30.328 18.7332C30.3222 19.099 30.7228 19.2766 30.8691 19.5855C31.6743 19.312 32.2038 18.5643 32.9991 18.2607C33.9402 16.6659 35.2163 15.2313 35.8061 13.449C36.8598 13.5861 36.8163 15.2197 37.8688 15.4699C41.3329 16.9474 45.5901 16.5051 48.7681 14.5173C49.982 13.9042 49.8398 12.4226 49.0508 11.5437C47.2993 9.49955 44.7605 7.40492 41.8491 8.25021C40.0319 8.42379 38.4308 9.34106 37.0183 10.3779C37.7544 8.57125 38.144 6.63801 38.3907 4.70826C38.4081 3.20754 38.5219 1.20103 37.1303 0.213399V0.213399ZM42.18 9.8819C44.4755 9.88307 47.1251 10.7382 48.0424 12.9925C47.7475 13.4935 46.9579 13.677 46.3965 13.785C46.3559 13.3112 46.4726 12.8154 46.3565 12.3562C45.5965 11.814 44.1718 12.459 44.3652 13.4726C44.166 14.4497 45.4392 13.7733 45.8671 14.0613C43.5826 14.632 41.0798 14.6151 38.8679 13.7484C38.5945 13.533 37.8816 13.4262 37.9733 13.0064C39.7179 12.8677 41.3806 13.6636 43.106 13.5225C43.5866 13.0215 43.4549 12.2053 43.5071 11.5556C41.78 11.5109 40.0523 11.5516 38.3251 11.5417C38.8064 10.3313 40.3164 10.034 41.481 9.90861C41.7086 9.89061 41.9425 9.8819 42.18 9.8819V9.8819Z" fill="#029833"/>
<path d="M20.3142 11.748C14.4512 11.7858 8.56205 14.011 4.69674 18.4848C1.07921 22.7408 -0.275685 28.6136 0.381035 34.0865C1.07555 41.539 5.83404 48.5573 12.6597 51.7086C16.2463 53.3962 20.3578 53.8972 24.2562 53.2104C34.3677 51.4705 42.5093 42.1318 43.0162 31.9094C43.2275 28.2874 41.9683 24.5341 39.3285 21.9936C37.6971 20.0993 35.5166 18.6206 32.9993 18.2607C32.204 18.5643 31.6745 19.312 30.8693 19.5855C30.723 19.2766 30.3224 19.099 30.3282 18.7332C30.2492 18.9811 30.0298 19.1083 29.7755 19.0978C29.7778 18.8412 30.1279 18.6624 29.995 18.3924C28.759 18.0836 27.5334 17.7358 26.2347 17.8456C25.927 17.4049 26.3363 16.6328 25.7941 16.3321C24.9093 16.5625 24.0942 16.2415 23.3064 15.881C19.4429 14.9289 15.469 16.0818 11.6954 16.9341C11.5445 16.9376 10.6986 17.146 11.0818 16.8139C13.7511 15.4624 16.741 14.9254 19.6693 14.4435C22.7369 14.0551 26.0757 14.5051 28.7137 16.2067C29.3866 16.6223 30.1076 17.7707 30.9929 17.2255C31.2379 17.2302 31.3744 17.5553 31.4336 17.7742C32.0385 17.5623 32.4124 17.0369 32.5146 16.4203C31.3314 14.4592 29.1752 13.3794 27.0626 12.7054C24.8989 12.0534 22.6086 11.7335 20.3143 11.748H20.3142ZM17.4184 17.1176C19.5472 17.11 21.639 18.0731 23.7551 17.5756C23.693 18.2937 22.7217 18.0459 22.2456 18.1817C20.1824 18.2084 18.2178 18.8952 16.1905 19.1605C15.9716 18.7559 16.3409 18.1387 15.9223 17.8514C13.8027 17.9123 11.7841 18.7663 10.0105 19.8804C8.22649 20.9811 6.93418 22.703 5.16699 23.8194C4.90504 24.0604 3.85929 24.2699 4.50876 23.6691C7.72257 20.5602 11.7268 17.9065 16.2318 17.2371C16.6289 17.1535 17.0243 17.1193 17.4185 17.1176H17.4184ZM26.7078 19.0775C27.2843 19.0792 27.852 19.2447 28.3769 19.4752C27.8602 19.5146 26.8367 19.474 26.5922 19.0792C26.6306 19.0775 26.6695 19.0769 26.7078 19.0775V19.0775ZM30.1893 19.8827C30.774 19.8787 30.32 20.3599 30.129 19.8845C30.1504 19.8833 30.1702 19.8827 30.1893 19.8827ZM31.9124 20.191C33.7144 20.1771 35.6413 20.836 36.7751 22.2241C35.4091 22.2705 34.0982 21.2604 32.7171 20.9103C32.2869 20.6943 31.5502 20.6845 31.3586 20.2171C31.5414 20.2014 31.7261 20.1927 31.9124 20.191ZM24.7031 20.5782C26.1069 20.591 27.4729 21.0868 28.8831 21.139C28.8802 21.2389 28.875 21.4374 28.8721 21.5367C24.0152 21.4978 19.1589 22.2734 14.5655 23.8578C14.3287 23.8264 13.7417 24.2386 13.6535 23.9582C17.0079 22.1068 20.7629 20.9916 24.5667 20.5782C24.612 20.5776 24.6578 20.5776 24.7031 20.5782V20.5782ZM16.2677 20.9051C16.414 20.9097 16.2555 21.1675 16.1034 21.1959C11.5072 23.1634 7.10951 25.7567 3.57569 29.3376C3.09807 29.6766 2.77076 30.2096 2.24757 30.4737C5.31938 25.683 10.3422 21.9936 16.0084 21.0032C16.1361 20.9306 16.2191 20.9039 16.2679 20.9051H16.2677ZM28.9661 22.7059C30.5754 22.7332 32.187 22.6885 33.7951 22.7263C34.0552 23.1425 33.7917 23.9652 34.3078 24.2543C34.5081 23.69 35.1769 23.6157 35.6465 23.8549C36.5295 24.2967 37.5972 23.9013 38.4732 24.3739C39.5972 24.7756 40.3176 25.8287 40.7409 26.8935C42.0303 30.9236 41.567 35.5152 39.585 39.2331C39.1827 38.9701 39.0044 38.0296 38.2915 37.9628C36.4471 37.6964 34.7438 38.6415 32.9783 39.0014C30.2811 39.6923 27.5815 40.3762 24.8831 41.0682C19.9397 41.9594 14.9905 40.7135 10.0576 40.4348C8.65088 40.418 7.1577 40.3454 5.81082 40.2096C6.56669 38.8621 8.55044 39.0055 9.91299 39.1408C14.9731 39.9878 20.1655 41.3852 25.2901 40.1678C29.8184 39.1373 34.3641 38.1289 38.778 36.6734C39.5147 36.5625 40.0558 35.9541 40.2695 35.2795C40.0314 34.912 39.5414 34.5295 39.0828 34.7953C38.0994 35.3405 37.0753 35.8293 35.989 36.1358C30.4297 37.7852 24.6706 38.8946 18.8639 39.0154C16.6915 39.0752 14.6224 38.3518 12.4755 38.1875C12.0506 38.0952 12.8152 37.9042 12.8883 37.9164C14.1841 37.7469 15.4724 37.4072 16.785 37.4456C17.4422 37.4549 17.5467 38.7657 18.2416 38.3477C19.0735 37.9576 19.9362 37.4206 20.893 37.5733C21.6384 38.2787 22.742 37.636 23.6279 37.5617C26.8436 36.7205 30.4866 37.3567 33.4172 35.5901C33.1124 34.8215 32.3931 34.0668 31.8259 33.4212C28.5499 34.4081 25.0904 35.0299 21.6616 35.1814C18.3635 34.6014 15.2146 35.8775 11.978 36.227C12.5173 35.6383 13.4433 35.4554 14.169 35.1402C21.5322 32.7205 29.398 32.6177 37.0648 32.7117C37.3412 32.0964 36.6933 31.3416 36.0895 31.1088C32.6044 29.6987 28.7641 29.4821 25.0515 29.7672C21.4085 30.0366 17.7516 30.5341 14.2729 31.69C11.4578 32.5811 8.5754 33.6482 6.38614 35.7033C5.74173 36.2984 5.07485 36.8702 4.39195 37.4189C4.25773 37.4769 4.2824 37.3573 4.30638 37.2691C5.22144 35.8456 6.65088 34.8888 7.96815 33.8752C10.4413 31.5559 13.6459 30.2519 16.8343 29.243C21.1989 27.9541 25.7673 27.2952 30.3165 27.5884C32.2915 27.8171 34.2201 28.3303 36.169 28.7059C36.9371 28.9713 35.6407 29.9187 36.1655 30.3199C37.2889 30.1405 38.3594 30.8261 39.4898 30.5916C39.6378 30.1997 39.9734 29.8473 39.9763 29.4218C39.0004 28.8731 37.8515 28.6374 36.7397 28.566C36.5696 28.0575 37.0741 27.6749 37.0387 27.1721C37.9786 27.2145 38.3861 26.3193 38.2108 25.521C37.776 25.3556 37.2912 25.1756 36.8274 25.2865C36.7438 25.8717 36.8187 26.4673 36.7919 27.0572C35.9687 27.0816 35.477 26.2839 34.6857 26.1991C30.349 25.3457 25.9008 25.4398 21.5014 25.4862C20.2636 25.6058 19.0573 25.9077 17.8503 26.1951C17.9217 25.9501 18.2311 25.8763 18.4355 25.762C21.2674 24.638 24.3693 24.4668 27.369 24.1596C28.7873 23.9077 30.2706 25.3027 31.5803 24.5341C31.9751 22.8308 29.5705 23.3933 28.9661 22.7059V22.7059ZM17.3876 24.4221C18.0059 24.418 16.7171 24.93 16.4175 25.0508C13.8462 26 11.7046 27.7463 9.47178 29.2848C7.12577 30.5103 4.75265 31.7713 2.62301 33.3057C3.68443 31.2476 5.74098 29.9181 7.62562 28.6711C10.6369 26.8238 13.8602 25.2145 17.3214 24.4238C17.3458 24.4226 17.3673 24.4221 17.3876 24.4221V24.4221ZM26.6515 31.0833C27.5182 31.1582 28.4245 30.9829 29.2715 31.2209C27.477 31.3991 25.5443 31.0154 23.7365 31.5054C23.0387 31.4885 22.1824 31.8798 21.5507 31.654C23.2227 31.2702 24.9412 31.146 26.6515 31.0833V31.0833ZM38.5092 31.2801C38.0843 31.7445 38.1353 32.5724 38.1278 33.193C38.9748 33.2087 39.8439 32.8836 40.7002 32.7959C41.3696 32.7524 40.9464 31.957 40.7554 31.5971C40.0964 31.1721 39.2494 31.3416 38.5092 31.2801ZM5.88455 33.02C5.99079 33.0369 5.88281 33.2923 5.78167 33.3533C4.68008 34.6369 3.63003 36.0232 2.39056 37.164C2.27224 36.6943 2.10167 36.1707 2.21488 35.6865C3.47032 34.9062 4.4471 33.7364 5.77442 33.052C5.82417 33.0252 5.86016 33.0165 5.88455 33.02ZM13.9647 33.2563C15.1118 33.3434 12.7397 33.7904 13.9647 33.2563V33.2563ZM11.8619 34.119C11.9809 34.1231 12.1104 34.1759 11.841 34.2345C11.0793 34.6061 10.3136 34.9858 9.5217 35.2882C10.1144 34.7019 10.9986 34.4563 11.7615 34.1324C11.7835 34.1213 11.8218 34.1173 11.8619 34.119V34.119ZM39.196 39.7945C39.5095 39.8955 38.9173 40.6334 38.8117 40.9149C37.2152 42.9823 34.9516 44.4511 33.495 46.6514C32.9023 46.8499 33.149 45.7684 32.5504 46.0412C29.405 47.1535 25.9078 47.3254 22.7258 46.7518C23.3638 46.5445 23.9769 46.2589 24.634 46.112C29.7893 44.7866 34.5406 42.3013 39.196 39.7945ZM3.71793 39.9779C4.42185 40.3193 3.1033 40.6467 3.71793 39.9779V39.9779ZM30.3171 41.7207C30.4134 41.7271 30.439 41.8891 30.302 41.91C27.466 43.2964 24.396 44.1678 21.2994 44.7367C17.1333 45.4508 12.6375 44.7263 9.14376 42.285C14.2062 42.2229 19.3818 43.5594 24.5139 43.0131C26.4843 42.8906 28.2938 42.0058 30.2404 41.7445C30.2689 41.726 30.295 41.719 30.3171 41.7207V41.7207ZM12.565 46.2247C16.6956 46.7501 20.6544 48.2937 24.839 48.5115C24.9719 48.5573 25.2999 48.4563 25.3144 48.6241C21.6715 48.7025 17.9159 48.7117 14.4668 47.3614C13.8265 47.0845 12.8622 46.8731 12.565 46.2247V46.2247ZM28.6567 49.6261C28.7832 49.6279 28.8703 49.661 28.7229 49.7655C26.5975 50.9573 24.176 51.5443 21.7667 51.8125C21.2343 51.8688 21.747 51.0386 21.2355 50.8964C20.0761 50.4238 18.7687 50.4621 17.5821 50.0418C16.8651 49.9396 17.5867 49.8955 17.8102 49.9599C21.2953 50.7106 24.8994 50.4998 28.3519 49.6749C28.3635 49.654 28.5295 49.6244 28.6567 49.6261V49.6261Z" fill="#FD9833"/>
</g>
<defs>
<clipPath id="clip0_401_5947">
<rect width="50" height="53.7736" fill="white"/>
</clipPath>
</defs>
</svg>
