<?xml version="1.0" encoding="UTF-8"?>
<svg width="414px" height="226px" viewBox="0 0 414 226" version="1.1" xmlns="http://www.w3.org/2000/svg" xmlns:xlink="http://www.w3.org/1999/xlink">
    <title>Illustration 404</title>
    <defs>
        <linearGradient x1="50%" y1="0%" x2="50%" y2="100%" id="linearGradient-1">
            <stop stop-color="#C2C9D5" offset="0%"></stop>
            <stop stop-color="#8C99B2" offset="100%"></stop>
        </linearGradient>
        <linearGradient x1="50%" y1="0%" x2="50%" y2="100%" id="linearGradient-2">
            <stop stop-color="#C2C9D5" offset="0%"></stop>
            <stop stop-color="#8C99B2" offset="100%"></stop>
        </linearGradient>
        <path d="M61.0303491,60.7789954 C25.8370812,58.6685413 0.18024703,52.1065901 0.18024703,44.3386651 C0.18024703,32.5345414 13.5198489,22.6031328 33.2905617,16.2705788 C35.3035541,15.6252875 37.0831475,14.3776051 38.3424435,12.6604033 C39.8733525,10.5731869 41.4201349,8.70523835 42.6318105,7.30919262 C44.0827641,5.6384661 46.0281472,4.49445935 48.1810613,4.05711511 C48.45385,4.00170228 48.7278145,3.94688529 49.0023669,3.89266414 C60.2031644,1.67972609 72.5738962,0.462431412 85.265625,0.452302185 C85.2762073,0.452302185 85.2856138,0.452302185 85.2956082,0.452302185 C85.3103059,0.452302185 85.3261793,0.452302185 85.3402891,0.452302185 C85.366157,0.452302185 85.3902612,0.452302185 85.4155411,0.452302185 C85.441409,0.452302185 85.4655132,0.452302185 85.4913811,0.452302185 C85.5054909,0.452302185 85.5213643,0.452302185 85.5354741,0.452302185 C85.5460564,0.452302185 85.5554629,0.452302185 85.5660453,0.452302185 C90.7707828,0.456473043 95.9226088,0.663824266 100.961557,1.05945993 C107.302718,1.5569837 113.465155,2.35361756 119.333052,3.41956968 C120.170819,3.57150808 121.003294,3.72940484 121.828715,3.89266414 C122.103268,3.94688529 122.376644,4.00170228 122.649433,4.05711511 C124.802935,4.49445935 126.748318,5.6384661 128.199272,7.30919262 C129.410947,8.70523835 130.95773,10.5731869 132.488639,12.6598075 C133.747347,14.3776051 135.527528,15.6252875 137.540521,16.2705788 C157.310645,22.6031328 170.650835,32.5345414 170.650835,44.3386651 C170.650835,51.9731227 145.864103,58.4427191 111.603255,60.6669781 L111.147627,59.4794752 C142.922806,57.3934504 165.79943,51.6025121 165.79943,45.2294412 C165.79943,37.2362899 129.810136,30.7565642 85.4155411,30.7565642 C41.0209462,30.7565642 5.03165271,37.2362899 5.03165271,45.2294412 C5.03165271,51.7222753 28.7789661,57.6109309 61.4853888,59.5932801 L61.0303491,60.7789954" id="path-3"></path>
        <radialGradient cx="50.3465971%" cy="82.8498622%" fx="50.3465971%" fy="82.8498622%" r="244.392733%" gradientTransform="translate(0.503466,0.828499),scale(0.353883,1.000000),scale(1.000000,0.321712),translate(-0.503466,-0.828499)" id="radialGradient-5">
            <stop stop-color="#256395" offset="0%"></stop>
            <stop stop-color="#0E1723" offset="100%"></stop>
        </radialGradient>
        <linearGradient x1="50%" y1="0%" x2="50%" y2="102.700365%" id="linearGradient-6">
            <stop stop-color="#D5DBE8" stop-opacity="0.5" offset="0%"></stop>
            <stop stop-color="#D4DAE8" offset="44.9271934%"></stop>
            <stop stop-color="#D4DAE8" stop-opacity="0.96" offset="74.2958246%"></stop>
            <stop stop-color="#D4DAE8" offset="100%"></stop>
        </linearGradient>
        <path d="M0.667137659,0.264790619 L57.1033756,0.264790619 L57.1033756,33.4634786 C57.1033756,35.2969914 55.6996331,36.7833474 53.9680291,36.7833474 L3.80248421,36.7833474 C2.07088013,36.7833474 0.667137659,35.2969914 0.667137659,33.4634786 L0.667137659,0.264790619 L0.667137659,0.264790619 Z" id="path-7"></path>
        <filter x="-101.0%" y="-156.1%" width="302.0%" height="412.2%" filterUnits="objectBoundingBox" id="filter-9">
            <feOffset dx="0" dy="0" in="SourceAlpha" result="shadowOffsetOuter1"></feOffset>
            <feGaussianBlur stdDeviation="19" in="shadowOffsetOuter1" result="shadowBlurOuter1"></feGaussianBlur>
            <feColorMatrix values="0 0 0 0 0.168627451   0 0 0 0 0.235294118   0 0 0 0 0.337254902  0 0 0 0.12 0" type="matrix" in="shadowBlurOuter1"></feColorMatrix>
        </filter>
        <path d="M4.07568865,-3.20892156e-12 L54.2412335,-3.20892156e-12 C55.9728375,-3.20892156e-12 57.37658,1.72104366 57.37658,3.84405861 L57.37658,9.61014652 L57.37658,9.61014652 L0.940342094,9.61014652 L0.940342094,3.84405861 C0.940342094,1.72104366 2.34408456,-3.20892156e-12 4.07568865,-3.20892156e-12 Z" id="path-10"></path>
        <filter x="-101.0%" y="-593.1%" width="302.0%" height="1286.2%" filterUnits="objectBoundingBox" id="filter-11">
            <feOffset dx="0" dy="0" in="SourceAlpha" result="shadowOffsetOuter1"></feOffset>
            <feGaussianBlur stdDeviation="19" in="shadowOffsetOuter1" result="shadowBlurOuter1"></feGaussianBlur>
            <feColorMatrix values="0 0 0 0 0.168627451   0 0 0 0 0.235294118   0 0 0 0 0.337254902  0 0 0 0.12 0" type="matrix" in="shadowBlurOuter1"></feColorMatrix>
        </filter>
        <linearGradient x1="50%" y1="-12.9750845%" x2="50%" y2="100%" id="linearGradient-12">
            <stop stop-color="#F3F8FF" offset="0%"></stop>
            <stop stop-color="#EEF1F9" offset="18.1431642%"></stop>
            <stop stop-color="#D3D9E7" offset="100%"></stop>
        </linearGradient>
    </defs>
    <g id="Desktop-1344" stroke="none" stroke-width="1" fill="none" fill-rule="evenodd">
        <g id="[E]-13.1.-Page-404" transform="translate(-465.000000, -208.000000)">
            <g id="Group-12" transform="translate(465.000000, 208.000000)">
                <g id="Group-7">
                    <path d="M84.1524501,189.984064 L84.1524501,156.797408 L101.019608,156.797408 L101.019608,137.393188 L84.1524501,137.393188 L84.1524501,61.2270916 L56.1016334,61.2270916 L0,142.470928 L0,156.797408 L60.8684388,156.797408 L60.8684388,189.984064 L84.1524501,189.984064 Z M60.8525717,137.474237 L24.7098321,137.474237 L24.7098321,137.107241 L54.9517162,95.453164 C58.4553492,90.4987143 61.4057769,83.5257851 61.4057769,83.5257851 L61.7745803,83.5257851 C61.7745803,83.5257851 60.8525717,90.6822124 60.8525717,97.1046472 L60.8525717,137.474237 Z" id="4" fill="url(#linearGradient-1)" fill-rule="nonzero" opacity="0.731933594"></path>
                    <ellipse id="Oval" fill="#2B3C56" cx="209.254902" cy="125.605578" rx="82.9803922" ry="82.3864542"></ellipse>
                    <path d="M397.132842,189.984064 L397.132842,156.797408 L414,156.797408 L414,137.393188 L397.132842,137.393188 L397.132842,61.2270916 L369.082026,61.2270916 L312.980392,142.470928 L312.980392,156.797408 L373.848831,156.797408 L373.848831,189.984064 L397.132842,189.984064 Z M373.832964,137.474237 L337.690224,137.474237 L337.690224,137.107241 L367.932108,95.453164 C371.435741,90.4987143 374.386169,83.5257851 374.386169,83.5257851 L374.754972,83.5257851 C374.754972,83.5257851 373.832964,90.6822124 373.832964,97.1046472 L373.832964,137.474237 Z" id="4-copy" fill="url(#linearGradient-2)" fill-rule="nonzero" opacity="0.731933594"></path>
                    <g id="437903-PFBDOP-398" transform="translate(120.862745, 0.000000)">
                        <path d="M130.784314,15.7569721 C128.078431,5.40239044 104.161361,0 85.6862745,0 C67.2105421,0 44.1960784,6.30278884 40.1372549,16.6573705 C52.5050401,14.5439805 73.0945982,8.60642897 87.1112059,8.60642897 C101.127814,8.60642897 118.417175,13.6435821 130.784314,15.7569721 Z" id="Fill-5" fill="#0E1723"></path>
                        <g id="Group-11" transform="translate(0.721714, 4.950088)">
                            <mask id="mask-4" fill="white">
                                <use xlink:href="#path-3"></use>
                            </mask>
                            <g id="Clip-10"></g>
                            <path d="M0.18024703,44.3386651 C0.18024703,32.5345414 13.5198489,22.6031328 33.2905617,16.2705788 C35.3035541,15.6252875 37.0831475,14.3776051 38.3424435,12.6604033 C39.8733525,10.5731869 41.4201349,8.70523835 42.6318105,7.30919262 C44.0827641,5.6384661 46.0281472,4.49445935 48.1810613,4.05711511 C48.45385,4.00170228 48.7278145,3.94688529 49.0023669,3.89266414 C60.2031644,1.67972609 72.5738962,0.462431412 85.265625,0.452302185 C85.2762073,0.452302185 85.2856138,0.452302185 85.2956082,0.452302185 C85.3103059,0.452302185 85.3261793,0.452302185 85.3402891,0.452302185 C85.366157,0.452302185 85.3902612,0.452302185 85.4155411,0.452302185 C85.441409,0.452302185 85.4655132,0.452302185 85.4913811,0.452302185 C85.5054909,0.452302185 85.5213643,0.452302185 85.5354741,0.452302185 C85.5460564,0.452302185 85.5554629,0.452302185 85.5660453,0.452302185 C90.7707828,0.456473043 95.9226088,0.663824266 100.961557,1.05945993 C107.302718,1.5569837 113.465155,2.35361756 119.333052,3.41956968 C120.170819,3.57150808 121.003294,3.72940484 121.828715,3.89266414 C122.103268,3.94688529 122.376644,4.00170228 122.649433,4.05711511 C124.802935,4.49445935 126.748318,5.6384661 128.199272,7.30919262 C129.410947,8.70523835 130.95773,10.5731869 132.488639,12.6598075 C133.747347,14.3776051 135.527528,15.6252875 137.540521,16.2705788 C157.310645,22.6031328 170.650835,32.5345414 170.650835,44.3386651 C170.650835,51.9731227 145.864103,58.4427191 111.603255,60.6669781 L111.147627,59.4794752 C142.922806,57.3934504 165.79943,51.6025121 165.79943,45.2294412 C165.79943,37.2362899 129.810136,30.7565642 85.4155411,30.7565642 C41.0209462,30.7565642 5.03165271,37.2362899 5.03165271,45.2294412 C5.03165271,51.7222753 28.7789661,57.6109309 61.4853888,59.5932801 L61.0303491,60.7789954 C25.8370812,58.6685413 0.18024703,52.1065901 0.18024703,44.3386651 Z" id="Fill-9" fill="url(#radialGradient-5)" mask="url(#mask-4)"></path>
                        </g>
                        <path d="M85.779562,66.1771799 C41.0725311,66.1771799 4.32955689,60.0866585 4.32955689,49.5576417 C4.32955689,39.0294097 40.8681129,28.3604468 85.5751438,28.3604468 C130.282175,28.3604468 168.48642,39.0294097 168.48642,49.5576417 C168.48642,60.0866585 130.486593,66.1771799 85.779562,66.1771799 Z" id="Fill-12" fill="#66D1B9"></path>
                        <path d="M142.079323,22.613788 C139.789733,21.9017985 137.500612,21.1887882 135.20211,20.5155881 C132.899386,19.8617826 130.593848,19.2166538 128.264386,18.6884035 C123.618128,17.5737188 118.913704,16.7601623 114.186764,16.1864876 C104.728193,15.0488355 95.2020737,14.7119803 85.6862745,14.7053452 C76.1704754,14.713001 66.6443564,15.0483251 57.1862543,16.1875084 C52.458376,16.7611831 47.7544209,17.5742292 43.1081628,18.6894243 C40.7791703,19.2171642 38.4736318,19.862293 36.1704388,20.5160985 C33.8719366,21.1892986 31.582816,21.9017985 29.2932264,22.613788 C31.5715581,21.8619884 33.8503588,21.1091679 36.1399485,20.3956472 C38.434229,19.7015212 40.7327312,19.015051 43.0579711,18.4454594 C47.7028218,17.2776945 52.4114678,16.4202447 57.1440369,15.7975729 C66.6162115,14.5751966 76.1601555,14.2434452 85.6862745,14.1954689 C95.2128626,14.244466 104.756807,14.5746862 114.228512,15.7985937 C118.961081,16.4212655 123.670196,17.2782049 128.314109,18.4464802 C130.639349,19.0160718 132.93832,19.7020316 135.232131,20.3961576 C137.52219,21.1096783 139.800991,21.8619884 142.079323,22.613788" id="Fill-13" fill="#66D1B9"></path>
                        <path d="M91.819753,33.7630974 C91.819753,34.7575557 89.3966997,35.5636341 86.4082208,35.5636341 C83.4192769,35.5636341 80.9962236,34.7575557 80.9962236,33.7630974 C80.9962236,32.7686392 83.4192769,31.9620404 86.4082208,31.9620404 C89.3966997,31.9620404 91.819753,32.7686392 91.819753,33.7630974" id="Fill-15" fill="#F8F9FB"></path>
                        <path d="M45.0980392,37.8167331 C45.0980392,38.8114481 47.5207567,39.6175299 50.51031,39.6175299 C53.4988512,39.6175299 55.9215686,38.8114481 55.9215686,37.8167331 C55.9215686,36.822018 53.4988512,36.0159363 50.51031,36.0159363 C47.5207567,36.0159363 45.0980392,36.822018 45.0980392,37.8167331" id="Fill-17" fill="#F8F9FB"></path>
                        <path d="M20.745098,46.8204032 C20.745098,47.8148122 22.7639458,48.6215139 25.2544345,48.6215139 C27.7453907,48.6215139 29.7647059,47.8148122 29.7647059,46.8204032 C29.7647059,45.8259943 27.7453907,45.0199203 25.2544345,45.0199203 C22.7639458,45.0199203 20.745098,45.8259943 20.745098,46.8204032" id="Fill-19" fill="#F8F9FB"></path>
                        <path d="M39.5060275,58.0737847 C39.5060275,58.5709372 41.1212629,58.9739926 43.1136437,58.9739926 C45.1064784,58.9739926 46.7217138,58.5709372 46.7217138,58.0737847 C46.7217138,57.5762513 45.1064784,57.1731958 43.1136437,57.1731958 C41.1212629,57.1731958 39.5060275,57.5762513 39.5060275,58.0737847" id="Fill-21" fill="#F8F9FB"></path>
                        <path d="M125.372546,38.7169679 C125.372546,39.7116835 122.949269,40.5178389 119.96073,40.5179292 C116.971684,40.5180196 114.549022,39.7120106 114.549022,38.7172951 C114.549022,37.7225795 116.971793,36.9164241 119.960839,36.9163337 C122.949378,36.9162434 125.372546,37.7222523 125.372546,38.7169679" id="Fill-23" fill="#F8F9FB" transform="translate(119.960784, 38.717131) rotate(1.000000) translate(-119.960784, -38.717131) "></path>
                        <path d="M148.823529,46.8204032 C148.823529,47.8148122 146.804214,48.6215139 144.313258,48.6215139 C141.822769,48.6215139 139.803922,47.8148122 139.803922,46.8204032 C139.803922,45.8259943 141.822769,45.0199203 144.313258,45.0199203 C146.804214,45.0199203 148.823529,45.8259943 148.823529,46.8204032" id="Fill-25" fill="#F8F9FB"></path>
                        <path d="M134.392157,58.5260869 C134.392157,59.0232394 132.777375,59.4262948 130.784541,59.4262948 C128.791706,59.4262948 127.176471,59.0232394 127.176471,58.5260869 C127.176471,58.0285534 128.791706,57.625498 130.784541,57.625498 C132.777375,57.625498 134.392157,58.0285534 134.392157,58.5260869" id="Fill-27" fill="#F8F9FB"></path>
                        <path d="M115.762567,45.5710552 C115.762567,48.3319798 102.297113,50.7759781 85.6862745,50.7759781 C69.0754362,50.7759781 55.6099822,48.3319798 55.6099822,45.5710552 C55.6099822,42.8110586 69.0754362,40.5730856 85.6862745,40.5730856 C102.297113,40.5730856 115.762567,42.8110586 115.762567,45.5710552" id="Fill-29" fill="#FFFFFE"></path>
                        <path d="M115.61893,45.0260668 L115.633707,45.0262726 L148.823529,214.294821 L27.9607843,214.294821 L55.8769413,45.7145045 C55.7278001,45.5250862 55.6509804,45.3332504 55.6509804,45.1398625 C55.6509804,42.6013603 68.896263,40.5591347 85.20237,40.5185441 L85.6974209,40.5179283 C101.938157,40.5179283 115.157812,42.5244203 115.61893,45.0260668 Z" id="Combined-Shape" fill="url(#linearGradient-6)"></path>
                    </g>
                    <g id="Group-5-Copy" transform="translate(164.156863, 83.737052)">
                        <g id="Group-9" transform="translate(43.800447, 41.701595) rotate(-29.000000) translate(-43.800447, -41.701595) translate(9.525937, 13.789244)">
                            <g id="Group-6" transform="translate(35.376755, 27.956826) rotate(6.000000) translate(-35.376755, -27.956826) translate(5.161068, 3.646069)">
                                <g id="Group-10" transform="translate(0.020786, 0.298402)">
                                    <g id="window" transform="translate(0.557983, 0.224650)">
                                        <g id="Oval" transform="translate(0.273204, 9.345356)">
                                            <mask id="mask-8" fill="white">
                                                <use xlink:href="#path-7"></use>
                                            </mask>
                                            <g id="Mask" fill-rule="nonzero">
                                                <use fill="black" fill-opacity="1" filter="url(#filter-9)" xlink:href="#path-7"></use>
                                                <use fill="#FFFFFF" xlink:href="#path-7"></use>
                                            </g>
                                        </g>
                                        <g id="Rectangle-Copy-13" fill-rule="nonzero">
                                            <use fill="black" fill-opacity="1" filter="url(#filter-11)" xlink:href="#path-10"></use>
                                            <use fill="#D1EEE8" xlink:href="#path-10"></use>
                                        </g>
                                    </g>
                                    <g id="Group" transform="translate(20.666416, 17.248968)" fill="#4E545C">
                                        <g id="Group-3" transform="translate(0.696693, 0.384193)">
                                            <path d="M2.22722404,1.18512239 C2.92770749,1.04501466 3.61214859,1.48897877 3.769807,2.18572195 L4.43549137,5.1275951 C4.58812796,5.80214522 4.16503344,6.47271254 3.49048332,6.62534912 C3.4802558,6.6276634 3.46999963,6.62984911 3.45971721,6.63190576 C2.75923377,6.77201349 2.07479267,6.32804938 1.91713426,5.6313062 L1.25144989,2.68943305 C1.0988133,2.01488293 1.52190782,1.34431561 2.19645794,1.19167902 C2.20668545,1.18936475 2.21694163,1.18717904 2.22722404,1.18512239 Z" id="Rectangle" transform="translate(2.843471, 3.908514) rotate(12.000000) translate(-2.843471, -3.908514) "></path>
                                            <path d="M14.489795,1.47644612 C15.1902784,1.33633839 15.8747195,1.7803025 16.032378,2.47704567 L16.6980623,5.41891882 C16.8506989,6.09346894 16.4276044,6.76403626 15.7530543,6.91667285 C15.7428268,6.91898712 15.7325706,6.92117284 15.7222882,6.92322948 C15.0218047,7.06333721 14.3373636,6.6193731 14.1797052,5.92262993 L13.5140208,2.98075678 C13.3613843,2.30620666 13.7844788,1.63563934 14.4590289,1.48300275 C14.4692564,1.48068848 14.4795126,1.47850276 14.489795,1.47644612 Z" id="Rectangle-Copy-10" transform="translate(15.106042, 4.199838) rotate(12.000000) translate(-15.106042, -4.199838) "></path>
                                            <rect id="Rectangle" x="6.76644334" y="11.6154298" width="4.78308623" height="7.50597909" rx="2.39154311"></rect>
                                        </g>
                                    </g>
                                </g>
                            </g>
                        </g>
                    </g>
                    <g id="Group-5" opacity="0.286551339" transform="translate(194.823529, 194.486056)">
                        <g id="Group-4" transform="translate(0.000000, 2.210069)"></g>
                        <g id="Group-2" transform="translate(25.809955, 0.000000)"></g>
                    </g>
                    <ellipse id="Oval" fill="url(#linearGradient-12)" cx="209.254902" cy="214.74502" rx="60.4313725" ry="11.2549801"></ellipse>
                    <g id="Group-8" transform="translate(194.823529, 173.776892)" fill="#FFFFFF" fill-opacity="0.65">
                        <rect id="Rectangle" transform="translate(0.901961, 7.203187) scale(-1, 1) translate(-0.901961, -7.203187) " x="0" y="0" width="1.80392157" height="14.4063745" rx="0.901960784"></rect>
                        <rect id="Rectangle-Copy" transform="translate(0.901961, 20.258964) scale(-1, 1) translate(-0.901961, -20.258964) " x="0" y="17.1075697" width="1.80392157" height="6.30278884" rx="0.901960784"></rect>
                    </g>
                    <g id="Group-9" transform="translate(221.882353, 176.478088)" fill="#FFFFFF" fill-opacity="0.65">
                        <rect id="Rectangle-Copy-3" transform="translate(0.901961, 6.752988) scale(-1, 1) translate(-0.901961, -6.752988) " x="0" y="0" width="1.80392157" height="13.5059761" rx="0.901960784"></rect>
                        <rect id="Rectangle-Copy-4" transform="translate(0.901961, 18.908367) scale(-1, 1) translate(-0.901961, -18.908367) " x="0" y="16.2071713" width="1.80392157" height="5.40239044" rx="0.901960784"></rect>
                    </g>
                    <rect id="Rectangle-Copy-2" fill-opacity="0.65" fill="#FFFFFF" transform="translate(209.254902, 176.928287) scale(-1, 1) translate(-209.254902, -176.928287) " x="208.352941" y="167.474104" width="1.80392157" height="18.9083665" rx="0.901960784"></rect>
                </g>
                <path d="M202.424076,77.0509428 L200.519806,75.8164378 C199.993957,75.4755386 199.290839,75.6247321 198.949348,76.1496708 L197.712701,78.0506418 C197.37121,78.5755805 197.520663,79.2774807 198.046512,79.6183799 L199.950782,80.8528849 C200.476631,81.1937841 201.179749,81.0445906 201.52124,80.5196519 L202.757887,78.6186809 C203.099378,78.0937422 202.949926,77.391842 202.424076,77.0509428 Z M201.282266,78.112506 L200.457835,79.3798201 L199.188322,78.5568167 L200.012753,77.2895027 L201.282266,78.112506 Z" id="Shape" fill-opacity="0.6" fill="#FFFFFF" fill-rule="nonzero"></path>
                <path d="M218.65937,59.0429747 L216.755101,57.8084697 C216.229251,57.4675705 215.526133,57.616764 215.184642,58.1417027 L213.947995,60.0426737 C213.606504,60.5676124 213.755957,61.2695126 214.281806,61.6104118 L216.186076,62.8449168 C216.711925,63.1858159 217.415044,63.0366224 217.756534,62.5116838 L218.993181,60.6107127 C219.334672,60.0857741 219.18522,59.3838738 218.65937,59.0429747 Z M217.51756,60.1045379 L216.693129,61.3718519 L215.423616,60.5488486 L216.248047,59.2815345 L217.51756,60.1045379 Z" id="Shape-Copy" fill-opacity="0.6" fill="#FFFFFF" fill-rule="nonzero"></path>
                <path d="M186.520105,92.6975311 L186.150057,92.2073116 C185.8435,91.8012006 185.265196,91.7200661 184.858381,92.0260927 L184.36731,92.3954996 C183.960495,92.7015262 183.879219,93.2788279 184.185777,93.684939 L184.555825,94.1751585 C184.862383,94.5812696 185.440686,94.662404 185.847502,94.3563774 L186.338572,93.9869705 C186.745388,93.6809439 186.826663,93.1036422 186.520105,92.6975311 Z" id="Path" fill-opacity="0.45" fill="#FFFFFF"></path>
                <path d="M192.833831,53.9803996 L192.463783,53.4901802 C192.157225,53.0840691 191.578922,53.0029346 191.172106,53.3089613 L190.681036,53.6783681 C190.27422,53.9843948 190.192945,54.5616965 190.499503,54.9678076 L190.86955,55.458027 C191.176108,55.8641381 191.754412,55.9452726 192.161227,55.6392459 L192.652297,55.2698391 C193.059113,54.9638124 193.140388,54.3865107 192.833831,53.9803996 Z" id="Path-Copy-2" fill-opacity="0.45" fill="#FFFFFF"></path>
                <path d="M223.500497,75.5899614 L223.13045,75.0997419 C222.823892,74.6936308 222.245588,74.6124964 221.838773,74.918523 L221.347703,75.2879299 C220.940887,75.5939565 220.859612,76.1712582 221.166169,76.5773693 L221.536217,77.0675888 C221.842775,77.4736998 222.421078,77.5548343 222.827894,77.2488077 L223.318964,76.8794008 C223.72578,76.5733742 223.807055,75.9960724 223.500497,75.5899614 Z" id="Path-Copy" fill-opacity="0.45" fill="#FFFFFF"></path>
            </g>
        </g>
    </g>
</svg>